<svg xmlns="http://www.w3.org/2000/svg" xmlns:xlink="http://www.w3.org/1999/xlink" contentStyleType="text/css" data-diagram-type="ACTIVITY" height="1236px" preserveAspectRatio="none" style="width:1864px;height:1236px;background:#FFFFFF;" version="1.1" viewBox="0 0 1864 1236" width="1864px" zoomAndPan="magnify"><?plantuml 1.2026.6?><defs/><g><g class="title" data-source-line="43"><text fill="#000000" font-family="Helvetica" font-size="14" font-weight="700" lengthAdjust="spacing" textLength="211.5586" x="825.6664" y="32.9951">Refund Approval Workflow</text></g><rect fill="none" height="13.9688" style="stroke:none;stroke-width:1;" width="1817.8915" x="20" y="53.627"/><ellipse cx="252.9186" cy="82.5957" fill="#222222" rx="10" ry="10" style="stroke:#222222;stroke-width:1;"/><rect fill="#FFFFFF" height="33.9688" style="stroke:#181818;stroke-width:0.5;" width="155.4453" x="175.1959" y="112.5957"/><text fill="#000000" font-family="Helvetica" font-size="12" lengthAdjust="spacing" textLength="135.4453" x="185.1959" y="133.7344">Submit refund request</text><rect fill="#FFFFFF" height="33.9688" style="stroke:#181818;stroke-width:0.5;" width="107.8145" x="199.0114" y="166.5645"/><text fill="#000000" font-family="Helvetica" font-size="12" lengthAdjust="spacing" textLength="87.8145" x="209.0114" y="187.7031">Upload receipt</text><rect fill="#FFFFFF" height="33.9688" style="stroke:#181818;stroke-width:0.5;" width="164.7324" x="26" y="387.4707"/><text fill="#000000" font-family="Helvetica" font-size="12" lengthAdjust="spacing" textLength="144.7324" x="36" y="408.6094">Receive rejection notice</text><ellipse cx="108.3662" cy="467.4395" fill="none" rx="11" ry="11" style="stroke:#222222;stroke-width:1;"/><ellipse cx="108.3662" cy="467.4395" fill="#222222" rx="6" ry="6" style="stroke:#222222;stroke-width:1;"/><polygon fill="#FFFFFF" points="346.5969,318.502,448.345,318.502,460.345,330.502,448.345,342.502,346.5969,342.502,334.5969,330.502,346.5969,318.502" style="stroke:#181818;stroke-width:0.5;stroke-linejoin:miter;stroke-miterlimit:10;"/><text fill="#000000" font-family="Helvetica" font-size="12" lengthAdjust="spacing" textLength="101.748" x="346.5969" y="334.6563">Amount &lt; $100?</text><text fill="#000000" font-family="Helvetica" font-size="12" lengthAdjust="spacing" textLength="20.7363" x="313.8606" y="327.6719">yes</text><text fill="#000000" font-family="Helvetica" font-size="12" lengthAdjust="spacing" textLength="14.9473" x="460.345" y="327.6719">no</text><rect fill="#FFFFFF" height="33.9688" style="stroke:#181818;stroke-width:0.5;" width="101.5391" x="220.7324" y="362.502"/><text fill="#000000" font-family="Helvetica" font-size="12" lengthAdjust="spacing" textLength="81.5391" x="230.7324" y="383.6406">Auto-approve</text><rect fill="#FFFFFF" height="33.9688" style="stroke:#181818;stroke-width:0.5;" width="198.9688" x="485.2922" y="529.4395"/><text fill="#000000" font-family="Helvetica" font-size="12" lengthAdjust="spacing" textLength="178.9688" x="495.2922" y="550.5781">Provide additional documents</text><rect fill="#FFFFFF" height="33.9688" style="stroke:#181818;stroke-width:0.5;" width="123.9512" x="593.9387" y="735.3457"/><text fill="#000000" font-family="Helvetica" font-size="12" lengthAdjust="spacing" textLength="103.9512" x="603.9387" y="756.4844">Receive rejection</text><ellipse cx="655.9143" cy="800.3145" fill="none" rx="11" ry="11" style="stroke:#222222;stroke-width:1;"/><ellipse cx="655.9143" cy="800.3145" fill="#222222" rx="6" ry="6" style="stroke:#222222;stroke-width:1;"/><polygon fill="#FFFFFF" points="397.4709,855.3145,409.4709,867.3145,397.4709,879.3145,385.4709,867.3145,397.4709,855.3145" style="stroke:#181818;stroke-width:0.5;stroke-linejoin:miter;stroke-miterlimit:10;"/><rect fill="#FFFFFF" height="33.9688" style="stroke:#181818;stroke-width:0.5;" width="190.584" x="43.4503" y="1051.252"/><text fill="#000000" font-family="Helvetica" font-size="12" lengthAdjust="spacing" textLength="170.584" x="53.4503" y="1072.3906">Receive refund confirmation</text><rect fill="#FFFFFF" height="33.9688" style="stroke:#181818;stroke-width:0.5;" width="83.627" x="325.2814" y="997.2832"/><text fill="#000000" font-family="Helvetica" font-size="12" lengthAdjust="spacing" textLength="63.627" x="335.2814" y="1018.4219">Log failure</text><rect fill="#FFFFFF" height="33.9688" style="stroke:#181818;stroke-width:0.5;" width="204.2598" x="264.965" y="1105.2207"/><text fill="#000000" font-family="Helvetica" font-size="12" lengthAdjust="spacing" textLength="184.2598" x="274.965" y="1126.3594">Notify: manual refund pending</text><ellipse cx="252.9186" cy="1204.1895" fill="none" rx="11" ry="11" style="stroke:#222222;stroke-width:1;"/><ellipse cx="252.9186" cy="1204.1895" fill="#222222" rx="6" ry="6" style="stroke:#222222;stroke-width:1;"/><line style="stroke:#000000;stroke-width:1.5;" x1="20" x2="20" y1="53.627" y2="1215.1895"/><rect fill="#FFFFFF" height="33.9688" style="stroke:#181818;stroke-width:0.5;" width="163.5547" x="844.3817" y="220.5332"/><text fill="#000000" font-family="Helvetica" font-size="12" lengthAdjust="spacing" textLength="143.5547" x="854.3817" y="241.6719">Validate order eligibility</text><polygon fill="#FFFFFF" points="878.1385,274.502,974.1796,274.502,986.1796,286.502,974.1796,298.502,878.1385,298.502,866.1385,286.502,878.1385,274.502" style="stroke:#181818;stroke-width:0.5;stroke-linejoin:miter;stroke-miterlimit:10;"/><text fill="#000000" font-family="Helvetica" font-size="12" lengthAdjust="spacing" textLength="96.041" x="878.1385" y="290.6563">Within 30 days?</text><text fill="#000000" font-family="Helvetica" font-size="12" lengthAdjust="spacing" textLength="14.9473" x="851.1913" y="283.6719">no</text><text fill="#000000" font-family="Helvetica" font-size="12" lengthAdjust="spacing" textLength="20.7363" x="986.1796" y="283.6719">yes</text><rect fill="#FFFFFF" height="33.9688" style="stroke:#181818;stroke-width:0.5;" width="107.4336" x="727.8899" y="318.502"/><text fill="#000000" font-family="Helvetica" font-size="12" lengthAdjust="spacing" textLength="87.4336" x="737.8899" y="339.6406">Reject request</text><rect fill="#FFFFFF" height="33.9688" style="stroke:#181818;stroke-width:0.5;" width="140.5156" x="970.0775" y="1051.252"/><text fill="#000000" font-family="Helvetica" font-size="12" lengthAdjust="spacing" textLength="120.5156" x="980.0775" y="1072.3906">Notify support team</text><line style="stroke:#000000;stroke-width:1.5;" x1="721.8899" x2="721.8899" y1="53.627" y2="1215.1895"/><rect fill="#FFFFFF" height="33.9688" style="stroke:#181818;stroke-width:0.5;" width="137.9375" x="1222.7928" y="362.502"/><text fill="#000000" font-family="Helvetica" font-size="12" lengthAdjust="spacing" textLength="117.9375" x="1232.7928" y="383.6406">Review refund case</text><polygon fill="#FFFFFF" points="1259.6669,431.4707,1323.8563,431.4707,1335.8563,443.4707,1323.8563,455.4707,1259.6669,455.4707,1247.6669,443.4707,1259.6669,431.4707" style="stroke:#181818;stroke-width:0.5;stroke-linejoin:miter;stroke-miterlimit:10;"/><text fill="#000000" font-family="Helvetica" font-size="12" lengthAdjust="spacing" textLength="64.1895" x="1259.6669" y="447.625">Approved?</text><text fill="#000000" font-family="Helvetica" font-size="12" lengthAdjust="spacing" textLength="20.7363" x="1226.9305" y="440.6406">yes</text><text fill="#000000" font-family="Helvetica" font-size="12" lengthAdjust="spacing" textLength="14.9473" x="1335.8563" y="440.6406">no</text><rect fill="#FFFFFF" height="33.9688" style="stroke:#181818;stroke-width:0.5;" width="120.5996" x="1120.5931" y="475.4707"/><text fill="#000000" font-family="Helvetica" font-size="12" lengthAdjust="spacing" textLength="100.5996" x="1130.5931" y="496.6094">Authorize refund</text><rect fill="#FFFFFF" height="33.9688" style="stroke:#181818;stroke-width:0.5;" width="130.7656" x="1337.2474" y="475.4707"/><text fill="#000000" font-family="Helvetica" font-size="12" lengthAdjust="spacing" textLength="110.7656" x="1347.2474" y="496.6094">Request more info</text><rect fill="#FFFFFF" height="33.9688" style="stroke:#181818;stroke-width:0.5;" width="111.4004" x="1346.9301" y="583.4082"/><text fill="#000000" font-family="Helvetica" font-size="12" lengthAdjust="spacing" textLength="91.4004" x="1356.9301" y="604.5469">Re-review case</text><polygon fill="#FFFFFF" points="1370.5355,637.377,1434.725,637.377,1446.725,649.377,1434.725,661.377,1370.5355,661.377,1358.5355,649.377,1370.5355,637.377" style="stroke:#181818;stroke-width:0.5;stroke-linejoin:miter;stroke-miterlimit:10;"/><text fill="#000000" font-family="Helvetica" font-size="12" lengthAdjust="spacing" textLength="64.1895" x="1370.5355" y="653.5313">Approved?</text><text fill="#000000" font-family="Helvetica" font-size="12" lengthAdjust="spacing" textLength="20.7363" x="1337.7992" y="646.5469">yes</text><text fill="#000000" font-family="Helvetica" font-size="12" lengthAdjust="spacing" textLength="14.9473" x="1446.725" y="646.5469">no</text><rect fill="#FFFFFF" height="33.9688" style="stroke:#181818;stroke-width:0.5;" width="120.5996" x="1271.1927" y="681.377"/><text fill="#000000" font-family="Helvetica" font-size="12" lengthAdjust="spacing" textLength="100.5996" x="1281.1927" y="702.5156">Authorize refund</text><rect fill="#FFFFFF" height="33.9688" style="stroke:#181818;stroke-width:0.5;" width="86.6797" x="1430.4281" y="681.377"/><text fill="#000000" font-family="Helvetica" font-size="12" lengthAdjust="spacing" textLength="66.6797" x="1440.4281" y="702.5156">Final reject</text><polygon fill="#FFFFFF" points="1291.7616,821.3145,1303.7616,833.3145,1291.7616,845.3145,1279.7616,833.3145,1291.7616,821.3145" style="stroke:#181818;stroke-width:0.5;stroke-linejoin:miter;stroke-miterlimit:10;"/><line style="stroke:#000000;stroke-width:1.5;" x1="1114.5931" x2="1114.5931" y1="53.627" y2="1215.1895"/><rect fill="#FFFFFF" height="33.9688" style="stroke:#181818;stroke-width:0.5;" width="109.1797" x="1692.9169" y="899.3145"/><text fill="#000000" font-family="Helvetica" font-size="12" lengthAdjust="spacing" textLength="89.1797" x="1702.9169" y="920.4531">Process refund</text><polygon fill="#FFFFFF" points="1689.9764,953.2832,1805.037,953.2832,1817.037,965.2832,1805.037,977.2832,1689.9764,977.2832,1677.9764,965.2832,1689.9764,953.2832" style="stroke:#181818;stroke-width:0.5;stroke-linejoin:miter;stroke-miterlimit:10;"/><text fill="#000000" font-family="Helvetica" font-size="12" lengthAdjust="spacing" textLength="115.0605" x="1689.9764" y="969.4375">Refund successful?</text><text fill="#000000" font-family="Helvetica" font-size="12" lengthAdjust="spacing" textLength="20.7363" x="1657.2401" y="962.4531">yes</text><text fill="#000000" font-family="Helvetica" font-size="12" lengthAdjust="spacing" textLength="14.9473" x="1817.037" y="962.4531">no</text><rect fill="#FFFFFF" height="33.9688" style="stroke:#181818;stroke-width:0.5;" width="212.4453" x="1527.1078" y="997.2832"/><text fill="#000000" font-family="Helvetica" font-size="12" lengthAdjust="spacing" textLength="192.4453" x="1537.1078" y="1018.4219">Credit original payment method</text><polygon fill="#FFFFFF" points="1747.5067,1149.1895,1759.5067,1161.1895,1747.5067,1173.1895,1735.5067,1161.1895,1747.5067,1149.1895" style="stroke:#181818;stroke-width:0.5;stroke-linejoin:miter;stroke-miterlimit:10;"/><line style="stroke:#000000;stroke-width:1.5;" x1="1521.1078" x2="1521.1078" y1="53.627" y2="1215.1895"/><line style="stroke:#000000;stroke-width:1.5;" x1="1836.9843" x2="1836.9843" y1="53.627" y2="1215.1895"/><line style="stroke:#000000;stroke-width:0.75;" x1="252.9186" x2="252.9186" y1="92.5957" y2="112.5957"/><polygon fill="#000000" points="248.9186,102.5957,256.9186,102.5957,252.9186,112.5957" style="stroke:#000000;stroke-width:1;stroke-linejoin:miter;stroke-miterlimit:10;"/><line style="stroke:#000000;stroke-width:0.75;" x1="252.9186" x2="252.9186" y1="146.5645" y2="166.5645"/><polygon fill="#000000" points="248.9186,156.5645,256.9186,156.5645,252.9186,166.5645" style="stroke:#000000;stroke-width:1;stroke-linejoin:miter;stroke-miterlimit:10;"/><line style="stroke:#000000;stroke-width:0.75;" x1="108.3662" x2="108.3662" y1="421.4395" y2="456.4395"/><polygon fill="#000000" points="104.3662,446.4395,112.3662,446.4395,108.3662,456.4395" style="stroke:#000000;stroke-width:1;stroke-linejoin:miter;stroke-miterlimit:10;"/><line style="stroke:#000000;stroke-width:0.75;" x1="655.9143" x2="655.9143" y1="769.3145" y2="789.3145"/><polygon fill="#000000" points="651.9143,779.3145,659.9143,779.3145,655.9143,789.3145" style="stroke:#000000;stroke-width:1;stroke-linejoin:miter;stroke-miterlimit:10;"/><line style="stroke:#000000;stroke-width:0.75;" x1="334.5969" x2="271.502" y1="330.502" y2="330.502"/><line style="stroke:#000000;stroke-width:0.75;" x1="271.502" x2="271.502" y1="330.502" y2="362.502"/><polygon fill="#000000" points="267.502,352.502,275.502,352.502,271.502,362.502" style="stroke:#000000;stroke-width:1;stroke-linejoin:miter;stroke-miterlimit:10;"/><line style="stroke:#000000;stroke-width:0.75;" x1="271.502" x2="271.502" y1="396.4707" y2="867.3145"/><line style="stroke:#000000;stroke-width:0.75;" x1="271.502" x2="385.4709" y1="867.3145" y2="867.3145"/><polygon fill="#000000" points="375.4709,863.3145,385.4709,867.3145,375.4709,871.3145" style="stroke:#000000;stroke-width:1;stroke-linejoin:miter;stroke-miterlimit:10;"/><line style="stroke:#000000;stroke-width:0.75;" x1="866.1385" x2="781.6067" y1="286.502" y2="286.502"/><line style="stroke:#000000;stroke-width:0.75;" x1="781.6067" x2="781.6067" y1="286.502" y2="318.502"/><polygon fill="#000000" points="777.6067,308.502,785.6067,308.502,781.6067,318.502" style="stroke:#000000;stroke-width:1;stroke-linejoin:miter;stroke-miterlimit:10;"/><line style="stroke:#000000;stroke-width:0.75;" x1="926.1591" x2="926.1591" y1="254.502" y2="274.502"/><polygon fill="#000000" points="922.1591,264.502,930.1591,264.502,926.1591,274.502" style="stroke:#000000;stroke-width:1;stroke-linejoin:miter;stroke-miterlimit:10;"/><line style="stroke:#000000;stroke-width:0.75;" x1="1358.5355" x2="1331.4926" y1="649.377" y2="649.377"/><line style="stroke:#000000;stroke-width:0.75;" x1="1331.4926" x2="1331.4926" y1="649.377" y2="681.377"/><polygon fill="#000000" points="1327.4926,671.377,1335.4926,671.377,1331.4926,681.377" style="stroke:#000000;stroke-width:1;stroke-linejoin:miter;stroke-miterlimit:10;"/><line style="stroke:#000000;stroke-width:0.75;" x1="1446.725" x2="1473.7679" y1="649.377" y2="649.377"/><line style="stroke:#000000;stroke-width:0.75;" x1="1473.7679" x2="1473.7679" y1="649.377" y2="681.377"/><polygon fill="#000000" points="1469.7679,671.377,1477.7679,671.377,1473.7679,681.377" style="stroke:#000000;stroke-width:1;stroke-linejoin:miter;stroke-miterlimit:10;"/><line style="stroke:#000000;stroke-width:0.75;" x1="1331.4926" x2="1331.4926" y1="715.3457" y2="833.3145"/><line style="stroke:#000000;stroke-width:0.75;" x1="1331.4926" x2="1303.7616" y1="833.3145" y2="833.3145"/><polygon fill="#000000" points="1313.7616,829.3145,1303.7616,833.3145,1313.7616,837.3145" style="stroke:#000000;stroke-width:1;stroke-linejoin:miter;stroke-miterlimit:10;"/><line style="stroke:#000000;stroke-width:0.75;" x1="1402.6302" x2="1402.6302" y1="617.377" y2="637.377"/><polygon fill="#000000" points="1398.6302,627.377,1406.6302,627.377,1402.6302,637.377" style="stroke:#000000;stroke-width:1;stroke-linejoin:miter;stroke-miterlimit:10;"/><line style="stroke:#000000;stroke-width:0.75;" x1="1247.6669" x2="1180.8929" y1="443.4707" y2="443.4707"/><line style="stroke:#000000;stroke-width:0.75;" x1="1180.8929" x2="1180.8929" y1="443.4707" y2="475.4707"/><polygon fill="#000000" points="1176.8929,465.4707,1184.8929,465.4707,1180.8929,475.4707" style="stroke:#000000;stroke-width:1;stroke-linejoin:miter;stroke-miterlimit:10;"/><line style="stroke:#000000;stroke-width:0.75;" x1="1335.8563" x2="1402.6302" y1="443.4707" y2="443.4707"/><line style="stroke:#000000;stroke-width:0.75;" x1="1402.6302" x2="1402.6302" y1="443.4707" y2="475.4707"/><polygon fill="#000000" points="1398.6302,465.4707,1406.6302,465.4707,1402.6302,475.4707" style="stroke:#000000;stroke-width:1;stroke-linejoin:miter;stroke-miterlimit:10;"/><line style="stroke:#000000;stroke-width:0.75;" x1="1180.8929" x2="1180.8929" y1="509.4395" y2="833.3145"/><line style="stroke:#000000;stroke-width:0.75;" x1="1180.8929" x2="1279.7616" y1="833.3145" y2="833.3145"/><polygon fill="#000000" points="1269.7616,829.3145,1279.7616,833.3145,1269.7616,837.3145" style="stroke:#000000;stroke-width:1;stroke-linejoin:miter;stroke-miterlimit:10;"/><line style="stroke:#000000;stroke-width:0.75;" x1="1291.7616" x2="1291.7616" y1="396.4707" y2="431.4707"/><polygon fill="#000000" points="1287.7616,421.4707,1295.7616,421.4707,1291.7616,431.4707" style="stroke:#000000;stroke-width:1;stroke-linejoin:miter;stroke-miterlimit:10;"/><line style="stroke:#000000;stroke-width:0.75;" x1="1677.9764" x2="1633.3304" y1="965.2832" y2="965.2832"/><line style="stroke:#000000;stroke-width:0.75;" x1="1633.3304" x2="1633.3304" y1="965.2832" y2="997.2832"/><polygon fill="#000000" points="1629.3304,987.2832,1637.3304,987.2832,1633.3304,997.2832" style="stroke:#000000;stroke-width:1;stroke-linejoin:miter;stroke-miterlimit:10;"/><line style="stroke:#000000;stroke-width:0.75;" x1="1747.5067" x2="1747.5067" y1="933.2832" y2="953.2832"/><polygon fill="#000000" points="1743.5067,943.2832,1751.5067,943.2832,1747.5067,953.2832" style="stroke:#000000;stroke-width:1;stroke-linejoin:miter;stroke-miterlimit:10;"/><line style="stroke:#000000;stroke-width:0.75;" x1="252.9186" x2="252.9186" y1="200.5332" y2="205.5332"/><line style="stroke:#000000;stroke-width:0.75;" x1="252.9186" x2="926.1591" y1="205.5332" y2="205.5332"/><line style="stroke:#000000;stroke-width:0.75;" x1="926.1591" x2="926.1591" y1="205.5332" y2="220.5332"/><polygon fill="#000000" points="922.1591,210.5332,930.1591,210.5332,926.1591,220.5332" style="stroke:#000000;stroke-width:1;stroke-linejoin:miter;stroke-miterlimit:10;"/><line style="stroke:#000000;stroke-width:0.75;" x1="781.6067" x2="781.6067" y1="352.4707" y2="369.9707"/><line style="stroke:#000000;stroke-width:0.75;" x1="781.6067" x2="108.3662" y1="369.9707" y2="369.9707"/><line style="stroke:#000000;stroke-width:0.75;" x1="108.3662" x2="108.3662" y1="369.9707" y2="387.4707"/><polygon fill="#000000" points="104.3662,377.4707,112.3662,377.4707,108.3662,387.4707" style="stroke:#000000;stroke-width:1;stroke-linejoin:miter;stroke-miterlimit:10;"/><line style="stroke:#000000;stroke-width:0.75;" x1="1402.6302" x2="1402.6302" y1="509.4395" y2="514.4395"/><line style="stroke:#000000;stroke-width:0.75;" x1="1402.6302" x2="584.7766" y1="514.4395" y2="514.4395"/><line style="stroke:#000000;stroke-width:0.75;" x1="584.7766" x2="584.7766" y1="514.4395" y2="529.4395"/><polygon fill="#000000" points="580.7766,519.4395,588.7766,519.4395,584.7766,529.4395" style="stroke:#000000;stroke-width:1;stroke-linejoin:miter;stroke-miterlimit:10;"/><line style="stroke:#000000;stroke-width:0.75;" x1="584.7766" x2="584.7766" y1="563.4082" y2="568.4082"/><line style="stroke:#000000;stroke-width:0.75;" x1="584.7766" x2="1402.6302" y1="568.4082" y2="568.4082"/><line style="stroke:#000000;stroke-width:0.75;" x1="1402.6302" x2="1402.6302" y1="568.4082" y2="583.4082"/><polygon fill="#000000" points="1398.6302,573.4082,1406.6302,573.4082,1402.6302,583.4082" style="stroke:#000000;stroke-width:1;stroke-linejoin:miter;stroke-miterlimit:10;"/><line style="stroke:#000000;stroke-width:0.75;" x1="1473.7679" x2="1473.7679" y1="715.3457" y2="720.3457"/><line style="stroke:#000000;stroke-width:0.75;" x1="1473.7679" x2="655.9143" y1="720.3457" y2="720.3457"/><line style="stroke:#000000;stroke-width:0.75;" x1="655.9143" x2="655.9143" y1="720.3457" y2="735.3457"/><polygon fill="#000000" points="651.9143,725.3457,659.9143,725.3457,655.9143,735.3457" style="stroke:#000000;stroke-width:1;stroke-linejoin:miter;stroke-miterlimit:10;"/><line style="stroke:#000000;stroke-width:0.75;" x1="460.345" x2="1291.7616" y1="330.502" y2="330.502"/><line style="stroke:#000000;stroke-width:0.75;" x1="1291.7616" x2="1291.7616" y1="330.502" y2="362.502"/><polygon fill="#000000" points="1287.7616,352.502,1295.7616,352.502,1291.7616,362.502" style="stroke:#000000;stroke-width:1;stroke-linejoin:miter;stroke-miterlimit:10;"/><line style="stroke:#000000;stroke-width:0.75;" x1="1291.7616" x2="1291.7616" y1="845.3145" y2="867.3145"/><line style="stroke:#000000;stroke-width:0.75;" x1="1291.7616" x2="409.4709" y1="867.3145" y2="867.3145"/><polygon fill="#000000" points="419.4709,863.3145,409.4709,867.3145,419.4709,871.3145" style="stroke:#000000;stroke-width:1;stroke-linejoin:miter;stroke-miterlimit:10;"/><line style="stroke:#000000;stroke-width:0.75;" x1="986.1796" x2="998.1796" y1="286.502" y2="286.502"/><line style="stroke:#000000;stroke-width:0.75;" x1="998.1796" x2="998.1796" y1="286.502" y2="304.502"/><line style="stroke:#000000;stroke-width:0.75;" x1="998.1796" x2="397.4709" y1="304.502" y2="304.502"/><line style="stroke:#000000;stroke-width:0.75;" x1="397.4709" x2="397.4709" y1="304.502" y2="318.502"/><polygon fill="#000000" points="393.4709,308.502,401.4709,308.502,397.4709,318.502" style="stroke:#000000;stroke-width:1;stroke-linejoin:miter;stroke-miterlimit:10;"/><line style="stroke:#000000;stroke-width:0.75;" x1="397.4709" x2="397.4709" y1="879.3145" y2="884.3145"/><line style="stroke:#000000;stroke-width:0.75;" x1="397.4709" x2="1747.5067" y1="884.3145" y2="884.3145"/><line style="stroke:#000000;stroke-width:0.75;" x1="1747.5067" x2="1747.5067" y1="884.3145" y2="899.3145"/><polygon fill="#000000" points="1743.5067,889.3145,1751.5067,889.3145,1747.5067,899.3145" style="stroke:#000000;stroke-width:1;stroke-linejoin:miter;stroke-miterlimit:10;"/><line style="stroke:#000000;stroke-width:0.75;" x1="1633.3304" x2="1633.3304" y1="1031.252" y2="1036.252"/><line style="stroke:#000000;stroke-width:0.75;" x1="1633.3304" x2="138.7423" y1="1036.252" y2="1036.252"/><line style="stroke:#000000;stroke-width:0.75;" x1="138.7423" x2="138.7423" y1="1036.252" y2="1051.252"/><polygon fill="#000000" points="134.7423,1041.252,142.7423,1041.252,138.7423,1051.252" style="stroke:#000000;stroke-width:1;stroke-linejoin:miter;stroke-miterlimit:10;"/><line style="stroke:#000000;stroke-width:0.75;" x1="367.0948" x2="367.0948" y1="1031.252" y2="1036.252"/><line style="stroke:#000000;stroke-width:0.75;" x1="367.0948" x2="1040.3353" y1="1036.252" y2="1036.252"/><line style="stroke:#000000;stroke-width:0.75;" x1="1040.3353" x2="1040.3353" y1="1036.252" y2="1051.252"/><polygon fill="#000000" points="1036.3353,1041.252,1044.3353,1041.252,1040.3353,1051.252" style="stroke:#000000;stroke-width:1;stroke-linejoin:miter;stroke-miterlimit:10;"/><line style="stroke:#000000;stroke-width:0.75;" x1="1040.3353" x2="1040.3353" y1="1085.2207" y2="1090.2207"/><line style="stroke:#000000;stroke-width:0.75;" x1="1040.3353" x2="367.0948" y1="1090.2207" y2="1090.2207"/><line style="stroke:#000000;stroke-width:0.75;" x1="367.0948" x2="367.0948" y1="1090.2207" y2="1105.2207"/><polygon fill="#000000" points="363.0948,1095.2207,371.0948,1095.2207,367.0948,1105.2207" style="stroke:#000000;stroke-width:1;stroke-linejoin:miter;stroke-miterlimit:10;"/><line style="stroke:#000000;stroke-width:0.75;" x1="1817.037" x2="1829.037" y1="965.2832" y2="965.2832"/><line style="stroke:#000000;stroke-width:0.75;" x1="1829.037" x2="1829.037" y1="965.2832" y2="983.2832"/><line style="stroke:#000000;stroke-width:0.75;" x1="1829.037" x2="367.0948" y1="983.2832" y2="983.2832"/><line style="stroke:#000000;stroke-width:0.75;" x1="367.0948" x2="367.0948" y1="983.2832" y2="997.2832"/><polygon fill="#000000" points="363.0948,987.2832,371.0948,987.2832,367.0948,997.2832" style="stroke:#000000;stroke-width:1;stroke-linejoin:miter;stroke-miterlimit:10;"/><line style="stroke:#000000;stroke-width:0.75;" x1="138.7423" x2="138.7423" y1="1085.2207" y2="1161.1895"/><line style="stroke:#000000;stroke-width:0.75;" x1="138.7423" x2="1735.5067" y1="1161.1895" y2="1161.1895"/><polygon fill="#000000" points="1725.5067,1157.1895,1735.5067,1161.1895,1725.5067,1165.1895" style="stroke:#000000;stroke-width:1;stroke-linejoin:miter;stroke-miterlimit:10;"/><line style="stroke:#000000;stroke-width:0.75;" x1="367.0948" x2="367.0948" y1="1139.1895" y2="1143.1895"/><line style="stroke:#000000;stroke-width:0.75;" x1="367.0948" x2="1777.5067" y1="1143.1895" y2="1143.1895"/><line style="stroke:#000000;stroke-width:0.75;" x1="1777.5067" x2="1777.5067" y1="1143.1895" y2="1161.1895"/><line style="stroke:#000000;stroke-width:0.75;" x1="1777.5067" x2="1759.5067" y1="1161.1895" y2="1161.1895"/><polygon fill="#000000" points="1769.5067,1157.1895,1759.5067,1161.1895,1769.5067,1165.1895" style="stroke:#000000;stroke-width:1;stroke-linejoin:miter;stroke-miterlimit:10;"/><line style="stroke:#000000;stroke-width:0.75;" x1="1747.5067" x2="1747.5067" y1="1173.1895" y2="1178.1895"/><line style="stroke:#000000;stroke-width:0.75;" x1="1747.5067" x2="252.9186" y1="1178.1895" y2="1178.1895"/><line style="stroke:#000000;stroke-width:0.75;" x1="252.9186" x2="252.9186" y1="1178.1895" y2="1193.1895"/><polygon fill="#000000" points="248.9186,1183.1895,256.9186,1183.1895,252.9186,1193.1895" style="stroke:#000000;stroke-width:1;stroke-linejoin:miter;stroke-miterlimit:10;"/><text fill="#000000" font-family="Helvetica" font-size="12" lengthAdjust="spacing" textLength="58.2891" x="341.8004" y="64.7656">Customer</text><text fill="#000000" font-family="Helvetica" font-size="12" lengthAdjust="spacing" textLength="44.748" x="895.8675" y="64.7656">System</text><text fill="#000000" font-family="Helvetica" font-size="12" lengthAdjust="spacing" textLength="52.5996" x="1291.5507" y="64.7656">Manager</text><text fill="#000000" font-family="Helvetica" font-size="12" lengthAdjust="spacing" textLength="109.8984" x="1624.0968" y="64.7656">Payment Gateway</text><?plantuml-src bLRHJjj047ptLwpKIgLIGO6ggfHKgame58a08b2UB-TrSerzwzwT4rpbeH_HB-oNTCzsWaC2CPOIETwvdPsvstNUGPuc-v4IOoDIUq1c30PZDAWbWdL5Wl3lpr--Cqewk1gSmTtW0euE7Zv0Ifhan52AWPqgdGdEq7W8pkJDo4Z8wTXGhgC-9MJWpMbvDH0HnY9Ft2bfToaumNTCPkYK5DinG_KRuV2e4RGJ4T5SwJ748h5Dyaf9fO85Do8o4TQ6ZYEZtE6v95tcxJGNuw_S-p50QyKOmqIDDKZK3aq3LKip6WslRWH2wSWSxrH_BGnhLPdGRZVuaXpkHWthmiyObRMfG4vPtsvWttks6tOr-ecoXPYX4stKt5cKmhOfZzACDBRnaVT6pPGhsZWUjQ0-4KwCMXKvvDE3v8eC-wy1dxy67Bu6_Eqvy9O3TQ5Y_cWy9XEXgU6Tyde9tVh0hkU_dIWvrTnyq3du_6aBlDn5uHJfzXIDDQr4XCRGl1LePxd7zD32wnS9NoOwgORaBJwuzGI1Kuxdu0t6p0nXbXcQYGJkoKpZXEP1iEZdrl7mDel0EXv8GNUOZrBb_4l1Bp5UWdMze7kN9IJy0uagumV1ObXOX-aYwFuGYOgufQ4q5f3dfHgfXDki5wWOzkwLcoWD7piGYS9-VGzkWXhsDBqFWA_k3VgvySZb7pOAgp7CEqC6UIpl8cZYyOaLcg5PWFmAWBq2RPNMCuSfM-xW2xmzx7HMn2j8cJdC7UsBqfewMvLeMLvPpK1edfHrCNL1CuNpfKz-KFLMmPAwoXXjPrqoJyZujq-LvJ71PWKrP-aGltGDWj8nzTRYJpnRBRlcGbI48A98UUlu14GayvGdfdsIOKDdpRjlAhdhEjjhtQ7tUStbmbFbQwwslhSHVaRszcEpkRmyEsk5w4Z5mUQlwgxw3XRNel06mXaV_Baek0tOPkcRSodEErDtdisb3yLvicbHjs-GzuMRXzl6wypgp2coNT6kTgYE7-bOcLHK2jUTx5wG_t-aajpKMxVgt3BCVorKN729MKR6WKEHRkUiW5r8XSxBxIYfCs-87lUMndWx_mC0?></g></svg>