<svg xmlns="http://www.w3.org/2000/svg" xmlns:xlink="http://www.w3.org/1999/xlink" contentStyleType="text/css" data-diagram-type="ACTIVITY" height="794.124px" preserveAspectRatio="none" style="width:1061px;height:794px;background:#FFFFFF;" version="1.1" viewBox="0 0 1061 794" width="1061.397px" zoomAndPan="magnify"><?plantuml 1.2026.6?><defs/><g><g class="title" data-source-line="50"><text fill="#000000" font-family="Helvetica" font-size="7.182" font-weight="700" lengthAdjust="spacing" textLength="108.5296" x="476.1494" y="21.0305">Refund Approval Workflow</text></g><rect fill="#FFFFCC" height="19.6383" rx="1.2825" ry="1.2825" style="stroke:#FFDD88;stroke-width:1.539;" width="1045.9513" x="6.669" y="34.0103"/><text fill="#000000" font-family="monospace" font-size="5.13" lengthAdjust="spacing" textLength="151.3375" x="10.26" y="39.4689">Please&#160;use&#160;CSS&#160;style&#160;instead&#160;of&#160;skinparam&#160;padding</text><text fill="#000000" font-family="monospace" font-size="5.13" lengthAdjust="spacing" textLength="185.3112" x="10.26" y="50.5706">Please&#160;use&#160;CSS&#160;style&#160;instead&#160;of&#160;skinparam&#160;ParticipantPadding</text><rect fill="#FFFFFF" height="15.374" style="stroke:#FFFFFF;stroke-width:0.513;" width="1037.7433" x="10.26" y="57.7526"/><ellipse cx="141.5462" cy="80.8215" fill="#FFFFFF" rx="5.13" ry="5.13" style="stroke:#000000;stroke-width:0.3848;"/><rect fill="#FFFFFF" height="25.634" rx="2.565" ry="2.565" style="stroke:#000000;stroke-width:0.3848;" width="87.9514" x="97.5705" y="96.2115"/><text fill="#000000" font-family="Helvetica" font-size="6.156" lengthAdjust="spacing" textLength="21.8376" x="106.8045" y="111.1597">Submit</text><text fill="#000000" font-family="Helvetica" font-size="6.156" lengthAdjust="spacing" textLength="1.9568" x="128.6421" y="111.1597">&#160;</text><text fill="#000000" font-family="Helvetica" font-size="6.156" lengthAdjust="spacing" textLength="20.1964" x="130.5989" y="111.1597">refund</text><text fill="#000000" font-family="Helvetica" font-size="6.156" lengthAdjust="spacing" textLength="1.9568" x="150.7953" y="111.1597">&#160;</text><text fill="#000000" font-family="Helvetica" font-size="6.156" lengthAdjust="spacing" textLength="23.5359" x="152.7521" y="111.1597">request</text><rect fill="#FFFFFF" height="25.634" rx="2.565" ry="2.565" style="stroke:#000000;stroke-width:0.3848;" width="63.5168" x="109.7878" y="132.1055"/><text fill="#000000" font-family="Helvetica" font-size="6.156" lengthAdjust="spacing" textLength="21.57" x="119.0218" y="147.0537">Upload</text><text fill="#000000" font-family="Helvetica" font-size="6.156" lengthAdjust="spacing" textLength="1.9568" x="140.5919" y="147.0537">&#160;</text><text fill="#000000" font-family="Helvetica" font-size="6.156" lengthAdjust="spacing" textLength="21.522" x="142.5487" y="147.0537">receipt</text><rect fill="#FFFFFF" height="25.634" rx="2.565" ry="2.565" style="stroke:#000000;stroke-width:0.3848;" width="92.7157" x="13.338" y="273.1164"/><text fill="#000000" font-family="Helvetica" font-size="6.156" lengthAdjust="spacing" textLength="24.3775" x="22.572" y="288.0645">Receive</text><text fill="#000000" font-family="Helvetica" font-size="6.156" lengthAdjust="spacing" textLength="1.9568" x="46.9495" y="288.0645">&#160;</text><text fill="#000000" font-family="Helvetica" font-size="6.156" lengthAdjust="spacing" textLength="26.9926" x="48.9063" y="288.0645">rejection</text><text fill="#000000" font-family="Helvetica" font-size="6.156" lengthAdjust="spacing" textLength="1.9568" x="75.899" y="288.0645">&#160;</text><text fill="#000000" font-family="Helvetica" font-size="6.156" lengthAdjust="spacing" textLength="18.964" x="77.8558" y="288.0645">notice</text><ellipse cx="59.6959" cy="322.3484" fill="none" rx="5.643" ry="5.643" style="stroke:#000000;stroke-width:0.3848;"/><ellipse cx="59.6959" cy="322.3484" fill="#FFFFFF" rx="3.078" ry="3.078" style="stroke:#000000;stroke-width:0.513;"/><polygon fill="#FFFFFF" points="193.1942,229.5274,253.599,229.5274,259.755,237.2144,253.599,244.9014,193.1942,244.9014,187.0382,237.2144,193.1942,229.5274" style="stroke:#000000;stroke-width:0.3848;stroke-linejoin:miter;stroke-miterlimit:10;"/><text fill="#000000" font-family="Helvetica" font-size="6.156" lengthAdjust="spacing" textLength="24.1912" x="197.2982" y="239.3456">Amount</text><text fill="#000000" font-family="Helvetica" font-size="6.156" lengthAdjust="spacing" textLength="1.9568" x="221.4894" y="239.3456">&#160;</text><text fill="#000000" font-family="Helvetica" font-size="6.156" lengthAdjust="spacing" textLength="5.1581" x="223.4462" y="239.3456">&lt;</text><text fill="#000000" font-family="Helvetica" font-size="6.156" lengthAdjust="spacing" textLength="1.9568" x="228.6042" y="239.3456">&#160;</text><text fill="#000000" font-family="Helvetica" font-size="6.156" lengthAdjust="spacing" textLength="18.9339" x="230.5611" y="239.3456">$100?</text><text fill="#000000" font-family="Helvetica" font-size="6.156" lengthAdjust="spacing" textLength="10.6377" x="172.2965" y="231.6586">yes</text><text fill="#000000" font-family="Helvetica" font-size="6.156" lengthAdjust="spacing" textLength="7.6679" x="263.859" y="231.6586">no</text><rect fill="#FFFFFF" height="25.634" rx="2.565" ry="2.565" style="stroke:#000000;stroke-width:0.3848;" width="60.2975" x="121.4437" y="255.1614"/><text fill="#000000" font-family="Helvetica" font-size="6.156" lengthAdjust="spacing" textLength="41.8295" x="130.6777" y="270.1095">Auto-approve</text><rect fill="#FFFFFF" height="25.634" rx="2.565" ry="2.565" style="stroke:#000000;stroke-width:0.3848;" width="110.279" x="276.6569" y="360.2783"/><text fill="#000000" font-family="Helvetica" font-size="6.156" lengthAdjust="spacing" textLength="23.0579" x="285.8909" y="375.2264">Provide</text><text fill="#000000" font-family="Helvetica" font-size="6.156" lengthAdjust="spacing" textLength="1.9568" x="308.9489" y="375.2264">&#160;</text><text fill="#000000" font-family="Helvetica" font-size="6.156" lengthAdjust="spacing" textLength="30.5726" x="310.9057" y="375.2264">additional</text><text fill="#000000" font-family="Helvetica" font-size="6.156" lengthAdjust="spacing" textLength="1.9568" x="341.4783" y="375.2264">&#160;</text><text fill="#000000" font-family="Helvetica" font-size="6.156" lengthAdjust="spacing" textLength="34.2668" x="343.4351" y="375.2264">documents</text><rect fill="#FFFFFF" height="25.634" rx="2.565" ry="2.565" style="stroke:#000000;stroke-width:0.3848;" width="71.795" x="336.4966" y="493.5942"/><text fill="#000000" font-family="Helvetica" font-size="6.156" lengthAdjust="spacing" textLength="24.3775" x="345.7306" y="508.5423">Receive</text><text fill="#000000" font-family="Helvetica" font-size="6.156" lengthAdjust="spacing" textLength="1.9568" x="370.1081" y="508.5423">&#160;</text><text fill="#000000" font-family="Helvetica" font-size="6.156" lengthAdjust="spacing" textLength="26.9926" x="372.0649" y="508.5423">rejection</text><ellipse cx="372.394" cy="535.1311" fill="none" rx="5.643" ry="5.643" style="stroke:#000000;stroke-width:0.3848;"/><ellipse cx="372.394" cy="535.1311" fill="#FFFFFF" rx="3.078" ry="3.078" style="stroke:#000000;stroke-width:0.513;"/><polygon fill="#FFFFFF" points="223.3966,563.3461,229.5526,569.5021,223.3966,575.6581,217.2406,569.5021,223.3966,563.3461" style="stroke:#000000;stroke-width:0.3848;stroke-linejoin:miter;stroke-miterlimit:10;"/><rect fill="#FFFFFF" height="25.634" rx="2.565" ry="2.565" style="stroke:#000000;stroke-width:0.3848;" width="105.9776" x="25.881" y="683.34"/><text fill="#000000" font-family="Helvetica" font-size="6.156" lengthAdjust="spacing" textLength="24.3775" x="35.115" y="698.2882">Receive</text><text fill="#000000" font-family="Helvetica" font-size="6.156" lengthAdjust="spacing" textLength="1.9568" x="59.4925" y="698.2882">&#160;</text><text fill="#000000" font-family="Helvetica" font-size="6.156" lengthAdjust="spacing" textLength="20.1964" x="61.4493" y="698.2882">refund</text><text fill="#000000" font-family="Helvetica" font-size="6.156" lengthAdjust="spacing" textLength="1.9568" x="81.6457" y="698.2882">&#160;</text><text fill="#000000" font-family="Helvetica" font-size="6.156" lengthAdjust="spacing" textLength="39.0221" x="83.6025" y="698.2882">confirmation</text><rect fill="#FFFFFF" height="25.634" rx="2.565" ry="2.565" style="stroke:#000000;stroke-width:0.3848;" width="51.3" x="178.5727" y="647.4461"/><text fill="#000000" font-family="Helvetica" font-size="6.156" lengthAdjust="spacing" textLength="11.1036" x="187.8067" y="662.3942">Log</text><text fill="#000000" font-family="Helvetica" font-size="6.156" lengthAdjust="spacing" textLength="1.9568" x="198.9103" y="662.3942">&#160;</text><text fill="#000000" font-family="Helvetica" font-size="6.156" lengthAdjust="spacing" textLength="19.5802" x="200.8671" y="662.3942">failure</text><rect fill="#FFFFFF" height="25.634" rx="2.565" ry="2.565" style="stroke:#000000;stroke-width:0.3848;" width="112.9933" x="147.726" y="719.234"/><text fill="#000000" font-family="Helvetica" font-size="6.156" lengthAdjust="spacing" textLength="20.3797" x="156.96" y="734.1822">Notify:</text><text fill="#000000" font-family="Helvetica" font-size="6.156" lengthAdjust="spacing" textLength="1.9568" x="177.3398" y="734.1822">&#160;</text><text fill="#000000" font-family="Helvetica" font-size="6.156" lengthAdjust="spacing" textLength="23.0549" x="179.2966" y="734.1822">manual</text><text fill="#000000" font-family="Helvetica" font-size="6.156" lengthAdjust="spacing" textLength="1.9568" x="202.3515" y="734.1822">&#160;</text><text fill="#000000" font-family="Helvetica" font-size="6.156" lengthAdjust="spacing" textLength="20.1964" x="204.3083" y="734.1822">refund</text><text fill="#000000" font-family="Helvetica" font-size="6.156" lengthAdjust="spacing" textLength="1.9568" x="224.5047" y="734.1822">&#160;</text><text fill="#000000" font-family="Helvetica" font-size="6.156" lengthAdjust="spacing" textLength="25.0238" x="226.4615" y="734.1822">pending</text><ellipse cx="141.5462" cy="778.213" fill="none" rx="5.643" ry="5.643" style="stroke:#000000;stroke-width:0.3848;"/><ellipse cx="141.5462" cy="778.213" fill="#FFFFFF" rx="3.078" ry="3.078" style="stroke:#000000;stroke-width:0.513;"/><line style="stroke:#000000;stroke-width:0.3848;" x1="10.26" x2="10.26" y1="57.7526" y2="783.856"/><rect fill="#FFFFFF" height="25.634" rx="2.565" ry="2.565" style="stroke:#000000;stroke-width:0.3848;" width="92.1116" x="480.8768" y="167.9995"/><text fill="#000000" font-family="Helvetica" font-size="6.156" lengthAdjust="spacing" textLength="25.2853" x="490.1108" y="182.9476">Validate</text><text fill="#000000" font-family="Helvetica" font-size="6.156" lengthAdjust="spacing" textLength="1.9568" x="515.3961" y="182.9476">&#160;</text><text fill="#000000" font-family="Helvetica" font-size="6.156" lengthAdjust="spacing" textLength="16.5232" x="517.3529" y="182.9476">order</text><text fill="#000000" font-family="Helvetica" font-size="6.156" lengthAdjust="spacing" textLength="1.9568" x="533.8761" y="182.9476">&#160;</text><text fill="#000000" font-family="Helvetica" font-size="6.156" lengthAdjust="spacing" textLength="27.9214" x="535.8329" y="182.9476">eligibility</text><polygon fill="#FFFFFF" points="498.1941,203.8935,555.6711,203.8935,561.8271,211.5804,555.6711,219.2674,498.1941,219.2674,492.0381,211.5804,498.1941,203.8935" style="stroke:#000000;stroke-width:0.3848;stroke-linejoin:miter;stroke-miterlimit:10;"/><text fill="#000000" font-family="Helvetica" font-size="6.156" lengthAdjust="spacing" textLength="19.7244" x="502.2981" y="213.7116">Within</text><text fill="#000000" font-family="Helvetica" font-size="6.156" lengthAdjust="spacing" textLength="1.9568" x="522.0225" y="213.7116">&#160;</text><text fill="#000000" font-family="Helvetica" font-size="6.156" lengthAdjust="spacing" textLength="7.8333" x="523.9793" y="213.7116">30</text><text fill="#000000" font-family="Helvetica" font-size="6.156" lengthAdjust="spacing" textLength="1.9568" x="531.8126" y="213.7116">&#160;</text><text fill="#000000" font-family="Helvetica" font-size="6.156" lengthAdjust="spacing" textLength="17.7977" x="533.7694" y="213.7116">days?</text><text fill="#000000" font-family="Helvetica" font-size="6.156" lengthAdjust="spacing" textLength="7.6679" x="480.2661" y="206.0246">no</text><text fill="#000000" font-family="Helvetica" font-size="6.156" lengthAdjust="spacing" textLength="10.6377" x="565.9311" y="206.0246">yes</text><rect fill="#FFFFFF" height="25.634" rx="2.565" ry="2.565" style="stroke:#000000;stroke-width:0.3848;" width="63.3214" x="413.4215" y="229.5274"/><text fill="#000000" font-family="Helvetica" font-size="6.156" lengthAdjust="spacing" textLength="19.3607" x="422.6555" y="244.4756">Reject</text><text fill="#000000" font-family="Helvetica" font-size="6.156" lengthAdjust="spacing" textLength="1.9568" x="442.0163" y="244.4756">&#160;</text><text fill="#000000" font-family="Helvetica" font-size="6.156" lengthAdjust="spacing" textLength="23.5359" x="443.9731" y="244.4756">request</text><rect fill="#FFFFFF" height="25.634" rx="2.565" ry="2.565" style="stroke:#000000;stroke-width:0.3848;" width="80.2925" x="549.4628" y="683.34"/><text fill="#000000" font-family="Helvetica" font-size="6.156" lengthAdjust="spacing" textLength="18.3057" x="558.6968" y="698.2882">Notify</text><text fill="#000000" font-family="Helvetica" font-size="6.156" lengthAdjust="spacing" textLength="1.9568" x="577.0024" y="698.2882">&#160;</text><text fill="#000000" font-family="Helvetica" font-size="6.156" lengthAdjust="spacing" textLength="23.6351" x="578.9593" y="698.2882">support</text><text fill="#000000" font-family="Helvetica" font-size="6.156" lengthAdjust="spacing" textLength="1.9568" x="602.5943" y="698.2882">&#160;</text><text fill="#000000" font-family="Helvetica" font-size="6.156" lengthAdjust="spacing" textLength="15.9701" x="604.5511" y="698.2882">team</text><line style="stroke:#000000;stroke-width:0.3848;" x1="410.3435" x2="410.3435" y1="57.7526" y2="783.856"/><rect fill="#FFFFFF" height="25.634" rx="2.565" ry="2.565" style="stroke:#000000;stroke-width:0.3848;" width="78.9699" x="693.4697" y="255.1614"/><text fill="#000000" font-family="Helvetica" font-size="6.156" lengthAdjust="spacing" textLength="22.2404" x="702.7037" y="270.1095">Review</text><text fill="#000000" font-family="Helvetica" font-size="6.156" lengthAdjust="spacing" textLength="1.9568" x="724.9441" y="270.1095">&#160;</text><text fill="#000000" font-family="Helvetica" font-size="6.156" lengthAdjust="spacing" textLength="20.1964" x="726.9009" y="270.1095">refund</text><text fill="#000000" font-family="Helvetica" font-size="6.156" lengthAdjust="spacing" textLength="1.9568" x="747.0973" y="270.1095">&#160;</text><text fill="#000000" font-family="Helvetica" font-size="6.156" lengthAdjust="spacing" textLength="14.1516" x="749.0541" y="270.1095">case</text><polygon fill="#FFFFFF" points="712.3861,298.7504,753.5233,298.7504,759.6793,306.4373,753.5233,314.1243,712.3861,314.1243,706.2301,306.4373,712.3861,298.7504" style="stroke:#000000;stroke-width:0.3848;stroke-linejoin:miter;stroke-miterlimit:10;"/><text fill="#000000" font-family="Helvetica" font-size="6.156" lengthAdjust="spacing" textLength="32.9292" x="716.4901" y="308.5685">Approved?</text><text fill="#000000" font-family="Helvetica" font-size="6.156" lengthAdjust="spacing" textLength="10.6377" x="691.4884" y="300.8815">yes</text><text fill="#000000" font-family="Helvetica" font-size="6.156" lengthAdjust="spacing" textLength="7.6679" x="763.7833" y="300.8815">no</text><rect fill="#FFFFFF" height="25.634" rx="2.565" ry="2.565" style="stroke:#000000;stroke-width:0.3848;" width="70.0756" x="634.8853" y="324.3843"/><text fill="#000000" font-family="Helvetica" font-size="6.156" lengthAdjust="spacing" textLength="29.4544" x="644.1193" y="339.3325">Authorize</text><text fill="#000000" font-family="Helvetica" font-size="6.156" lengthAdjust="spacing" textLength="1.9568" x="673.5737" y="339.3325">&#160;</text><text fill="#000000" font-family="Helvetica" font-size="6.156" lengthAdjust="spacing" textLength="20.1964" x="675.5305" y="339.3325">refund</text><rect fill="#FFFFFF" height="25.634" rx="2.565" ry="2.565" style="stroke:#000000;stroke-width:0.3848;" width="75.2908" x="758.3409" y="324.3843"/><text fill="#000000" font-family="Helvetica" font-size="6.156" lengthAdjust="spacing" textLength="25.2823" x="767.5749" y="339.3325">Request</text><text fill="#000000" font-family="Helvetica" font-size="6.156" lengthAdjust="spacing" textLength="1.9568" x="792.8572" y="339.3325">&#160;</text><text fill="#000000" font-family="Helvetica" font-size="6.156" lengthAdjust="spacing" textLength="16.0813" x="794.814" y="339.3325">more</text><text fill="#000000" font-family="Helvetica" font-size="6.156" lengthAdjust="spacing" textLength="1.9568" x="810.8954" y="339.3325">&#160;</text><text fill="#000000" font-family="Helvetica" font-size="6.156" lengthAdjust="spacing" textLength="11.5455" x="812.8522" y="339.3325">info</text><rect fill="#FFFFFF" height="25.634" rx="2.565" ry="2.565" style="stroke:#000000;stroke-width:0.3848;" width="65.3564" x="763.3081" y="396.1723"/><text fill="#000000" font-family="Helvetica" font-size="6.156" lengthAdjust="spacing" textLength="30.78" x="772.5421" y="411.1204">Re-review</text><text fill="#000000" font-family="Helvetica" font-size="6.156" lengthAdjust="spacing" textLength="1.9568" x="803.3221" y="411.1204">&#160;</text><text fill="#000000" font-family="Helvetica" font-size="6.156" lengthAdjust="spacing" textLength="14.1516" x="805.2789" y="411.1204">case</text><polygon fill="#FFFFFF" points="775.4177,432.0662,816.5549,432.0662,822.7109,439.7532,816.5549,447.4402,775.4177,447.4402,769.2617,439.7532,775.4177,432.0662" style="stroke:#000000;stroke-width:0.3848;stroke-linejoin:miter;stroke-miterlimit:10;"/><text fill="#000000" font-family="Helvetica" font-size="6.156" lengthAdjust="spacing" textLength="32.9292" x="779.5217" y="441.8844">Approved?</text><text fill="#000000" font-family="Helvetica" font-size="6.156" lengthAdjust="spacing" textLength="10.6377" x="754.52" y="434.1974">yes</text><text fill="#000000" font-family="Helvetica" font-size="6.156" lengthAdjust="spacing" textLength="7.6679" x="826.8149" y="434.1974">no</text><rect fill="#FFFFFF" height="25.634" rx="2.565" ry="2.565" style="stroke:#000000;stroke-width:0.3848;" width="70.0756" x="720.3509" y="457.7002"/><text fill="#000000" font-family="Helvetica" font-size="6.156" lengthAdjust="spacing" textLength="29.4544" x="729.5849" y="472.6483">Authorize</text><text fill="#000000" font-family="Helvetica" font-size="6.156" lengthAdjust="spacing" textLength="1.9568" x="759.0393" y="472.6483">&#160;</text><text fill="#000000" font-family="Helvetica" font-size="6.156" lengthAdjust="spacing" textLength="20.1964" x="760.9961" y="472.6483">refund</text><rect fill="#FFFFFF" height="25.634" rx="2.565" ry="2.565" style="stroke:#000000;stroke-width:0.3848;" width="52.6747" x="810.2466" y="457.7002"/><text fill="#000000" font-family="Helvetica" font-size="6.156" lengthAdjust="spacing" textLength="14.6355" x="819.4806" y="472.6483">Final</text><text fill="#000000" font-family="Helvetica" font-size="6.156" lengthAdjust="spacing" textLength="1.9568" x="834.1161" y="472.6483">&#160;</text><text fill="#000000" font-family="Helvetica" font-size="6.156" lengthAdjust="spacing" textLength="17.6143" x="836.073" y="472.6483">reject</text><polygon fill="#FFFFFF" points="732.9547,545.9041,739.1107,552.0601,732.9547,558.2161,726.7987,552.0601,732.9547,545.9041" style="stroke:#000000;stroke-width:0.3848;stroke-linejoin:miter;stroke-miterlimit:10;"/><line style="stroke:#000000;stroke-width:0.3848;" x1="631.8073" x2="631.8073" y1="57.7526" y2="783.856"/><rect fill="#FFFFFF" height="25.634" rx="2.565" ry="2.565" style="stroke:#000000;stroke-width:0.3848;" width="64.2172" x="957.2154" y="585.9181"/><text fill="#000000" font-family="Helvetica" font-size="6.156" lengthAdjust="spacing" textLength="23.596" x="966.4494" y="600.8663">Process</text><text fill="#000000" font-family="Helvetica" font-size="6.156" lengthAdjust="spacing" textLength="1.9568" x="990.0454" y="600.8663">&#160;</text><text fill="#000000" font-family="Helvetica" font-size="6.156" lengthAdjust="spacing" textLength="20.1964" x="992.0022" y="600.8663">refund</text><polygon fill="#FFFFFF" points="955.7069,621.8121,1022.941,621.8121,1029.097,629.4991,1022.941,637.1861,955.7069,637.1861,949.5509,629.4991,955.7069,621.8121" style="stroke:#000000;stroke-width:0.3848;stroke-linejoin:miter;stroke-miterlimit:10;"/><text fill="#000000" font-family="Helvetica" font-size="6.156" lengthAdjust="spacing" textLength="21.9428" x="959.8109" y="631.6302">Refund</text><text fill="#000000" font-family="Helvetica" font-size="6.156" lengthAdjust="spacing" textLength="1.9568" x="981.7537" y="631.6302">&#160;</text><text fill="#000000" font-family="Helvetica" font-size="6.156" lengthAdjust="spacing" textLength="35.1265" x="983.7105" y="631.6302">successful?</text><text fill="#000000" font-family="Helvetica" font-size="6.156" lengthAdjust="spacing" textLength="10.6377" x="934.8092" y="623.9433">yes</text><text fill="#000000" font-family="Helvetica" font-size="6.156" lengthAdjust="spacing" textLength="7.6679" x="1033.201" y="623.9433">no</text><rect fill="#FFFFFF" height="25.634" rx="2.565" ry="2.565" style="stroke:#000000;stroke-width:0.3848;" width="117.1924" x="868.0513" y="647.4461"/><text fill="#000000" font-family="Helvetica" font-size="6.156" lengthAdjust="spacing" textLength="18.6484" x="877.2853" y="662.3942">Credit</text><text fill="#000000" font-family="Helvetica" font-size="6.156" lengthAdjust="spacing" textLength="1.9568" x="895.9336" y="662.3942">&#160;</text><text fill="#000000" font-family="Helvetica" font-size="6.156" lengthAdjust="spacing" textLength="23.0099" x="897.8905" y="662.3942">original</text><text fill="#000000" font-family="Helvetica" font-size="6.156" lengthAdjust="spacing" textLength="1.9568" x="920.9003" y="662.3942">&#160;</text><text fill="#000000" font-family="Helvetica" font-size="6.156" lengthAdjust="spacing" textLength="27.4225" x="922.8571" y="662.3942">payment</text><text fill="#000000" font-family="Helvetica" font-size="6.156" lengthAdjust="spacing" textLength="1.9568" x="950.2796" y="662.3942">&#160;</text><text fill="#000000" font-family="Helvetica" font-size="6.156" lengthAdjust="spacing" textLength="23.7733" x="952.2364" y="662.3942">method</text><polygon fill="#FFFFFF" points="989.3239,749.998,995.4799,756.154,989.3239,762.31,983.1679,756.154,989.3239,749.998" style="stroke:#000000;stroke-width:0.3848;stroke-linejoin:miter;stroke-miterlimit:10;"/><line style="stroke:#000000;stroke-width:0.3848;" x1="864.9733" x2="864.9733" y1="57.7526" y2="783.856"/><line style="stroke:#000000;stroke-width:0.3848;" x1="1043.4339" x2="1043.4339" y1="57.7526" y2="783.856"/><line style="stroke:#000000;stroke-width:0.3848;" x1="141.5462" x2="141.5462" y1="85.9515" y2="96.2115"/><polygon fill="#000000" points="139.4942,91.0815,143.5982,91.0815,141.5462,96.2115" style="stroke:#000000;stroke-width:0.513;stroke-linejoin:miter;stroke-miterlimit:10;"/><line style="stroke:#000000;stroke-width:0.3848;" x1="141.5462" x2="141.5462" y1="121.8455" y2="132.1055"/><polygon fill="#000000" points="139.4942,126.9755,143.5982,126.9755,141.5462,132.1055" style="stroke:#000000;stroke-width:0.513;stroke-linejoin:miter;stroke-miterlimit:10;"/><line style="stroke:#000000;stroke-width:0.3848;" x1="59.6959" x2="59.6959" y1="298.7504" y2="316.7054"/><polygon fill="#000000" points="57.6439,311.5754,61.7479,311.5754,59.6959,316.7054" style="stroke:#000000;stroke-width:0.513;stroke-linejoin:miter;stroke-miterlimit:10;"/><line style="stroke:#000000;stroke-width:0.3848;" x1="372.394" x2="372.394" y1="519.2281" y2="529.4881"/><polygon fill="#000000" points="370.342,524.3581,374.446,524.3581,372.394,529.4881" style="stroke:#000000;stroke-width:0.513;stroke-linejoin:miter;stroke-miterlimit:10;"/><line style="stroke:#000000;stroke-width:0.3848;" x1="187.0382" x2="151.5925" y1="237.2144" y2="237.2144"/><line style="stroke:#000000;stroke-width:0.3848;" x1="151.5925" x2="151.5925" y1="237.2144" y2="255.1614"/><polygon fill="#000000" points="149.5405,250.0314,153.6445,250.0314,151.5925,255.1614" style="stroke:#000000;stroke-width:0.513;stroke-linejoin:miter;stroke-miterlimit:10;"/><line style="stroke:#000000;stroke-width:0.3848;" x1="151.5925" x2="151.5925" y1="280.7954" y2="569.5021"/><line style="stroke:#000000;stroke-width:0.3848;" x1="151.5925" x2="217.2406" y1="569.5021" y2="569.5021"/><polygon fill="#000000" points="212.1106,567.4501,217.2406,569.5021,212.1106,571.5541" style="stroke:#000000;stroke-width:0.513;stroke-linejoin:miter;stroke-miterlimit:10;"/><line style="stroke:#000000;stroke-width:0.3848;" x1="492.0381" x2="445.0822" y1="211.5804" y2="211.5804"/><line style="stroke:#000000;stroke-width:0.3848;" x1="445.0822" x2="445.0822" y1="211.5804" y2="229.5274"/><polygon fill="#000000" points="443.0302,224.3974,447.1342,224.3974,445.0822,229.5274" style="stroke:#000000;stroke-width:0.513;stroke-linejoin:miter;stroke-miterlimit:10;"/><line style="stroke:#000000;stroke-width:0.3848;" x1="526.9326" x2="526.9326" y1="193.6335" y2="203.8935"/><polygon fill="#000000" points="524.8806,198.7635,528.9846,198.7635,526.9326,203.8935" style="stroke:#000000;stroke-width:0.513;stroke-linejoin:miter;stroke-miterlimit:10;"/><line style="stroke:#000000;stroke-width:0.3848;" x1="769.2617" x2="755.3887" y1="439.7532" y2="439.7532"/><line style="stroke:#000000;stroke-width:0.3848;" x1="755.3887" x2="755.3887" y1="439.7532" y2="457.7002"/><polygon fill="#000000" points="753.3367,452.5702,757.4407,452.5702,755.3887,457.7002" style="stroke:#000000;stroke-width:0.513;stroke-linejoin:miter;stroke-miterlimit:10;"/><line style="stroke:#000000;stroke-width:0.3848;" x1="822.7109" x2="836.584" y1="439.7532" y2="439.7532"/><line style="stroke:#000000;stroke-width:0.3848;" x1="836.584" x2="836.584" y1="439.7532" y2="457.7002"/><polygon fill="#000000" points="834.532,452.5702,838.636,452.5702,836.584,457.7002" style="stroke:#000000;stroke-width:0.513;stroke-linejoin:miter;stroke-miterlimit:10;"/><line style="stroke:#000000;stroke-width:0.3848;" x1="755.3887" x2="755.3887" y1="483.3342" y2="552.0601"/><line style="stroke:#000000;stroke-width:0.3848;" x1="755.3887" x2="739.1107" y1="552.0601" y2="552.0601"/><polygon fill="#000000" points="744.2407,550.0081,739.1107,552.0601,744.2407,554.1121" style="stroke:#000000;stroke-width:0.513;stroke-linejoin:miter;stroke-miterlimit:10;"/><line style="stroke:#000000;stroke-width:0.3848;" x1="795.9863" x2="795.9863" y1="421.8062" y2="432.0662"/><polygon fill="#000000" points="793.9343,426.9362,798.0383,426.9362,795.9863,432.0662" style="stroke:#000000;stroke-width:0.513;stroke-linejoin:miter;stroke-miterlimit:10;"/><line style="stroke:#000000;stroke-width:0.3848;" x1="706.2301" x2="669.9231" y1="306.4373" y2="306.4373"/><line style="stroke:#000000;stroke-width:0.3848;" x1="669.9231" x2="669.9231" y1="306.4373" y2="324.3843"/><polygon fill="#000000" points="667.8711,319.2543,671.9751,319.2543,669.9231,324.3843" style="stroke:#000000;stroke-width:0.513;stroke-linejoin:miter;stroke-miterlimit:10;"/><line style="stroke:#000000;stroke-width:0.3848;" x1="759.6793" x2="795.9863" y1="306.4373" y2="306.4373"/><line style="stroke:#000000;stroke-width:0.3848;" x1="795.9863" x2="795.9863" y1="306.4373" y2="324.3843"/><polygon fill="#000000" points="793.9343,319.2543,798.0383,319.2543,795.9863,324.3843" style="stroke:#000000;stroke-width:0.513;stroke-linejoin:miter;stroke-miterlimit:10;"/><line style="stroke:#000000;stroke-width:0.3848;" x1="669.9231" x2="669.9231" y1="350.0183" y2="552.0601"/><line style="stroke:#000000;stroke-width:0.3848;" x1="669.9231" x2="726.7987" y1="552.0601" y2="552.0601"/><polygon fill="#000000" points="721.6687,550.0081,726.7987,552.0601,721.6687,554.1121" style="stroke:#000000;stroke-width:0.513;stroke-linejoin:miter;stroke-miterlimit:10;"/><line style="stroke:#000000;stroke-width:0.3848;" x1="732.9547" x2="732.9547" y1="280.7954" y2="298.7504"/><polygon fill="#000000" points="730.9027,293.6204,735.0067,293.6204,732.9547,298.7504" style="stroke:#000000;stroke-width:0.513;stroke-linejoin:miter;stroke-miterlimit:10;"/><line style="stroke:#000000;stroke-width:0.3848;" x1="949.5509" x2="926.6475" y1="629.4991" y2="629.4991"/><line style="stroke:#000000;stroke-width:0.3848;" x1="926.6475" x2="926.6475" y1="629.4991" y2="647.4461"/><polygon fill="#000000" points="924.5955,642.3161,928.6995,642.3161,926.6475,647.4461" style="stroke:#000000;stroke-width:0.513;stroke-linejoin:miter;stroke-miterlimit:10;"/><line style="stroke:#000000;stroke-width:0.3848;" x1="989.3239" x2="989.3239" y1="611.5521" y2="621.8121"/><polygon fill="#000000" points="987.2719,616.6821,991.3759,616.6821,989.3239,621.8121" style="stroke:#000000;stroke-width:0.513;stroke-linejoin:miter;stroke-miterlimit:10;"/><line style="stroke:#000000;stroke-width:0.3848;" x1="141.5462" x2="141.5462" y1="157.7395" y2="160.3045"/><line style="stroke:#000000;stroke-width:0.3848;" x1="141.5462" x2="526.9326" y1="160.3045" y2="160.3045"/><line style="stroke:#000000;stroke-width:0.3848;" x1="526.9326" x2="526.9326" y1="160.3045" y2="167.9995"/><polygon fill="#000000" points="524.8806,162.8695,528.9846,162.8695,526.9326,167.9995" style="stroke:#000000;stroke-width:0.513;stroke-linejoin:miter;stroke-miterlimit:10;"/><line style="stroke:#000000;stroke-width:0.3848;" x1="445.0822" x2="445.0822" y1="255.1614" y2="264.1389"/><line style="stroke:#000000;stroke-width:0.3848;" x1="445.0822" x2="59.6959" y1="264.1389" y2="264.1389"/><line style="stroke:#000000;stroke-width:0.3848;" x1="59.6959" x2="59.6959" y1="264.1389" y2="273.1164"/><polygon fill="#000000" points="57.6439,267.9864,61.7479,267.9864,59.6959,273.1164" style="stroke:#000000;stroke-width:0.513;stroke-linejoin:miter;stroke-miterlimit:10;"/><line style="stroke:#000000;stroke-width:0.3848;" x1="795.9863" x2="795.9863" y1="350.0183" y2="352.5833"/><line style="stroke:#000000;stroke-width:0.3848;" x1="795.9863" x2="331.7964" y1="352.5833" y2="352.5833"/><line style="stroke:#000000;stroke-width:0.3848;" x1="331.7964" x2="331.7964" y1="352.5833" y2="360.2783"/><polygon fill="#000000" points="329.7444,355.1483,333.8484,355.1483,331.7964,360.2783" style="stroke:#000000;stroke-width:0.513;stroke-linejoin:miter;stroke-miterlimit:10;"/><line style="stroke:#000000;stroke-width:0.3848;" x1="331.7964" x2="331.7964" y1="385.9123" y2="388.4773"/><line style="stroke:#000000;stroke-width:0.3848;" x1="331.7964" x2="795.9863" y1="388.4773" y2="388.4773"/><line style="stroke:#000000;stroke-width:0.3848;" x1="795.9863" x2="795.9863" y1="388.4773" y2="396.1723"/><polygon fill="#000000" points="793.9343,391.0423,798.0383,391.0423,795.9863,396.1723" style="stroke:#000000;stroke-width:0.513;stroke-linejoin:miter;stroke-miterlimit:10;"/><line style="stroke:#000000;stroke-width:0.3848;" x1="836.584" x2="836.584" y1="483.3342" y2="485.8992"/><line style="stroke:#000000;stroke-width:0.3848;" x1="836.584" x2="372.394" y1="485.8992" y2="485.8992"/><line style="stroke:#000000;stroke-width:0.3848;" x1="372.394" x2="372.394" y1="485.8992" y2="493.5942"/><polygon fill="#000000" points="370.342,488.4642,374.446,488.4642,372.394,493.5942" style="stroke:#000000;stroke-width:0.513;stroke-linejoin:miter;stroke-miterlimit:10;"/><line style="stroke:#000000;stroke-width:0.3848;" x1="259.755" x2="732.9547" y1="237.2144" y2="237.2144"/><line style="stroke:#000000;stroke-width:0.3848;" x1="732.9547" x2="732.9547" y1="237.2144" y2="255.1614"/><polygon fill="#000000" points="730.9027,250.0314,735.0067,250.0314,732.9547,255.1614" style="stroke:#000000;stroke-width:0.513;stroke-linejoin:miter;stroke-miterlimit:10;"/><line style="stroke:#000000;stroke-width:0.3848;" x1="732.9547" x2="732.9547" y1="558.2161" y2="569.5021"/><line style="stroke:#000000;stroke-width:0.3848;" x1="732.9547" x2="229.5526" y1="569.5021" y2="569.5021"/><polygon fill="#000000" points="234.6826,567.4501,229.5526,569.5021,234.6826,571.5541" style="stroke:#000000;stroke-width:0.513;stroke-linejoin:miter;stroke-miterlimit:10;"/><line style="stroke:#000000;stroke-width:0.3848;" x1="561.8271" x2="567.9831" y1="211.5804" y2="211.5804"/><line style="stroke:#000000;stroke-width:0.3848;" x1="567.9831" x2="567.9831" y1="211.5804" y2="223.1109"/><line style="stroke:#000000;stroke-width:0.3848;" x1="567.9831" x2="223.3966" y1="223.1109" y2="223.1109"/><line style="stroke:#000000;stroke-width:0.3848;" x1="223.3966" x2="223.3966" y1="223.1109" y2="229.5274"/><polygon fill="#000000" points="221.3446,224.3974,225.4486,224.3974,223.3966,229.5274" style="stroke:#000000;stroke-width:0.513;stroke-linejoin:miter;stroke-miterlimit:10;"/><line style="stroke:#000000;stroke-width:0.3848;" x1="223.3966" x2="223.3966" y1="575.6581" y2="578.2231"/><line style="stroke:#000000;stroke-width:0.3848;" x1="223.3966" x2="989.3239" y1="578.2231" y2="578.2231"/><line style="stroke:#000000;stroke-width:0.3848;" x1="989.3239" x2="989.3239" y1="578.2231" y2="585.9181"/><polygon fill="#000000" points="987.2719,580.7881,991.3759,580.7881,989.3239,585.9181" style="stroke:#000000;stroke-width:0.513;stroke-linejoin:miter;stroke-miterlimit:10;"/><line style="stroke:#000000;stroke-width:0.3848;" x1="926.6475" x2="926.6475" y1="673.08" y2="675.645"/><line style="stroke:#000000;stroke-width:0.3848;" x1="926.6475" x2="78.8698" y1="675.645" y2="675.645"/><line style="stroke:#000000;stroke-width:0.3848;" x1="78.8698" x2="78.8698" y1="675.645" y2="683.34"/><polygon fill="#000000" points="76.8178,678.21,80.9218,678.21,78.8698,683.34" style="stroke:#000000;stroke-width:0.513;stroke-linejoin:miter;stroke-miterlimit:10;"/><line style="stroke:#000000;stroke-width:0.3848;" x1="204.2227" x2="204.2227" y1="673.08" y2="675.645"/><line style="stroke:#000000;stroke-width:0.3848;" x1="204.2227" x2="589.609" y1="675.645" y2="675.645"/><line style="stroke:#000000;stroke-width:0.3848;" x1="589.609" x2="589.609" y1="675.645" y2="683.34"/><polygon fill="#000000" points="587.557,678.21,591.661,678.21,589.609,683.34" style="stroke:#000000;stroke-width:0.513;stroke-linejoin:miter;stroke-miterlimit:10;"/><line style="stroke:#000000;stroke-width:0.3848;" x1="589.609" x2="589.609" y1="708.974" y2="711.539"/><line style="stroke:#000000;stroke-width:0.3848;" x1="589.609" x2="204.2227" y1="711.539" y2="711.539"/><line style="stroke:#000000;stroke-width:0.3848;" x1="204.2227" x2="204.2227" y1="711.539" y2="719.234"/><polygon fill="#000000" points="202.1707,714.104,206.2747,714.104,204.2227,719.234" style="stroke:#000000;stroke-width:0.513;stroke-linejoin:miter;stroke-miterlimit:10;"/><line style="stroke:#000000;stroke-width:0.3848;" x1="1029.097" x2="1035.253" y1="629.4991" y2="629.4991"/><line style="stroke:#000000;stroke-width:0.3848;" x1="1035.253" x2="1035.253" y1="629.4991" y2="641.0296"/><line style="stroke:#000000;stroke-width:0.3848;" x1="1035.253" x2="204.2227" y1="641.0296" y2="641.0296"/><line style="stroke:#000000;stroke-width:0.3848;" x1="204.2227" x2="204.2227" y1="641.0296" y2="647.4461"/><polygon fill="#000000" points="202.1707,642.3161,206.2747,642.3161,204.2227,647.4461" style="stroke:#000000;stroke-width:0.513;stroke-linejoin:miter;stroke-miterlimit:10;"/><line style="stroke:#000000;stroke-width:0.3848;" x1="78.8698" x2="78.8698" y1="708.974" y2="756.154"/><line style="stroke:#000000;stroke-width:0.3848;" x1="78.8698" x2="983.1679" y1="756.154" y2="756.154"/><polygon fill="#000000" points="978.0379,754.102,983.1679,756.154,978.0379,758.206" style="stroke:#000000;stroke-width:0.513;stroke-linejoin:miter;stroke-miterlimit:10;"/><line style="stroke:#000000;stroke-width:0.3848;" x1="204.2227" x2="204.2227" y1="744.868" y2="747.433"/><line style="stroke:#000000;stroke-width:0.3848;" x1="204.2227" x2="1004.7139" y1="747.433" y2="747.433"/><line style="stroke:#000000;stroke-width:0.3848;" x1="1004.7139" x2="1004.7139" y1="747.433" y2="756.154"/><line style="stroke:#000000;stroke-width:0.3848;" x1="1004.7139" x2="995.4799" y1="756.154" y2="756.154"/><polygon fill="#000000" points="1000.6099,754.102,995.4799,756.154,1000.6099,758.206" style="stroke:#000000;stroke-width:0.513;stroke-linejoin:miter;stroke-miterlimit:10;"/><line style="stroke:#000000;stroke-width:0.3848;" x1="989.3239" x2="989.3239" y1="762.31" y2="764.875"/><line style="stroke:#000000;stroke-width:0.3848;" x1="989.3239" x2="141.5462" y1="764.875" y2="764.875"/><line style="stroke:#000000;stroke-width:0.3848;" x1="141.5462" x2="141.5462" y1="764.875" y2="772.57"/><polygon fill="#000000" points="139.4942,767.44,143.5982,767.44,141.5462,772.57" style="stroke:#000000;stroke-width:0.513;stroke-linejoin:miter;stroke-miterlimit:10;"/><text fill="#000000" font-family="Helvetica" font-size="6.156" lengthAdjust="spacing" textLength="29.9023" x="195.3506" y="67.5707">Customer</text><text fill="#000000" font-family="Helvetica" font-size="6.156" lengthAdjust="spacing" textLength="22.9557" x="509.5975" y="67.5707">System</text><text fill="#000000" font-family="Helvetica" font-size="6.156" lengthAdjust="spacing" textLength="26.9836" x="734.8985" y="67.5707">Manager</text><text fill="#000000" font-family="Helvetica" font-size="6.156" lengthAdjust="spacing" textLength="56.3779" x="926.0147" y="67.5707">Payment Gateway</text><?plantuml-src bLJRRjj647tVhvYW1Me_s9Nj62qaeuMZGcc1n32aj7uUaqDfAdANtLrAPYq3_OX-ORuaiqjIaKmPIVXWYtCzS-OCNvKMvmK2lfwmd_03fSebc1CCJY_FBjIhpkrAIlmKFPisQCcwH8i5t6AQifx3ppksD-RXaFaMhUU4IzJ-aFizwt6EpjrnwXTmDXZi-Euibetz_7pNVcDIcb495vSxnYdgPMly0QeYFqaPv-9mfyREmL96bdH2u7mjatxyxtyOpsQmGik238xANFv9scbY2hYAGR-0gxN7XsFLlYjhZ8T71J0nsjzWGV0xvIkI-R0rplXVWhFpzcriScFXkq5ynFO6a-LRQogTjfv9VCJpZZKzZmws3mjEbfgSaztyT2d6QPDjDLa8GRC5fcOTM1se9wKyUvdkSG_Dw-ujJdvlylGhuNcBsWcxfFqUnBvz1sP0eOrlG7pRm7rCKWiJpolszM_DEcFPpWQFBtKOzHkC-lL7UtIU3U0f5BVMh46UnqCr-ak9IIAsmkWKlWcHP3wfgnzRSObiFop84VYr0KVUor8TB715e4qKA_rJyKhkLFHQauyQNf987Xrixs2uSnADr9std0HfxtYIS7BNNZptbQS_4gEZL0QTWAQK2NwuBajhf2FS6RlCShDMQZEkd3S5sOroNavR3MVLVS4-N5X8iGAId1-fuPzbRZ0O4k9I36epgvsdOgE6Vs7EAOf6Z4s5UCfvplUSoqP7YZCukcE_O0qN0qYnThyUWr-GXYDjZbLOp71AVykNwNElODm1riP8N-7EnbWsMbYKGwKcMa9BHRcmVLIJQyg6pjU5BCx35Nmldw9jusr8h7nTUNE2aPgsMbEeWnVHl4UDymvC2sZ5jEvuIj2roTlMJSNqSDUkyyBOiAccokS2VGHjpyWG5COIiCxCQC__ZBDjsgq0uPGWVAy3TQA0r2HL8SfppohqvcpxdjXctFqvltxMBypxyimnSS81SxFwKS_zmjY7PTDFZzhP0w9JpbJ_hVdL_5MRMwm3WV1MXB_6Miv0Q4x2LwGRBZ3JNfwhak3AghnFqN1iIVOYnoDd4-Oisye52LtfbywXaP_H6Ti2cmdtcHo-CtF8aFFAjglRNcvqtyWTPRL0B4jZFNZ2ud3F9d081UeghYEsBWCXUZxgY0bqVW80?></g></svg>