<svg xmlns="http://www.w3.org/2000/svg" xmlns:xlink="http://www.w3.org/1999/xlink" contentStyleType="text/css" data-diagram-type="ACTIVITY" height="794.703px" preserveAspectRatio="none" style="width:1095px;height:794px;background:#1A1A1A;" version="1.1" viewBox="0 0 1095 794" width="1095.315px" zoomAndPan="magnify"><title>Refund Approval Workflow</title><defs/><g><g class="title" data-source-line="53"><text fill="#E8E8E8" font-family="Helvetica" font-size="7.462" font-weight="bold" lengthAdjust="spacing" textLength="112.7607" x="490.7152" y="21.8504">Refund Approval Workflow</text></g><rect fill="none" height="15.9733" style="stroke:none;stroke-width:0.533;" width="1078.2012" x="7.995" y="34.2702"/><ellipse cx="144.3996" cy="58.2386" fill="#C0C0C0" rx="5.33" ry="5.33" style="stroke:#C0C0C0;stroke-width:0.533;"/><rect fill="#2D2D2D" height="26.6333" style="stroke:#C0C0C0;stroke-width:0.2665;" width="91.3804" x="98.7094" y="74.2286"/><text fill="#E8E8E8" font-family="Helvetica" font-size="6.396" lengthAdjust="spacing" textLength="22.6889" x="108.3034" y="89.7595">Submit</text><text fill="#E8E8E8" font-family="Helvetica" font-size="6.396" lengthAdjust="spacing" textLength="2.0331" x="130.9924" y="89.7595">&#160;</text><text fill="#E8E8E8" font-family="Helvetica" font-size="6.396" lengthAdjust="spacing" textLength="20.9838" x="133.0255" y="89.7595">refund</text><text fill="#E8E8E8" font-family="Helvetica" font-size="6.396" lengthAdjust="spacing" textLength="2.0331" x="154.0092" y="89.7595">&#160;</text><text fill="#E8E8E8" font-family="Helvetica" font-size="6.396" lengthAdjust="spacing" textLength="24.4535" x="156.0423" y="89.7595">request</text><rect fill="#2D2D2D" height="26.6333" style="stroke:#C0C0C0;stroke-width:0.2665;" width="65.9931" x="111.4031" y="111.5219"/><text fill="#E8E8E8" font-family="Helvetica" font-size="6.396" lengthAdjust="spacing" textLength="22.411" x="120.9971" y="127.0528">Upload</text><text fill="#E8E8E8" font-family="Helvetica" font-size="6.396" lengthAdjust="spacing" textLength="2.0331" x="143.408" y="127.0528">&#160;</text><text fill="#E8E8E8" font-family="Helvetica" font-size="6.396" lengthAdjust="spacing" textLength="22.361" x="145.4411" y="127.0528">receipt</text><rect fill="#2D2D2D" height="26.6333" style="stroke:#C0C0C0;stroke-width:0.2665;" width="96.3304" x="11.193" y="258.0303"/><text fill="#E8E8E8" font-family="Helvetica" font-size="6.396" lengthAdjust="spacing" textLength="25.3279" x="20.787" y="273.5612">Receive</text><text fill="#E8E8E8" font-family="Helvetica" font-size="6.396" lengthAdjust="spacing" textLength="2.0331" x="46.1149" y="273.5612">&#160;</text><text fill="#E8E8E8" font-family="Helvetica" font-size="6.396" lengthAdjust="spacing" textLength="28.045" x="48.148" y="273.5612">rejection</text><text fill="#E8E8E8" font-family="Helvetica" font-size="6.396" lengthAdjust="spacing" textLength="2.0331" x="76.193" y="273.5612">&#160;</text><text fill="#E8E8E8" font-family="Helvetica" font-size="6.396" lengthAdjust="spacing" textLength="19.7033" x="78.2261" y="273.5612">notice</text><ellipse cx="59.3582" cy="309.1816" fill="none" rx="5.863" ry="5.863" style="stroke:#C0C0C0;stroke-width:0.533;"/><ellipse cx="59.3582" cy="309.1816" fill="#C0C0C0" rx="3.198" ry="3.198" style="stroke:#C0C0C0;stroke-width:0.533;"/><polygon fill="#2D2D2D" points="198.0612,212.742,260.8209,212.742,267.2169,220.7286,260.8209,228.7153,198.0612,228.7153,191.6652,220.7286,198.0612,212.742" style="stroke:#C0C0C0;stroke-width:0.2665;"/><text fill="#E8E8E8" font-family="Helvetica" font-size="6.396" lengthAdjust="spacing" textLength="25.1343" x="202.3252" y="222.9429">Amount</text><text fill="#E8E8E8" font-family="Helvetica" font-size="6.396" lengthAdjust="spacing" textLength="2.0331" x="227.4594" y="222.9429">&#160;</text><text fill="#E8E8E8" font-family="Helvetica" font-size="6.396" lengthAdjust="spacing" textLength="5.3591" x="229.4925" y="222.9429">&lt;</text><text fill="#E8E8E8" font-family="Helvetica" font-size="6.396" lengthAdjust="spacing" textLength="2.0331" x="234.8517" y="222.9429">&#160;</text><text fill="#E8E8E8" font-family="Helvetica" font-size="6.396" lengthAdjust="spacing" textLength="19.6721" x="236.8848" y="222.9429">$100?</text><text fill="#E8E8E8" font-family="Helvetica" font-size="6.396" lengthAdjust="spacing" textLength="11.0525" x="176.3487" y="214.9562">yes</text><text fill="#E8E8E8" font-family="Helvetica" font-size="6.396" lengthAdjust="spacing" textLength="7.9669" x="271.4809" y="214.9562">no</text><rect fill="#2D2D2D" height="26.6333" style="stroke:#C0C0C0;stroke-width:0.2665;" width="62.6483" x="123.5134" y="239.3753"/><text fill="#E8E8E8" font-family="Helvetica" font-size="6.396" lengthAdjust="spacing" textLength="43.4603" x="133.1074" y="254.9062">Auto-approve</text><rect fill="#2D2D2D" height="26.6333" style="stroke:#C0C0C0;stroke-width:0.2665;" width="114.5783" x="284.7778" y="348.5903"/><text fill="#E8E8E8" font-family="Helvetica" font-size="6.396" lengthAdjust="spacing" textLength="23.9569" x="294.3718" y="364.1212">Provide</text><text fill="#E8E8E8" font-family="Helvetica" font-size="6.396" lengthAdjust="spacing" textLength="2.0331" x="318.3287" y="364.1212">&#160;</text><text fill="#E8E8E8" font-family="Helvetica" font-size="6.396" lengthAdjust="spacing" textLength="31.7645" x="320.3618" y="364.1212">additional</text><text fill="#E8E8E8" font-family="Helvetica" font-size="6.396" lengthAdjust="spacing" textLength="2.0331" x="352.1263" y="364.1212">&#160;</text><text fill="#E8E8E8" font-family="Helvetica" font-size="6.396" lengthAdjust="spacing" textLength="35.6027" x="354.1594" y="364.1212">documents</text><rect fill="#2D2D2D" height="26.6333" style="stroke:#C0C0C0;stroke-width:0.2665;" width="74.594" x="346.9503" y="487.1037"/><text fill="#E8E8E8" font-family="Helvetica" font-size="6.396" lengthAdjust="spacing" textLength="25.3279" x="356.5443" y="502.6346">Receive</text><text fill="#E8E8E8" font-family="Helvetica" font-size="6.396" lengthAdjust="spacing" textLength="2.0331" x="381.8722" y="502.6346">&#160;</text><text fill="#E8E8E8" font-family="Helvetica" font-size="6.396" lengthAdjust="spacing" textLength="28.045" x="383.9054" y="502.6346">rejection</text><ellipse cx="384.2473" cy="530.26" fill="none" rx="5.863" ry="5.863" style="stroke:#C0C0C0;stroke-width:0.533;"/><ellipse cx="384.2473" cy="530.26" fill="#C0C0C0" rx="3.198" ry="3.198" style="stroke:#C0C0C0;stroke-width:0.533;"/><polygon fill="#2D2D2D" points="229.441,559.575,235.837,565.971,229.441,572.367,223.045,565.971,229.441,559.575" style="stroke:#C0C0C0;stroke-width:0.2665;"/><rect fill="#2D2D2D" height="26.6333" style="stroke:#C0C0C0;stroke-width:0.2665;" width="110.1093" x="24.225" y="684.2471"/><text fill="#E8E8E8" font-family="Helvetica" font-size="6.396" lengthAdjust="spacing" textLength="25.3279" x="33.819" y="699.778">Receive</text><text fill="#E8E8E8" font-family="Helvetica" font-size="6.396" lengthAdjust="spacing" textLength="2.0331" x="59.1469" y="699.778">&#160;</text><text fill="#E8E8E8" font-family="Helvetica" font-size="6.396" lengthAdjust="spacing" textLength="20.9838" x="61.18" y="699.778">refund</text><text fill="#E8E8E8" font-family="Helvetica" font-size="6.396" lengthAdjust="spacing" textLength="2.0331" x="82.1638" y="699.778">&#160;</text><text fill="#E8E8E8" font-family="Helvetica" font-size="6.396" lengthAdjust="spacing" textLength="40.5434" x="84.1969" y="699.778">confirmation</text><rect fill="#2D2D2D" height="26.6333" style="stroke:#C0C0C0;stroke-width:0.2665;" width="53.3" x="182.8696" y="646.9537"/><text fill="#E8E8E8" font-family="Helvetica" font-size="6.396" lengthAdjust="spacing" textLength="11.5365" x="192.4636" y="662.4846">Log</text><text fill="#E8E8E8" font-family="Helvetica" font-size="6.396" lengthAdjust="spacing" textLength="2.0331" x="204.0001" y="662.4846">&#160;</text><text fill="#E8E8E8" font-family="Helvetica" font-size="6.396" lengthAdjust="spacing" textLength="20.3435" x="206.0332" y="662.4846">failure</text><rect fill="#2D2D2D" height="26.6333" style="stroke:#C0C0C0;stroke-width:0.2665;" width="117.3985" x="150.8203" y="721.5404"/><text fill="#E8E8E8" font-family="Helvetica" font-size="6.396" lengthAdjust="spacing" textLength="21.1743" x="160.4143" y="737.0713">Notify:</text><text fill="#E8E8E8" font-family="Helvetica" font-size="6.396" lengthAdjust="spacing" textLength="2.0331" x="181.5886" y="737.0713">&#160;</text><text fill="#E8E8E8" font-family="Helvetica" font-size="6.396" lengthAdjust="spacing" textLength="23.9538" x="183.6217" y="737.0713">manual</text><text fill="#E8E8E8" font-family="Helvetica" font-size="6.396" lengthAdjust="spacing" textLength="2.0331" x="207.5755" y="737.0713">&#160;</text><text fill="#E8E8E8" font-family="Helvetica" font-size="6.396" lengthAdjust="spacing" textLength="20.9838" x="209.6086" y="737.0713">refund</text><text fill="#E8E8E8" font-family="Helvetica" font-size="6.396" lengthAdjust="spacing" textLength="2.0331" x="230.5923" y="737.0713">&#160;</text><text fill="#E8E8E8" font-family="Helvetica" font-size="6.396" lengthAdjust="spacing" textLength="25.9994" x="232.6254" y="737.0713">pending</text><ellipse cx="144.3996" cy="782.8188" fill="none" rx="5.863" ry="5.863" style="stroke:#C0C0C0;stroke-width:0.533;"/><ellipse cx="144.3996" cy="782.8188" fill="#C0C0C0" rx="3.198" ry="3.198" style="stroke:#C0C0C0;stroke-width:0.533;"/><line style="stroke:#C0C0C0;stroke-width:0.7995;" x1="7.995" x2="7.995" y1="34.2702" y2="788.6818"/><rect fill="#2D2D2D" height="26.6333" style="stroke:#C0C0C0;stroke-width:0.2665;" width="95.7026" x="496.9595" y="148.8153"/><text fill="#E8E8E8" font-family="Helvetica" font-size="6.396" lengthAdjust="spacing" textLength="26.2711" x="506.5535" y="164.3462">Validate</text><text fill="#E8E8E8" font-family="Helvetica" font-size="6.396" lengthAdjust="spacing" textLength="2.0331" x="532.8245" y="164.3462">&#160;</text><text fill="#E8E8E8" font-family="Helvetica" font-size="6.396" lengthAdjust="spacing" textLength="17.1674" x="534.8576" y="164.3462">order</text><text fill="#E8E8E8" font-family="Helvetica" font-size="6.396" lengthAdjust="spacing" textLength="2.0331" x="552.025" y="164.3462">&#160;</text><text fill="#E8E8E8" font-family="Helvetica" font-size="6.396" lengthAdjust="spacing" textLength="29.01" x="554.0581" y="164.3462">eligibility</text><polygon fill="#2D2D2D" points="514.9518,186.1086,574.6697,186.1086,581.0657,194.0953,574.6697,202.082,514.9518,202.082,508.5558,194.0953,514.9518,186.1086" style="stroke:#C0C0C0;stroke-width:0.2665;"/><text fill="#E8E8E8" font-family="Helvetica" font-size="6.396" lengthAdjust="spacing" textLength="20.4934" x="519.2158" y="196.3095">Within</text><text fill="#E8E8E8" font-family="Helvetica" font-size="6.396" lengthAdjust="spacing" textLength="2.0331" x="539.7093" y="196.3095">&#160;</text><text fill="#E8E8E8" font-family="Helvetica" font-size="6.396" lengthAdjust="spacing" textLength="8.1387" x="541.7424" y="196.3095">30</text><text fill="#E8E8E8" font-family="Helvetica" font-size="6.396" lengthAdjust="spacing" textLength="2.0331" x="549.881" y="196.3095">&#160;</text><text fill="#E8E8E8" font-family="Helvetica" font-size="6.396" lengthAdjust="spacing" textLength="18.4916" x="551.9141" y="196.3095">days?</text><text fill="#E8E8E8" font-family="Helvetica" font-size="6.396" lengthAdjust="spacing" textLength="7.9669" x="496.325" y="188.3228">no</text><text fill="#E8E8E8" font-family="Helvetica" font-size="6.396" lengthAdjust="spacing" textLength="11.0525" x="585.3297" y="188.3228">yes</text><rect fill="#2D2D2D" height="26.6333" style="stroke:#C0C0C0;stroke-width:0.2665;" width="65.7901" x="426.8743" y="212.742"/><text fill="#E8E8E8" font-family="Helvetica" font-size="6.396" lengthAdjust="spacing" textLength="20.1155" x="436.4683" y="228.2729">Reject</text><text fill="#E8E8E8" font-family="Helvetica" font-size="6.396" lengthAdjust="spacing" textLength="2.0331" x="456.5839" y="228.2729">&#160;</text><text fill="#E8E8E8" font-family="Helvetica" font-size="6.396" lengthAdjust="spacing" textLength="24.4535" x="458.617" y="228.2729">request</text><rect fill="#2D2D2D" height="26.6333" style="stroke:#C0C0C0;stroke-width:0.2665;" width="83.4228" x="568.2193" y="684.2471"/><text fill="#E8E8E8" font-family="Helvetica" font-size="6.396" lengthAdjust="spacing" textLength="19.0194" x="577.8133" y="699.778">Notify</text><text fill="#E8E8E8" font-family="Helvetica" font-size="6.396" lengthAdjust="spacing" textLength="2.0331" x="596.8327" y="699.778">&#160;</text><text fill="#E8E8E8" font-family="Helvetica" font-size="6.396" lengthAdjust="spacing" textLength="24.5565" x="598.8658" y="699.778">support</text><text fill="#E8E8E8" font-family="Helvetica" font-size="6.396" lengthAdjust="spacing" textLength="2.0331" x="623.4223" y="699.778">&#160;</text><text fill="#E8E8E8" font-family="Helvetica" font-size="6.396" lengthAdjust="spacing" textLength="16.5927" x="625.4554" y="699.778">team</text><line style="stroke:#C0C0C0;stroke-width:0.7995;" x1="423.6763" x2="423.6763" y1="34.2702" y2="788.6818"/><rect fill="#2D2D2D" height="26.6333" style="stroke:#C0C0C0;stroke-width:0.2665;" width="82.0487" x="717.8406" y="239.3753"/><text fill="#E8E8E8" font-family="Helvetica" font-size="6.396" lengthAdjust="spacing" textLength="23.1074" x="727.4346" y="254.9062">Review</text><text fill="#E8E8E8" font-family="Helvetica" font-size="6.396" lengthAdjust="spacing" textLength="2.0331" x="750.542" y="254.9062">&#160;</text><text fill="#E8E8E8" font-family="Helvetica" font-size="6.396" lengthAdjust="spacing" textLength="20.9838" x="752.5751" y="254.9062">refund</text><text fill="#E8E8E8" font-family="Helvetica" font-size="6.396" lengthAdjust="spacing" textLength="2.0331" x="773.5589" y="254.9062">&#160;</text><text fill="#E8E8E8" font-family="Helvetica" font-size="6.396" lengthAdjust="spacing" textLength="14.7033" x="775.592" y="254.9062">case</text><polygon fill="#2D2D2D" points="737.4944,284.6636,780.2354,284.6636,786.6314,292.6503,780.2354,300.637,737.4944,300.637,731.0984,292.6503,737.4944,284.6636" style="stroke:#C0C0C0;stroke-width:0.2665;"/><text fill="#E8E8E8" font-family="Helvetica" font-size="6.396" lengthAdjust="spacing" textLength="34.213" x="741.7584" y="294.8646">Approved?</text><text fill="#E8E8E8" font-family="Helvetica" font-size="6.396" lengthAdjust="spacing" textLength="11.0525" x="715.782" y="286.8779">yes</text><text fill="#E8E8E8" font-family="Helvetica" font-size="6.396" lengthAdjust="spacing" textLength="7.9669" x="790.8954" y="286.8779">no</text><rect fill="#2D2D2D" height="26.6333" style="stroke:#C0C0C0;stroke-width:0.2665;" width="72.8076" x="656.9721" y="311.297"/><text fill="#E8E8E8" font-family="Helvetica" font-size="6.396" lengthAdjust="spacing" textLength="30.6027" x="666.5661" y="326.8279">Authorize</text><text fill="#E8E8E8" font-family="Helvetica" font-size="6.396" lengthAdjust="spacing" textLength="2.0331" x="697.1689" y="326.8279">&#160;</text><text fill="#E8E8E8" font-family="Helvetica" font-size="6.396" lengthAdjust="spacing" textLength="20.9838" x="699.202" y="326.8279">refund</text><rect fill="#2D2D2D" height="26.6333" style="stroke:#C0C0C0;stroke-width:0.2665;" width="78.2261" x="785.2409" y="311.297"/><text fill="#E8E8E8" font-family="Helvetica" font-size="6.396" lengthAdjust="spacing" textLength="26.2679" x="794.8349" y="326.8279">Request</text><text fill="#E8E8E8" font-family="Helvetica" font-size="6.396" lengthAdjust="spacing" textLength="2.0331" x="821.1028" y="326.8279">&#160;</text><text fill="#E8E8E8" font-family="Helvetica" font-size="6.396" lengthAdjust="spacing" textLength="16.7083" x="823.1359" y="326.8279">more</text><text fill="#E8E8E8" font-family="Helvetica" font-size="6.396" lengthAdjust="spacing" textLength="2.0331" x="839.8442" y="326.8279">&#160;</text><text fill="#E8E8E8" font-family="Helvetica" font-size="6.396" lengthAdjust="spacing" textLength="11.9956" x="841.8773" y="326.8279">info</text><rect fill="#2D2D2D" height="26.6333" style="stroke:#C0C0C0;stroke-width:0.2665;" width="67.9044" x="790.4017" y="385.8837"/><text fill="#E8E8E8" font-family="Helvetica" font-size="6.396" lengthAdjust="spacing" textLength="31.98" x="799.9957" y="401.4146">Re-review</text><text fill="#E8E8E8" font-family="Helvetica" font-size="6.396" lengthAdjust="spacing" textLength="2.0331" x="831.9757" y="401.4146">&#160;</text><text fill="#E8E8E8" font-family="Helvetica" font-size="6.396" lengthAdjust="spacing" textLength="14.7033" x="834.0088" y="401.4146">case</text><polygon fill="#2D2D2D" points="802.9834,423.177,845.7244,423.177,852.1204,431.1637,845.7244,439.1504,802.9834,439.1504,796.5874,431.1637,802.9834,423.177" style="stroke:#C0C0C0;stroke-width:0.2665;"/><text fill="#E8E8E8" font-family="Helvetica" font-size="6.396" lengthAdjust="spacing" textLength="34.213" x="807.2474" y="433.3779">Approved?</text><text fill="#E8E8E8" font-family="Helvetica" font-size="6.396" lengthAdjust="spacing" textLength="11.0525" x="781.271" y="425.3913">yes</text><text fill="#E8E8E8" font-family="Helvetica" font-size="6.396" lengthAdjust="spacing" textLength="7.9669" x="856.3844" y="425.3913">no</text><rect fill="#2D2D2D" height="26.6333" style="stroke:#C0C0C0;stroke-width:0.2665;" width="72.8076" x="745.7697" y="449.8104"/><text fill="#E8E8E8" font-family="Helvetica" font-size="6.396" lengthAdjust="spacing" textLength="30.6027" x="755.3637" y="465.3413">Authorize</text><text fill="#E8E8E8" font-family="Helvetica" font-size="6.396" lengthAdjust="spacing" textLength="2.0331" x="785.9665" y="465.3413">&#160;</text><text fill="#E8E8E8" font-family="Helvetica" font-size="6.396" lengthAdjust="spacing" textLength="20.9838" x="787.9996" y="465.3413">refund</text><rect fill="#2D2D2D" height="26.6333" style="stroke:#C0C0C0;stroke-width:0.2665;" width="54.7283" x="839.1702" y="449.8104"/><text fill="#E8E8E8" font-family="Helvetica" font-size="6.396" lengthAdjust="spacing" textLength="15.2061" x="848.7642" y="465.3413">Final</text><text fill="#E8E8E8" font-family="Helvetica" font-size="6.396" lengthAdjust="spacing" textLength="2.0331" x="863.9703" y="465.3413">&#160;</text><text fill="#E8E8E8" font-family="Helvetica" font-size="6.396" lengthAdjust="spacing" textLength="18.3011" x="866.0034" y="465.3413">reject</text><polygon fill="#2D2D2D" points="758.8649,541.453,765.2609,547.849,758.8649,554.245,752.4689,547.849,758.8649,541.453" style="stroke:#C0C0C0;stroke-width:0.2665;"/><line style="stroke:#C0C0C0;stroke-width:0.7995;" x1="653.7741" x2="653.7741" y1="34.2702" y2="788.6818"/><rect fill="#2D2D2D" height="26.6333" style="stroke:#C0C0C0;stroke-width:0.2665;" width="66.7208" x="991.8687" y="583.027"/><text fill="#E8E8E8" font-family="Helvetica" font-size="6.396" lengthAdjust="spacing" textLength="24.5159" x="1001.4627" y="598.558">Process</text><text fill="#E8E8E8" font-family="Helvetica" font-size="6.396" lengthAdjust="spacing" textLength="2.0331" x="1025.9786" y="598.558">&#160;</text><text fill="#E8E8E8" font-family="Helvetica" font-size="6.396" lengthAdjust="spacing" textLength="20.9838" x="1028.0117" y="598.558">refund</text><polygon fill="#2D2D2D" points="990.3014,620.3204,1060.1567,620.3204,1066.5527,628.3071,1060.1567,636.2937,990.3014,636.2937,983.9054,628.3071,990.3014,620.3204" style="stroke:#C0C0C0;stroke-width:0.2665;"/><text fill="#E8E8E8" font-family="Helvetica" font-size="6.396" lengthAdjust="spacing" textLength="22.7982" x="994.5654" y="630.5213">Refund</text><text fill="#E8E8E8" font-family="Helvetica" font-size="6.396" lengthAdjust="spacing" textLength="2.0331" x="1017.3637" y="630.5213">&#160;</text><text fill="#E8E8E8" font-family="Helvetica" font-size="6.396" lengthAdjust="spacing" textLength="36.4959" x="1019.3968" y="630.5213">successful?</text><text fill="#E8E8E8" font-family="Helvetica" font-size="6.396" lengthAdjust="spacing" textLength="11.0525" x="968.589" y="622.5346">yes</text><text fill="#E8E8E8" font-family="Helvetica" font-size="6.396" lengthAdjust="spacing" textLength="7.9669" x="1070.8167" y="622.5346">no</text><rect fill="#2D2D2D" height="26.6333" style="stroke:#C0C0C0;stroke-width:0.2665;" width="121.7614" x="899.2285" y="646.9537"/><text fill="#E8E8E8" font-family="Helvetica" font-size="6.396" lengthAdjust="spacing" textLength="19.3754" x="908.8225" y="662.4846">Credit</text><text fill="#E8E8E8" font-family="Helvetica" font-size="6.396" lengthAdjust="spacing" textLength="2.0331" x="928.1978" y="662.4846">&#160;</text><text fill="#E8E8E8" font-family="Helvetica" font-size="6.396" lengthAdjust="spacing" textLength="23.9069" x="930.2309" y="662.4846">original</text><text fill="#E8E8E8" font-family="Helvetica" font-size="6.396" lengthAdjust="spacing" textLength="2.0331" x="954.1379" y="662.4846">&#160;</text><text fill="#E8E8E8" font-family="Helvetica" font-size="6.396" lengthAdjust="spacing" textLength="28.4916" x="956.171" y="662.4846">payment</text><text fill="#E8E8E8" font-family="Helvetica" font-size="6.396" lengthAdjust="spacing" textLength="2.0331" x="984.6625" y="662.4846">&#160;</text><text fill="#E8E8E8" font-family="Helvetica" font-size="6.396" lengthAdjust="spacing" textLength="24.7002" x="986.6956" y="662.4846">method</text><polygon fill="#2D2D2D" points="1025.2291,753.5038,1031.6251,759.8998,1025.2291,766.2958,1018.8331,759.8998,1025.2291,753.5038" style="stroke:#C0C0C0;stroke-width:0.2665;"/><line style="stroke:#C0C0C0;stroke-width:0.7995;" x1="896.0305" x2="896.0305" y1="34.2702" y2="788.6818"/><line style="stroke:#C0C0C0;stroke-width:0.7995;" x1="1081.4486" x2="1081.4486" y1="34.2702" y2="788.6818"/><line style="stroke:#C0C0C0;stroke-width:0.3998;" x1="144.3996" x2="144.3996" y1="63.5686" y2="74.2286"/><polygon fill="#E8E8E8" points="142.2676,68.8986,146.5316,68.8986,144.3996,74.2286" style="stroke:#C0C0C0;stroke-width:0.533;"/><line style="stroke:#C0C0C0;stroke-width:0.3998;" x1="144.3996" x2="144.3996" y1="100.8619" y2="111.5219"/><polygon fill="#E8E8E8" points="142.2676,106.1919,146.5316,106.1919,144.3996,111.5219" style="stroke:#C0C0C0;stroke-width:0.533;"/><line style="stroke:#C0C0C0;stroke-width:0.3998;" x1="59.3582" x2="59.3582" y1="284.6636" y2="303.3186"/><polygon fill="#E8E8E8" points="57.2262,297.9886,61.4902,297.9886,59.3582,303.3186" style="stroke:#C0C0C0;stroke-width:0.533;"/><line style="stroke:#C0C0C0;stroke-width:0.3998;" x1="384.2473" x2="384.2473" y1="513.737" y2="524.397"/><polygon fill="#E8E8E8" points="382.1153,519.067,386.3793,519.067,384.2473,524.397" style="stroke:#C0C0C0;stroke-width:0.533;"/><line style="stroke:#C0C0C0;stroke-width:0.3998;" x1="191.6652" x2="154.8375" y1="220.7286" y2="220.7286"/><line style="stroke:#C0C0C0;stroke-width:0.3998;" x1="154.8375" x2="154.8375" y1="220.7286" y2="239.3753"/><polygon fill="#E8E8E8" points="152.7055,234.0453,156.9695,234.0453,154.8375,239.3753" style="stroke:#C0C0C0;stroke-width:0.533;"/><line style="stroke:#C0C0C0;stroke-width:0.3998;" x1="154.8375" x2="154.8375" y1="266.0086" y2="565.971"/><line style="stroke:#C0C0C0;stroke-width:0.3998;" x1="154.8375" x2="223.045" y1="565.971" y2="565.971"/><polygon fill="#E8E8E8" points="217.715,563.839,223.045,565.971,217.715,568.103" style="stroke:#C0C0C0;stroke-width:0.533;"/><line style="stroke:#C0C0C0;stroke-width:0.3998;" x1="508.5558" x2="459.7694" y1="194.0953" y2="194.0953"/><line style="stroke:#C0C0C0;stroke-width:0.3998;" x1="459.7694" x2="459.7694" y1="194.0953" y2="212.742"/><polygon fill="#E8E8E8" points="457.6374,207.412,461.9014,207.412,459.7694,212.742" style="stroke:#C0C0C0;stroke-width:0.533;"/><line style="stroke:#C0C0C0;stroke-width:0.3998;" x1="544.8108" x2="544.8108" y1="175.4486" y2="186.1086"/><polygon fill="#E8E8E8" points="542.6788,180.7786,546.9428,180.7786,544.8108,186.1086" style="stroke:#C0C0C0;stroke-width:0.533;"/><line style="stroke:#C0C0C0;stroke-width:0.3998;" x1="796.5874" x2="782.1735" y1="431.1637" y2="431.1637"/><line style="stroke:#C0C0C0;stroke-width:0.3998;" x1="782.1735" x2="782.1735" y1="431.1637" y2="449.8104"/><polygon fill="#E8E8E8" points="780.0415,444.4804,784.3055,444.4804,782.1735,449.8104" style="stroke:#C0C0C0;stroke-width:0.533;"/><line style="stroke:#C0C0C0;stroke-width:0.3998;" x1="852.1204" x2="866.5343" y1="431.1637" y2="431.1637"/><line style="stroke:#C0C0C0;stroke-width:0.3998;" x1="866.5343" x2="866.5343" y1="431.1637" y2="449.8104"/><polygon fill="#E8E8E8" points="864.4023,444.4804,868.6663,444.4804,866.5343,449.8104" style="stroke:#C0C0C0;stroke-width:0.533;"/><line style="stroke:#C0C0C0;stroke-width:0.3998;" x1="782.1735" x2="782.1735" y1="476.4437" y2="547.849"/><line style="stroke:#C0C0C0;stroke-width:0.3998;" x1="782.1735" x2="765.2609" y1="547.849" y2="547.849"/><polygon fill="#E8E8E8" points="770.5909,545.717,765.2609,547.849,770.5909,549.981" style="stroke:#C0C0C0;stroke-width:0.533;"/><line style="stroke:#C0C0C0;stroke-width:0.3998;" x1="824.3539" x2="824.3539" y1="412.517" y2="423.177"/><polygon fill="#E8E8E8" points="822.2219,417.847,826.4859,417.847,824.3539,423.177" style="stroke:#C0C0C0;stroke-width:0.533;"/><line style="stroke:#C0C0C0;stroke-width:0.3998;" x1="731.0984" x2="693.3759" y1="292.6503" y2="292.6503"/><line style="stroke:#C0C0C0;stroke-width:0.3998;" x1="693.3759" x2="693.3759" y1="292.6503" y2="311.297"/><polygon fill="#E8E8E8" points="691.2439,305.967,695.5079,305.967,693.3759,311.297" style="stroke:#C0C0C0;stroke-width:0.533;"/><line style="stroke:#C0C0C0;stroke-width:0.3998;" x1="786.6314" x2="824.3539" y1="292.6503" y2="292.6503"/><line style="stroke:#C0C0C0;stroke-width:0.3998;" x1="824.3539" x2="824.3539" y1="292.6503" y2="311.297"/><polygon fill="#E8E8E8" points="822.2219,305.967,826.4859,305.967,824.3539,311.297" style="stroke:#C0C0C0;stroke-width:0.533;"/><line style="stroke:#C0C0C0;stroke-width:0.3998;" x1="693.3759" x2="693.3759" y1="337.9303" y2="547.849"/><line style="stroke:#C0C0C0;stroke-width:0.3998;" x1="693.3759" x2="752.4689" y1="547.849" y2="547.849"/><polygon fill="#E8E8E8" points="747.1389,545.717,752.4689,547.849,747.1389,549.981" style="stroke:#C0C0C0;stroke-width:0.533;"/><line style="stroke:#C0C0C0;stroke-width:0.3998;" x1="758.8649" x2="758.8649" y1="266.0086" y2="284.6636"/><polygon fill="#E8E8E8" points="756.7329,279.3336,760.9969,279.3336,758.8649,284.6636" style="stroke:#C0C0C0;stroke-width:0.533;"/><line style="stroke:#C0C0C0;stroke-width:0.3998;" x1="983.9054" x2="960.1091" y1="628.3071" y2="628.3071"/><line style="stroke:#C0C0C0;stroke-width:0.3998;" x1="960.1091" x2="960.1091" y1="628.3071" y2="646.9537"/><polygon fill="#E8E8E8" points="957.9771,641.6237,962.2411,641.6237,960.1091,646.9537" style="stroke:#C0C0C0;stroke-width:0.533;"/><line style="stroke:#C0C0C0;stroke-width:0.3998;" x1="1025.2291" x2="1025.2291" y1="609.6604" y2="620.3204"/><polygon fill="#E8E8E8" points="1023.0971,614.9904,1027.3611,614.9904,1025.2291,620.3204" style="stroke:#C0C0C0;stroke-width:0.533;"/><line style="stroke:#C0C0C0;stroke-width:0.3998;" x1="144.3996" x2="144.3996" y1="138.1553" y2="140.8203"/><line style="stroke:#C0C0C0;stroke-width:0.3998;" x1="144.3996" x2="544.8108" y1="140.8203" y2="140.8203"/><line style="stroke:#C0C0C0;stroke-width:0.3998;" x1="544.8108" x2="544.8108" y1="140.8203" y2="148.8153"/><polygon fill="#E8E8E8" points="542.6788,143.4853,546.9428,143.4853,544.8108,148.8153" style="stroke:#C0C0C0;stroke-width:0.533;"/><line style="stroke:#C0C0C0;stroke-width:0.3998;" x1="459.7694" x2="459.7694" y1="239.3753" y2="248.7028"/><line style="stroke:#C0C0C0;stroke-width:0.3998;" x1="459.7694" x2="59.3582" y1="248.7028" y2="248.7028"/><line style="stroke:#C0C0C0;stroke-width:0.3998;" x1="59.3582" x2="59.3582" y1="248.7028" y2="258.0303"/><polygon fill="#E8E8E8" points="57.2262,252.7003,61.4902,252.7003,59.3582,258.0303" style="stroke:#C0C0C0;stroke-width:0.533;"/><line style="stroke:#C0C0C0;stroke-width:0.3998;" x1="824.3539" x2="824.3539" y1="337.9303" y2="340.5953"/><line style="stroke:#C0C0C0;stroke-width:0.3998;" x1="824.3539" x2="342.0669" y1="340.5953" y2="340.5953"/><line style="stroke:#C0C0C0;stroke-width:0.3998;" x1="342.0669" x2="342.0669" y1="340.5953" y2="348.5903"/><polygon fill="#E8E8E8" points="339.9349,343.2603,344.1989,343.2603,342.0669,348.5903" style="stroke:#C0C0C0;stroke-width:0.533;"/><line style="stroke:#C0C0C0;stroke-width:0.3998;" x1="342.0669" x2="342.0669" y1="375.2237" y2="377.8887"/><line style="stroke:#C0C0C0;stroke-width:0.3998;" x1="342.0669" x2="824.3539" y1="377.8887" y2="377.8887"/><line style="stroke:#C0C0C0;stroke-width:0.3998;" x1="824.3539" x2="824.3539" y1="377.8887" y2="385.8837"/><polygon fill="#E8E8E8" points="822.2219,380.5537,826.4859,380.5537,824.3539,385.8837" style="stroke:#C0C0C0;stroke-width:0.533;"/><line style="stroke:#C0C0C0;stroke-width:0.3998;" x1="866.5343" x2="866.5343" y1="476.4437" y2="479.1087"/><line style="stroke:#C0C0C0;stroke-width:0.3998;" x1="866.5343" x2="384.2473" y1="479.1087" y2="479.1087"/><line style="stroke:#C0C0C0;stroke-width:0.3998;" x1="384.2473" x2="384.2473" y1="479.1087" y2="487.1037"/><polygon fill="#E8E8E8" points="382.1153,481.7737,386.3793,481.7737,384.2473,487.1037" style="stroke:#C0C0C0;stroke-width:0.533;"/><line style="stroke:#C0C0C0;stroke-width:0.3998;" x1="267.2169" x2="758.8649" y1="220.7286" y2="220.7286"/><line style="stroke:#C0C0C0;stroke-width:0.3998;" x1="758.8649" x2="758.8649" y1="220.7286" y2="239.3753"/><polygon fill="#E8E8E8" points="756.7329,234.0453,760.9969,234.0453,758.8649,239.3753" style="stroke:#C0C0C0;stroke-width:0.533;"/><line style="stroke:#C0C0C0;stroke-width:0.3998;" x1="758.8649" x2="758.8649" y1="554.245" y2="565.971"/><line style="stroke:#C0C0C0;stroke-width:0.3998;" x1="758.8649" x2="235.837" y1="565.971" y2="565.971"/><polygon fill="#E8E8E8" points="241.167,563.839,235.837,565.971,241.167,568.103" style="stroke:#C0C0C0;stroke-width:0.533;"/><line style="stroke:#C0C0C0;stroke-width:0.3998;" x1="581.0657" x2="587.4617" y1="194.0953" y2="194.0953"/><line style="stroke:#C0C0C0;stroke-width:0.3998;" x1="587.4617" x2="587.4617" y1="194.0953" y2="206.0753"/><line style="stroke:#C0C0C0;stroke-width:0.3998;" x1="587.4617" x2="229.441" y1="206.0753" y2="206.0753"/><line style="stroke:#C0C0C0;stroke-width:0.3998;" x1="229.441" x2="229.441" y1="206.0753" y2="212.742"/><polygon fill="#E8E8E8" points="227.309,207.412,231.573,207.412,229.441,212.742" style="stroke:#C0C0C0;stroke-width:0.533;"/><line style="stroke:#C0C0C0;stroke-width:0.3998;" x1="229.441" x2="229.441" y1="572.367" y2="575.032"/><line style="stroke:#C0C0C0;stroke-width:0.3998;" x1="229.441" x2="1025.2291" y1="575.032" y2="575.032"/><line style="stroke:#C0C0C0;stroke-width:0.3998;" x1="1025.2291" x2="1025.2291" y1="575.032" y2="583.027"/><polygon fill="#E8E8E8" points="1023.0971,577.697,1027.3611,577.697,1025.2291,583.027" style="stroke:#C0C0C0;stroke-width:0.533;"/><line style="stroke:#C0C0C0;stroke-width:0.3998;" x1="960.1091" x2="960.1091" y1="673.5871" y2="676.2521"/><line style="stroke:#C0C0C0;stroke-width:0.3998;" x1="960.1091" x2="79.2797" y1="676.2521" y2="676.2521"/><line style="stroke:#C0C0C0;stroke-width:0.3998;" x1="79.2797" x2="79.2797" y1="676.2521" y2="684.2471"/><polygon fill="#E8E8E8" points="77.1477,678.9171,81.4117,678.9171,79.2797,684.2471" style="stroke:#C0C0C0;stroke-width:0.533;"/><line style="stroke:#C0C0C0;stroke-width:0.3998;" x1="209.5196" x2="209.5196" y1="673.5871" y2="676.2521"/><line style="stroke:#C0C0C0;stroke-width:0.3998;" x1="209.5196" x2="609.9307" y1="676.2521" y2="676.2521"/><line style="stroke:#C0C0C0;stroke-width:0.3998;" x1="609.9307" x2="609.9307" y1="676.2521" y2="684.2471"/><polygon fill="#E8E8E8" points="607.7987,678.9171,612.0627,678.9171,609.9307,684.2471" style="stroke:#C0C0C0;stroke-width:0.533;"/><line style="stroke:#C0C0C0;stroke-width:0.3998;" x1="609.9307" x2="609.9307" y1="710.8804" y2="713.5454"/><line style="stroke:#C0C0C0;stroke-width:0.3998;" x1="609.9307" x2="209.5196" y1="713.5454" y2="713.5454"/><line style="stroke:#C0C0C0;stroke-width:0.3998;" x1="209.5196" x2="209.5196" y1="713.5454" y2="721.5404"/><polygon fill="#E8E8E8" points="207.3876,716.2104,211.6516,716.2104,209.5196,721.5404" style="stroke:#C0C0C0;stroke-width:0.533;"/><line style="stroke:#C0C0C0;stroke-width:0.3998;" x1="1066.5527" x2="1072.9487" y1="628.3071" y2="628.3071"/><line style="stroke:#C0C0C0;stroke-width:0.3998;" x1="1072.9487" x2="1072.9487" y1="628.3071" y2="640.2871"/><line style="stroke:#C0C0C0;stroke-width:0.3998;" x1="1072.9487" x2="209.5196" y1="640.2871" y2="640.2871"/><line style="stroke:#C0C0C0;stroke-width:0.3998;" x1="209.5196" x2="209.5196" y1="640.2871" y2="646.9537"/><polygon fill="#E8E8E8" points="207.3876,641.6237,211.6516,641.6237,209.5196,646.9537" style="stroke:#C0C0C0;stroke-width:0.533;"/><line style="stroke:#C0C0C0;stroke-width:0.3998;" x1="79.2797" x2="79.2797" y1="710.8804" y2="759.8998"/><line style="stroke:#C0C0C0;stroke-width:0.3998;" x1="79.2797" x2="1018.8331" y1="759.8998" y2="759.8998"/><polygon fill="#E8E8E8" points="1013.5031,757.7678,1018.8331,759.8998,1013.5031,762.0318" style="stroke:#C0C0C0;stroke-width:0.533;"/><line style="stroke:#C0C0C0;stroke-width:0.3998;" x1="209.5196" x2="209.5196" y1="748.1738" y2="750.8388"/><line style="stroke:#C0C0C0;stroke-width:0.3998;" x1="209.5196" x2="1041.2191" y1="750.8388" y2="750.8388"/><line style="stroke:#C0C0C0;stroke-width:0.3998;" x1="1041.2191" x2="1041.2191" y1="750.8388" y2="759.8998"/><line style="stroke:#C0C0C0;stroke-width:0.3998;" x1="1041.2191" x2="1031.6251" y1="759.8998" y2="759.8998"/><polygon fill="#E8E8E8" points="1036.9551,757.7678,1031.6251,759.8998,1036.9551,762.0318" style="stroke:#C0C0C0;stroke-width:0.533;"/><line style="stroke:#C0C0C0;stroke-width:0.3998;" x1="1025.2291" x2="1025.2291" y1="766.2958" y2="768.9608"/><line style="stroke:#C0C0C0;stroke-width:0.3998;" x1="1025.2291" x2="144.3996" y1="768.9608" y2="768.9608"/><line style="stroke:#C0C0C0;stroke-width:0.3998;" x1="144.3996" x2="144.3996" y1="768.9608" y2="776.9558"/><polygon fill="#E8E8E8" points="142.2676,771.6258,146.5316,771.6258,144.3996,776.9558" style="stroke:#C0C0C0;stroke-width:0.533;"/><text fill="#E8E8E8" font-family="Helvetica" font-size="6.396" lengthAdjust="spacing" textLength="31.0681" x="200.3016" y="44.4711">Customer</text><text fill="#E8E8E8" font-family="Helvetica" font-size="6.396" lengthAdjust="spacing" textLength="23.8507" x="526.7999" y="44.4711">System</text><text fill="#E8E8E8" font-family="Helvetica" font-size="6.396" lengthAdjust="spacing" textLength="28.0356" x="760.8845" y="44.4711">Manager</text><text fill="#E8E8E8" font-family="Helvetica" font-size="6.396" lengthAdjust="spacing" textLength="58.5759" x="959.4516" y="44.4711">Payment Gateway</text><!--SRC=[bLRXRY8t4Fw_Jp6dLcfEQY8kkQWLLAe8LzAJGYuAb-RtOC-2owxjsbu85J_w47t2Fad7kmjP3X8sAu5WvlFCV9yzutrd7Kvp1FmuL66edaWcNc16q3cxlBX8tctStf88znYKgK5pfIqwpE4EfLHw2ZytR5VcwP3v3brGGbdKuP1xfFGWG-yVbGmp-D3fD7oF3crbFpzlsc-Df35PkBXi6EzHpslZ3r3asQbKE6M7FpDk2evISgG5WGyhPlhVF__oBwT4W2-ZQtWOtS3vsTEFa1jjnCoPd1gXduqGND7qJ53CfyuKMWvCPXnyDooV1a9IYaKMXaQ7M-G0lrEs81O43sF6wc-23-SDfv-XDCieMugPRoQlc5Gic7338wAY_S2UIH7eip2wZDlKqDDVHTHZHDxZbFgPcceGf0Ev1ggcvZGvNjrmz4Kmxkee-yRc7mVVca37KUEwy6j6sJOLY3dpEmuiJ-5ns9V9dzmKBSeCs8RDWoU1larv9hT6KniTUM_KGeLL6yLbYzIVCE2aLP5ZFZramihIu2tWpsy1zzy2_kqby843TQDI_cYwCawIg-6TydaDtVh0xiR_EbDYhhdvUEZ-T7a0NkvYdBswVOh6cbOa-iwPPIlGqN9v-hVG-jM4hoVwL0t9h_GKTWCaGGMUW_UKScReM-lC0ZDuD6wUPcQP9Ej1uGCFRxTEVE21b7J7nIHN8LuASOcB57pe9Tq7cncC1a7AiY5PZrS-KBvEkdzWfYItD9J20l6yL1ELSPlr4fN2oQCACwNXeWCIL_xNzn1cfE54c_S9yDEzfpWtddD5OwEm6iDv5yIWYELT16ruV5A5PgXDYAy0E5cHhyB6pFsS9G_m2tpFj-SsyHPIHkuNmPnYAKqThGgqAQ-iPeIQ9sLTJ5tGGj5oerCSLBsjiqnTHPI7isuopuoBjqyLvJd0VWLrpb8XldGTWTAfwUtulz5ik-oE2r6I8BvYHEdu14WZYfmdflycmXxFEk-fg-ZkycpFzGZVbpcN2uSgrbnjVM_F_GBjmyTcVtbvTdOAqLAboVw_wbVrdQplS1K5X6i- -4jSSHkmp28svuPSLARkF5-8w4gBR5-Yxi0Hxmit3xTDv6dho3cnNF9OErJ7p-XKkHmhXhjATczCV3zIMU7ghTjsRkdcLmkLhhX4QuqB40ZpmpahO1Tor4Mv7MLg6mNHqzv6c2Zd_m00]--></g></svg>