<svg xmlns="http://www.w3.org/2000/svg" xmlns:xlink="http://www.w3.org/1999/xlink" contentStyleType="text/css" data-diagram-type="ACTIVITY" height="1190px" preserveAspectRatio="none" style="width:1823px;height:1190px;background:#FFFFFF;" version="1.1" viewBox="0 0 1823 1190" width="1823px" zoomAndPan="magnify">
<style>@media (prefers-color-scheme: dark) {
 svg {
 background: transparent !important;
 }
 [style*="background:#FFFFFF"], [style*="background: #FFFFFF"],
 [style*="background:#ffffff"], [style*="background: #ffffff"] {
 background: #1e1e2e !important;
 }
 [fill="#FFFFFF"], [fill="#ffffff"], [fill="#FFF"], [fill="#fff"],
 [fill="#FEFEFE"], [fill="#fefefe"], [fill="#F1F1F1"], [fill="#f1f1f1"],
 [fill="#EEEEEE"], [fill="#eeeeee"], [fill="#ECECEC"], [fill="#ececec"],
 [fill="#FFFFCC"], [fill="#ffffcc"] {
 fill: #1e1e2e !important;
 }
 /* Use case ellipses/circles: transparent fill so outline visible */
 ellipse[fill="#FFFFFF"], ellipse[fill="#ffffff"],
 ellipse[fill="#FFF"], ellipse[fill="#fff"],
 ellipse[fill="#FEFEFE"], ellipse[fill="#fefefe"],
 ellipse[style*="fill:#FFFFFF"], ellipse[style*="fill:#ffffff"],
 circle[fill="#FFFFFF"], circle[fill="#ffffff"],
 circle[fill="#FFF"], circle[fill="#fff"],
 circle[fill="#FEFEFE"], circle[fill="#fefefe"],
 circle[style*="fill:#FFFFFF"], circle[style*="fill:#ffffff"] {
 fill: none !important;
 stroke-width: 1.5 !important;
 }
 [stroke="#000000"], [stroke="#000"], [stroke="#181818"],
 [stroke="#222222"], [stroke="#222"], [stroke="#333333"], [stroke="#333"] {
 stroke: #c9d1d9 !important;
 }
 [style*="stroke:#181818"], [style*="stroke: #181818"],
 [style*="stroke:#000000"], [style*="stroke: #000000"],
 [style*="stroke:#222222"], [style*="stroke: #222222"],
 [style*="stroke:#333333"], [style*="stroke: #333333"] {
 stroke: #c9d1d9 !important;
 }
 [style*="stroke:#FFDD88"], [style*="stroke: #FFDD88"],
 [style*="stroke:#ffdd88"], [style*="stroke: #ffdd88"] {
 stroke: #6e7681 !important;
 }
 text, [fill="#000000"], [fill="#000"], [fill="#181818"], [fill="#222222"] {
 fill: #c9d1d9 !important;
 }
 polygon[fill="#000000"], polygon[fill="#181818"], polygon[fill="#222222"],
 polygon[fill="#333333"] {
 fill: #c9d1d9 !important;
 stroke: #c9d1d9 !important;
 }
 rect[style*="stroke:#000000"], rect[style*="stroke: #000000"],
 rect[style*="stroke:#181818"], rect[style*="stroke: #181818"] {
 stroke: #c9d1d9 !important;
 }
 ellipse[style*="stroke:#000000"], ellipse[style*="stroke: #000000"],
 ellipse[style*="stroke:#181818"], ellipse[style*="stroke: #181818"] {
 stroke: #c9d1d9 !important;
 }
 polygon[style*="stroke:#000000"], polygon[style*="stroke: #000000"],
 polygon[style*="stroke:#181818"], polygon[style*="stroke: #181818"],
 polygon[style*="stroke:#222222"], polygon[style*="stroke: #222222"] {
 stroke: #c9d1d9 !important;
 }
 line[stroke="#181818"], line[stroke="#000000"],
 line[style*="stroke:#181818"], line[style*="stroke: #181818"],
 line[style*="stroke:#000000"], line[style*="stroke: #000000"] {
 stroke: #6e7681 !important;
 stroke-dasharray: 4 3 !important;
 }
 text[font-weight="700"], text[font-weight="bold"] {
 fill: #f0f6fc !important;
 }
   /* Swimlane headers rendered with white stroke (invisible on dark canvas) */
   [style*="stroke:#FFFFFF"], [style*="stroke: #FFFFFF"],
   [style*="stroke:#ffffff"], [style*="stroke: #ffffff"] {
   stroke: #c9d1d9 !important;
   }
}</style><?plantuml 1.2026.6?><defs/><g><g class="title" data-source-line="58"><text fill="#000000" font-family="Helvetica" font-size="14" font-weight="700" lengthAdjust="spacing" textLength="211.5586" x="805.0414" y="35.9951">Refund Approval Workflow</text></g><rect fill="#FFFFFF" height="13.9688" style="stroke:#FFFFFF;stroke-width:1;" width="1776.6415" x="20" y="59.627"/><ellipse cx="247.1686" cy="88.5957" fill="#FFFFFF" rx="10" ry="10" style="stroke:#000000;stroke-width:0.75;"/><rect fill="#FFFFFF" height="29.9688" rx="5" ry="5" style="stroke:#000000;stroke-width:0.75;" width="151.4453" x="171.4459" y="118.5957"/><text fill="#000000" font-family="Helvetica" font-size="12" lengthAdjust="spacing" textLength="135.4453" x="179.4459" y="137.7344">Submit refund request</text><rect fill="#FFFFFF" height="29.9688" rx="5" ry="5" style="stroke:#000000;stroke-width:0.75;" width="103.8145" x="195.2614" y="168.5645"/><text fill="#000000" font-family="Helvetica" font-size="12" lengthAdjust="spacing" textLength="87.8145" x="203.2614" y="187.7031">Upload receipt</text><rect fill="#FFFFFF" height="29.9688" rx="5" ry="5" style="stroke:#000000;stroke-width:0.75;" width="160.7324" x="26" y="377.4707"/><text fill="#000000" font-family="Helvetica" font-size="12" lengthAdjust="spacing" textLength="144.7324" x="34" y="396.6094">Receive rejection notice</text><ellipse cx="106.3662" cy="453.4395" fill="none" rx="11" ry="11" style="stroke:#000000;stroke-width:0.75;"/><ellipse cx="106.3662" cy="453.4395" fill="#FFFFFF" rx="6" ry="6" style="stroke:#000000;stroke-width:1;"/><polygon fill="#FFFFFF" points="337.0969,312.502,438.845,312.502,450.845,324.502,438.845,336.502,337.0969,336.502,325.0969,324.502,337.0969,312.502" style="stroke:#000000;stroke-width:0.75;stroke-linejoin:miter;stroke-miterlimit:10;"/><text fill="#000000" font-family="Helvetica" font-size="12" lengthAdjust="spacing" textLength="101.748" x="337.0969" y="328.6563">Amount &lt; $100?</text><text fill="#000000" font-family="Helvetica" font-size="12" lengthAdjust="spacing" textLength="20.7363" x="304.3606" y="321.6719">yes</text><text fill="#000000" font-family="Helvetica" font-size="12" lengthAdjust="spacing" textLength="14.9473" x="450.845" y="321.6719">no</text><rect fill="#FFFFFF" height="29.9688" rx="5" ry="5" style="stroke:#000000;stroke-width:0.75;" width="97.5391" x="216.7324" y="356.502"/><text fill="#000000" font-family="Helvetica" font-size="12" lengthAdjust="spacing" textLength="81.5391" x="224.7324" y="375.6406">Auto-approve</text><rect fill="#FFFFFF" height="29.9688" rx="5" ry="5" style="stroke:#000000;stroke-width:0.75;" width="194.9688" x="475.7922" y="515.4395"/><text fill="#000000" font-family="Helvetica" font-size="12" lengthAdjust="spacing" textLength="178.9688" x="483.7922" y="534.5781">Provide additional documents</text><rect fill="#FFFFFF" height="29.9688" rx="5" ry="5" style="stroke:#000000;stroke-width:0.75;" width="119.9512" x="582.4387" y="709.3457"/><text fill="#000000" font-family="Helvetica" font-size="12" lengthAdjust="spacing" textLength="103.9512" x="590.4387" y="728.4844">Receive rejection</text><ellipse cx="642.4143" cy="770.3145" fill="none" rx="11" ry="11" style="stroke:#000000;stroke-width:0.75;"/><ellipse cx="642.4143" cy="770.3145" fill="#FFFFFF" rx="6" ry="6" style="stroke:#000000;stroke-width:1;"/><polygon fill="#FFFFFF" points="387.9709,825.3145,399.9709,837.3145,387.9709,849.3145,375.9709,837.3145,387.9709,825.3145" style="stroke:#000000;stroke-width:0.75;stroke-linejoin:miter;stroke-miterlimit:10;"/><rect fill="#FFFFFF" height="29.9688" rx="5" ry="5" style="stroke:#000000;stroke-width:0.75;" width="186.584" x="41.7003" y="1013.252"/><text fill="#000000" font-family="Helvetica" font-size="12" lengthAdjust="spacing" textLength="170.584" x="49.7003" y="1032.3906">Receive refund confirmation</text><rect fill="#FFFFFF" height="29.9688" rx="5" ry="5" style="stroke:#000000;stroke-width:0.75;" width="79.627" x="319.5314" y="963.2832"/><text fill="#000000" font-family="Helvetica" font-size="12" lengthAdjust="spacing" textLength="63.627" x="327.5314" y="982.4219">Log failure</text><rect fill="#FFFFFF" height="29.9688" rx="5" ry="5" style="stroke:#000000;stroke-width:0.75;" width="200.2598" x="259.215" y="1063.2207"/><text fill="#000000" font-family="Helvetica" font-size="12" lengthAdjust="spacing" textLength="184.2598" x="267.215" y="1082.3594">Notify: manual refund pending</text><ellipse cx="247.1686" cy="1158.1895" fill="none" rx="11" ry="11" style="stroke:#000000;stroke-width:0.75;"/><ellipse cx="247.1686" cy="1158.1895" fill="#FFFFFF" rx="6" ry="6" style="stroke:#000000;stroke-width:1;"/><line style="stroke:#000000;stroke-width:0.75;" x1="20" x2="20" y1="59.627" y2="1169.1895"/><rect fill="#FFFFFF" height="29.9688" rx="5" ry="5" style="stroke:#000000;stroke-width:0.75;" width="159.5547" x="825.1317" y="218.5332"/><text fill="#000000" font-family="Helvetica" font-size="12" lengthAdjust="spacing" textLength="143.5547" x="833.1317" y="237.6719">Validate order eligibility</text><polygon fill="#FFFFFF" points="856.8885,268.502,952.9296,268.502,964.9296,280.502,952.9296,292.502,856.8885,292.502,844.8885,280.502,856.8885,268.502" style="stroke:#000000;stroke-width:0.75;stroke-linejoin:miter;stroke-miterlimit:10;"/><text fill="#000000" font-family="Helvetica" font-size="12" lengthAdjust="spacing" textLength="96.041" x="856.8885" y="284.6563">Within 30 days?</text><text fill="#000000" font-family="Helvetica" font-size="12" lengthAdjust="spacing" textLength="14.9473" x="829.9413" y="277.6719">no</text><text fill="#000000" font-family="Helvetica" font-size="12" lengthAdjust="spacing" textLength="20.7363" x="964.9296" y="277.6719">yes</text><rect fill="#FFFFFF" height="29.9688" rx="5" ry="5" style="stroke:#000000;stroke-width:0.75;" width="103.4336" x="712.3899" y="312.502"/><text fill="#000000" font-family="Helvetica" font-size="12" lengthAdjust="spacing" textLength="87.4336" x="720.3899" y="331.6406">Reject request</text><rect fill="#FFFFFF" height="29.9688" rx="5" ry="5" style="stroke:#000000;stroke-width:0.75;" width="136.5156" x="948.8275" y="1013.252"/><text fill="#000000" font-family="Helvetica" font-size="12" lengthAdjust="spacing" textLength="120.5156" x="956.8275" y="1032.3906">Notify support team</text><line style="stroke:#000000;stroke-width:0.75;" x1="706.3899" x2="706.3899" y1="59.627" y2="1169.1895"/><rect fill="#FFFFFF" height="29.9688" rx="5" ry="5" style="stroke:#000000;stroke-width:0.75;" width="133.9375" x="1194.5428" y="356.502"/><text fill="#000000" font-family="Helvetica" font-size="12" lengthAdjust="spacing" textLength="117.9375" x="1202.5428" y="375.6406">Review refund case</text><polygon fill="#FFFFFF" points="1229.4169,421.4707,1293.6063,421.4707,1305.6063,433.4707,1293.6063,445.4707,1229.4169,445.4707,1217.4169,433.4707,1229.4169,421.4707" style="stroke:#000000;stroke-width:0.75;stroke-linejoin:miter;stroke-miterlimit:10;"/><text fill="#000000" font-family="Helvetica" font-size="12" lengthAdjust="spacing" textLength="64.1895" x="1229.4169" y="437.625">Approved?</text><text fill="#000000" font-family="Helvetica" font-size="12" lengthAdjust="spacing" textLength="20.7363" x="1196.6805" y="430.6406">yes</text><text fill="#000000" font-family="Helvetica" font-size="12" lengthAdjust="spacing" textLength="14.9473" x="1305.6063" y="430.6406">no</text><rect fill="#FFFFFF" height="29.9688" rx="5" ry="5" style="stroke:#000000;stroke-width:0.75;" width="116.5996" x="1095.3431" y="465.4707"/><text fill="#000000" font-family="Helvetica" font-size="12" lengthAdjust="spacing" textLength="100.5996" x="1103.3431" y="484.6094">Authorize refund</text><rect fill="#FFFFFF" height="29.9688" rx="5" ry="5" style="stroke:#000000;stroke-width:0.75;" width="126.7656" x="1305.9974" y="465.4707"/><text fill="#000000" font-family="Helvetica" font-size="12" lengthAdjust="spacing" textLength="110.7656" x="1313.9974" y="484.6094">Request more info</text><rect fill="#FFFFFF" height="29.9688" rx="5" ry="5" style="stroke:#000000;stroke-width:0.75;" width="107.4004" x="1315.6801" y="565.4082"/><text fill="#000000" font-family="Helvetica" font-size="12" lengthAdjust="spacing" textLength="91.4004" x="1323.6801" y="584.5469">Re-review case</text><polygon fill="#FFFFFF" points="1337.2855,615.377,1401.475,615.377,1413.475,627.377,1401.475,639.377,1337.2855,639.377,1325.2855,627.377,1337.2855,615.377" style="stroke:#000000;stroke-width:0.75;stroke-linejoin:miter;stroke-miterlimit:10;"/><text fill="#000000" font-family="Helvetica" font-size="12" lengthAdjust="spacing" textLength="64.1895" x="1337.2855" y="631.5313">Approved?</text><text fill="#000000" font-family="Helvetica" font-size="12" lengthAdjust="spacing" textLength="20.7363" x="1304.5492" y="624.5469">yes</text><text fill="#000000" font-family="Helvetica" font-size="12" lengthAdjust="spacing" textLength="14.9473" x="1413.475" y="624.5469">no</text><rect fill="#FFFFFF" height="29.9688" rx="5" ry="5" style="stroke:#000000;stroke-width:0.75;" width="116.5996" x="1241.9427" y="659.377"/><text fill="#000000" font-family="Helvetica" font-size="12" lengthAdjust="spacing" textLength="100.5996" x="1249.9427" y="678.5156">Authorize refund</text><rect fill="#FFFFFF" height="29.9688" rx="5" ry="5" style="stroke:#000000;stroke-width:0.75;" width="82.6797" x="1397.1781" y="659.377"/><text fill="#000000" font-family="Helvetica" font-size="12" lengthAdjust="spacing" textLength="66.6797" x="1405.1781" y="678.5156">Final reject</text><polygon fill="#FFFFFF" points="1261.5116,791.3145,1273.5116,803.3145,1261.5116,815.3145,1249.5116,803.3145,1261.5116,791.3145" style="stroke:#000000;stroke-width:0.75;stroke-linejoin:miter;stroke-miterlimit:10;"/><line style="stroke:#000000;stroke-width:0.75;" x1="1089.3431" x2="1089.3431" y1="59.627" y2="1169.1895"/><rect fill="#FFFFFF" height="29.9688" rx="5" ry="5" style="stroke:#000000;stroke-width:0.75;" width="105.1797" x="1653.6669" y="869.3145"/><text fill="#000000" font-family="Helvetica" font-size="12" lengthAdjust="spacing" textLength="89.1797" x="1661.6669" y="888.4531">Process refund</text><polygon fill="#FFFFFF" points="1648.7264,919.2832,1763.787,919.2832,1775.787,931.2832,1763.787,943.2832,1648.7264,943.2832,1636.7264,931.2832,1648.7264,919.2832" style="stroke:#000000;stroke-width:0.75;stroke-linejoin:miter;stroke-miterlimit:10;"/><text fill="#000000" font-family="Helvetica" font-size="12" lengthAdjust="spacing" textLength="115.0605" x="1648.7264" y="935.4375">Refund successful?</text><text fill="#000000" font-family="Helvetica" font-size="12" lengthAdjust="spacing" textLength="20.7363" x="1615.9901" y="928.4531">yes</text><text fill="#000000" font-family="Helvetica" font-size="12" lengthAdjust="spacing" textLength="14.9473" x="1775.787" y="928.4531">no</text><rect fill="#FFFFFF" height="29.9688" rx="5" ry="5" style="stroke:#000000;stroke-width:0.75;" width="208.4453" x="1489.8578" y="963.2832"/><text fill="#000000" font-family="Helvetica" font-size="12" lengthAdjust="spacing" textLength="192.4453" x="1497.8578" y="982.4219">Credit original payment method</text><polygon fill="#FFFFFF" points="1706.2567,1103.1895,1718.2567,1115.1895,1706.2567,1127.1895,1694.2567,1115.1895,1706.2567,1103.1895" style="stroke:#000000;stroke-width:0.75;stroke-linejoin:miter;stroke-miterlimit:10;"/><line style="stroke:#000000;stroke-width:0.75;" x1="1483.8578" x2="1483.8578" y1="59.627" y2="1169.1895"/><line style="stroke:#000000;stroke-width:0.75;" x1="1795.7343" x2="1795.7343" y1="59.627" y2="1169.1895"/><line style="stroke:#000000;stroke-width:0.75;" x1="247.1686" x2="247.1686" y1="98.5957" y2="118.5957"/><polygon fill="#000000" points="243.1686,108.5957,247.1686,118.5957,251.1686,108.5957,247.1686,112.5957" style="stroke:#000000;stroke-width:1;stroke-linejoin:miter;stroke-miterlimit:10;"/><line style="stroke:#000000;stroke-width:0.75;" x1="247.1686" x2="247.1686" y1="148.5645" y2="168.5645"/><polygon fill="#000000" points="243.1686,158.5645,247.1686,168.5645,251.1686,158.5645,247.1686,162.5645" style="stroke:#000000;stroke-width:1;stroke-linejoin:miter;stroke-miterlimit:10;"/><line style="stroke:#000000;stroke-width:0.75;" x1="106.3662" x2="106.3662" y1="407.4395" y2="442.4395"/><polygon fill="#000000" points="102.3662,432.4395,106.3662,442.4395,110.3662,432.4395,106.3662,436.4395" style="stroke:#000000;stroke-width:1;stroke-linejoin:miter;stroke-miterlimit:10;"/><line style="stroke:#000000;stroke-width:0.75;" x1="642.4143" x2="642.4143" y1="739.3145" y2="759.3145"/><polygon fill="#000000" points="638.4143,749.3145,642.4143,759.3145,646.4143,749.3145,642.4143,753.3145" style="stroke:#000000;stroke-width:1;stroke-linejoin:miter;stroke-miterlimit:10;"/><line style="stroke:#000000;stroke-width:0.75;" x1="325.0969" x2="265.502" y1="324.502" y2="324.502"/><line style="stroke:#000000;stroke-width:0.75;" x1="265.502" x2="265.502" y1="324.502" y2="356.502"/><polygon fill="#000000" points="261.502,346.502,265.502,356.502,269.502,346.502,265.502,350.502" style="stroke:#000000;stroke-width:1;stroke-linejoin:miter;stroke-miterlimit:10;"/><line style="stroke:#000000;stroke-width:0.75;" x1="265.502" x2="265.502" y1="386.4707" y2="837.3145"/><line style="stroke:#000000;stroke-width:0.75;" x1="265.502" x2="375.9709" y1="837.3145" y2="837.3145"/><polygon fill="#000000" points="365.9709,833.3145,375.9709,837.3145,365.9709,841.3145,369.9709,837.3145" style="stroke:#000000;stroke-width:1;stroke-linejoin:miter;stroke-miterlimit:10;"/><line style="stroke:#000000;stroke-width:0.75;" x1="844.8885" x2="764.1067" y1="280.502" y2="280.502"/><line style="stroke:#000000;stroke-width:0.75;" x1="764.1067" x2="764.1067" y1="280.502" y2="312.502"/><polygon fill="#000000" points="760.1067,302.502,764.1067,312.502,768.1067,302.502,764.1067,306.502" style="stroke:#000000;stroke-width:1;stroke-linejoin:miter;stroke-miterlimit:10;"/><line style="stroke:#000000;stroke-width:0.75;" x1="904.9091" x2="904.9091" y1="248.502" y2="268.502"/><polygon fill="#000000" points="900.9091,258.502,904.9091,268.502,908.9091,258.502,904.9091,262.502" style="stroke:#000000;stroke-width:1;stroke-linejoin:miter;stroke-miterlimit:10;"/><line style="stroke:#000000;stroke-width:0.75;" x1="1325.2855" x2="1300.2426" y1="627.377" y2="627.377"/><line style="stroke:#000000;stroke-width:0.75;" x1="1300.2426" x2="1300.2426" y1="627.377" y2="659.377"/><polygon fill="#000000" points="1296.2426,649.377,1300.2426,659.377,1304.2426,649.377,1300.2426,653.377" style="stroke:#000000;stroke-width:1;stroke-linejoin:miter;stroke-miterlimit:10;"/><line style="stroke:#000000;stroke-width:0.75;" x1="1413.475" x2="1438.5179" y1="627.377" y2="627.377"/><line style="stroke:#000000;stroke-width:0.75;" x1="1438.5179" x2="1438.5179" y1="627.377" y2="659.377"/><polygon fill="#000000" points="1434.5179,649.377,1438.5179,659.377,1442.5179,649.377,1438.5179,653.377" style="stroke:#000000;stroke-width:1;stroke-linejoin:miter;stroke-miterlimit:10;"/><line style="stroke:#000000;stroke-width:0.75;" x1="1300.2426" x2="1300.2426" y1="689.3457" y2="803.3145"/><line style="stroke:#000000;stroke-width:0.75;" x1="1300.2426" x2="1273.5116" y1="803.3145" y2="803.3145"/><polygon fill="#000000" points="1283.5116,799.3145,1273.5116,803.3145,1283.5116,807.3145,1279.5116,803.3145" style="stroke:#000000;stroke-width:1;stroke-linejoin:miter;stroke-miterlimit:10;"/><line style="stroke:#000000;stroke-width:0.75;" x1="1369.3802" x2="1369.3802" y1="595.377" y2="615.377"/><polygon fill="#000000" points="1365.3802,605.377,1369.3802,615.377,1373.3802,605.377,1369.3802,609.377" style="stroke:#000000;stroke-width:1;stroke-linejoin:miter;stroke-miterlimit:10;"/><line style="stroke:#000000;stroke-width:0.75;" x1="1217.4169" x2="1153.6429" y1="433.4707" y2="433.4707"/><line style="stroke:#000000;stroke-width:0.75;" x1="1153.6429" x2="1153.6429" y1="433.4707" y2="465.4707"/><polygon fill="#000000" points="1149.6429,455.4707,1153.6429,465.4707,1157.6429,455.4707,1153.6429,459.4707" style="stroke:#000000;stroke-width:1;stroke-linejoin:miter;stroke-miterlimit:10;"/><line style="stroke:#000000;stroke-width:0.75;" x1="1305.6063" x2="1369.3802" y1="433.4707" y2="433.4707"/><line style="stroke:#000000;stroke-width:0.75;" x1="1369.3802" x2="1369.3802" y1="433.4707" y2="465.4707"/><polygon fill="#000000" points="1365.3802,455.4707,1369.3802,465.4707,1373.3802,455.4707,1369.3802,459.4707" style="stroke:#000000;stroke-width:1;stroke-linejoin:miter;stroke-miterlimit:10;"/><line style="stroke:#000000;stroke-width:0.75;" x1="1153.6429" x2="1153.6429" y1="495.4395" y2="803.3145"/><line style="stroke:#000000;stroke-width:0.75;" x1="1153.6429" x2="1249.5116" y1="803.3145" y2="803.3145"/><polygon fill="#000000" points="1239.5116,799.3145,1249.5116,803.3145,1239.5116,807.3145,1243.5116,803.3145" style="stroke:#000000;stroke-width:1;stroke-linejoin:miter;stroke-miterlimit:10;"/><line style="stroke:#000000;stroke-width:0.75;" x1="1261.5116" x2="1261.5116" y1="386.4707" y2="421.4707"/><polygon fill="#000000" points="1257.5116,411.4707,1261.5116,421.4707,1265.5116,411.4707,1261.5116,415.4707" style="stroke:#000000;stroke-width:1;stroke-linejoin:miter;stroke-miterlimit:10;"/><line style="stroke:#000000;stroke-width:0.75;" x1="1636.7264" x2="1594.0804" y1="931.2832" y2="931.2832"/><line style="stroke:#000000;stroke-width:0.75;" x1="1594.0804" x2="1594.0804" y1="931.2832" y2="963.2832"/><polygon fill="#000000" points="1590.0804,953.2832,1594.0804,963.2832,1598.0804,953.2832,1594.0804,957.2832" style="stroke:#000000;stroke-width:1;stroke-linejoin:miter;stroke-miterlimit:10;"/><line style="stroke:#000000;stroke-width:0.75;" x1="1706.2567" x2="1706.2567" y1="899.2832" y2="919.2832"/><polygon fill="#000000" points="1702.2567,909.2832,1706.2567,919.2832,1710.2567,909.2832,1706.2567,913.2832" style="stroke:#000000;stroke-width:1;stroke-linejoin:miter;stroke-miterlimit:10;"/><line style="stroke:#000000;stroke-width:0.75;" x1="247.1686" x2="247.1686" y1="198.5332" y2="203.5332"/><line style="stroke:#000000;stroke-width:0.75;" x1="247.1686" x2="904.9091" y1="203.5332" y2="203.5332"/><line style="stroke:#000000;stroke-width:0.75;" x1="904.9091" x2="904.9091" y1="203.5332" y2="218.5332"/><polygon fill="#000000" points="900.9091,208.5332,904.9091,218.5332,908.9091,208.5332,904.9091,212.5332" style="stroke:#000000;stroke-width:1;stroke-linejoin:miter;stroke-miterlimit:10;"/><line style="stroke:#000000;stroke-width:0.75;" x1="764.1067" x2="764.1067" y1="342.4707" y2="359.9707"/><line style="stroke:#000000;stroke-width:0.75;" x1="764.1067" x2="106.3662" y1="359.9707" y2="359.9707"/><line style="stroke:#000000;stroke-width:0.75;" x1="106.3662" x2="106.3662" y1="359.9707" y2="377.4707"/><polygon fill="#000000" points="102.3662,367.4707,106.3662,377.4707,110.3662,367.4707,106.3662,371.4707" style="stroke:#000000;stroke-width:1;stroke-linejoin:miter;stroke-miterlimit:10;"/><line style="stroke:#000000;stroke-width:0.75;" x1="1369.3802" x2="1369.3802" y1="495.4395" y2="500.4395"/><line style="stroke:#000000;stroke-width:0.75;" x1="1369.3802" x2="573.2766" y1="500.4395" y2="500.4395"/><line style="stroke:#000000;stroke-width:0.75;" x1="573.2766" x2="573.2766" y1="500.4395" y2="515.4395"/><polygon fill="#000000" points="569.2766,505.4395,573.2766,515.4395,577.2766,505.4395,573.2766,509.4395" style="stroke:#000000;stroke-width:1;stroke-linejoin:miter;stroke-miterlimit:10;"/><line style="stroke:#000000;stroke-width:0.75;" x1="573.2766" x2="573.2766" y1="545.4082" y2="550.4082"/><line style="stroke:#000000;stroke-width:0.75;" x1="573.2766" x2="1369.3802" y1="550.4082" y2="550.4082"/><line style="stroke:#000000;stroke-width:0.75;" x1="1369.3802" x2="1369.3802" y1="550.4082" y2="565.4082"/><polygon fill="#000000" points="1365.3802,555.4082,1369.3802,565.4082,1373.3802,555.4082,1369.3802,559.4082" style="stroke:#000000;stroke-width:1;stroke-linejoin:miter;stroke-miterlimit:10;"/><line style="stroke:#000000;stroke-width:0.75;" x1="1438.5179" x2="1438.5179" y1="689.3457" y2="694.3457"/><line style="stroke:#000000;stroke-width:0.75;" x1="1438.5179" x2="642.4143" y1="694.3457" y2="694.3457"/><line style="stroke:#000000;stroke-width:0.75;" x1="642.4143" x2="642.4143" y1="694.3457" y2="709.3457"/><polygon fill="#000000" points="638.4143,699.3457,642.4143,709.3457,646.4143,699.3457,642.4143,703.3457" style="stroke:#000000;stroke-width:1;stroke-linejoin:miter;stroke-miterlimit:10;"/><line style="stroke:#000000;stroke-width:0.75;" x1="450.845" x2="1261.5116" y1="324.502" y2="324.502"/><line style="stroke:#000000;stroke-width:0.75;" x1="1261.5116" x2="1261.5116" y1="324.502" y2="356.502"/><polygon fill="#000000" points="1257.5116,346.502,1261.5116,356.502,1265.5116,346.502,1261.5116,350.502" style="stroke:#000000;stroke-width:1;stroke-linejoin:miter;stroke-miterlimit:10;"/><line style="stroke:#000000;stroke-width:0.75;" x1="1261.5116" x2="1261.5116" y1="815.3145" y2="837.3145"/><line style="stroke:#000000;stroke-width:0.75;" x1="1261.5116" x2="399.9709" y1="837.3145" y2="837.3145"/><polygon fill="#000000" points="409.9709,833.3145,399.9709,837.3145,409.9709,841.3145,405.9709,837.3145" style="stroke:#000000;stroke-width:1;stroke-linejoin:miter;stroke-miterlimit:10;"/><line style="stroke:#000000;stroke-width:0.75;" x1="964.9296" x2="976.9296" y1="280.502" y2="280.502"/><line style="stroke:#000000;stroke-width:0.75;" x1="976.9296" x2="976.9296" y1="280.502" y2="298.502"/><line style="stroke:#000000;stroke-width:0.75;" x1="976.9296" x2="387.9709" y1="298.502" y2="298.502"/><line style="stroke:#000000;stroke-width:0.75;" x1="387.9709" x2="387.9709" y1="298.502" y2="312.502"/><polygon fill="#000000" points="383.9709,302.502,387.9709,312.502,391.9709,302.502,387.9709,306.502" style="stroke:#000000;stroke-width:1;stroke-linejoin:miter;stroke-miterlimit:10;"/><line style="stroke:#000000;stroke-width:0.75;" x1="387.9709" x2="387.9709" y1="849.3145" y2="854.3145"/><line style="stroke:#000000;stroke-width:0.75;" x1="387.9709" x2="1706.2567" y1="854.3145" y2="854.3145"/><line style="stroke:#000000;stroke-width:0.75;" x1="1706.2567" x2="1706.2567" y1="854.3145" y2="869.3145"/><polygon fill="#000000" points="1702.2567,859.3145,1706.2567,869.3145,1710.2567,859.3145,1706.2567,863.3145" style="stroke:#000000;stroke-width:1;stroke-linejoin:miter;stroke-miterlimit:10;"/><line style="stroke:#000000;stroke-width:0.75;" x1="1594.0804" x2="1594.0804" y1="993.252" y2="998.252"/><line style="stroke:#000000;stroke-width:0.75;" x1="1594.0804" x2="134.9923" y1="998.252" y2="998.252"/><line style="stroke:#000000;stroke-width:0.75;" x1="134.9923" x2="134.9923" y1="998.252" y2="1013.252"/><polygon fill="#000000" points="130.9923,1003.252,134.9923,1013.252,138.9923,1003.252,134.9923,1007.252" style="stroke:#000000;stroke-width:1;stroke-linejoin:miter;stroke-miterlimit:10;"/><line style="stroke:#000000;stroke-width:0.75;" x1="359.3448" x2="359.3448" y1="993.252" y2="998.252"/><line style="stroke:#000000;stroke-width:0.75;" x1="359.3448" x2="1017.0853" y1="998.252" y2="998.252"/><line style="stroke:#000000;stroke-width:0.75;" x1="1017.0853" x2="1017.0853" y1="998.252" y2="1013.252"/><polygon fill="#000000" points="1013.0853,1003.252,1017.0853,1013.252,1021.0853,1003.252,1017.0853,1007.252" style="stroke:#000000;stroke-width:1;stroke-linejoin:miter;stroke-miterlimit:10;"/><line style="stroke:#000000;stroke-width:0.75;" x1="1017.0853" x2="1017.0853" y1="1043.2207" y2="1048.2207"/><line style="stroke:#000000;stroke-width:0.75;" x1="1017.0853" x2="359.3448" y1="1048.2207" y2="1048.2207"/><line style="stroke:#000000;stroke-width:0.75;" x1="359.3448" x2="359.3448" y1="1048.2207" y2="1063.2207"/><polygon fill="#000000" points="355.3448,1053.2207,359.3448,1063.2207,363.3448,1053.2207,359.3448,1057.2207" style="stroke:#000000;stroke-width:1;stroke-linejoin:miter;stroke-miterlimit:10;"/><line style="stroke:#000000;stroke-width:0.75;" x1="1775.787" x2="1787.787" y1="931.2832" y2="931.2832"/><line style="stroke:#000000;stroke-width:0.75;" x1="1787.787" x2="1787.787" y1="931.2832" y2="949.2832"/><line style="stroke:#000000;stroke-width:0.75;" x1="1787.787" x2="359.3448" y1="949.2832" y2="949.2832"/><line style="stroke:#000000;stroke-width:0.75;" x1="359.3448" x2="359.3448" y1="949.2832" y2="963.2832"/><polygon fill="#000000" points="355.3448,953.2832,359.3448,963.2832,363.3448,953.2832,359.3448,957.2832" style="stroke:#000000;stroke-width:1;stroke-linejoin:miter;stroke-miterlimit:10;"/><line style="stroke:#000000;stroke-width:0.75;" x1="134.9923" x2="134.9923" y1="1043.2207" y2="1115.1895"/><line style="stroke:#000000;stroke-width:0.75;" x1="134.9923" x2="1694.2567" y1="1115.1895" y2="1115.1895"/><polygon fill="#000000" points="1684.2567,1111.1895,1694.2567,1115.1895,1684.2567,1119.1895,1688.2567,1115.1895" style="stroke:#000000;stroke-width:1;stroke-linejoin:miter;stroke-miterlimit:10;"/><line style="stroke:#000000;stroke-width:0.75;" x1="359.3448" x2="359.3448" y1="1093.1895" y2="1097.1895"/><line style="stroke:#000000;stroke-width:0.75;" x1="359.3448" x2="1736.2567" y1="1097.1895" y2="1097.1895"/><line style="stroke:#000000;stroke-width:0.75;" x1="1736.2567" x2="1736.2567" y1="1097.1895" y2="1115.1895"/><line style="stroke:#000000;stroke-width:0.75;" x1="1736.2567" x2="1718.2567" y1="1115.1895" y2="1115.1895"/><polygon fill="#000000" points="1728.2567,1111.1895,1718.2567,1115.1895,1728.2567,1119.1895,1724.2567,1115.1895" style="stroke:#000000;stroke-width:1;stroke-linejoin:miter;stroke-miterlimit:10;"/><line style="stroke:#000000;stroke-width:0.75;" x1="1706.2567" x2="1706.2567" y1="1127.1895" y2="1132.1895"/><line style="stroke:#000000;stroke-width:0.75;" x1="1706.2567" x2="247.1686" y1="1132.1895" y2="1132.1895"/><line style="stroke:#000000;stroke-width:0.75;" x1="247.1686" x2="247.1686" y1="1132.1895" y2="1147.1895"/><polygon fill="#000000" points="243.1686,1137.1895,247.1686,1147.1895,251.1686,1137.1895,247.1686,1141.1895" style="stroke:#000000;stroke-width:1;stroke-linejoin:miter;stroke-miterlimit:10;"/><text fill="#000000" font-family="Helvetica" font-size="12" lengthAdjust="spacing" textLength="58.2891" x="334.0504" y="70.7656">Customer</text><text fill="#000000" font-family="Helvetica" font-size="12" lengthAdjust="spacing" textLength="44.748" x="875.4925" y="70.7656">System</text><text fill="#000000" font-family="Helvetica" font-size="12" lengthAdjust="spacing" textLength="52.5996" x="1260.3007" y="70.7656">Manager</text><text fill="#000000" font-family="Helvetica" font-size="12" lengthAdjust="spacing" textLength="109.8984" x="1584.8468" y="70.7656">Payment Gateway</text><?plantuml-src bLJ1Rjj64BtpAwPeWDe7ExBJ88LaD71TE3qaHY2rzNdC7KeJSNVPtQLanWhGZ-WNzaiokwHaqRJXX0TRd9rvyzxR6VvGEPnh1FGLvM6AWUqbtvBApdneIlerSzO6kCi0AbIApHn-aTzhXzKrgx20qzDHzYN3FF2AG_CxuzoXJldR6DpTby8NIVRqJqqcf_ta2btWd2iquK4-m8sz7M3a9Ng_3v02-saJ-C26TQrRdYUZKTiyOEXrJe41_jdBJhvViX5oadnb5SseWbUlzu9JDCik-1FKkZnIBRG_jcuEZWfoKIeaDFZ_t__WOZQ35JgEIW-gKlv9sN5kDNIEWszCmDl3uGrSMXEkK1FyGUMAn2_iWZF-J71oshrTsD8w-76K7edzXldodRErKTt9PNhav3qRUfWTOtykE5yQ4aD7nszUIt3QLZj33cBIR87AhgDTyVQpm47KtVNO_BnzIyflRAc-aLvmQBouIoRqA0xZUpGZ2sD3I-Bx10yv2TOp0_r4XycmmMI8F-dPUJ9AGuxEsJN8S_SOnl1IKf4CcxP6mNSnwiztTtTJAgGKpglAsHMMS6tTiYZjEiis5xKFLfFRnDrn8HlFwXlD8GvtB75nctsOPEE_gj9Y3EJ4bGIopQpnWVGc6_-D9QkuPzOfqKmbp_c6Ip5pad411zSS5cpWrGWKDlxj8OG56JWmzZ2Bdeodz4c-JlUzOd2FM9SZVLSaIJ6NhG4P2CwfpPRKAgFI4nmqv5lOsFbSYsS1pk25V25sZNSf2Vcy3lO8apKTMWkqfPVOV423yosPZj2AQRtrAKVV5UzQjuZgyQxRpWlhuZwrAFS0GmPTp-GGQEi8s1HsqZj_uDckxACGOKKGlu7HEfa0PVDQowxv1mW3dLtV8zVAxUlyTgtFw7rQSogyvCYvlVh9uFW9sO-FpR0ypKwFY55SPCEtzbVxDzjyn2OQ2EzayDVOo1g8pNbSuAsuw4otURxEur5HbqEBnXUEv5vaUMHjeiwgGzOaTgddrg4TFsiATXfRXNqdn-_j70haidRTrUqsDnrVoHuLZL2iAki214BzUCysSGmQJPsk8xMkeY5cFjaQ4-ty2W00?></g></svg>