<svg xmlns="http://www.w3.org/2000/svg" xmlns:xlink="http://www.w3.org/1999/xlink" contentStyleType="text/css" data-diagram-type="DESCRIPTION" height="639px" preserveAspectRatio="none" style="width:761px;height:639px;background:#FFFFFF;" version="1.1" viewBox="0 0 761 639" width="761px" zoomAndPan="magnify"><title>Content Management System</title><defs/><g><g class="title" data-source-line="43"><text fill="#000000" font-family="Helvetica" font-size="14" font-weight="bold" lengthAdjust="spacing" textLength="233.8232" x="256.5884" y="22.9951">Content Management System</text></g><!--cluster CMS--><g class="cluster" data-entity="CMS" data-source-line="52" data-uid="ent0006" id="cluster_CMS"><rect fill="#FFFFFF" height="398" style="stroke:#181818;stroke-width:1;" width="637" x="118" y="161.7969"/><text fill="#000000" font-family="Helvetica" font-size="12" font-weight="bold" lengthAdjust="spacing" textLength="29.3906" x="421.8047" y="174.9355">CMS</text></g><!--entity UC1--><g class="entity" data-entity="UC1" data-source-line="53" data-uid="ent0007" id="entity_UC1"><ellipse cx="205.0271" cy="529.6023" fill="#FFFFFF" rx="57.0271" ry="13.8054" style="stroke:#181818;stroke-width:0.5;"/><text fill="#000000" font-family="Helvetica" font-size="12" lengthAdjust="spacing" textLength="82.4473" x="163.8034" y="533.0867">Create Article</text></g><!--entity UC2--><g class="entity" data-entity="UC2" data-source-line="54" data-uid="ent0008" id="entity_UC2"><ellipse cx="689.35" cy="477.6743" fill="#FFFFFF" rx="49.35" ry="12.8774" style="stroke:#181818;stroke-width:0.5;"/><text fill="#000000" font-family="Helvetica" font-size="12" lengthAdjust="spacing" textLength="65.5488" x="656.5756" y="481.1586">Edit Article</text></g><!--entity UC3--><g class="entity" data-entity="UC3" data-source-line="55" data-uid="ent0009" id="entity_UC3"><ellipse cx="457.8195" cy="518.5608" fill="#FFFFFF" rx="56.8195" ry="13.7639" style="stroke:#181818;stroke-width:0.5;"/><text fill="#000000" font-family="Helvetica" font-size="12" lengthAdjust="spacing" textLength="81.9023" x="416.8683" y="522.0451">Upload Media</text></g><!--entity UC4--><g class="entity" data-entity="UC4" data-source-line="56" data-uid="ent0010" id="entity_UC4"><ellipse cx="457.9125" cy="340.5794" fill="#FFFFFF" rx="61.9125" ry="14.7825" style="stroke:#181818;stroke-width:0.5;"/><text fill="#000000" font-family="Helvetica" font-size="12" lengthAdjust="spacing" textLength="94.8926" x="410.4663" y="344.0638">Review Content</text></g><!--entity UC5--><g class="entity" data-entity="UC5" data-source-line="57" data-uid="ent0011" id="entity_UC5"><ellipse cx="205.1212" cy="340.8211" fill="#FFFFFF" rx="58.1212" ry="14.0242" style="stroke:#181818;stroke-width:0.5;"/><text fill="#000000" font-family="Helvetica" font-size="12" lengthAdjust="spacing" textLength="85.2949" x="162.4737" y="344.3055">Publish Article</text></g><!--entity UC6--><g class="entity" data-entity="UC6" data-source-line="58" data-uid="ent0012" id="entity_UC6"><ellipse cx="204.7713" cy="274.8511" fill="#FFFFFF" rx="70.7713" ry="16.5543" style="stroke:#181818;stroke-width:0.5;"/><text fill="#000000" font-family="Helvetica" font-size="12" lengthAdjust="spacing" textLength="116.1621" x="146.6902" y="278.3355">Manage Categories</text></g><!--entity UC7--><g class="entity" data-entity="UC7" data-source-line="59" data-uid="ent0013" id="entity_UC7"><ellipse cx="205.0396" cy="466.8048" fill="#FFFFFF" rx="58.0396" ry="14.0079" style="stroke:#181818;stroke-width:0.5;"/><text fill="#000000" font-family="Helvetica" font-size="12" lengthAdjust="spacing" textLength="85.084" x="162.4976" y="470.2892">Manage Users</text></g><!--entity UC8--><g class="entity" data-entity="UC8" data-source-line="60" data-uid="ent0014" id="entity_UC8"><ellipse cx="204.8017" cy="403.9572" fill="#FFFFFF" rx="58.8017" ry="14.1603" style="stroke:#181818;stroke-width:0.5;"/><text fill="#000000" font-family="Helvetica" font-size="12" lengthAdjust="spacing" textLength="87.0469" x="161.2782" y="407.4416">View Analytics</text></g><!--entity UC9--><g class="entity" data-entity="UC9" data-source-line="61" data-uid="ent0015" id="entity_UC9"><ellipse cx="204.9612" cy="208.8891" fill="#FFFFFF" rx="60.9612" ry="14.5922" style="stroke:#181818;stroke-width:0.5;"/><text fill="#000000" font-family="Helvetica" font-size="12" lengthAdjust="spacing" textLength="92.5195" x="158.7015" y="212.3735">Browse Articles</text></g><!--entity UC10--><g class="entity" data-entity="UC10" data-source-line="62" data-uid="ent0016" id="entity_UC10"><ellipse cx="458.1649" cy="208.9298" fill="#FFFFFF" rx="61.1649" ry="14.633" style="stroke:#181818;stroke-width:0.5;"/><text fill="#000000" font-family="Helvetica" font-size="12" lengthAdjust="spacing" textLength="93.0293" x="411.6502" y="212.4142">Search Content</text></g><!--entity Author--><g class="entity" data-entity="Author" data-source-line="47" data-uid="ent0002" id="entity_Author"><ellipse cx="38.7002" cy="568.2969" fill="#FFFFFF" rx="8" ry="8" style="stroke:#181818;stroke-width:0.5;"/><path d="M38.7002,576.2969 L38.7002,603.2969 M25.7002,584.2969 L51.7002,584.2969 M38.7002,603.2969 L25.7002,618.2969 M38.7002,603.2969 L51.7002,618.2969" fill="none" style="stroke:#181818;stroke-width:0.5;"/><text fill="#000000" font-family="Helvetica" font-size="12" lengthAdjust="spacing" textLength="40.4004" x="18.5" y="630.9355">Author</text></g><!--entity Editor--><g class="entity" data-entity="Editor" data-source-line="48" data-uid="ent0003" id="entity_Editor"><ellipse cx="38.2568" cy="270.2969" fill="#FFFFFF" rx="8" ry="8" style="stroke:#181818;stroke-width:0.5;"/><path d="M38.2568,278.2969 L38.2568,305.2969 M25.2568,286.2969 L51.2568,286.2969 M38.2568,305.2969 L25.2568,320.2969 M38.2568,305.2969 L51.2568,320.2969" fill="none" style="stroke:#181818;stroke-width:0.5;"/><text fill="#000000" font-family="Helvetica" font-size="12" lengthAdjust="spacing" textLength="35.5137" x="20.5" y="332.9355">Editor</text></g><!--entity Admin--><g class="entity" data-entity="Admin" data-source-line="49" data-uid="ent0004" id="entity_Admin"><ellipse cx="38.7275" cy="410.2969" fill="#FFFFFF" rx="8" ry="8" style="stroke:#181818;stroke-width:0.5;"/><path d="M38.7275,418.2969 L38.7275,445.2969 M25.7275,426.2969 L51.7275,426.2969 M38.7275,445.2969 L25.7275,460.2969 M38.7275,445.2969 L51.7275,460.2969" fill="none" style="stroke:#181818;stroke-width:0.5;"/><text fill="#000000" font-family="Helvetica" font-size="12" lengthAdjust="spacing" textLength="38.4551" x="19.5" y="472.9355">Admin</text></g><!--entity Visitor--><g class="entity" data-entity="Visitor" data-source-line="50" data-uid="ent0005" id="entity_Visitor"><ellipse cx="38.4814" cy="51.2969" fill="#FFFFFF" rx="8" ry="8" style="stroke:#181818;stroke-width:0.5;"/><path d="M38.4814,59.2969 L38.4814,86.2969 M25.4814,67.2969 L51.4814,67.2969 M38.4814,86.2969 L25.4814,101.2969 M38.4814,86.2969 L51.4814,101.2969" fill="none" style="stroke:#181818;stroke-width:0.5;"/><text fill="#000000" font-family="Helvetica" font-size="12" lengthAdjust="spacing" textLength="64.9629" x="6" y="113.9355">Site Visitor</text></g><!--link Author to UC1--><g class="link" data-entity-1="Author" data-entity-2="UC1" data-source-line="65" data-uid="lnk17" id="link_Author_UC1"><path d="M58.57,588.6069 C70.69,583.4369 86.74,576.6469 101,570.7969 C125.39,560.7869 147.5976,551.9462 168.1576,543.8462" fill="none" id="Author-to-UC1" style="stroke:#000000;stroke-width:0.75;"/><polygon fill="#000000" points="173.74,541.6469,163.9002,541.2242,169.088,543.4796,166.8326,548.6674,173.74,541.6469" style="stroke:#000000;stroke-width:0.75;"/></g><!--link Author to UC2--><g class="link" data-entity-1="Author" data-entity-2="UC2" data-source-line="66" data-uid="lnk18" id="link_Author_UC2"><path d="M58.65,596.8269 C71.02,596.8369 87.46,596.8369 102,596.7969 C179.33,596.5769 199.02,603.2169 276,595.7969 C385.85,585.2169 414.41,581.8869 520,549.7969 C574.03,533.3769 628.7664,507.7859 660.5564,491.9959" fill="none" id="Author-to-UC2" style="stroke:#000000;stroke-width:0.75;"/><polygon fill="#000000" points="665.93,489.3269,656.0902,489.7481,661.452,491.5511,659.6489,496.9129,665.93,489.3269" style="stroke:#000000;stroke-width:0.75;"/></g><!--link Author to UC3--><g class="link" data-entity-1="Author" data-entity-2="UC3" data-source-line="67" data-uid="lnk19" id="link_Author_UC3"><path d="M58.59,594.3969 C98.91,589.2169 195.65,576.2069 276,560.7969 C325.11,551.3769 375.2782,539.4183 411.8182,530.3083" fill="none" id="Author-to-UC3" style="stroke:#000000;stroke-width:0.75;"/><polygon fill="#000000" points="417.64,528.8569,407.9397,527.1529,412.7885,530.0664,409.875,534.9153,417.64,528.8569" style="stroke:#000000;stroke-width:0.75;"/></g><!--link Editor to UC4--><g class="link" data-entity-1="Editor" data-entity-2="UC4" data-source-line="69" data-uid="lnk20" id="link_Editor_UC4"><path d="M49.81,261.6369 C59.98,232.8369 78.64,194.8969 110,176.7969 C208.61,119.8969 271.12,122.8769 366,185.7969 C389.21,201.1869 382.08,216.6869 396,240.7969 C413.59,271.2669 432.0711,301.1445 444.2811,320.6045" fill="none" id="Editor-to-UC4" style="stroke:#000000;stroke-width:0.75;"/><polygon fill="#000000" points="447.47,325.6869,446.0749,315.9373,444.8126,321.4515,439.2984,320.1892,447.47,325.6869" style="stroke:#000000;stroke-width:0.75;"/></g><!--link Editor to UC5--><g class="link" data-entity-1="Editor" data-entity-2="UC5" data-source-line="70" data-uid="lnk21" id="link_Editor_UC5"><path d="M56.79,303.2169 C82.2,309.6969 124.4962,320.5038 158.7962,329.2538" fill="none" id="Editor-to-UC5" style="stroke:#000000;stroke-width:0.75;"/><polygon fill="#000000" points="164.61,330.7369,156.878,324.6363,159.7652,329.5009,154.9005,332.3881,164.61,330.7369" style="stroke:#000000;stroke-width:0.75;"/></g><!--link Editor to UC6--><g class="link" data-entity-1="Editor" data-entity-2="UC6" data-source-line="71" data-uid="lnk22" id="link_Editor_UC6"><path d="M56.79,296.2769 C77.5,293.2569 107.3429,288.9036 138.4429,284.3636" fill="none" id="Editor-to-UC6" style="stroke:#000000;stroke-width:0.75;"/><polygon fill="#000000" points="144.38,283.4969,134.8966,280.8389,139.4324,284.2191,136.0522,288.755,144.38,283.4969" style="stroke:#000000;stroke-width:0.75;"/></g><!--link Editor to UC8--><g class="link" data-entity-1="Editor" data-entity-2="UC8" data-source-line="72" data-uid="lnk23" id="link_Editor_UC8"><path d="M56.7,321.6969 C69.77,337.6969 89.02,358.4869 110,371.7969 C125.72,381.7769 139.1603,387.3118 156.0903,392.3618" fill="none" id="Editor-to-UC8" style="stroke:#000000;stroke-width:0.75;"/><polygon fill="#000000" points="161.84,394.0769,154.3589,387.6712,157.0486,392.6477,152.0721,395.3374,161.84,394.0769" style="stroke:#000000;stroke-width:0.75;"/></g><!--link Admin to UC7--><g class="link" data-entity-1="Admin" data-entity-2="UC7" data-source-line="74" data-uid="lnk24" id="link_Admin_UC7"><path d="M57.73,441.8969 C81.49,445.9469 117.9749,452.1613 151.0349,457.7813" fill="none" id="Admin-to-UC7" style="stroke:#000000;stroke-width:0.75;"/><polygon fill="#000000" points="156.95,458.7869,148.7476,453.3351,152.0207,457.9489,147.4069,461.222,156.95,458.7869" style="stroke:#000000;stroke-width:0.75;"/></g><!--link Admin to UC8--><g class="link" data-entity-1="Admin" data-entity-2="UC8" data-source-line="75" data-uid="lnk25" id="link_Admin_UC8"><path d="M57.73,434.9169 C82.33,429.6869 121.031,421.4439 154.541,414.3239" fill="none" id="Admin-to-UC8" style="stroke:#000000;stroke-width:0.75;"/><polygon fill="#000000" points="160.41,413.0769,150.7752,411.0347,155.5192,414.116,152.4379,418.86,160.41,413.0769" style="stroke:#000000;stroke-width:0.75;"/></g><!--link Visitor to UC9--><g class="link" data-entity-1="Visitor" data-entity-2="UC9" data-source-line="77" data-uid="lnk26" id="link_Visitor_UC9"><path d="M71.22,104.6669 C105.39,131.4669 153.8389,169.454 181.3789,191.054" fill="none" id="Visitor-to-UC9" style="stroke:#000000;stroke-width:0.75;"/><polygon fill="#000000" points="186.1,194.7569,181.4869,186.0552,182.1657,191.6712,176.5498,192.35,186.1,194.7569" style="stroke:#000000;stroke-width:0.75;"/></g><!--link Visitor to UC10--><g class="link" data-entity-1="Visitor" data-entity-2="UC10" data-source-line="78" data-uid="lnk27" id="link_Visitor_UC10"><path d="M71.42,81.5669 C131.42,85.8469 264.15,99.9069 366,143.7969 C395.42,156.4769 420.207,175.863 437.317,190.853" fill="none" id="Visitor-to-UC10" style="stroke:#000000;stroke-width:0.75;"/><polygon fill="#000000" points="441.83,194.8069,437.6964,185.8675,438.0692,191.512,432.4246,191.8848,441.83,194.8069" style="stroke:#000000;stroke-width:0.75;"/></g><!--link UC4 to UC2--><g class="link" data-entity-1="UC4" data-entity-2="UC2" data-source-line="80" data-uid="lnk28" id="link_UC4_UC2"><path d="M482.27,354.6869 C527.4,381.6269 620.9381,437.4615 663.3381,462.7715" fill="none" id="UC4-to-UC2" style="stroke:#000000;stroke-width:0.75;stroke-dasharray:7,7;"/><polygon fill="#000000" points="668.49,465.8469,662.8124,457.7992,664.1967,463.2841,658.7119,464.6685,668.49,465.8469" style="stroke:#000000;stroke-width:0.75;"/><text fill="#000000" font-family="Helvetica" font-size="12" lengthAdjust="spacing" textLength="58.1602" x="551" y="394.9355">&#171;include&#187;</text></g><!--link UC5 to UC4--><g class="link" data-entity-1="UC5" data-entity-2="UC4" data-source-line="81" data-uid="lnk29" id="link_UC5_UC4"><path d="M263.27,340.7969 C302.77,340.7969 349.23,340.7969 389.59,340.7969" fill="none" id="UC5-to-UC4" style="stroke:#000000;stroke-width:0.75;stroke-dasharray:7,7;"/><polygon fill="#000000" points="395.59,340.7969,386.59,336.7969,390.59,340.7969,386.59,344.7969,395.59,340.7969" style="stroke:#000000;stroke-width:0.75;"/><text fill="#000000" font-family="Helvetica" font-size="12" lengthAdjust="spacing" textLength="58.1602" x="307" y="337.9355">&#171;include&#187;</text></g><!--link UC1 to UC3--><g class="link" data-entity-1="UC1" data-entity-2="UC3" data-source-line="82" data-uid="lnk30" id="link_UC1_UC3"><path d="M261.39,527.3669 C303.12,525.5369 354.0658,523.31 395.7558,521.48" fill="none" id="UC1-to-UC3" style="stroke:#000000;stroke-width:0.75;stroke-dasharray:7,7;"/><polygon fill="#000000" points="401.75,521.2169,392.5832,517.6154,396.7548,521.4361,392.9341,525.6077,401.75,521.2169" style="stroke:#000000;stroke-width:0.75;"/><text fill="#000000" font-family="Helvetica" font-size="12" lengthAdjust="spacing" textLength="58.1602" x="307" y="520.9355">&#171;include&#187;</text></g><!--link UC9 to UC10--><g class="link" data-entity-1="UC9" data-entity-2="UC10" data-source-line="83" data-uid="lnk31" id="link_UC9_UC10"><path d="M266.12,208.7969 C305.71,208.7969 351.35,208.7969 390.94,208.7969" fill="none" id="UC9-to-UC10" style="stroke:#000000;stroke-width:0.75;stroke-dasharray:7,7;"/><polygon fill="#000000" points="396.94,208.7969,387.94,204.7969,391.94,208.7969,387.94,212.7969,396.94,208.7969" style="stroke:#000000;stroke-width:0.75;"/><text fill="#000000" font-family="Helvetica" font-size="12" lengthAdjust="spacing" textLength="56.4785" x="308" y="205.9355">&#171;extend&#187;</text></g><!--SRC=[bPNTRjem5CVl_HGMkzZDYe2MVamLKaW_LgcqrL9wRvn3uf7Op7RQicdI7c9Fk2VPIMAgcBAIMaBooVzddm_RXu-qoBEzMB14iznqbKweXZbea1oeiQiCwD_VVt2c1RVqTd99fvDhEkW-VwAvaegdMkL0p4B89SCT6X-frKLJcJ6-IBGgP1ogJ6dwuQ8Q3IA6EIioUw6alM6umHV87i4AphOpaVW1j3zeY2PbiNeICg5pbfccypgJEWjCkA7mZ1aJM5HcXOKhhcIrRw-v6BuNPJqcO0nB8CX48Ya7QK4tA9UQbg1nTKC8k5Lwl3FxEwOnLx5aqkw6RvI5tLJa0hz4Qjac0hx0_7Q3OLcptTZjx1lm5ib4bhN9Pcg0CzCcF9KlbOGsTSIp4O_2hjfKF6xX-enPDciLP8It1vHTBI5y3tpr7ZXu3tp-FtZBXReMS_n962iTWtPuhnflqQqlhB__VIhuGkBZextkqN0BNfqYiqB9zYuQQreb4MYjdbf1EyCTg-SMjNxJuTkEpkecUG_Frj-0M66n3uROFV5vq0cJ-DxpSXgjZ8MSa0pcbbf5jKXIIsEXyGLZZGXXPHUZGM5JfPrn7WlxOWHnBgIRTo9XWJu8K-eToinwJaYv7vC91j499r67_YGKHr4_RVoc0Ni1feUjC8DgwJJi-qpfTeCO-CHqcIaMqmdW_veZzdtYApmAU5eNmZ47FdDNp39XqWrNGn-gIqX3Z3fHMe1nsE5M35kONXD7Fl5GnXD8bgtGsvevzfan7hfvgSuQEl6X29ZcwKPg_HxvHKXzUdHlRrHLrJC7lhbFI7sypZxmpQ5l7lhcCReghuCpZpmBHNSRt8UJ3HjZ9UYGThjLNFGpFJqLacT53ACHAaEd7BnI-axPVwMSEANVgoHy623ZqUWV]--></g></svg>