<svg xmlns="http://www.w3.org/2000/svg" xmlns:xlink="http://www.w3.org/1999/xlink" contentStyleType="text/css" data-diagram-type="DESCRIPTION" height="647px" preserveAspectRatio="none" style="width:768px;height:647px;background:#FFFFFF;" version="1.1" viewBox="0 0 768 647" width="768px" zoomAndPan="magnify"><?plantuml 1.2026.4?><defs/><g><g class="title" data-source-line="43"><text fill="#000000" font-family="Helvetica" font-size="14" font-weight="700" lengthAdjust="spacing" textLength="233.8232" x="263.6034" y="22.9951">Content Management System</text></g><!--cluster CMS--><g class="cluster" data-qualified-name="CMS" data-source-line="52" id="ent0005"><rect fill="#FFFFFF" height="398" style="stroke:#181818;stroke-width:1;" width="636.07" x="117.96" y="161.7869"/><text fill="#000000" font-family="Helvetica" font-size="12" font-weight="700" lengthAdjust="spacing" textLength="29.3906" x="421.2997" y="174.9255">CMS</text></g><!--entity UC1--><g class="entity" data-qualified-name="CMS.UC1" data-source-line="53" id="ent0006"><ellipse cx="204.7271" cy="529.7823" fill="#FFFFFF" rx="57.0271" ry="13.8054" style="stroke:#181818;stroke-width:0.5;"/><text fill="#000000" font-family="Helvetica" font-size="12" lengthAdjust="spacing" textLength="82.4473" x="163.5034" y="533.2667">Create Article</text></g><!--entity UC2--><g class="entity" data-qualified-name="CMS.UC2" data-source-line="54" id="ent0007"><ellipse cx="688.68" cy="477.7843" fill="#FFFFFF" rx="49.35" ry="12.8774" style="stroke:#181818;stroke-width:0.5;"/><text fill="#000000" font-family="Helvetica" font-size="12" lengthAdjust="spacing" textLength="65.5488" x="655.9056" y="481.2686">Edit Article</text></g><!--entity UC3--><g class="entity" data-qualified-name="CMS.UC3" data-source-line="55" id="ent0008"><ellipse cx="457.4195" cy="518.7908" fill="#FFFFFF" rx="56.8195" ry="13.7639" style="stroke:#181818;stroke-width:0.5;"/><text fill="#000000" font-family="Helvetica" font-size="12" lengthAdjust="spacing" textLength="81.9023" x="416.4683" y="522.2751">Upload Media</text></g><!--entity UC4--><g class="entity" data-qualified-name="CMS.UC4" data-source-line="56" id="ent0009"><ellipse cx="457.4225" cy="340.7894" fill="#FFFFFF" rx="61.9125" ry="14.7825" style="stroke:#181818;stroke-width:0.5;"/><text fill="#000000" font-family="Helvetica" font-size="12" lengthAdjust="spacing" textLength="94.8926" x="409.9763" y="344.2738">Review Content</text></g><!--entity UC5--><g class="entity" data-qualified-name="CMS.UC5" data-source-line="57" id="ent0010"><ellipse cx="204.7312" cy="340.7911" fill="#FFFFFF" rx="58.1212" ry="14.0242" style="stroke:#181818;stroke-width:0.5;"/><text fill="#000000" font-family="Helvetica" font-size="12" lengthAdjust="spacing" textLength="85.2949" x="162.0837" y="344.2755">Publish Article</text></g><!--entity UC6--><g class="entity" data-qualified-name="CMS.UC6" data-source-line="58" id="ent0011"><ellipse cx="204.7313" cy="274.7911" fill="#FFFFFF" rx="70.7713" ry="16.5543" style="stroke:#181818;stroke-width:0.5;"/><text fill="#000000" font-family="Helvetica" font-size="12" lengthAdjust="spacing" textLength="116.1621" x="146.6502" y="278.2755">Manage Categories</text></g><!--entity UC7--><g class="entity" data-qualified-name="CMS.UC7" data-source-line="59" id="ent0012"><ellipse cx="204.7296" cy="466.7848" fill="#FFFFFF" rx="58.0396" ry="14.0079" style="stroke:#181818;stroke-width:0.5;"/><text fill="#000000" font-family="Helvetica" font-size="12" lengthAdjust="spacing" textLength="85.084" x="162.1876" y="470.2692">Manage Users</text></g><!--entity UC8--><g class="entity" data-qualified-name="CMS.UC8" data-source-line="60" id="ent0013"><ellipse cx="204.7317" cy="403.7872" fill="#FFFFFF" rx="58.8017" ry="14.1603" style="stroke:#181818;stroke-width:0.5;"/><text fill="#000000" font-family="Helvetica" font-size="12" lengthAdjust="spacing" textLength="87.0469" x="161.2082" y="407.2716">View Analytics</text></g><!--entity UC9--><g class="entity" data-qualified-name="CMS.UC9" data-source-line="61" id="ent0014"><ellipse cx="204.7312" cy="208.7891" fill="#FFFFFF" rx="60.9612" ry="14.5922" style="stroke:#181818;stroke-width:0.5;"/><text fill="#000000" font-family="Helvetica" font-size="12" lengthAdjust="spacing" textLength="92.5195" x="158.4715" y="212.2735">Browse Articles</text></g><!--entity UC10--><g class="entity" data-qualified-name="CMS.UC10" data-source-line="62" id="ent0015"><ellipse cx="457.4249" cy="208.7898" fill="#FFFFFF" rx="61.1649" ry="14.633" style="stroke:#181818;stroke-width:0.5;"/><text fill="#000000" font-family="Helvetica" font-size="12" lengthAdjust="spacing" textLength="93.0293" x="410.9102" y="212.2742">Search Content</text></g><!--entity Author--><g class="entity" data-qualified-name="Author" data-source-line="47" id="ent0001"><ellipse cx="38.4802" cy="568.2969" fill="#FFFFFF" rx="8" ry="8" style="stroke:#181818;stroke-width:0.5;"/><path d="M38.4802,576.2969 L38.4802,603.2969 M25.4802,584.2969 L51.4802,584.2969 M38.4802,603.2969 L25.4802,618.2969 M38.4802,603.2969 L51.4802,618.2969" fill="none" style="stroke:#181818;stroke-width:0.5;"/><text fill="#000000" font-family="Helvetica" font-size="12" lengthAdjust="spacing" textLength="40.4004" x="18.28" y="630.9355">Author</text></g><!--entity Editor--><g class="entity" data-qualified-name="Editor" data-source-line="48" id="ent0002"><ellipse cx="38.4768" cy="270.2969" fill="#FFFFFF" rx="8" ry="8" style="stroke:#181818;stroke-width:0.5;"/><path d="M38.4768,278.2969 L38.4768,305.2969 M25.4768,286.2969 L51.4768,286.2969 M38.4768,305.2969 L25.4768,320.2969 M38.4768,305.2969 L51.4768,320.2969" fill="none" style="stroke:#181818;stroke-width:0.5;"/><text fill="#000000" font-family="Helvetica" font-size="12" lengthAdjust="spacing" textLength="35.5137" x="20.72" y="332.9355">Editor</text></g><!--entity Admin--><g class="entity" data-qualified-name="Admin" data-source-line="49" id="ent0003"><ellipse cx="38.4775" cy="410.2969" fill="#FFFFFF" rx="8" ry="8" style="stroke:#181818;stroke-width:0.5;"/><path d="M38.4775,418.2969 L38.4775,445.2969 M25.4775,426.2969 L51.4775,426.2969 M38.4775,445.2969 L25.4775,460.2969 M38.4775,445.2969 L51.4775,460.2969" fill="none" style="stroke:#181818;stroke-width:0.5;"/><text fill="#000000" font-family="Helvetica" font-size="12" lengthAdjust="spacing" textLength="38.4551" x="19.25" y="472.9355">Admin</text></g><!--entity Visitor--><g class="entity" data-qualified-name="Visitor" data-source-line="50" id="ent0004"><ellipse cx="38.4814" cy="51.2969" fill="#FFFFFF" rx="8" ry="8" style="stroke:#181818;stroke-width:0.5;"/><path d="M38.4814,59.2969 L38.4814,86.2969 M25.4814,67.2969 L51.4814,67.2969 M38.4814,86.2969 L25.4814,101.2969 M38.4814,86.2969 L51.4814,101.2969" fill="none" style="stroke:#181818;stroke-width:0.5;"/><text fill="#000000" font-family="Helvetica" font-size="12" lengthAdjust="spacing" textLength="64.9629" x="6" y="113.9355">Site Visitor</text></g><!--link Author to UC1--><g class="link" data-entity-1="ent0001" data-entity-2="ent0006" data-link-type="dependency" data-source-line="65" id="lnk16"><path d="M59.1,588.3669 C71.15,583.2269 86.92,576.5569 100.96,570.7869 C125.31,560.7769 148.3803,551.5854 168.8903,543.4754" fill="none" id="Author-to-UC1" style="stroke:#000000;stroke-width:0.75;"/><polygon fill="#000000" points="173.54,541.6369,163.6997,541.2265,168.8903,543.4754,166.6414,548.6661,173.54,541.6369" style="stroke:#000000;stroke-width:0.75;stroke-linejoin:miter;stroke-miterlimit:10;"/></g><!--link Author to UC2--><g class="link" data-entity-1="ent0001" data-entity-2="ent0007" data-link-type="dependency" data-source-line="66" id="lnk17"><path d="M59.18,596.8069 C71.48,596.8269 87.64,596.8269 101.96,596.7869 C179.09,596.5569 198.73,603.1869 275.51,595.7869 C385.27,585.1969 413.83,581.8769 519.33,549.7869 C573.16,533.4069 628.552,507.4811 660.382,491.6711" fill="none" id="Author-to-UC2" style="stroke:#000000;stroke-width:0.75;"/><polygon fill="#000000" points="664.86,489.4469,655.0202,489.8681,660.382,491.6711,658.5789,497.0329,664.86,489.4469" style="stroke:#000000;stroke-width:0.75;stroke-linejoin:miter;stroke-miterlimit:10;"/></g><!--link Author to UC3--><g class="link" data-entity-1="ent0001" data-entity-2="ent0008" data-link-type="dependency" data-source-line="67" id="lnk18"><path d="M59.15,594.3069 C99.75,589.0669 195.72,576.1069 275.51,560.7869 C324.59,551.3569 375.6986,539.1567 412.2286,530.0467" fill="none" id="Author-to-UC3" style="stroke:#000000;stroke-width:0.75;"/><polygon fill="#000000" points="417.08,528.8369,407.3796,527.1335,412.2286,530.0467,409.3153,534.8958,417.08,528.8369" style="stroke:#000000;stroke-width:0.75;stroke-linejoin:miter;stroke-miterlimit:10;"/></g><!--link Editor to UC4--><g class="link" data-entity-1="ent0002" data-entity-2="ent0009" data-link-type="dependency" data-source-line="69" id="lnk19"><path d="M49.89,261.3369 C60.08,232.5669 78.71,194.8169 109.96,176.7869 C208.39,119.9769 270.79,122.9769 365.51,185.7869 C388.71,201.1669 381.59,216.6669 395.51,240.7869 C413.18,271.4169 432.3176,302.3684 444.4576,321.7684" fill="none" id="Editor-to-UC4" style="stroke:#000000;stroke-width:0.75;"/><polygon fill="#000000" points="447.11,326.0069,445.7266,316.2557,444.4576,321.7684,438.945,320.4994,447.11,326.0069" style="stroke:#000000;stroke-width:0.75;stroke-linejoin:miter;stroke-miterlimit:10;"/></g><!--link Editor to UC5--><g class="link" data-entity-1="ent0002" data-entity-2="ent0010" data-link-type="dependency" data-source-line="70" id="lnk20"><path d="M56.44,303.1169 C81.52,309.5369 124.3959,320.498 158.7259,329.278" fill="none" id="Editor-to-UC5" style="stroke:#000000;stroke-width:0.75;"/><polygon fill="#000000" points="163.57,330.5169,155.8418,324.4116,158.7259,329.278,153.8595,332.1621,163.57,330.5169" style="stroke:#000000;stroke-width:0.75;stroke-linejoin:miter;stroke-miterlimit:10;"/></g><!--link Editor to UC6--><g class="link" data-entity-1="ent0002" data-entity-2="ent0011" data-link-type="dependency" data-source-line="71" id="lnk21"><path d="M56.44,296.3069 C77.01,293.2969 107.8625,288.7893 139.0225,284.2393" fill="none" id="Editor-to-UC6" style="stroke:#000000;stroke-width:0.75;"/><polygon fill="#000000" points="143.97,283.5169,134.4865,280.8592,139.0225,284.2393,135.6424,288.7753,143.97,283.5169" style="stroke:#000000;stroke-width:0.75;stroke-linejoin:miter;stroke-miterlimit:10;"/></g><!--link Editor to UC8--><g class="link" data-entity-1="ent0002" data-entity-2="ent0013" data-link-type="dependency" data-source-line="72" id="lnk22"><path d="M56.58,322.0669 C69.59,338.3069 88.83,359.3969 109.96,372.7869 C125.17,382.4169 138.882,387.95 155.422,392.8" fill="none" id="Editor-to-UC8" style="stroke:#000000;stroke-width:0.75;"/><polygon fill="#000000" points="160.22,394.2069,152.7092,387.8361,155.422,392.8,150.4581,395.5128,160.22,394.2069" style="stroke:#000000;stroke-width:0.75;stroke-linejoin:miter;stroke-miterlimit:10;"/></g><!--link Admin to UC7--><g class="link" data-entity-1="ent0003" data-entity-2="ent0012" data-link-type="dependency" data-source-line="74" id="lnk23"><path d="M58,441.9369 C81.66,445.9769 118.5412,452.2564 151.3212,457.8464" fill="none" id="Admin-to-UC7" style="stroke:#000000;stroke-width:0.75;"/><polygon fill="#000000" points="156.25,458.6869,148.0505,453.2309,151.3212,457.8464,146.7057,461.117,156.25,458.6869" style="stroke:#000000;stroke-width:0.75;stroke-linejoin:miter;stroke-miterlimit:10;"/></g><!--link Admin to UC8--><g class="link" data-entity-1="ent0003" data-entity-2="ent0013" data-link-type="dependency" data-source-line="75" id="lnk24"><path d="M58,434.8369 C82.5,429.6169 121.5696,421.2882 154.8196,414.2082" fill="none" id="Admin-to-UC8" style="stroke:#000000;stroke-width:0.75;"/><polygon fill="#000000" points="159.71,413.1669,150.0743,411.129,154.8196,414.2082,151.7404,418.9535,159.71,413.1669" style="stroke:#000000;stroke-width:0.75;stroke-linejoin:miter;stroke-miterlimit:10;"/></g><!--link Visitor to UC9--><g class="link" data-entity-1="ent0004" data-entity-2="ent0014" data-link-type="dependency" data-source-line="77" id="lnk25"><path d="M71.15,104.6569 C105.27,131.4469 154.4279,170.0584 181.9279,191.6584" fill="none" id="Visitor-to-UC9" style="stroke:#000000;stroke-width:0.75;"/><polygon fill="#000000" points="185.86,194.7469,181.253,186.0419,181.9279,191.6584,176.3115,192.3333,185.86,194.7469" style="stroke:#000000;stroke-width:0.75;stroke-linejoin:miter;stroke-miterlimit:10;"/></g><!--link Visitor to UC10--><g class="link" data-entity-1="ent0004" data-entity-2="ent0015" data-link-type="dependency" data-source-line="78" id="lnk26"><path d="M71.38,81.3669 C131.35,85.3169 263.97,98.7169 365.51,142.7869 C394.85,155.5169 420.1793,175.6879 437.2693,190.9379" fill="none" id="Visitor-to-UC10" style="stroke:#000000;stroke-width:0.75;"/><polygon fill="#000000" points="441,194.2669,436.948,185.2902,437.2693,190.9379,431.6216,191.2592,441,194.2669" style="stroke:#000000;stroke-width:0.75;stroke-linejoin:miter;stroke-miterlimit:10;"/></g><!--link UC4 to UC2--><g class="link" data-entity-1="ent0009" data-entity-2="ent0007" data-link-type="dependency" data-source-line="80" id="lnk27"><path d="M481.66,354.6769 C526.74,381.6069 621.0378,437.9623 663.3978,463.2723" fill="none" id="UC4-to-UC2" style="stroke:#000000;stroke-width:0.75;stroke-dasharray:7,7;"/><polygon fill="#000000" points="667.69,465.8369,662.0157,457.7869,663.3978,463.2723,657.9124,464.6544,667.69,465.8369" style="stroke:#000000;stroke-width:0.75;stroke-linejoin:miter;stroke-miterlimit:10;"/><text fill="#000000" font-family="Helvetica" font-size="12" lengthAdjust="spacing" textLength="58.1602" x="550.33" y="394.1455">&#171;include&#187;</text></g><!--link UC5 to UC4--><g class="link" data-entity-1="ent0010" data-entity-2="ent0009" data-link-type="dependency" data-source-line="81" id="lnk28"><path d="M263.25,340.7869 C302.71,340.7869 350.01,340.7869 390.24,340.7869" fill="none" id="UC5-to-UC4" style="stroke:#000000;stroke-width:0.75;stroke-dasharray:7,7;"/><polygon fill="#000000" points="395.24,340.7869,386.24,336.7869,390.24,340.7869,386.24,344.7869,395.24,340.7869" style="stroke:#000000;stroke-width:0.75;stroke-linejoin:miter;stroke-miterlimit:10;"/><text fill="#000000" font-family="Helvetica" font-size="12" lengthAdjust="spacing" textLength="58.1602" x="306.51" y="337.9255">&#171;include&#187;</text></g><!--link UC1 to UC3--><g class="link" data-entity-1="ent0006" data-entity-2="ent0008" data-link-type="dependency" data-source-line="82" id="lnk29"><path d="M261.37,527.3369 C303.06,525.5169 354.8348,523.2357 396.3748,521.4157" fill="none" id="UC1-to-UC3" style="stroke:#000000;stroke-width:0.75;stroke-dasharray:7,7;"/><polygon fill="#000000" points="401.37,521.1969,392.2035,517.5946,396.3748,521.4157,392.5537,525.587,401.37,521.1969" style="stroke:#000000;stroke-width:0.75;stroke-linejoin:miter;stroke-miterlimit:10;"/><text fill="#000000" font-family="Helvetica" font-size="12" lengthAdjust="spacing" textLength="58.1602" x="306.51" y="520.1155">&#171;include&#187;</text></g><!--link UC9 to UC10--><g class="link" data-entity-1="ent0014" data-entity-2="ent0015" data-link-type="dependency" data-source-line="83" id="lnk30"><path d="M266.1,208.7869 C305.5,208.7869 351.76,208.7869 391.14,208.7869" fill="none" id="UC9-to-UC10" style="stroke:#000000;stroke-width:0.75;stroke-dasharray:7,7;"/><polygon fill="#000000" points="396.14,208.7869,387.14,204.7869,391.14,208.7869,387.14,212.7869,396.14,208.7869" style="stroke:#000000;stroke-width:0.75;stroke-linejoin:miter;stroke-miterlimit:10;"/><text fill="#000000" font-family="Helvetica" font-size="12" lengthAdjust="spacing" textLength="56.4785" x="307.51" y="205.9255">&#171;extend&#187;</text></g><?plantuml-src bPNTRjem5CVl_HGMkzZDYe2MVamLKaW_LgcqrL9wRvn3uf7Op7RQicdI7c9Fk2VPIMAgcBAIMaBooVzddm_RXu-qoBEzMB14iznqbKweXZbea1oeiQiCwD_VVt2c1RVqTd99fvDhEkW-VwAvaegdMkL0p4B89SCT6X-frKLJcJ6-IBGgP1ogJ6dwuQ8Q3IA6EIioUw6alM6umHV87i4AphOpaVW1j3zeY2PbiNeICg5pbfccypgJEWjCkA7mZ1aJM5HcXOKhhcIrRw-v6BuNPJqcO0nB8CX48Ya7QK4tA9UQbg1nTKC8k5Lwl3FxEwOnLx5aqkw6RvI5tLJa0hz4Qjac0hx0_7Q3OLcptTZjx1lm5ib4bhN9Pcg0CzCcF9KlbOGsTSIp4O_2hjfKF6xX-enPDciLP8It1vHTBI5y3tpr7ZXu3tp-FtZBXReMS_n962iTWtPuhnflqQqlhB__VIhuGkBZextkqN0BNfqYiqB9zYuQQreb4MYjdbf1EyCTg-SMjNxJuTkEpkecUG_Frj-0M66n3uROFV5vq0cJ-DxpSXgjZ8MSa0pcbbf5jKXIIsEXyGLZZGXXPHUZGM5JfPrn7WlxOWHnBgIRTo9XWJu8K-eToinwJaYv7vC91j499r67_YGKHr4_RVoc0Ni1feUjC8DgwJJi-qpfTeCO-CHqcIaMqmdW_veZzdtYApmAU5eNmZ47FdDNp39XqWrNGn-gIqX3Z3fHMe1nsE5M35kONXD7Fl5GnXD8bgtGsvevzfan7hfvgSuQEl6X29ZcwKPg_HxvHKXzUdHlRrHLrJC7lhbFI7sypZxmpQ5l7lhcCReghuCpZpmBHNSRt8UJ3HjZ9UYGThjLNFGpFJqLacT53ACHAaEd7BnI-axPVwMSEANVgoHy623ZqUWV?></g></svg>