<svg xmlns="http://www.w3.org/2000/svg" xmlns:xlink="http://www.w3.org/1999/xlink" contentStyleType="text/css" data-diagram-type="DESCRIPTION" height="647px" preserveAspectRatio="none" style="width:768px;height:647px;background:#FFFFFF;" version="1.1" viewBox="0 0 768 647" width="768px" zoomAndPan="magnify">
<style>@media (prefers-color-scheme: light) {
/* Bare elements: PlantUML CSS mode may omit stroke on some shapes */
ellipse:not([style*="stroke"]):not([stroke]),
circle:not([style*="stroke"]):not([stroke]) {
 stroke: #000000 !important;
 stroke-width: 0.75 !important;
}
rect[fill="#FFFFFF"]:not([style*="stroke"]):not([stroke]),
rect[fill="#ffffff"]:not([style*="stroke"]):not([stroke]) {
 stroke: #000000 !important;
 stroke-width: 0.75 !important;
}
path[fill="none"]:not([style*="stroke"]):not([stroke]) {
 stroke: #000000 !important;
 stroke-width: 0.75 !important;
}
/* Swimlane headers rendered with white stroke (invisible on white canvas) */
[style*="stroke:#FFFFFF"], [style*="stroke: #FFFFFF"],
[style*="stroke:#ffffff"], [style*="stroke: #ffffff"] {
 stroke: #000000 !important;
}
}</style><?plantuml 1.2026.6?><defs/><g><g class="title" data-source-line="40"><text fill="#000000" font-family="Helvetica" font-size="14" font-weight="700" lengthAdjust="spacing" textLength="233.8232" x="263.6034" y="22.9951">Content Management System</text></g><!--cluster CMS--><g class="cluster" data-qualified-name="CMS" data-source-line="49" id="ent0005"><rect fill="#FFFFFF" height="401" style="stroke:#000000;stroke-width:0.75;" width="636.07" x="117.96" y="158.7769"/><text fill="#000000" font-family="Helvetica" font-size="14" font-weight="700" lengthAdjust="spacing" textLength="34.2891" x="418.8505" y="173.772">CMS</text></g><!--entity UC1--><g class="entity" data-qualified-name="CMS.UC1" data-source-line="50" id="ent0006"><ellipse cx="204.7271" cy="529.7723" fill="none" rx="57.0271" ry="13.8054"/><text fill="#000000" font-family="Helvetica" font-size="12" lengthAdjust="spacing" textLength="82.4473" x="163.5034" y="533.2567">Create Article</text></g><!--entity UC2--><g class="entity" data-qualified-name="CMS.UC2" data-source-line="51" id="ent0007"><ellipse cx="688.68" cy="477.7743" fill="none" rx="49.35" ry="12.8774"/><text fill="#000000" font-family="Helvetica" font-size="12" lengthAdjust="spacing" textLength="65.5488" x="655.9056" y="481.2586">Edit Article</text></g><!--entity UC3--><g class="entity" data-qualified-name="CMS.UC3" data-source-line="52" id="ent0008"><ellipse cx="457.4195" cy="518.7808" fill="none" rx="56.8195" ry="13.7639"/><text fill="#000000" font-family="Helvetica" font-size="12" lengthAdjust="spacing" textLength="81.9023" x="416.4683" y="522.2651">Upload Media</text></g><!--entity UC4--><g class="entity" data-qualified-name="CMS.UC4" data-source-line="53" id="ent0009"><ellipse cx="457.4225" cy="340.7794" fill="none" rx="61.9125" ry="14.7825"/><text fill="#000000" font-family="Helvetica" font-size="12" lengthAdjust="spacing" textLength="94.8926" x="409.9763" y="344.2638">Review Content</text></g><!--entity UC5--><g class="entity" data-qualified-name="CMS.UC5" data-source-line="54" id="ent0010"><ellipse cx="204.7312" cy="340.7811" fill="none" rx="58.1212" ry="14.0242"/><text fill="#000000" font-family="Helvetica" font-size="12" lengthAdjust="spacing" textLength="85.2949" x="162.0837" y="344.2655">Publish Article</text></g><!--entity UC6--><g class="entity" data-qualified-name="CMS.UC6" data-source-line="55" id="ent0011"><ellipse cx="204.7313" cy="274.7811" fill="none" rx="70.7713" ry="16.5543"/><text fill="#000000" font-family="Helvetica" font-size="12" lengthAdjust="spacing" textLength="116.1621" x="146.6502" y="278.2655">Manage Categories</text></g><!--entity UC7--><g class="entity" data-qualified-name="CMS.UC7" data-source-line="56" id="ent0012"><ellipse cx="204.7296" cy="466.7748" fill="none" rx="58.0396" ry="14.0079"/><text fill="#000000" font-family="Helvetica" font-size="12" lengthAdjust="spacing" textLength="85.084" x="162.1876" y="470.2592">Manage Users</text></g><!--entity UC8--><g class="entity" data-qualified-name="CMS.UC8" data-source-line="57" id="ent0013"><ellipse cx="204.7317" cy="403.7772" fill="none" rx="58.8017" ry="14.1603"/><text fill="#000000" font-family="Helvetica" font-size="12" lengthAdjust="spacing" textLength="87.0469" x="161.2082" y="407.2616">View Analytics</text></g><!--entity UC9--><g class="entity" data-qualified-name="CMS.UC9" data-source-line="58" id="ent0014"><ellipse cx="204.7312" cy="208.7791" fill="none" rx="60.9612" ry="14.5922"/><text fill="#000000" font-family="Helvetica" font-size="12" lengthAdjust="spacing" textLength="92.5195" x="158.4715" y="212.2635">Browse Articles</text></g><!--entity UC10--><g class="entity" data-qualified-name="CMS.UC10" data-source-line="59" id="ent0015"><ellipse cx="457.4249" cy="208.7798" fill="none" rx="61.1649" ry="14.633"/><text fill="#000000" font-family="Helvetica" font-size="12" lengthAdjust="spacing" textLength="93.0293" x="410.9102" y="212.2642">Search Content</text></g><!--entity Author--><g class="entity" data-qualified-name="Author" data-source-line="44" id="ent0001"><ellipse cx="38.4817" cy="567.1269" fill="none" rx="8" ry="8"/><path d="M38.4817,575.1269 L38.4817,602.1269 M25.4817,583.1269 L51.4817,583.1269 M38.4817,602.1269 L25.4817,617.1269 M38.4817,602.1269 L51.4817,617.1269" fill="none"/><text fill="#000000" font-family="Helvetica" font-size="14" font-weight="700" lengthAdjust="spacing" textLength="53.9834" x="11.49" y="631.122">Author</text></g><!--entity Editor--><g class="entity" data-qualified-name="Editor" data-source-line="45" id="ent0002"><ellipse cx="38.4793" cy="269.1269" fill="none" rx="8" ry="8"/><path d="M38.4793,277.1269 L38.4793,304.1269 M25.4793,285.1269 L51.4793,285.1269 M38.4793,304.1269 L25.4793,319.1269 M38.4793,304.1269 L51.4793,319.1269" fill="none"/><text fill="#000000" font-family="Helvetica" font-size="14" font-weight="700" lengthAdjust="spacing" textLength="47.5986" x="14.68" y="333.122">Editor</text></g><!--entity Admin--><g class="entity" data-qualified-name="Admin" data-source-line="46" id="ent0003"><ellipse cx="38.485" cy="409.1269" fill="none" rx="8" ry="8"/><path d="M38.485,417.1269 L38.485,444.1269 M25.485,425.1269 L51.485,425.1269 M38.485,444.1269 L25.485,459.1269 M38.485,444.1269 L51.485,459.1269" fill="none"/><text fill="#000000" font-family="Helvetica" font-size="14" font-weight="700" lengthAdjust="spacing" textLength="50.21" x="13.38" y="473.122">Admin</text></g><!--entity Visitor--><g class="entity" data-qualified-name="Visitor" data-source-line="47" id="ent0004"><ellipse cx="38.4814" cy="51.2969" fill="none" rx="8" ry="8"/><path d="M38.4814,59.2969 L38.4814,86.2969 M25.4814,67.2969 L51.4814,67.2969 M38.4814,86.2969 L25.4814,101.2969 M38.4814,86.2969 L51.4814,101.2969" fill="none"/><text fill="#000000" font-family="Helvetica" font-size="12" lengthAdjust="spacing" textLength="64.9629" x="6" y="113.4355">Site Visitor</text></g><!--link Author to UC1--><g class="link" data-entity-1="ent0001" data-entity-2="ent0006" data-link-type="dependency" data-source-line="62" id="lnk16"><path d="M65.76,585.5269 C76.63,580.9069 89.39,575.5369 100.96,570.7769 C125.31,560.7769 148.3795,551.5735 168.8895,543.4735" fill="none" id="Author-to-UC1" style="stroke:#000000;stroke-width:0.75;"/><polygon fill="#000000" points="173.54,541.6369,163.6999,541.2224,168.8895,543.4735,166.6384,548.6631,173.54,541.6369" style="stroke:#000000;stroke-width:0.75;stroke-linejoin:miter;stroke-miterlimit:10;"/></g><!--link Author to UC2--><g class="link" data-entity-1="ent0001" data-entity-2="ent0007" data-link-type="dependency" data-source-line="63" id="lnk17"><path d="M65.93,596.8169 C77.06,596.8169 90.14,596.8169 101.96,596.7769 C179.09,596.5569 198.73,603.1769 275.51,595.7769 C385.27,585.1969 413.83,581.8769 519.33,549.7769 C573.16,533.4069 628.5525,507.4822 660.3825,491.6622" fill="none" id="Author-to-UC2" style="stroke:#000000;stroke-width:0.75;"/><polygon fill="#000000" points="664.86,489.4369,655.0203,489.8606,660.3825,491.6622,658.5809,497.0245,664.86,489.4369" style="stroke:#000000;stroke-width:0.75;stroke-linejoin:miter;stroke-miterlimit:10;"/></g><!--link Author to UC3--><g class="link" data-entity-1="ent0001" data-entity-2="ent0008" data-link-type="dependency" data-source-line="64" id="lnk18"><path d="M65.79,593.4369 C109.5,587.7369 199.79,575.3169 275.51,560.7769 C324.59,551.3569 375.6989,539.158 412.2289,530.038" fill="none" id="Author-to-UC3" style="stroke:#000000;stroke-width:0.75;"/><polygon fill="#000000" points="417.08,528.8269,407.3791,527.126,412.2289,530.038,409.3169,534.8878,417.08,528.8269" style="stroke:#000000;stroke-width:0.75;stroke-linejoin:miter;stroke-miterlimit:10;"/></g><!--link Editor to UC4--><g class="link" data-entity-1="ent0002" data-entity-2="ent0009" data-link-type="dependency" data-source-line="66" id="lnk19"><path d="M50.1,260.7469 C60.33,232.0569 78.93,194.6969 109.96,176.7769 C208.39,119.9669 270.79,122.9669 365.51,185.7769 C388.71,201.1669 381.59,216.6569 395.51,240.7769 C413.18,271.4169 432.3176,302.3684 444.4576,321.7684" fill="none" id="Editor-to-UC4" style="stroke:#000000;stroke-width:0.75;"/><polygon fill="#000000" points="447.11,326.0069,445.7266,316.2557,444.4576,321.7684,438.945,320.4994,447.11,326.0069" style="stroke:#000000;stroke-width:0.75;stroke-linejoin:miter;stroke-miterlimit:10;"/></g><!--link Editor to UC5--><g class="link" data-entity-1="ent0002" data-entity-2="ent0010" data-link-type="dependency" data-source-line="67" id="lnk20"><path d="M62.67,304.7069 C88.84,311.3969 127.0559,321.1679 158.7259,329.2679" fill="none" id="Editor-to-UC5" style="stroke:#000000;stroke-width:0.75;"/><polygon fill="#000000" points="163.57,330.5069,155.8418,324.4015,158.7259,329.2679,153.8595,332.1521,163.57,330.5069" style="stroke:#000000;stroke-width:0.75;stroke-linejoin:miter;stroke-miterlimit:10;"/></g><!--link Editor to UC6--><g class="link" data-entity-1="ent0002" data-entity-2="ent0011" data-link-type="dependency" data-source-line="68" id="lnk21"><path d="M62.67,295.3869 C83.71,292.3169 110.7226,288.3699 138.9126,284.2499" fill="none" id="Editor-to-UC6" style="stroke:#000000;stroke-width:0.75;"/><polygon fill="#000000" points="143.86,283.5269,134.3761,280.8705,138.9126,284.2499,135.5331,288.7864,143.86,283.5269" style="stroke:#000000;stroke-width:0.75;stroke-linejoin:miter;stroke-miterlimit:10;"/></g><!--link Editor to UC8--><g class="link" data-entity-1="ent0002" data-entity-2="ent0013" data-link-type="dependency" data-source-line="69" id="lnk22"><path d="M62.48,329.2269 C75.09,344.1369 91.83,361.2969 109.96,372.7769 C125.17,382.4069 138.8812,387.9526 155.4212,392.7926" fill="none" id="Editor-to-UC8" style="stroke:#000000;stroke-width:0.75;"/><polygon fill="#000000" points="160.22,394.1969,152.7056,387.8302,155.4212,392.7926,150.4588,395.5083,160.22,394.1969" style="stroke:#000000;stroke-width:0.75;stroke-linejoin:miter;stroke-miterlimit:10;"/></g><!--link Admin to UC7--><g class="link" data-entity-1="ent0003" data-entity-2="ent0012" data-link-type="dependency" data-source-line="71" id="lnk23"><path d="M64.07,442.9669 C88.41,447.1169 121.3812,452.7358 151.5612,457.8858" fill="none" id="Admin-to-UC7" style="stroke:#000000;stroke-width:0.75;"/><polygon fill="#000000" points="156.49,458.7269,148.2911,453.27,151.5612,457.8858,146.9454,461.156,156.49,458.7269" style="stroke:#000000;stroke-width:0.75;stroke-linejoin:miter;stroke-miterlimit:10;"/></g><!--link Admin to UC8--><g class="link" data-entity-1="ent0003" data-entity-2="ent0013" data-link-type="dependency" data-source-line="72" id="lnk24"><path d="M64.07,433.5369 C89.22,428.1769 123.9396,420.7779 154.5696,414.2579" fill="none" id="Admin-to-UC8" style="stroke:#000000;stroke-width:0.75;"/><polygon fill="#000000" points="159.46,413.2169,149.8244,411.1783,154.5696,414.2579,151.49,419.003,159.46,413.2169" style="stroke:#000000;stroke-width:0.75;stroke-linejoin:miter;stroke-miterlimit:10;"/></g><!--link Visitor to UC9--><g class="link" data-entity-1="ent0004" data-entity-2="ent0014" data-link-type="dependency" data-source-line="74" id="lnk25"><path d="M71.15,104.6469 C105.27,131.4469 154.4279,170.0584 181.9279,191.6584" fill="none" id="Visitor-to-UC9" style="stroke:#000000;stroke-width:0.75;"/><polygon fill="#000000" points="185.86,194.7469,181.253,186.0419,181.9279,191.6584,176.3115,192.3333,185.86,194.7469" style="stroke:#000000;stroke-width:0.75;stroke-linejoin:miter;stroke-miterlimit:10;"/></g><!--link Visitor to UC10--><g class="link" data-entity-1="ent0004" data-entity-2="ent0015" data-link-type="dependency" data-source-line="75" id="lnk26"><path d="M71.38,81.3569 C131.35,85.3069 263.97,98.7169 365.51,142.7769 C394.85,155.5069 420.1793,175.6879 437.2693,190.9379" fill="none" id="Visitor-to-UC10" style="stroke:#000000;stroke-width:0.75;"/><polygon fill="#000000" points="441,194.2669,436.948,185.2902,437.2693,190.9379,431.6216,191.2592,441,194.2669" style="stroke:#000000;stroke-width:0.75;stroke-linejoin:miter;stroke-miterlimit:10;"/></g><!--link UC4 to UC2--><g class="link" data-entity-1="ent0009" data-entity-2="ent0007" data-link-type="dependency" data-source-line="77" id="lnk27"><path d="M481.66,354.6669 C526.74,381.6069 621.0383,437.9516 663.3983,463.2716" fill="none" id="UC4-to-UC2" style="stroke:#000000;stroke-width:1;stroke-dasharray:7,7;"/><polygon fill="#000000" points="667.69,465.8369,662.0171,457.7859,663.3983,463.2716,657.9126,464.6527,667.69,465.8369" style="stroke:#000000;stroke-width:1;stroke-linejoin:miter;stroke-miterlimit:10;"/><text fill="#000000" font-family="Helvetica" font-size="12" lengthAdjust="spacing" textLength="58.1602" x="550.33" y="394.1455">&#171;include&#187;</text></g><!--link UC5 to UC4--><g class="link" data-entity-1="ent0010" data-entity-2="ent0009" data-link-type="dependency" data-source-line="78" id="lnk28"><path d="M263.25,340.7769 C302.71,340.7769 350.01,340.7769 390.24,340.7769" fill="none" id="UC5-to-UC4" style="stroke:#000000;stroke-width:1;stroke-dasharray:7,7;"/><polygon fill="#000000" points="395.24,340.7769,386.24,336.7769,390.24,340.7769,386.24,344.7769,395.24,340.7769" style="stroke:#000000;stroke-width:1;stroke-linejoin:miter;stroke-miterlimit:10;"/><text fill="#000000" font-family="Helvetica" font-size="12" lengthAdjust="spacing" textLength="58.1602" x="306.51" y="337.9155">&#171;include&#187;</text></g><!--link UC1 to UC3--><g class="link" data-entity-1="ent0006" data-entity-2="ent0008" data-link-type="dependency" data-source-line="79" id="lnk29"><path d="M261.37,527.3369 C303.06,525.5069 354.8348,523.2357 396.3748,521.4157" fill="none" id="UC1-to-UC3" style="stroke:#000000;stroke-width:1;stroke-dasharray:7,7;"/><polygon fill="#000000" points="401.37,521.1969,392.2035,517.5946,396.3748,521.4157,392.5537,525.587,401.37,521.1969" style="stroke:#000000;stroke-width:1;stroke-linejoin:miter;stroke-miterlimit:10;"/><text fill="#000000" font-family="Helvetica" font-size="12" lengthAdjust="spacing" textLength="58.1602" x="306.51" y="520.1055">&#171;include&#187;</text></g><!--link UC9 to UC10--><g class="link" data-entity-1="ent0014" data-entity-2="ent0015" data-link-type="dependency" data-source-line="80" id="lnk30"><path d="M266.1,208.7769 C305.5,208.7769 351.76,208.7769 391.14,208.7769" fill="none" id="UC9-to-UC10" style="stroke:#000000;stroke-width:1;stroke-dasharray:7,7;"/><polygon fill="#000000" points="396.14,208.7769,387.14,204.7769,391.14,208.7769,387.14,212.7769,396.14,208.7769" style="stroke:#000000;stroke-width:1;stroke-linejoin:miter;stroke-miterlimit:10;"/><text fill="#000000" font-family="Helvetica" font-size="12" lengthAdjust="spacing" textLength="56.4785" x="307.51" y="205.9155">&#171;extend&#187;</text></g><?plantuml-src dLJRRXen47ttLupeGzg7K4WWjo8aihrAJLLbaxmxknFMmcjJsmkXKQH-HB-mNzAnroGnj59Jl-0pvupdkkn0KylTKl2fuRNjQZC5WpTeK1K8rgqamgyVFo7BSrXm8xXoy78kwOVSkeMkOHH4Ox0hvVZjAnOnCrexk6C0xxLoNtYDy17b0fqeU3JcuZj2Vo-YJ4jju4Kl7BATycBsmUX6bP5v7munduN2JRMtNLIYc2cq5dhTmo4Pprjlez205-KLB_LIg2cXUyQSS5JTNPBDO8r2vTTQbl-OdZDSsJcdlhaanMtxapHz5agxDedd5RoT4xtLMCounRVjDCEhl72ayUVkRn7UR0U0UtAbrmfwxNzS3HQEgwblx_DSxzdeTLmWjWCN5L9yjzHWqJaQd8MABn2K3Wk9tngnu99Q2ojqOKzdY7FW5knCAEewhq_OmpMkitL657vzdp25vDPE737NZSDFXLPX7Nhh9ScespxC6LTyYhM_vYlhi6PCueq3fy68QUMW5BvqeHLZRUSdZQkqYU1TATm3c9IrKF7UoGLjmPMmdk_u0kATiSTMThApl1E6-ZYRJcQGa-l4q8SbCRXUPlrKuyDkAFPInULSQbx26T8VGLJifufpN0XShXiHDODKyxMvbi9M6w66gQXj8MIKzLGRWJRA3luekxHereh3L77byvaeBbSKRQqvIZMdHY_jGtVMekDKb2CtHRLHMZzyKEtqO7Tt7BgQmBqKxZFMZZVYGGg7AJn8uH65ykiGuM62Y8pR40t76vXoPHGGkjsG5vp0Q2HK8PiInsDYXf4PR37zoEnlCSUHwVS2XRVKct8y_Wq0?></g></svg>