<svg xmlns="http://www.w3.org/2000/svg" xmlns:xlink="http://www.w3.org/1999/xlink" contentStyleType="text/css" data-diagram-type="DESCRIPTION" height="799.344px" preserveAspectRatio="none" style="width:793px;height:799px;background:#FFFFFF;" version="1.1" viewBox="0 0 793 799" width="793.793px" zoomAndPan="magnify"><title>E-Commerce Microservice Architecture</title><defs/><g><g class="title" data-source-line="45"><text fill="#000000" font-family="Helvetica" font-size="11.102" font-weight="bold" lengthAdjust="spacing" textLength="243.2411" x="270.0857" y="18.2351">E-Commerce Microservice Architecture</text></g><!--cluster API Gateway--><g class="cluster" data-entity="API Gateway" data-source-line="50" data-uid="ent0004" id="cluster_API Gateway"><polygon fill="#FFFFFF" points="441.6296,129.8909,514.2309,129.8909,519.7819,145.7261,557.4076,145.7261,557.4076,369.3769,441.6296,369.3769,441.6296,129.8909" style="stroke:#000000;stroke-width:1.1895;"/><line style="stroke:#000000;stroke-width:1.1895;" x1="441.6296" x2="519.7819" y1="145.7261" y2="145.7261"/><text fill="#000000" font-family="Helvetica" font-size="9.516" font-weight="bold" lengthAdjust="spacing" textLength="67.8433" x="444.8016" y="140.3099">API Gateway</text></g><!--cluster Core Services--><g class="cluster" data-entity="Core Services" data-source-line="56" data-uid="ent0008" id="cluster_Core Services"><polygon fill="#FFFFFF" points="267.9626,395.5459,345.926,395.5459,351.477,411.3811,643.8446,411.3811,643.8446,562.8689,267.9626,562.8689,267.9626,395.5459" style="stroke:#000000;stroke-width:1.1895;"/><line style="stroke:#000000;stroke-width:1.1895;" x1="267.9626" x2="351.477" y1="411.3811" y2="411.3811"/><text fill="#000000" font-family="Helvetica" font-size="9.516" font-weight="bold" lengthAdjust="spacing" textLength="73.2054" x="271.1346" y="405.9649">Core Services</text></g><!--cluster Supporting Services--><g class="cluster" data-entity="Supporting Services" data-source-line="64" data-uid="ent0014" id="cluster_Supporting Services"><polygon fill="#FFFFFF" points="358.3646,600.1399,471.539,600.1399,477.09,615.9751,781.0336,615.9751,781.0336,673.0959,358.3646,673.0959,358.3646,600.1399" style="stroke:#000000;stroke-width:1.1895;"/><line style="stroke:#000000;stroke-width:1.1895;" x1="358.3646" x2="477.09" y1="615.9751" y2="615.9751"/><text fill="#000000" font-family="Helvetica" font-size="9.516" font-weight="bold" lengthAdjust="spacing" textLength="108.4164" x="361.5366" y="610.5589">Supporting Services</text></g><!--cluster Infrastructure--><g class="cluster" data-entity="Infrastructure" data-source-line="70" data-uid="ent0018" id="cluster_Infrastructure"><polygon fill="#FFFFFF" points="38.7856,710.3669,118.905,710.3669,124.456,726.2021,607.3666,726.2021,607.3666,794.4249,38.7856,794.4249,38.7856,710.3669" style="stroke:#000000;stroke-width:1.1895;"/><line style="stroke:#000000;stroke-width:1.1895;" x1="38.7856" x2="124.456" y1="726.2021" y2="726.2021"/><text fill="#000000" font-family="Helvetica" font-size="9.516" font-weight="bold" lengthAdjust="spacing" textLength="75.3613" x="41.9576" y="720.7859">Infrastructure</text></g><!--entity Rate Limiter--><g class="entity" data-entity="Rate Limiter" data-source-line="51" data-uid="ent0005" id="entity_Rate Limiter"><rect fill="#FFFFFF" height="34.8672" style="stroke:#181818;stroke-width:0.3965;" width="90.131" x="454.3176" y="321.7969"/><rect fill="#FFFFFF" height="7.93" style="stroke:#181818;stroke-width:0.3965;" width="11.895" x="528.5886" y="325.7619"/><rect fill="#FFFFFF" height="1.586" style="stroke:#181818;stroke-width:0.3965;" width="3.172" x="527.0026" y="327.3479"/><rect fill="#FFFFFF" height="1.586" style="stroke:#181818;stroke-width:0.3965;" width="3.172" x="527.0026" y="330.5199"/><text fill="#000000" font-family="Helvetica" font-size="9.516" lengthAdjust="spacing" textLength="58.411" x="466.2126" y="346.4899">Rate Limiter</text></g><!--entity Auth Filter--><g class="entity" data-entity="Auth Filter" data-source-line="52" data-uid="ent0006" id="entity_Auth Filter"><rect fill="#FFFFFF" height="34.8672" style="stroke:#181818;stroke-width:0.3965;" width="81.3073" x="458.6791" y="238.5319"/><rect fill="#FFFFFF" height="7.93" style="stroke:#181818;stroke-width:0.3965;" width="11.895" x="524.1264" y="242.4969"/><rect fill="#FFFFFF" height="1.586" style="stroke:#181818;stroke-width:0.3965;" width="3.172" x="522.5404" y="244.0829"/><rect fill="#FFFFFF" height="1.586" style="stroke:#181818;stroke-width:0.3965;" width="3.172" x="522.5404" y="247.2549"/><text fill="#000000" font-family="Helvetica" font-size="9.516" lengthAdjust="spacing" textLength="49.5873" x="470.5741" y="263.2249">Auth Filter</text></g><!--entity Router--><g class="entity" data-entity="Router" data-source-line="53" data-uid="ent0007" id="entity_Router"><rect fill="#FFFFFF" height="34.8672" style="stroke:#181818;stroke-width:0.3965;" width="63.6832" x="467.7986" y="155.2669"/><rect fill="#FFFFFF" height="7.93" style="stroke:#181818;stroke-width:0.3965;" width="11.895" x="515.6218" y="159.2319"/><rect fill="#FFFFFF" height="1.586" style="stroke:#181818;stroke-width:0.3965;" width="3.172" x="514.0358" y="160.8179"/><rect fill="#FFFFFF" height="1.586" style="stroke:#181818;stroke-width:0.3965;" width="3.172" x="514.0358" y="163.9899"/><text fill="#000000" font-family="Helvetica" font-size="9.516" lengthAdjust="spacing" textLength="31.9632" x="479.6936" y="179.9599">Router</text></g><!--entity Product Service--><g class="entity" data-entity="Product Service" data-source-line="57" data-uid="ent0009" id="entity_Product Service"><rect fill="#FFFFFF" height="34.8672" style="stroke:#181818;stroke-width:0.3965;" width="106.4215" x="280.6506" y="420.9219"/><rect fill="#FFFFFF" height="7.93" style="stroke:#181818;stroke-width:0.3965;" width="11.895" x="371.2122" y="424.8869"/><rect fill="#FFFFFF" height="1.586" style="stroke:#181818;stroke-width:0.3965;" width="3.172" x="369.6262" y="426.4729"/><rect fill="#FFFFFF" height="1.586" style="stroke:#181818;stroke-width:0.3965;" width="3.172" x="369.6262" y="429.6449"/><text fill="#000000" font-family="Helvetica" font-size="9.516" lengthAdjust="spacing" textLength="74.7015" x="292.5456" y="445.6149">Product Service</text></g><!--entity Order Service--><g class="entity" data-entity="Order Service" data-source-line="58" data-uid="ent0010" id="entity_Order Service"><rect fill="#FFFFFF" height="34.8672" style="stroke:#181818;stroke-width:0.3965;" width="97.1239" x="534.4106" y="420.9219"/><rect fill="#FFFFFF" height="7.93" style="stroke:#181818;stroke-width:0.3965;" width="11.895" x="615.6745" y="424.8869"/><rect fill="#FFFFFF" height="1.586" style="stroke:#181818;stroke-width:0.3965;" width="3.172" x="614.0885" y="426.4729"/><rect fill="#FFFFFF" height="1.586" style="stroke:#181818;stroke-width:0.3965;" width="3.172" x="614.0885" y="429.6449"/><text fill="#000000" font-family="Helvetica" font-size="9.516" lengthAdjust="spacing" textLength="65.4039" x="546.3056" y="445.6149">Order Service</text></g><!--entity Payment Service--><g class="entity" data-entity="Payment Service" data-source-line="59" data-uid="ent0011" id="entity_Payment Service"><rect fill="#FFFFFF" height="34.8672" style="stroke:#181818;stroke-width:0.3965;" width="112.002" x="518.9471" y="515.2889"/><rect fill="#FFFFFF" height="7.93" style="stroke:#181818;stroke-width:0.3965;" width="11.895" x="615.0891" y="519.2539"/><rect fill="#FFFFFF" height="1.586" style="stroke:#181818;stroke-width:0.3965;" width="3.172" x="613.5031" y="520.8399"/><rect fill="#FFFFFF" height="1.586" style="stroke:#181818;stroke-width:0.3965;" width="3.172" x="613.5031" y="524.0119"/><text fill="#000000" font-family="Helvetica" font-size="9.516" lengthAdjust="spacing" textLength="80.282" x="530.8421" y="539.9819">Payment Service</text></g><!--entity User Service--><g class="entity" data-entity="User Service" data-source-line="60" data-uid="ent0012" id="entity_User Service"><rect fill="#FFFFFF" height="34.8672" style="stroke:#181818;stroke-width:0.3965;" width="91.6039" x="414.6676" y="420.9219"/><rect fill="#FFFFFF" height="7.93" style="stroke:#181818;stroke-width:0.3965;" width="11.895" x="490.4115" y="424.8869"/><rect fill="#FFFFFF" height="1.586" style="stroke:#181818;stroke-width:0.3965;" width="3.172" x="488.8255" y="426.4729"/><rect fill="#FFFFFF" height="1.586" style="stroke:#181818;stroke-width:0.3965;" width="3.172" x="488.8255" y="429.6449"/><text fill="#000000" font-family="Helvetica" font-size="9.516" lengthAdjust="spacing" textLength="59.8839" x="426.5626" y="445.6149">User Service</text></g><!--entity Inventory Service--><g class="entity" data-entity="Inventory Service" data-source-line="61" data-uid="ent0013" id="entity_Inventory Service"><rect fill="#FFFFFF" height="34.8672" style="stroke:#181818;stroke-width:0.3965;" width="115.366" x="376.2071" y="515.2889"/><rect fill="#FFFFFF" height="7.93" style="stroke:#181818;stroke-width:0.3965;" width="11.895" x="475.7131" y="519.2539"/><rect fill="#FFFFFF" height="1.586" style="stroke:#181818;stroke-width:0.3965;" width="3.172" x="474.1271" y="520.8399"/><rect fill="#FFFFFF" height="1.586" style="stroke:#181818;stroke-width:0.3965;" width="3.172" x="474.1271" y="524.0119"/><text fill="#000000" font-family="Helvetica" font-size="9.516" lengthAdjust="spacing" textLength="83.646" x="388.1021" y="539.9819">Inventory Service</text></g><!--entity Notification Service--><g class="entity" data-entity="Notification Service" data-source-line="65" data-uid="ent0015" id="entity_Notification Service"><rect fill="#FFFFFF" height="34.8672" style="stroke:#181818;stroke-width:0.3965;" width="124.5149" x="512.6031" y="625.5159"/><rect fill="#FFFFFF" height="7.93" style="stroke:#181818;stroke-width:0.3965;" width="11.895" x="621.2581" y="629.4809"/><rect fill="#FFFFFF" height="1.586" style="stroke:#181818;stroke-width:0.3965;" width="3.172" x="619.6721" y="631.0669"/><rect fill="#FFFFFF" height="1.586" style="stroke:#181818;stroke-width:0.3965;" width="3.172" x="619.6721" y="634.2389"/><text fill="#000000" font-family="Helvetica" font-size="9.516" lengthAdjust="spacing" textLength="92.7949" x="524.4981" y="650.2089">Notification Service</text></g><!--entity Search Service--><g class="entity" data-entity="Search Service" data-source-line="66" data-uid="ent0016" id="entity_Search Service"><rect fill="#FFFFFF" height="34.8672" style="stroke:#181818;stroke-width:0.3965;" width="102.8159" x="665.2556" y="625.5159"/><rect fill="#FFFFFF" height="7.93" style="stroke:#181818;stroke-width:0.3965;" width="11.895" x="752.2115" y="629.4809"/><rect fill="#FFFFFF" height="1.586" style="stroke:#181818;stroke-width:0.3965;" width="3.172" x="750.6255" y="631.0669"/><rect fill="#FFFFFF" height="1.586" style="stroke:#181818;stroke-width:0.3965;" width="3.172" x="750.6255" y="634.2389"/><text fill="#000000" font-family="Helvetica" font-size="9.516" lengthAdjust="spacing" textLength="71.0959" x="677.1506" y="650.2089">Search Service</text></g><!--entity Analytics Service--><g class="entity" data-entity="Analytics Service" data-source-line="67" data-uid="ent0017" id="entity_Analytics Service"><rect fill="#FFFFFF" height="34.8672" style="stroke:#181818;stroke-width:0.3965;" width="113.1264" x="371.4491" y="625.5159"/><rect fill="#FFFFFF" height="7.93" style="stroke:#181818;stroke-width:0.3965;" width="11.895" x="468.7155" y="629.4809"/><rect fill="#FFFFFF" height="1.586" style="stroke:#181818;stroke-width:0.3965;" width="3.172" x="467.1295" y="631.0669"/><rect fill="#FFFFFF" height="1.586" style="stroke:#181818;stroke-width:0.3965;" width="3.172" x="467.1295" y="634.2389"/><text fill="#000000" font-family="Helvetica" font-size="9.516" lengthAdjust="spacing" textLength="81.4064" x="383.3441" y="650.2089">Analytics Service</text></g><!--entity DB--><g class="entity" data-entity="DB" data-source-line="71" data-uid="ent0019" id="entity_DB"><path d="M261.2221,744.0694 C261.2221,736.1394 296.5966,736.1394 296.5966,736.1394 C296.5966,736.1394 331.971,736.1394 331.971,744.0694 L331.971,773.3609 C331.971,781.2909 296.5966,781.2909 296.5966,781.2909 C296.5966,781.2909 261.2221,781.2909 261.2221,773.3609 L261.2221,744.0694" fill="#FFFFFF" style="stroke:#181818;stroke-width:0.3965;"/><path d="M261.2221,744.0694 C261.2221,751.9994 296.5966,751.9994 296.5966,751.9994 C296.5966,751.9994 331.971,751.9994 331.971,744.0694" fill="none" style="stroke:#181818;stroke-width:0.3965;"/><text fill="#000000" font-family="Helvetica" font-size="9.516" lengthAdjust="spacing" textLength="54.8889" x="269.1521" y="764.0044">PostgreSQL</text><text fill="#000000" font-family="Helvetica" font-size="9.516" lengthAdjust="spacing" textLength="44.3646" x="269.1521" y="775.0816">(Primary)</text></g><!--entity Cache--><g class="entity" data-entity="Cache" data-source-line="72" data-uid="ent0020" id="entity_Cache"><path d="M51.8701,744.0694 C51.8701,736.1394 78.3094,736.1394 78.3094,736.1394 C78.3094,736.1394 104.7487,736.1394 104.7487,744.0694 L104.7487,773.3609 C104.7487,781.2909 78.3094,781.2909 78.3094,781.2909 C78.3094,781.2909 51.8701,781.2909 51.8701,773.3609 L51.8701,744.0694" fill="#FFFFFF" style="stroke:#181818;stroke-width:0.3965;"/><path d="M51.8701,744.0694 C51.8701,751.9994 78.3094,751.9994 78.3094,751.9994 C78.3094,751.9994 104.7487,751.9994 104.7487,744.0694" fill="none" style="stroke:#181818;stroke-width:0.3965;"/><text fill="#000000" font-family="Helvetica" font-size="9.516" lengthAdjust="spacing" textLength="26.1086" x="59.8001" y="764.0044">Redis</text><text fill="#000000" font-family="Helvetica" font-size="9.516" lengthAdjust="spacing" textLength="37.0185" x="59.8001" y="775.0816">(Cache)</text></g><!--entity MQ--><g class="entity" data-entity="MQ" data-source-line="73" data-uid="ent0021" id="entity_MQ"><path d="M366.2948,743.1724 C368.0577,738.1993 371.8258,737.3715 375.5199,741.1326 C377.9573,735.3189 382.2377,734.2381 386.2978,739.5623 C388.8969,735.6099 393.3353,734.9395 395.7082,739.8038 C396.8791,734.7745 400.525,734.489 403.9906,737.4145 C406.4622,731.8933 410.9568,732.6141 413.9785,736.8514 C417.095,732.5084 421.6806,733.6846 423.7022,738.0709 C426.728,733.3855 430.603,734.2062 433.1609,738.5604 C436.1286,733.9102 440.5293,735.3826 442.446,739.6542 C446.4489,736.3858 450.2438,736.4631 452.0442,742.0433 C455.6041,737.973 459.292,739.0707 461.4703,743.5641 C465.7915,744.4423 467.325,747.8822 464.0324,751.2864 C469.523,751.9497 471.0318,756.5045 467.3021,760.4557 C470.6523,763.9299 469.165,766.6406 465.1379,767.9978 C466.9286,772.1467 465.3082,775.3884 460.521,775.4764 C458.7719,780.9127 454.6421,781.6444 450.9902,777.3377 C449.1407,781.9084 446.4486,781.8083 442.9635,779.155 C441.1382,783.9561 436.4548,784.4837 433.5168,780.3286 C431.7735,786.688 427.095,786.6383 423.0072,782.7278 C420.4963,787.0545 416.6311,786.7919 413.773,783.1291 C410.6206,787.4455 407.7447,787.5796 404.9547,782.7786 C401.1932,786.8548 397.2983,785.9486 394.7723,781.3315 C390.5658,785.1573 386.978,783.3824 385.7298,778.3214 C382.3957,782.7829 378.8136,781.8284 376.6363,777.1682 C373.1793,781.836 368.3125,780.1573 366.4848,775.4113 C361.3902,774.9725 360.182,771.6903 362.8357,767.6218 C357.2145,766.8081 356.8202,763.4064 359.1768,759.148 C356.6225,754.9169 358.1822,751.8046 362.9052,750.8391 C359.9573,746.869 361.4283,743.6876 366.2948,743.1724" fill="#F1F1F1" style="stroke:#181818;stroke-width:0.3965;"/><text fill="#000000" font-family="Helvetica" font-size="9.516" lengthAdjust="spacing" textLength="46.5996" x="371.4491" y="756.4709">RabbitMQ</text><text fill="#000000" font-family="Helvetica" font-size="9.516" lengthAdjust="spacing" textLength="83.4183" x="371.4491" y="767.5481">(Message Queue)</text></g><!--entity ES--><g class="entity" data-entity="ES" data-source-line="74" data-uid="ent0022" id="entity_ES"><path d="M501.4711,742.4365 C503.8886,737.8136 508.1518,738.0882 510.5155,742.4904 C512.1787,737.2194 516.1842,735.8787 519.9485,740.4835 C521.3276,736.5185 524.7922,736.4551 527.405,739.0896 C529.5343,733.8694 532.8266,733.5791 536.2596,737.8767 C538.1671,733.5419 542.1899,732.8409 544.9147,737.0487 C547.7614,732.9939 552.0277,732.7687 554.6123,737.3433 C558.505,734.5544 561.6892,734.5546 563.436,739.7229 C566.1064,736.0885 568.9426,736.2085 571.3593,739.9938 C574.423,736.3812 578.8143,736.4223 580.2278,741.6494 C583.318,738.0393 585.7445,738.4787 588.2596,742.2733 C594.3256,743.029 595.761,746.4183 592.8745,751.6025 C597.5114,751.8238 598.668,755.5086 596.1686,758.9356 C599.9748,763.7575 597.8548,767.7796 592.0629,768.4669 C594.4258,771.9802 592.9013,775.3813 588.6686,775.8708 C585.251,779.9107 582.1238,780.0473 578.8704,775.6795 C575.6124,781.9824 571.2014,781.582 567.4784,776.1302 C564.0233,781.5409 559.9145,781.2659 556.3097,776.2912 C553.1937,782.7302 548.3869,781.7906 544.7744,776.792 C541.6287,782.5103 537.7141,782.3982 534.0129,777.347 C530.8357,782.1273 526.8188,781.8876 523.8477,777.1274 C520.0951,782.1982 515.5829,782.0702 512.8478,776.1125 C510.0509,780.4923 505.7547,781.8476 502.4277,776.6917 C497.6374,776.4155 495.5831,772.4492 498.4209,768.46 C493.4751,767.4874 492.0598,763.5459 494.9455,759.5265 C491.7535,754.6247 493.4524,751.7104 499.0933,751.2184 C495.6013,747.6379 497.2087,743.9174 501.4711,742.4365" fill="#F1F1F1" style="stroke:#181818;stroke-width:0.3965;"/><text fill="#000000" font-family="Helvetica" font-size="9.516" lengthAdjust="spacing" textLength="62.8716" x="506.6556" y="756.4709">Elasticsearch</text><text fill="#000000" font-family="Helvetica" font-size="9.516" lengthAdjust="spacing" textLength="75.9654" x="506.6556" y="767.5481">(Search Engine)</text></g><!--entity S3--><g class="entity" data-entity="S3" data-source-line="75" data-uid="ent0023" id="entity_S3"><path d="M140.1589,743.4315 C142.0671,738.5199 144.7544,738.5013 148.5574,741.3918 C150.7856,736.9927 154.1147,735.7609 157.8293,739.7485 C159.7812,735.5761 163.3031,735.2112 165.8077,739.2086 C167.8123,734.4037 171.5987,733.6052 174.7633,738.0904 C176.5826,733.1991 179.8382,732.6331 183.8368,735.562 C187.5993,732.5493 190.9597,733.9213 192.2812,738.3369 C195.4107,734.6891 199.1031,734.3498 201.6978,738.9476 C205.1348,735.4101 208.4128,734.7815 210.9166,739.9372 C214.2653,736.6891 217.1748,737.1743 219.5215,741.1336 C223.4922,737.8048 226.125,738.5467 227.4005,743.6515 C236.389,747.1669 236.8538,754.3548 230.1579,760.4455 C237.6638,765.9142 235.7516,772.8828 228.2075,776.5262 C226.5377,781.0035 222.434,781.5931 219.7752,777.4991 C217.1589,782.2881 214.014,782.1844 210.6916,778.2329 C208.7679,782.8069 205.3325,783.1432 202.2649,779.3906 C199.1797,784.5961 194.9331,783.3748 192.179,779.0405 C190.5628,783.2007 186.4457,784.2887 183.7873,780.0864 C181.0238,784.1292 177.9465,783.9443 175.2036,780.0641 C172.7199,784.5244 168.7166,783.6075 166.6051,779.6824 C163.046,783.492 158.8838,782.2344 157.7004,777.2711 C154.4788,781.8134 151.6236,781.1813 148.7452,776.9219 C145.6617,780.4619 143.087,780.3315 141.1913,775.8091 C136.4892,775.4635 134.5374,771.9495 137.237,767.9022 C132.4978,766.9567 131.6128,764.0843 134.2927,760.2749 C130.927,756.0454 132.7093,752.3104 137.816,751.4717 C134.0598,747.9587 135.8737,744.6013 140.1589,743.4315" fill="#F1F1F1" style="stroke:#181818;stroke-width:0.3965;"/><text fill="#000000" font-family="Helvetica" font-size="9.516" lengthAdjust="spacing" textLength="12.0948" x="145.0476" y="756.4709">S3</text><text fill="#000000" font-family="Helvetica" font-size="9.516" lengthAdjust="spacing" textLength="76.2627" x="145.0476" y="767.5481">(Media Storage)</text></g><!--entity Customer--><g class="entity" data-entity="Customer" data-source-line="47" data-uid="ent0002" id="entity_Customer"><ellipse cx="466.3272" cy="40.6784" fill="#FFFFFF" rx="6.344" ry="6.344" style="stroke:#181818;stroke-width:0.3965;"/><path d="M466.3272,47.0224 L466.3272,68.4334 M456.0182,53.3664 L476.6362,53.3664 M466.3272,68.4334 L456.0182,80.3284 M466.3272,68.4334 L476.6362,80.3284" fill="none" style="stroke:#181818;stroke-width:0.3965;"/><text fill="#000000" font-family="Helvetica" font-size="9.516" lengthAdjust="spacing" textLength="46.2232" x="443.2156" y="90.3509">Customer</text></g><!--entity Admin--><g class="entity" data-entity="Admin" data-source-line="48" data-uid="ent0003" id="entity_Admin"><ellipse cx="532.2121" cy="40.6784" fill="#FFFFFF" rx="6.344" ry="6.344" style="stroke:#181818;stroke-width:0.3965;"/><path d="M532.2121,47.0224 L532.2121,68.4334 M521.9031,53.3664 L542.5211,53.3664 M532.2121,68.4334 L521.9031,80.3284 M532.2121,68.4334 L542.5211,80.3284" fill="none" style="stroke:#181818;stroke-width:0.3965;"/><text fill="#000000" font-family="Helvetica" font-size="9.516" lengthAdjust="spacing" textLength="30.4949" x="516.9646" y="90.3509">Admin</text></g><!--link Customer to Router--><g class="link" data-entity-1="Customer" data-entity-2="Router" data-source-line="78" data-uid="lnk24" id="link_Customer_Router"><path d="M475.0546,92.6913 C481.1765,112.5322 487.7253,133.743 492.8798,150.4198" fill="none" id="Customer-to-Router" style="stroke:#000000;stroke-width:0.5948;"/><polygon fill="#000000" points="494.2848,154.9656,495.2078,147.2102,493.114,151.1774,489.1467,149.0835,494.2848,154.9656" style="stroke:#000000;stroke-width:0.5948;"/></g><!--link Admin to Router--><g class="link" data-entity-1="Admin" data-entity-2="Router" data-source-line="79" data-uid="lnk25" id="link_Admin_Router"><path d="M523.4038,92.6913 C517.4246,112.5322 511.0245,133.7327 506.0049,150.4095" fill="none" id="Admin-to-Router" style="stroke:#000000;stroke-width:0.5948;"/><polygon fill="#000000" points="504.6335,154.9656,509.7279,149.0457,505.7763,151.1688,503.6532,147.2172,504.6335,154.9656" style="stroke:#000000;stroke-width:0.5948;"/></g><!--link Router to Auth Filter--><g class="link" data-entity-1="Router" data-entity-2="Auth Filter" data-source-line="81" data-uid="lnk26" id="link_Router_Auth Filter"><path d="M499.5186,190.4285 C499.5186,204.4488 499.5186,219.5158 499.5186,233.5281" fill="none" id="Router-to-Auth Filter" style="stroke:#000000;stroke-width:0.5948;"/><polygon fill="#000000" points="499.5186,238.2861,502.6906,231.1491,499.5186,234.3211,496.3466,231.1491,499.5186,238.2861" style="stroke:#000000;stroke-width:0.5948;"/></g><!--link Auth Filter to Rate Limiter--><g class="link" data-entity-1="Auth Filter" data-entity-2="Rate Limiter" data-source-line="82" data-uid="lnk27" id="link_Auth Filter_Rate Limiter"><path d="M499.5186,273.6935 C499.5186,287.7138 499.5186,302.7808 499.5186,316.7931" fill="none" id="Auth Filter-to-Rate Limiter" style="stroke:#000000;stroke-width:0.5948;"/><polygon fill="#000000" points="499.5186,321.5511,502.6906,314.4141,499.5186,317.5861,496.3466,314.4141,499.5186,321.5511" style="stroke:#000000;stroke-width:0.5948;"/></g><!--link Rate Limiter to Product Service--><g class="link" data-entity-1="Rate Limiter" data-entity-2="Product Service" data-source-line="84" data-uid="lnk28" id="link_Rate Limiter_Product Service"><path d="M462.5886,356.792 C443.8183,365.7291 420.8768,377.3149 401.1866,389.2019 C385.2791,398.8052 372.0847,408.1457 359.143,417.8996" fill="none" id="Rate Limiter-to-Product Service" style="stroke:#000000;stroke-width:0.5948;"/><polygon fill="#000000" points="355.3433,420.7633,362.952,419.0008,358.5097,418.3769,359.1337,413.9346,355.3433,420.7633" style="stroke:#000000;stroke-width:0.5948;"/></g><!--link Rate Limiter to Order Service--><g class="link" data-entity-1="Rate Limiter" data-entity-2="Order Service" data-source-line="85" data-uid="lnk29" id="link_Rate Limiter_Order Service"><path d="M513.8323,356.7999 C529.0817,374.6662 550.005,399.1747 565.2861,417.0807" fill="none" id="Rate Limiter-to-Order Service" style="stroke:#000000;stroke-width:0.5948;"/><polygon fill="#000000" points="568.3748,420.6999,566.1546,413.212,565.8009,417.6839,561.329,417.3302,568.3748,420.6999" style="stroke:#000000;stroke-width:0.5948;"/></g><!--link Rate Limiter to Payment Service--><g class="link" data-entity-1="Rate Limiter" data-entity-2="Payment Service" data-source-line="86" data-uid="lnk30" id="link_Rate Limiter_Payment Service"><path d="M544.9734,342.8431 C578.097,347.4505 621.2362,359.2662 645.4306,389.2019 C674.1531,424.7442 679.7596,452.6261 655.7396,491.4989 C649.4273,501.7128 643.8382,507.1503 633.2438,512.9551" fill="none" id="Rate Limiter-to-Payment Service" style="stroke:#000000;stroke-width:0.5948;"/><polygon fill="#000000" points="629.071,515.2413,636.8543,514.5938,632.5483,513.3361,633.806,509.0301,629.071,515.2413" style="stroke:#000000;stroke-width:0.5948;"/></g><!--link Rate Limiter to User Service--><g class="link" data-entity-1="Rate Limiter" data-entity-2="User Service" data-source-line="87" data-uid="lnk31" id="link_Rate Limiter_User Service"><path d="M492.8416,356.7999 C485.7204,374.6662 476.2753,398.3734 469.1463,416.2794" fill="none" id="Rate Limiter-to-User Service" style="stroke:#000000;stroke-width:0.5948;"/><polygon fill="#000000" points="467.3863,420.6999,472.9733,415.2424,468.8529,417.0161,467.0792,412.8958,467.3863,420.6999" style="stroke:#000000;stroke-width:0.5948;"/></g><!--link Order Service to Payment Service--><g class="link" data-entity-1="Order Service" data-entity-2="Payment Service" data-source-line="89" data-uid="lnk32" id="link_Order Service_Payment Service"><path d="M573.7038,455.9725 C570.3732,463.054 567.0109,471.5153 565.3376,479.6039 C562.8952,491.4513 564.0813,500.3172 567.1502,510.6103" fill="none" id="Order Service-to-Payment Service" style="stroke:#000000;stroke-width:0.5948;"/><polygon fill="#000000" points="568.5096,515.17,569.5102,507.4242,567.3767,511.3703,563.4307,509.2368,568.5096,515.17" style="stroke:#000000;stroke-width:0.5948;"/><text fill="#000000" font-family="Helvetica" font-size="9.516" lengthAdjust="spacing" textLength="86.2899" x="566.1306" y="489.2299">processPayment()</text></g><!--link Order Service to Inventory Service--><g class="link" data-entity-1="Order Service" data-entity-2="Inventory Service" data-source-line="90" data-uid="lnk33" id="link_Order Service_Inventory Service"><path d="M534.3551,455.4174 C518.5506,461.7931 501.3425,469.9214 486.8306,479.6039 C471.9698,489.5244 460.8572,500.4081 450.8575,511.6053" fill="none" id="Order Service-to-Inventory Service" style="stroke:#000000;stroke-width:0.5948;"/><polygon fill="#000000" points="447.6882,515.1541,454.808,511.9438,450.3292,512.1968,450.0762,507.718,447.6882,515.1541" style="stroke:#000000;stroke-width:0.5948;"/><text fill="#000000" font-family="Helvetica" font-size="9.516" lengthAdjust="spacing" textLength="69.7391" x="487.6236" y="489.2299">reserveStock()</text></g><!--link Payment Service to Notification Service--><g class="link" data-entity-1="Payment Service" data-entity-2="Notification Service" data-source-line="91" data-uid="lnk34" id="link_Payment Service_Notification Service"><path d="M574.8536,550.2682 C574.8536,570.6245 574.8536,600.0289 574.8536,620.4724" fill="none" id="Payment Service-to-Notification Service" style="stroke:#000000;stroke-width:0.5948;"/><polygon fill="#000000" points="574.8536,625.2304,578.0256,618.0934,574.8536,621.2654,571.6816,618.0934,574.8536,625.2304" style="stroke:#000000;stroke-width:0.5948;"/><text fill="#000000" font-family="Helvetica" font-size="9.516" lengthAdjust="spacing" textLength="66.2775" x="575.6466" y="585.1829">sendReceipt()</text></g><!--link Inventory Service to Notification Service--><g class="link" data-entity-1="Inventory Service" data-entity-2="Notification Service" data-source-line="92" data-uid="lnk35" id="link_Inventory Service_Notification Service"><path d="M451.6294,550.4188 C463.5402,561.3702 479.6936,575.7235 494.7606,587.4519 C512.167,601.0043 528.7591,612.3987 544.6905,622.8505" fill="none" id="Inventory Service-to-Notification Service" style="stroke:#000000;stroke-width:0.5948;"/><polygon fill="#000000" points="548.6688,625.4604,544.4413,618.8933,545.3535,623.2855,540.9614,624.1977,548.6688,625.4604" style="stroke:#000000;stroke-width:0.5948;"/><text fill="#000000" font-family="Helvetica" font-size="9.516" lengthAdjust="spacing" textLength="72.6617" x="495.5536" y="585.1829">lowStockAlert()</text></g><!--link User Service to DB--><g class="link" data-entity-1="User Service" data-entity-2="DB" data-source-line="94" data-uid="lnk36" id="link_User Service_DB"><path d="M414.5645,452.1106 C410.0444,453.3715 405.5323,454.6165 401.1866,455.8139 C362.1155,466.567 338.7458,448.1773 313.1636,479.6039 C281.4516,518.5561 289.8463,672.4831 294.3029,731.2127" fill="none" id="User Service-to-DB" style="stroke:#000000;stroke-width:0.5948;"/><polygon fill="#000000" points="294.6629,735.957,297.2858,728.6005,294.3629,732.0034,290.96,729.0805,294.6629,735.957" style="stroke:#000000;stroke-width:0.5948;"/></g><!--link Order Service to DB--><g class="link" data-entity-1="Order Service" data-entity-2="DB" data-source-line="95" data-uid="lnk37" id="link_Order Service_DB"><path d="M534.1727,453.316 C473.0007,471.5233 374.4229,502.3392 362.3296,515.2889 C358.4598,519.4363 318.6221,672.4309 303.3648,731.3825" fill="none" id="Order Service-to-DB" style="stroke:#000000;stroke-width:0.5948;"/><polygon fill="#000000" points="302.1727,735.9888,307.0317,729.8742,303.1661,732.1502,300.89,728.2846,302.1727,735.9888" style="stroke:#000000;stroke-width:0.5948;"/></g><!--link Product Service to DB--><g class="link" data-entity-1="Product Service" data-entity-2="DB" data-source-line="96" data-uid="lnk38" id="link_Product Service_DB"><path d="M280.6427,441.421 C251.1114,445.5287 216.0291,455.6315 194.2136,479.6039 C164.9995,511.7125 180.0427,532.3384 175.9746,575.5569 C172.1524,616.1109 189.4398,673.3735 194.2136,679.4399 C210.3036,699.8914 226.3619,688.6467 247.3446,704.0229 C259.6044,713.0076 268.1366,721.7559 276.9706,732.4059" fill="none" id="Product Service-to-DB" style="stroke:#000000;stroke-width:0.5948;"/><polygon fill="#000000" points="280.0083,736.0681,277.8932,728.5498,277.4769,733.0163,273.0104,732.6,280.0083,736.0681" style="stroke:#000000;stroke-width:0.5948;"/></g><!--link Product Service to Cache--><g class="link" data-entity-1="Product Service" data-entity-2="Cache" data-source-line="98" data-uid="lnk39" id="link_Product Service_Cache"><path d="M280.5793,443.1418 C205.7121,452.1027 73.5666,481.2058 30.0626,575.5569 C4.758,630.4484 38.507,696.9349 60.7507,732.041" fill="none" id="Product Service-to-Cache" style="stroke:#000000;stroke-width:0.5948;"/><polygon fill="#000000" points="63.2973,736.0601,62.1568,728.3337,61.1751,732.7108,56.798,731.7291,63.2973,736.0601" style="stroke:#000000;stroke-width:0.5948;"/><text fill="#000000" font-family="Helvetica" font-size="9.516" lengthAdjust="spacing" textLength="64.6884" x="30.8556" y="585.1829">cacheProduct</text></g><!--link Search Service to ES--><g class="link" data-entity-1="Search Service" data-entity-2="ES" data-source-line="99" data-uid="lnk40" id="link_Search Service_ES"><path d="M706.4837,660.5507 C698.6964,672.1602 687.1186,687.3144 673.9786,697.6789 C650.3631,716.3144 624.4653,729.0696 599.129,739.1882" fill="none" id="Search Service-to-ES" style="stroke:#000000;stroke-width:0.5948;"/><polygon fill="#000000" points="594.7104,740.9529,602.5148,741.2517,598.3926,739.4824,600.1619,735.3601,594.7104,740.9529" style="stroke:#000000;stroke-width:0.5948;"/><text fill="#000000" font-family="Helvetica" font-size="9.516" lengthAdjust="spacing" textLength="62.709" x="686.6666" y="695.4099">indexProduct</text></g><!--link Product Service to MQ--><g class="link" data-entity-1="Product Service" data-entity-2="MQ" data-source-line="100" data-uid="lnk41" id="link_Product Service_MQ"><path d="M286.5506,455.917 C275.4168,461.8566 264.5527,469.628 256.8606,479.6039 C226.9725,518.3499 215.6881,542.3382 234.6566,587.4519 C250.1836,624.3819 334.5195,695.3512 380.8545,732.535" fill="none" id="Product Service-to-MQ" style="stroke:#000000;stroke-width:0.5948;"/><polygon fill="#000000" points="384.5654,735.513,380.9844,728.5721,381.473,733.0313,377.0138,733.5199,384.5654,735.513" style="stroke:#000000;stroke-width:0.5948;"/><text fill="#000000" font-family="Helvetica" font-size="9.516" lengthAdjust="spacing" textLength="77.3129" x="235.4496" y="585.1829">productUpdated</text></g><!--link Search Service to MQ--><g class="link" data-entity-1="Search Service" data-entity-2="MQ" data-source-line="101" data-uid="lnk42" id="link_Search Service_MQ"><path d="M691.5832,660.4793 C679.7437,667.5132 665.1367,675.0705 650.9816,679.4399 C624.5747,687.592 616.0024,679.3606 589.1276,685.7839 C574.806,689.2097 572.5539,694.3959 558.2006,697.6789 C524.7598,705.3234 513.19,691.438 481.2796,704.0229 C463.7305,710.9458 450.55,720.7397 438.0841,732.2461" fill="none" id="Search Service-to-MQ" style="stroke:#000000;stroke-width:0.5948;"/><polygon fill="#000000" points="434.5878,735.4733,441.9837,732.9634,437.5014,732.784,437.6808,728.3017,434.5878,735.4733" style="stroke:#000000;stroke-width:0.5948;"/><text fill="#000000" font-family="Helvetica" font-size="9.516" lengthAdjust="spacing" textLength="77.6613" x="589.9206" y="695.4099">consumeUpdate</text></g><!--link Notification Service to MQ--><g class="link" data-entity-1="Notification Service" data-entity-2="MQ" data-source-line="102" data-uid="lnk43" id="link_Notification Service_MQ"><path d="M539.7396,660.5745 C526.8851,666.633 512.1987,673.4528 498.7256,679.4399 C492.0882,682.3899 489.6696,681.7 483.6586,685.7839 C463.3737,699.5901 447.251,716.2516 434.0159,731.8024" fill="none" id="Notification Service-to-MQ" style="stroke:#000000;stroke-width:0.5948;"/><polygon fill="#000000" points="430.9321,735.4257,437.9733,732.0466,433.5019,732.4063,433.1422,727.9348,430.9321,735.4257" style="stroke:#000000;stroke-width:0.5948;"/><text fill="#000000" font-family="Helvetica" font-size="9.516" lengthAdjust="spacing" textLength="70.4593" x="484.4516" y="695.4099">consumeEvent</text></g><!--link Analytics Service to DB--><g class="link" data-entity-1="Analytics Service" data-entity-2="DB" data-source-line="104" data-uid="lnk44" id="link_Analytics Service_DB"><path d="M402.6061,660.4476 C385.7786,671.9144 363.6302,687.9171 345.6766,704.0229 C334.7412,713.8403 326.7446,722.2462 317.8551,732.4283" fill="none" id="Analytics Service-to-DB" style="stroke:#000000;stroke-width:0.5948;"/><polygon fill="#000000" points="314.7258,736.0125,321.8091,732.7224,317.3335,733.0257,317.0302,728.5501,314.7258,736.0125" style="stroke:#000000;stroke-width:0.5948;"/><text fill="#000000" font-family="Helvetica" font-size="9.516" lengthAdjust="spacing" textLength="49.1366" x="367.8806" y="695.4099">aggregate</text></g><!--link Product Service to S3--><g class="link" data-entity-1="Product Service" data-entity-2="S3" data-source-line="105" data-uid="lnk45" id="link_Product Service_S3"><path d="M280.5396,444.1885 C248.7403,449.24 208.7493,459.3507 178.3536,479.6039 C133.7712,509.3018 122.5026,524.7891 105.3976,575.5569 C85.4458,634.7544 129.7439,698.0884 159.0214,732.0367" fill="none" id="Product Service-to-S3" style="stroke:#000000;stroke-width:0.5948;"/><polygon fill="#000000" points="162.1289,735.6398,159.8698,728.1635,159.5393,732.6372,155.0657,732.3067,162.1289,735.6398" style="stroke:#000000;stroke-width:0.5948;"/><text fill="#000000" font-family="Helvetica" font-size="9.516" lengthAdjust="spacing" textLength="62.2118" x="106.1906" y="585.1829">uploadImage</text></g><!--SRC=[bPPHR-Cs383V_Ikqxc5tm5fqrmt3zZ30JPCkG7DDwklJjWT6PXmjjkHHKfji6B0ViL-uNp9QTg-EupQkWI2Mz94KAPBo5oL1Le20RoVAJTGMqyXAo56Sdtt_mqNqbV15Vfego0WAUsOe4uGh9DGIXNKx1l_xvrz-8oMTk9rTY_lPZVXmjlrQ54ORkIPJO6GtIfV06bgJmf5lhon1RZ8oNgSZaniINqx2qo9IN87FtSHezn5OmS-OFw1J4lgPHFs9ufiFhKMxXjGyAfs95UIsRRpsfFQ27Mwjo1oiZHslBBt3gJGww3rl2-CVleh73As53EDSPLf8r0wfHJMkaKPYwTP2B9sXowFUpu7OLrM2TiVXZyRXSIffDdxDL3ba1tB3_Xq7HrNCZcEtozzH3d0cSJ34ctkB4koGxPcYD1g7n97FHZqejniIyNI0wIjmi1oqoOIp1utRbJXw2pnz2no_1Hw_1FSar8rQyK_ZfQ4KgS7Fm_CQFJXXz_L_MYkvqLnyLS_whWSFfmXE6JtSH4jca1CnaNaS11tTxgNP3eZrgmPVDtHLDybFk7Nx2YAd7FV1yIcNI874BNwc91cBzA1u49DSAySrwmcZ2Ag-9KRUEkxcr0pZj50wYigwLOYJU3uLrro-Zx0x4Nz5WfzVxdWiRbJ1gkYtUYhsRYqcAd-UkJC-3FvkAUFkYHobi1dxMTsSJEhvycaM6ldRwj0wStFO5LpsdLdk6rrmgX-OCxHxdc_l8_5bQRWRyqLoi1lkl6h5TrALEHsj2G87i3CPQyXttDXjlwcfNX7mlUH3q9-if4qR4ITpOrr6c2nkVjNlvgGAeDtx4m5MN5rsq3jCbMLg17ADDHDU0oPpurDcOBbKRhPWhBdDnCAZR_3PeisEkSjN6mzUiK3ZtbXdN9crm3Xf2oGNGIr_J71RCVpPqL39HUNoKoA9qzEVdey_vDF-LFJqLa_lfSxUg17RoxPeVrmZ1ndK1tKIgbTFDx_weFrqYpfw-nM97qL9XjFCDYlltlSB7YOkYn9M1OmSSxcf10-q1z7Un6LfYpgzGucg35PxBBmgdfl7O3ZEaIe5qNu0WZ2dQfytrNJtQ9uMNbW92SrMPVNV456ty08vJXXJEiNjPwnNusnH1xzQkI-vclW3kLTX0FdpqFe2Qp1w8IXTUbn5b3qwR0MDjun2nbMU1QMzsqmk6F9bRY2T5bnP_mC0]--></g></svg>