<svg xmlns="http://www.w3.org/2000/svg" xmlns:xlink="http://www.w3.org/1999/xlink" contentStyleType="text/css" data-diagram-type="DESCRIPTION" height="1016px" preserveAspectRatio="none" style="width:1009px;height:1016px;background:#FFFFFF;" version="1.1" viewBox="0 0 1009 1016" width="1009px" zoomAndPan="magnify"><?plantuml 1.2026.6?><defs/><g><g class="title" data-source-line="43"><text fill="#000000" font-family="Helvetica" font-size="14" font-weight="700" lengthAdjust="spacing" textLength="306.7354" x="347.6723" y="22.9951">E-Commerce Microservice Architecture</text></g><!--cluster API Gateway--><g class="cluster" data-qualified-name="API Gateway" data-source-line="48" id="ent0003"><polygon fill="#FFFFFF" points="557.08,163.7669,648.6327,163.7669,655.6327,183.7356,703.08,183.7356,703.08,465.6769,557.08,465.6769,557.08,163.7669" style="stroke:#000000;stroke-width:1.5;stroke-linejoin:miter;stroke-miterlimit:10;"/><line style="stroke:#000000;stroke-width:1.5;" x1="557.08" x2="655.6327" y1="183.7356" y2="183.7356"/><text fill="#000000" font-family="Helvetica" font-size="12" font-weight="700" lengthAdjust="spacing" textLength="85.5527" x="561.08" y="176.9055">API Gateway</text></g><!--cluster Core Services--><g class="cluster" data-qualified-name="Core Services" data-source-line="54" id="ent0007"><polygon fill="#FFFFFF" points="338.08,498.6769,436.3945,498.6769,443.3945,518.6456,812.08,518.6456,812.08,709.6069,338.08,709.6069,338.08,498.6769" style="stroke:#000000;stroke-width:1.5;stroke-linejoin:miter;stroke-miterlimit:10;"/><line style="stroke:#000000;stroke-width:1.5;" x1="338.08" x2="443.3945" y1="518.6456" y2="518.6456"/><text fill="#000000" font-family="Helvetica" font-size="12" font-weight="700" lengthAdjust="spacing" textLength="92.3145" x="342.08" y="511.8155">Core Services</text></g><!--cluster Supporting Services--><g class="cluster" data-qualified-name="Supporting Services" data-source-line="62" id="ent0013"><polygon fill="#FFFFFF" points="453.08,756.6069,595.7968,756.6069,602.7968,776.5756,984.08,776.5756,984.08,848.5769,453.08,848.5769,453.08,756.6069" style="stroke:#000000;stroke-width:1.5;stroke-linejoin:miter;stroke-miterlimit:10;"/><line style="stroke:#000000;stroke-width:1.5;" x1="453.08" x2="602.7968" y1="776.5756" y2="776.5756"/><text fill="#000000" font-family="Helvetica" font-size="12" font-weight="700" lengthAdjust="spacing" textLength="136.7168" x="457.08" y="769.7455">Supporting Services</text></g><!--cluster Infrastructure--><g class="cluster" data-qualified-name="Infrastructure" data-source-line="68" id="ent0017"><polygon fill="#FFFFFF" points="52.08,895.5769,153.1132,895.5769,160.1132,915.5456,766.08,915.5456,766.08,1001.5169,52.08,1001.5169,52.08,895.5769" style="stroke:#000000;stroke-width:1.5;stroke-linejoin:miter;stroke-miterlimit:10;"/><line style="stroke:#000000;stroke-width:1.5;" x1="52.08" x2="160.1132" y1="915.5456" y2="915.5456"/><text fill="#000000" font-family="Helvetica" font-size="12" font-weight="700" lengthAdjust="spacing" textLength="95.0332" x="56.08" y="908.7155">Infrastructure</text></g><!--entity Rate Limiter--><g class="entity" data-qualified-name="API Gateway.Rate Limiter" data-source-line="49" id="ent0004"><rect fill="#FFFFFF" height="43.9688" style="stroke:#181818;stroke-width:0.5;" width="113.6582" x="573.25" y="405.7069"/><rect fill="#FFFFFF" height="10" style="stroke:#181818;stroke-width:0.5;" width="15" x="666.9082" y="410.7069"/><rect fill="#FFFFFF" height="2" style="stroke:#181818;stroke-width:0.5;" width="4" x="664.9082" y="412.7069"/><rect fill="#FFFFFF" height="2" style="stroke:#181818;stroke-width:0.5;" width="4" x="664.9082" y="416.7069"/><text fill="#000000" font-family="Helvetica" font-size="12" lengthAdjust="spacing" textLength="73.6582" x="588.25" y="436.8455">Rate Limiter</text></g><!--entity Auth Filter--><g class="entity" data-qualified-name="API Gateway.Auth Filter" data-source-line="50" id="ent0005"><rect fill="#FFFFFF" height="43.9688" style="stroke:#181818;stroke-width:0.5;" width="102.5313" x="578.82" y="300.7369"/><rect fill="#FFFFFF" height="10" style="stroke:#181818;stroke-width:0.5;" width="15" x="661.3513" y="305.7369"/><rect fill="#FFFFFF" height="2" style="stroke:#181818;stroke-width:0.5;" width="4" x="659.3513" y="307.7369"/><rect fill="#FFFFFF" height="2" style="stroke:#181818;stroke-width:0.5;" width="4" x="659.3513" y="311.7369"/><text fill="#000000" font-family="Helvetica" font-size="12" lengthAdjust="spacing" textLength="62.5313" x="593.82" y="331.8755">Auth Filter</text></g><!--entity Router--><g class="entity" data-qualified-name="API Gateway.Router" data-source-line="51" id="ent0006"><rect fill="#FFFFFF" height="43.9688" style="stroke:#181818;stroke-width:0.5;" width="80.3066" x="589.93" y="195.7669"/><rect fill="#FFFFFF" height="10" style="stroke:#181818;stroke-width:0.5;" width="15" x="650.2366" y="200.7669"/><rect fill="#FFFFFF" height="2" style="stroke:#181818;stroke-width:0.5;" width="4" x="648.2366" y="202.7669"/><rect fill="#FFFFFF" height="2" style="stroke:#181818;stroke-width:0.5;" width="4" x="648.2366" y="206.7669"/><text fill="#000000" font-family="Helvetica" font-size="12" lengthAdjust="spacing" textLength="40.3066" x="604.93" y="226.9055">Router</text></g><!--entity Product Service--><g class="entity" data-qualified-name="Core Services.Product Service" data-source-line="55" id="ent0008"><rect fill="#FFFFFF" height="43.9688" style="stroke:#181818;stroke-width:0.5;" width="134.2012" x="353.98" y="530.6769"/><rect fill="#FFFFFF" height="10" style="stroke:#181818;stroke-width:0.5;" width="15" x="468.1812" y="535.6769"/><rect fill="#FFFFFF" height="2" style="stroke:#181818;stroke-width:0.5;" width="4" x="466.1812" y="537.6769"/><rect fill="#FFFFFF" height="2" style="stroke:#181818;stroke-width:0.5;" width="4" x="466.1812" y="541.6769"/><text fill="#000000" font-family="Helvetica" font-size="12" lengthAdjust="spacing" textLength="94.2012" x="368.98" y="561.8155">Product Service</text></g><!--entity Order Service--><g class="entity" data-qualified-name="Core Services.Order Service" data-source-line="56" id="ent0009"><rect fill="#FFFFFF" height="43.9688" style="stroke:#181818;stroke-width:0.5;" width="122.4766" x="673.85" y="530.6769"/><rect fill="#FFFFFF" height="10" style="stroke:#181818;stroke-width:0.5;" width="15" x="776.3266" y="535.6769"/><rect fill="#FFFFFF" height="2" style="stroke:#181818;stroke-width:0.5;" width="4" x="774.3266" y="537.6769"/><rect fill="#FFFFFF" height="2" style="stroke:#181818;stroke-width:0.5;" width="4" x="774.3266" y="541.6769"/><text fill="#000000" font-family="Helvetica" font-size="12" lengthAdjust="spacing" textLength="82.4766" x="688.85" y="561.8155">Order Service</text></g><!--entity Payment Service--><g class="entity" data-qualified-name="Core Services.Payment Service" data-source-line="57" id="ent0010"><rect fill="#FFFFFF" height="43.9688" style="stroke:#181818;stroke-width:0.5;" width="141.2383" x="654.46" y="649.6369"/><rect fill="#FFFFFF" height="10" style="stroke:#181818;stroke-width:0.5;" width="15" x="775.6983" y="654.6369"/><rect fill="#FFFFFF" height="2" style="stroke:#181818;stroke-width:0.5;" width="4" x="773.6983" y="656.6369"/><rect fill="#FFFFFF" height="2" style="stroke:#181818;stroke-width:0.5;" width="4" x="773.6983" y="660.6369"/><text fill="#000000" font-family="Helvetica" font-size="12" lengthAdjust="spacing" textLength="101.2383" x="669.46" y="680.7755">Payment Service</text></g><!--entity User Service--><g class="entity" data-qualified-name="Core Services.User Service" data-source-line="58" id="ent0011"><rect fill="#FFFFFF" height="43.9688" style="stroke:#181818;stroke-width:0.5;" width="115.5156" x="523.33" y="530.6769"/><rect fill="#FFFFFF" height="10" style="stroke:#181818;stroke-width:0.5;" width="15" x="618.8456" y="535.6769"/><rect fill="#FFFFFF" height="2" style="stroke:#181818;stroke-width:0.5;" width="4" x="616.8456" y="537.6769"/><rect fill="#FFFFFF" height="2" style="stroke:#181818;stroke-width:0.5;" width="4" x="616.8456" y="541.6769"/><text fill="#000000" font-family="Helvetica" font-size="12" lengthAdjust="spacing" textLength="75.5156" x="538.33" y="561.8155">User Service</text></g><!--entity Inventory Service--><g class="entity" data-qualified-name="Core Services.Inventory Service" data-source-line="59" id="ent0012"><rect fill="#FFFFFF" height="43.9688" style="stroke:#181818;stroke-width:0.5;" width="145.4805" x="474.34" y="649.6369"/><rect fill="#FFFFFF" height="10" style="stroke:#181818;stroke-width:0.5;" width="15" x="599.8205" y="654.6369"/><rect fill="#FFFFFF" height="2" style="stroke:#181818;stroke-width:0.5;" width="4" x="597.8205" y="656.6369"/><rect fill="#FFFFFF" height="2" style="stroke:#181818;stroke-width:0.5;" width="4" x="597.8205" y="660.6369"/><text fill="#000000" font-family="Helvetica" font-size="12" lengthAdjust="spacing" textLength="105.4805" x="489.34" y="680.7755">Inventory Service</text></g><!--entity Notification Service--><g class="entity" data-qualified-name="Supporting Services.Notification Service" data-source-line="63" id="ent0014"><rect fill="#FFFFFF" height="43.9688" style="stroke:#181818;stroke-width:0.5;" width="157.0176" x="646.57" y="788.6069"/><rect fill="#FFFFFF" height="10" style="stroke:#181818;stroke-width:0.5;" width="15" x="783.5876" y="793.6069"/><rect fill="#FFFFFF" height="2" style="stroke:#181818;stroke-width:0.5;" width="4" x="781.5876" y="795.6069"/><rect fill="#FFFFFF" height="2" style="stroke:#181818;stroke-width:0.5;" width="4" x="781.5876" y="799.6069"/><text fill="#000000" font-family="Helvetica" font-size="12" lengthAdjust="spacing" textLength="117.0176" x="661.57" y="819.7455">Notification Service</text></g><!--entity Search Service--><g class="entity" data-qualified-name="Supporting Services.Search Service" data-source-line="64" id="ent0015"><rect fill="#FFFFFF" height="43.9688" style="stroke:#181818;stroke-width:0.5;" width="129.6543" x="838.26" y="788.6069"/><rect fill="#FFFFFF" height="10" style="stroke:#181818;stroke-width:0.5;" width="15" x="947.9143" y="793.6069"/><rect fill="#FFFFFF" height="2" style="stroke:#181818;stroke-width:0.5;" width="4" x="945.9143" y="795.6069"/><rect fill="#FFFFFF" height="2" style="stroke:#181818;stroke-width:0.5;" width="4" x="945.9143" y="799.6069"/><text fill="#000000" font-family="Helvetica" font-size="12" lengthAdjust="spacing" textLength="89.6543" x="853.26" y="819.7455">Search Service</text></g><!--entity Analytics Service--><g class="entity" data-qualified-name="Supporting Services.Analytics Service" data-source-line="65" id="ent0016"><rect fill="#FFFFFF" height="43.9688" style="stroke:#181818;stroke-width:0.5;" width="142.6563" x="468.76" y="788.6069"/><rect fill="#FFFFFF" height="10" style="stroke:#181818;stroke-width:0.5;" width="15" x="591.4163" y="793.6069"/><rect fill="#FFFFFF" height="2" style="stroke:#181818;stroke-width:0.5;" width="4" x="589.4163" y="795.6069"/><rect fill="#FFFFFF" height="2" style="stroke:#181818;stroke-width:0.5;" width="4" x="589.4163" y="799.6069"/><text fill="#000000" font-family="Helvetica" font-size="12" lengthAdjust="spacing" textLength="102.6563" x="483.76" y="819.7455">Analytics Service</text></g><!--entity DB--><g class="entity" data-qualified-name="Infrastructure.DB" data-source-line="69" id="ent0018"><path d="M330.48,938.0769 C330.48,928.0769 375.0884,928.0769 375.0884,928.0769 C375.0884,928.0769 419.6968,928.0769 419.6968,938.0769 L419.6968,975.0144 C419.6968,985.0144 375.0884,985.0144 375.0884,985.0144 C375.0884,985.0144 330.48,985.0144 330.48,975.0144 L330.48,938.0769" fill="#FFFFFF" style="stroke:#181818;stroke-width:0.5;"/><path d="M330.48,938.0769 C330.48,948.0769 375.0884,948.0769 375.0884,948.0769 C375.0884,948.0769 419.6968,948.0769 419.6968,938.0769" fill="none" style="stroke:#181818;stroke-width:0.5;"/><text fill="#000000" font-family="Helvetica" font-size="12" lengthAdjust="spacing" textLength="69.2168" x="340.48" y="963.2155">PostgreSQL</text><text fill="#000000" font-family="Helvetica" font-size="12" lengthAdjust="spacing" textLength="55.9453" x="340.48" y="977.1843">(Primary)</text></g><!--entity Cache--><g class="entity" data-qualified-name="Infrastructure.Cache" data-source-line="70" id="ent0019"><path d="M67.74,938.0769 C67.74,928.0769 101.0808,928.0769 101.0808,928.0769 C101.0808,928.0769 134.4216,928.0769 134.4216,938.0769 L134.4216,975.0144 C134.4216,985.0144 101.0808,985.0144 101.0808,985.0144 C101.0808,985.0144 67.74,985.0144 67.74,975.0144 L67.74,938.0769" fill="#FFFFFF" style="stroke:#181818;stroke-width:0.5;"/><path d="M67.74,938.0769 C67.74,948.0769 101.0808,948.0769 101.0808,948.0769 C101.0808,948.0769 134.4216,948.0769 134.4216,938.0769" fill="none" style="stroke:#181818;stroke-width:0.5;"/><text fill="#000000" font-family="Helvetica" font-size="12" lengthAdjust="spacing" textLength="32.9238" x="77.74" y="963.2155">Redis</text><text fill="#000000" font-family="Helvetica" font-size="12" lengthAdjust="spacing" textLength="46.6816" x="77.74" y="977.1843">(Cache)</text></g><!--entity MQ--><g class="entity" data-qualified-name="Infrastructure.MQ" data-source-line="71" id="ent0020"><path d="M462.9902,936.9457 C465.2132,930.6745 469.965,929.6306 474.6234,934.3734 C477.697,927.0421 483.0948,925.6793 488.2147,932.3932 C491.4922,927.4091 497.0892,926.5638 500.0815,932.6977 C501.558,926.3557 506.1557,925.9956 510.526,929.6848 C513.6426,922.7224 519.3105,923.6313 523.121,928.9747 C527.051,923.498 532.8336,924.9812 535.383,930.5126 C539.1985,924.6041 544.0851,925.6391 547.3107,931.1299 C551.053,925.2657 556.6024,927.1225 559.0194,932.5091 C564.0673,928.3876 568.8527,928.4851 571.1231,935.5219 C575.6123,930.3891 580.2629,931.7733 583.0098,937.4397 C588.459,938.547 590.3927,942.8849 586.2407,947.1777 C593.1645,948.0142 595.0672,953.7579 590.3639,958.7406 C594.5886,963.1216 592.713,966.5399 587.6348,968.2514 C589.8928,973.4833 587.8495,977.5712 581.8126,977.6821 C579.607,984.5375 574.3992,985.4603 569.794,980.0293 C567.4617,985.7931 564.0668,985.6669 559.6721,982.321 C557.3703,988.3753 551.4643,989.0406 547.7594,983.801 C545.561,991.8204 539.6613,991.7577 534.5065,986.8264 C531.3401,992.2825 526.466,991.9514 522.8619,987.3325 C518.8866,992.7756 515.26,992.9446 511.7416,986.8905 C506.9983,992.0307 502.0866,990.8879 498.9013,985.0656 C493.5968,989.8901 489.0725,987.6519 487.4984,981.2698 C483.294,986.8959 478.7768,985.6922 476.0311,979.8155 C471.6718,985.7018 465.5346,983.5849 463.2298,977.6 C456.8053,977.0468 455.2818,972.9078 458.6281,967.7772 C451.5396,966.7511 451.0424,962.4615 454.0141,957.0915 C450.7931,951.7559 452.76,947.8312 458.7158,946.6136 C454.9984,941.6072 456.8534,937.5954 462.9902,936.9457" fill="#F1F1F1" style="stroke:#181818;stroke-width:0.5;"/><text fill="#000000" font-family="Helvetica" font-size="12" lengthAdjust="spacing" textLength="58.7637" x="469.49" y="953.7155">RabbitMQ</text><text fill="#000000" font-family="Helvetica" font-size="12" lengthAdjust="spacing" textLength="105.1934" x="469.49" y="967.6843">(Message Queue)</text></g><!--entity ES--><g class="entity" data-qualified-name="Infrastructure.ES" data-source-line="72" id="ent0021"><path d="M632.6522,936.0178 C635.7007,930.188 641.0767,930.5343 644.0575,936.0857 C646.1547,929.4388 651.2059,927.7481 655.9528,933.5549 C657.6918,928.555 662.0608,928.475 665.3557,931.7971 C668.0407,925.2143 672.1925,924.8482 676.5216,930.2677 C678.9271,924.8013 683.9999,923.9173 687.436,929.2235 C691.0258,924.1103 696.4058,923.8263 699.665,929.595 C704.5738,926.0781 708.5892,926.0784 710.7919,932.5957 C714.1594,928.0127 717.736,928.164 720.7835,932.9374 C724.647,928.3818 730.1846,928.4335 731.967,935.0252 C735.8638,930.4727 738.9238,931.0268 742.0954,935.8119 C749.7448,936.7649 751.5549,941.0389 747.9149,947.5764 C753.7622,947.8554 755.2207,952.5021 752.0689,956.8237 C756.8687,962.9042 754.1953,967.9762 746.8915,968.843 C749.8712,973.2733 747.9488,977.5623 742.6111,978.1795 C738.3014,983.2739 734.358,983.4462 730.2553,977.9383 C726.1469,985.8864 720.5844,985.3816 715.8895,978.5066 C711.5326,985.3297 706.3512,984.9829 701.8054,978.7096 C697.876,986.8294 691.8146,985.6446 687.2591,979.3411 C683.2923,986.5521 678.3557,986.4107 673.6885,980.041 C669.6819,986.0692 664.6164,985.7669 660.8697,979.7641 C656.1376,986.1586 650.4476,985.9972 646.9986,978.4843 C643.4716,984.0073 638.0539,985.7165 633.8584,979.2147 C627.8177,978.8664 625.2272,973.8647 628.8058,968.8343 C622.5689,967.6078 620.7842,962.6373 624.4231,957.5688 C620.3979,951.3875 622.5403,947.7124 629.6537,947.092 C625.2501,942.5769 627.2771,937.8851 632.6522,936.0178" fill="#F1F1F1" style="stroke:#181818;stroke-width:0.5;"/><text fill="#000000" font-family="Helvetica" font-size="12" lengthAdjust="spacing" textLength="79.2832" x="639.19" y="953.7155">Elasticsearch</text><text fill="#000000" font-family="Helvetica" font-size="12" lengthAdjust="spacing" textLength="95.7949" x="639.19" y="967.6843">(Search Engine)</text></g><!--entity S3--><g class="entity" data-qualified-name="Infrastructure.S3" data-source-line="73" id="ent0022"><path d="M177.8352,937.2724 C180.2415,931.0788 183.6302,931.0553 188.426,934.7003 C191.2358,929.1529 195.4339,927.5996 200.1181,932.628 C202.5795,927.3666 207.0207,926.9064 210.1792,931.9472 C212.7071,925.8881 217.4818,924.8812 221.4724,930.5372 C223.7667,924.369 227.8721,923.6553 232.9144,927.3487 C237.6591,923.5496 241.8967,925.2798 243.5632,930.8479 C247.5095,926.2479 252.1658,925.8202 255.4377,931.6181 C259.772,927.1571 263.9056,926.3645 267.0631,932.866 C271.2859,928.7701 274.9548,929.3819 277.9141,934.3747 C282.9212,930.1769 286.2413,931.1125 287.8497,937.5498 C299.1846,941.9829 299.7707,951.0471 291.3269,958.7276 C300.7922,965.6239 298.3808,974.4115 288.8675,979.006 C286.7617,984.6521 281.5868,985.3955 278.234,980.2329 C274.9348,986.272 270.9689,986.1412 266.7793,981.1582 C264.3534,986.9262 260.0213,987.3503 256.1529,982.618 C252.2624,989.1825 246.9073,987.6423 243.4343,982.1766 C241.3962,987.4228 236.2044,988.7947 232.852,983.4955 C229.3671,988.5936 225.4866,988.3605 222.0277,983.4674 C218.8957,989.092 213.8473,987.9358 211.1847,982.9861 C206.6966,987.7901 201.4479,986.2042 199.9555,979.9453 C195.893,985.6733 192.2925,984.8763 188.6627,979.505 C184.7743,983.969 181.5276,983.8045 179.137,978.1016 C173.2076,977.6658 170.7462,973.2346 174.1505,968.1308 C168.1742,966.9385 167.0582,963.3163 170.4377,958.5126 C166.1934,953.1789 168.441,948.469 174.8807,947.4114 C170.1439,942.9814 172.4314,938.7475 177.8352,937.2724" fill="#F1F1F1" style="stroke:#181818;stroke-width:0.5;"/><text fill="#000000" font-family="Helvetica" font-size="12" lengthAdjust="spacing" textLength="15.252" x="184" y="953.7155">S3</text><text fill="#000000" font-family="Helvetica" font-size="12" lengthAdjust="spacing" textLength="96.1699" x="184" y="967.6843">(Media Storage)</text></g><!--entity Customer--><g class="entity" data-qualified-name="Customer" data-source-line="45" id="ent0001"><ellipse cx="588.0845" cy="51.2969" fill="#FFFFFF" rx="8" ry="8" style="stroke:#181818;stroke-width:0.5;"/><path d="M588.0845,59.2969 L588.0845,86.2969 M575.0845,67.2969 L601.0845,67.2969 M588.0845,86.2969 L575.0845,101.2969 M588.0845,86.2969 L601.0845,101.2969" fill="none" style="stroke:#181818;stroke-width:0.5;"/><text fill="#000000" font-family="Helvetica" font-size="12" lengthAdjust="spacing" textLength="58.2891" x="558.94" y="113.9355">Customer</text></g><!--entity Admin--><g class="entity" data-qualified-name="Admin" data-source-line="46" id="ent0002"><ellipse cx="671.0875" cy="51.2969" fill="#FFFFFF" rx="8" ry="8" style="stroke:#181818;stroke-width:0.5;"/><path d="M671.0875,59.2969 L671.0875,86.2969 M658.0875,67.2969 L684.0875,67.2969 M671.0875,86.2969 L658.0875,101.2969 M671.0875,86.2969 L684.0875,101.2969" fill="none" style="stroke:#181818;stroke-width:0.5;"/><text fill="#000000" font-family="Helvetica" font-size="12" lengthAdjust="spacing" textLength="38.4551" x="651.86" y="113.9355">Admin</text></g><!--link Customer to Router--><g class="link" data-entity-1="ent0001" data-entity-2="ent0006" data-link-type="dependency" data-source-line="76" id="lnk23"><path d="M599.34,117.2169 C607.07,142.2369 615.5748,169.7895 622.0348,190.7095" fill="none" id="Customer-to-Router" style="stroke:#000000;stroke-width:0.75;"/><polygon fill="#000000" points="623.51,195.4869,624.6765,185.7073,622.0348,190.7095,617.0326,188.0677,623.51,195.4869" style="stroke:#000000;stroke-width:0.75;stroke-linejoin:miter;stroke-miterlimit:10;"/></g><!--link Admin to Router--><g class="link" data-entity-1="ent0002" data-entity-2="ent0006" data-link-type="dependency" data-source-line="77" id="lnk24"><path d="M660.1,117.2169 C652.55,142.2369 644.2418,169.7793 637.9418,190.6993" fill="none" id="Admin-to-Router" style="stroke:#000000;stroke-width:0.75;"/><polygon fill="#000000" points="636.5,195.4869,642.9253,188.0226,637.9418,190.6993,635.2651,185.7157,636.5,195.4869" style="stroke:#000000;stroke-width:0.75;stroke-linejoin:miter;stroke-miterlimit:10;"/></g><!--link Router to Auth Filter--><g class="link" data-entity-1="ent0006" data-entity-2="ent0005" data-link-type="dependency" data-source-line="79" id="lnk25"><path d="M630.08,240.0869 C630.08,257.7569 630.08,277.7469 630.08,295.4169" fill="none" id="Router-to-Auth Filter" style="stroke:#000000;stroke-width:0.75;"/><polygon fill="#000000" points="630.08,300.4169,634.08,291.4169,630.08,295.4169,626.08,291.4169,630.08,300.4169" style="stroke:#000000;stroke-width:0.75;stroke-linejoin:miter;stroke-miterlimit:10;"/></g><!--link Auth Filter to Rate Limiter--><g class="link" data-entity-1="ent0005" data-entity-2="ent0004" data-link-type="dependency" data-source-line="80" id="lnk26"><path d="M630.08,345.0569 C630.08,362.7269 630.08,382.7169 630.08,400.3769" fill="none" id="Auth Filter-to-Rate Limiter" style="stroke:#000000;stroke-width:0.75;"/><polygon fill="#000000" points="630.08,405.3769,634.08,396.3769,630.08,400.3769,626.08,396.3769,630.08,405.3769" style="stroke:#000000;stroke-width:0.75;stroke-linejoin:miter;stroke-miterlimit:10;"/></g><!--link Rate Limiter to Product Service--><g class="link" data-entity-1="ent0004" data-entity-2="ent0008" data-link-type="dependency" data-source-line="82" id="lnk27"><path d="M582.92,450.0869 C559.36,461.3169 530.71,475.8169 506.08,490.6769 C486.18,502.6869 468.9244,514.9194 452.6544,527.1694" fill="none" id="Rate Limiter-to-Product Service" style="stroke:#000000;stroke-width:0.75;"/><polygon fill="#000000" points="448.66,530.1769,458.2559,527.959,452.6544,527.1694,453.4439,521.5679,448.66,530.1769" style="stroke:#000000;stroke-width:0.75;stroke-linejoin:miter;stroke-miterlimit:10;"/></g><!--link Rate Limiter to Order Service--><g class="link" data-entity-1="ent0004" data-entity-2="ent0009" data-link-type="dependency" data-source-line="83" id="lnk28"><path d="M648.37,450.1069 C667.65,472.6769 694.5637,504.204 713.7537,526.684" fill="none" id="Rate Limiter-to-Order Service" style="stroke:#000000;stroke-width:0.75;"/><polygon fill="#000000" points="717,530.4869,714.199,521.0447,713.7537,526.684,708.1144,526.2388,717,530.4869" style="stroke:#000000;stroke-width:0.75;stroke-linejoin:miter;stroke-miterlimit:10;"/></g><!--link Rate Limiter to Payment Service--><g class="link" data-entity-1="ent0004" data-entity-2="ent0010" data-link-type="dependency" data-source-line="84" id="lnk29"><path d="M687.4,432.2269 C729.17,438.0269 783.57,452.9169 814.08,490.6769 C850.3,535.4769 857.37,570.6369 827.08,619.6369 C819.28,632.2669 811.6579,639.4435 798.6079,646.7135" fill="none" id="Rate Limiter-to-Payment Service" style="stroke:#000000;stroke-width:0.75;"/><polygon fill="#000000" points="794.24,649.1469,804.049,648.2612,798.6079,646.7135,800.1556,641.2725,794.24,649.1469" style="stroke:#000000;stroke-width:0.75;stroke-linejoin:miter;stroke-miterlimit:10;"/></g><!--link Rate Limiter to User Service--><g class="link" data-entity-1="ent0004" data-entity-2="ent0011" data-link-type="dependency" data-source-line="85" id="lnk30"><path d="M621.55,450.1069 C612.55,472.6769 600.3313,503.3622 591.3713,525.8422" fill="none" id="Rate Limiter-to-User Service" style="stroke:#000000;stroke-width:0.75;"/><polygon fill="#000000" points="589.52,530.4869,596.568,523.6075,591.3713,525.8422,589.1365,520.6455,589.52,530.4869" style="stroke:#000000;stroke-width:0.75;stroke-linejoin:miter;stroke-miterlimit:10;"/></g><!--link Order Service to Payment Service--><g class="link" data-entity-1="ent0009" data-entity-2="ent0010" data-link-type="dependency" data-source-line="87" id="lnk31"><path d="M723.64,574.8569 C719.43,583.7769 715.19,594.4469 713.08,604.6369 C710.02,619.4669 711.7365,631.4538 715.5765,644.3838" fill="none" id="Order Service-to-Payment Service" style="stroke:#000000;stroke-width:0.75;"/><polygon fill="#000000" points="717,649.1769,718.2722,639.4105,715.5765,644.3838,710.6033,641.6881,717,649.1769" style="stroke:#000000;stroke-width:0.75;stroke-linejoin:miter;stroke-miterlimit:10;"/><text fill="#000000" font-family="Helvetica" font-size="12" lengthAdjust="spacing" textLength="108.8145" x="714.08" y="616.7755">processPayment()</text></g><!--link Order Service to Inventory Service--><g class="link" data-entity-1="ent0009" data-entity-2="ent0012" data-link-type="dependency" data-source-line="88" id="lnk32"><path d="M673.65,574.6769 C654.14,582.6569 633,592.7469 615.08,604.6369 C596.31,617.1069 581.5189,631.4322 568.6989,645.4922" fill="none" id="Order Service-to-Inventory Service" style="stroke:#000000;stroke-width:0.75;"/><polygon fill="#000000" points="565.33,649.1869,574.3497,645.2315,568.6989,645.4922,568.4382,639.8413,565.33,649.1869" style="stroke:#000000;stroke-width:0.75;stroke-linejoin:miter;stroke-miterlimit:10;"/><text fill="#000000" font-family="Helvetica" font-size="12" lengthAdjust="spacing" textLength="87.9434" x="616.08" y="616.7755">reserveStock()</text></g><!--link Payment Service to Notification Service--><g class="link" data-entity-1="ent0010" data-entity-2="ent0014" data-link-type="dependency" data-source-line="89" id="lnk33"><path d="M725.08,694.0269 C725.08,719.7569 725.08,757.6769 725.08,783.3469" fill="none" id="Payment Service-to-Notification Service" style="stroke:#000000;stroke-width:0.75;"/><polygon fill="#000000" points="725.08,788.3469,729.08,779.3469,725.08,783.3469,721.08,779.3469,725.08,788.3469" style="stroke:#000000;stroke-width:0.75;stroke-linejoin:miter;stroke-miterlimit:10;"/><text fill="#000000" font-family="Helvetica" font-size="12" lengthAdjust="spacing" textLength="83.5781" x="726.08" y="737.7455">sendReceipt()</text></g><!--link Inventory Service to Notification Service--><g class="link" data-entity-1="ent0012" data-entity-2="ent0014" data-link-type="dependency" data-source-line="90" id="lnk34"><path d="M569.69,693.9269 C584.71,707.7269 605.08,725.8269 624.08,740.6069 C645.87,757.5669 667.3893,772.3443 687.4193,785.4843" fill="none" id="Inventory Service-to-Notification Service" style="stroke:#000000;stroke-width:0.75;"/><polygon fill="#000000" points="691.6,788.2269,686.2688,779.9456,687.4193,785.4843,681.8807,786.6347,691.6,788.2269" style="stroke:#000000;stroke-width:0.75;stroke-linejoin:miter;stroke-miterlimit:10;"/><text fill="#000000" font-family="Helvetica" font-size="12" lengthAdjust="spacing" textLength="91.6289" x="625.08" y="737.7455">lowStockAlert()</text></g><!--link User Service to DB--><g class="link" data-entity-1="ent0011" data-entity-2="ent0018" data-link-type="dependency" data-source-line="92" id="lnk35"><path d="M522.96,569.9769 C517.26,571.5569 511.56,573.1369 506.08,574.6369 C456.81,588.1969 427.29,564.9669 395.08,604.6369 C355.18,653.7969 366.4367,848.8224 372.2767,922.8424" fill="none" id="User Service-to-DB" style="stroke:#000000;stroke-width:0.75;"/><polygon fill="#000000" points="372.67,927.8269,375.9497,918.5401,372.2767,922.8424,367.9745,919.1694,372.67,927.8269" style="stroke:#000000;stroke-width:0.75;stroke-linejoin:miter;stroke-miterlimit:10;"/></g><!--link Order Service to DB--><g class="link" data-entity-1="ent0009" data-entity-2="ent0018" data-link-type="dependency" data-source-line="93" id="lnk36"><path d="M673.44,571.5969 C596.28,594.5569 472.29,633.3269 457.08,649.6369 C452.22,654.8669 402.4876,848.2225 383.4476,922.7525" fill="none" id="Order Service-to-DB" style="stroke:#000000;stroke-width:0.75;"/><polygon fill="#000000" points="382.21,927.5969,388.3132,919.867,383.4476,922.7525,380.5621,917.8869,382.21,927.5969" style="stroke:#000000;stroke-width:0.75;stroke-linejoin:miter;stroke-miterlimit:10;"/></g><!--link Product Service to DB--><g class="link" data-entity-1="ent0008" data-entity-2="ent0018" data-link-type="dependency" data-source-line="94" id="lnk37"><path d="M353.64,556.5669 C316.49,561.7769 272.49,574.5269 245.08,604.6369 C208.25,645.1169 227.22,671.1269 222.08,725.6069 C217.24,777.0469 241.17,850.3869 246.08,856.5769 C266.48,882.2769 286.62,868.1869 313.08,887.5769 C328.42,898.8169 339.6933,910.4422 350.7933,923.7922" fill="none" id="Product Service-to-DB" style="stroke:#000000;stroke-width:0.75;"/><polygon fill="#000000" points="353.99,927.6369,351.3117,918.1592,350.7933,923.7922,345.1603,923.2739,353.99,927.6369" style="stroke:#000000;stroke-width:0.75;stroke-linejoin:miter;stroke-miterlimit:10;"/></g><!--link Product Service to Cache--><g class="link" data-entity-1="ent0008" data-entity-2="ent0019" data-link-type="dependency" data-source-line="96" id="lnk38"><path d="M353.69,558.7569 C259.32,570.1569 93.2,606.9569 38.08,725.6069 C6,794.6769 49.8613,879.0506 78.6013,923.4106" fill="none" id="Product Service-to-Cache" style="stroke:#000000;stroke-width:0.75;"/><polygon fill="#000000" points="81.32,927.6069,79.7834,917.8786,78.6013,923.4106,73.0693,922.2285,81.32,927.6069" style="stroke:#000000;stroke-width:0.75;stroke-linejoin:miter;stroke-miterlimit:10;"/><text fill="#000000" font-family="Helvetica" font-size="12" lengthAdjust="spacing" textLength="81.5742" x="39.08" y="737.7455">cacheProduct</text></g><!--link Search Service to ES--><g class="link" data-entity-1="ent0015" data-entity-2="ent0021" data-link-type="dependency" data-source-line="97" id="lnk39"><path d="M890.4,832.7869 C880.79,847.4169 866.48,866.5269 850.08,879.5769 C820.41,903.2069 786.8258,919.6684 754.8558,932.3884" fill="none" id="Search Service-to-ES" style="stroke:#000000;stroke-width:0.75;"/><polygon fill="#000000" points="750.21,934.2369,760.0512,934.6263,754.8558,932.3884,757.0937,927.1931,750.21,934.2369" style="stroke:#000000;stroke-width:0.75;stroke-linejoin:miter;stroke-miterlimit:10;"/><text fill="#000000" font-family="Helvetica" font-size="12" lengthAdjust="spacing" textLength="79.0781" x="866.5" y="876.7155">indexProduct</text></g><!--link Product Service to MQ--><g class="link" data-entity-1="ent0008" data-entity-2="ent0020" data-link-type="dependency" data-source-line="98" id="lnk40"><path d="M361.02,575.0469 C347.15,582.5069 333.67,592.2169 324.08,604.6369 C286.39,653.4869 272.07,683.7769 296.08,740.6069 C315.79,787.2469 423.3929,877.3169 482.0629,924.1669" fill="none" id="Product Service-to-MQ" style="stroke:#000000;stroke-width:0.75;"/><polygon fill="#000000" points="485.97,927.2869,481.4331,918.5452,482.0629,924.1669,476.4412,924.7966,485.97,927.2869" style="stroke:#000000;stroke-width:0.75;stroke-linejoin:miter;stroke-miterlimit:10;"/><text fill="#000000" font-family="Helvetica" font-size="12" lengthAdjust="spacing" textLength="97.4941" x="297.08" y="737.7455">productUpdated</text></g><!--link Search Service to MQ--><g class="link" data-entity-1="ent0015" data-entity-2="ent0020" data-link-type="dependency" data-source-line="99" id="lnk41"><path d="M871.31,832.9169 C856.63,841.7169 838.6,851.1269 821.08,856.5769 C787.81,866.9469 776.98,856.4769 743.08,864.5769 C725.02,868.8969 722.19,875.4369 704.08,879.5769 C661.91,889.2169 647.28,871.5969 607.08,887.5769 C585.14,896.3069 568.0124,909.3022 552.4924,923.8122" fill="none" id="Search Service-to-MQ" style="stroke:#000000;stroke-width:0.75;"/><polygon fill="#000000" points="548.84,927.2269,558.146,924.0023,552.4924,923.8122,552.6825,918.1585,548.84,927.2269" style="stroke:#000000;stroke-width:0.75;stroke-linejoin:miter;stroke-miterlimit:10;"/><text fill="#000000" font-family="Helvetica" font-size="12" lengthAdjust="spacing" textLength="97.9336" x="744.08" y="876.7155">consumeUpdate</text></g><!--link Notification Service to MQ--><g class="link" data-entity-1="ent0014" data-entity-2="ent0020" data-link-type="dependency" data-source-line="100" id="lnk42"><path d="M680.32,833.0169 C664.23,840.6069 645.9,849.0969 629.08,856.5769 C620.71,860.2969 617.64,859.4069 610.08,864.5769 C584.7,881.9569 563.9768,903.7091 547.4968,923.3191" fill="none" id="Notification Service-to-MQ" style="stroke:#000000;stroke-width:0.75;"/><polygon fill="#000000" points="544.28,927.1469,553.1325,922.8303,547.4968,923.3191,547.0081,917.6834,544.28,927.1469" style="stroke:#000000;stroke-width:0.75;stroke-linejoin:miter;stroke-miterlimit:10;"/><text fill="#000000" font-family="Helvetica" font-size="12" lengthAdjust="spacing" textLength="88.8516" x="611.08" y="876.7155">consumeEvent</text></g><!--link Analytics Service to DB--><g class="link" data-entity-1="ent0016" data-entity-2="ent0018" data-link-type="dependency" data-source-line="102" id="lnk43"><path d="M507.74,833.0169 C486.79,847.4669 459.37,867.4969 437.08,887.5769 C423.44,899.8769 412.8334,911.0747 401.6634,923.8347" fill="none" id="Analytics Service-to-DB" style="stroke:#000000;stroke-width:0.75;"/><polygon fill="#000000" points="398.37,927.5969,407.3078,923.4597,401.6634,923.8347,401.2883,918.1903,398.37,927.5969" style="stroke:#000000;stroke-width:0.75;stroke-linejoin:miter;stroke-miterlimit:10;"/><text fill="#000000" font-family="Helvetica" font-size="12" lengthAdjust="spacing" textLength="61.9629" x="465.02" y="876.7155">aggregate</text></g><!--link Product Service to S3--><g class="link" data-entity-1="ent0008" data-entity-2="ent0022" data-link-type="dependency" data-source-line="103" id="lnk44"><path d="M353.88,560.2069 C314.07,566.6469 264.14,579.4069 226.08,604.6369 C169.57,642.1169 154.91,661.4069 133.08,725.6069 C107.76,800.0869 164.4584,880.4245 201.7684,923.3145" fill="none" id="Product Service-to-S3" style="stroke:#000000;stroke-width:0.75;"/><polygon fill="#000000" points="205.05,927.0869,202.161,917.6713,201.7684,923.3145,196.1252,922.9218,205.05,927.0869" style="stroke:#000000;stroke-width:0.75;stroke-linejoin:miter;stroke-miterlimit:10;"/><text fill="#000000" font-family="Helvetica" font-size="12" lengthAdjust="spacing" textLength="78.4512" x="134.08" y="737.7455">uploadImage</text></g><?plantuml-src bLRDJjj04BxxALRqK2eLH45LfHugcH1e9089XbFRmsOzSRQnTztPNKXQLUf3z0dx91sl3TYE8SOImZlppJS_dfdDQ-QoT2-MF46UcNsD2KEO0u8Im8nTfy3-_VbBRoY5PPVZCtOpFcU7-wktBDDAYmNg30Apb2hdn50JCekkhfbniKnGEnKFTAgHlJhrJmqHmvoxr9vgPIyu4No6z1Qi5BmR4ycVmDuTrfHcmMDz9rN2vZmrTUTb9cKMb71D8r9kJ6X9CtCMHa8hptjGDuOVhgZ768pX2OIfJ1GJe2nW3LMbXWgGh6kAK5YDnrkpdt2aN6NEbTqElj0MjgEYAl0pGkLz8X1BocyxS53KR3liSlOTH8za8ilxP7DZG73J9poTvLf1dphIjv6tqgxxL3pkuVg4Mpxh5MH4tGFQhdCOl0GyUWauV0bu-1Iuew7EvPp-51nhZ04h-85_daFtRjWc__L2YgMYuMC7-n_UTy3zL-HMQjNVHSscLn8Xehxh1TeQxh5UzQZrimwVTtHIBibhMDacGM2bfJqutACHoG1fnO-bG6q0RoKTGXGBQMbc7K8Gy69liO4pbhOvLiSmpgGAWhnS5Mmdd8pO6Otl7L_li5y1e-VB5PtPkSo82h-Lej3P1JkLwQFaIZj_-5qZe-q9L2KVZ7cWcw2E7Lq-bQAolom-MaisuUkCnhubfRtH1exKBU4qhX_bzJWYb-UQjZ5T91lHqEQLSxgJYivfiKR0gO0jOQXukgR5RhfTZTGSETrBpXVztajShH6sCz769WZHzFohsfsWp3Ykt-mmRjZ9SGjw1R4qX1fmiO0IuryzJAJQnOJXivcquod1gjkCJHsu2ZwUrh53sl95u3uhCgZI6wg49hCq64PrW-Z8qzAF2Leh6ecyH4L7HShtZSJszZuzVdxVJqrHSFzMYXkjqpXLPerk2vhd4hBHGLsWLaDryhJxgmlKRBUWnTjDn3wo73MrcQaqks-w3JSRbqmHYW46ghbO5eORxDwqit79se2Ahq20pBtN3W_FcgVwpZiEKy2286WMm1jJgtPbKuZRd-PUyOJ6DpHv5SN_2X6q1yyZXn71f8fXzG3hP1nFo-8NcfkSfWdYRa8Ff9-7ncLG0eCdYj963ukAKaQRgw3Abg0yeIbFF6bdcD4HWLoUQXwFCfgi_m00?></g></svg>