<svg xmlns="http://www.w3.org/2000/svg" xmlns:xlink="http://www.w3.org/1999/xlink" contentStyleType="text/css" data-diagram-type="DESCRIPTION" height="794.484px" preserveAspectRatio="none" style="width:840px;height:794px;background:#FFFFFF;" version="1.1" viewBox="0 0 840 794" width="840.905px" zoomAndPan="magnify">
<style>@media (prefers-color-scheme: dark) {
 svg {
 background: transparent !important;
 }
 [style*="background:#FFFFFF"], [style*="background: #FFFFFF"],
 [style*="background:#ffffff"], [style*="background: #ffffff"] {
 background: #1e1e2e !important;
 }
 [fill="#FFFFFF"], [fill="#ffffff"], [fill="#FFF"], [fill="#fff"],
 [fill="#FEFEFE"], [fill="#fefefe"], [fill="#F1F1F1"], [fill="#f1f1f1"],
 [fill="#EEEEEE"], [fill="#eeeeee"], [fill="#ECECEC"], [fill="#ececec"],
 [fill="#FFFFCC"], [fill="#ffffcc"] {
 fill: #1e1e2e !important;
 }
 /* Use case ellipses/circles: transparent fill so outline visible */
 ellipse[fill="#FFFFFF"], ellipse[fill="#ffffff"],
 ellipse[fill="#FFF"], ellipse[fill="#fff"],
 ellipse[fill="#FEFEFE"], ellipse[fill="#fefefe"],
 ellipse[style*="fill:#FFFFFF"], ellipse[style*="fill:#ffffff"],
 circle[fill="#FFFFFF"], circle[fill="#ffffff"],
 circle[fill="#FFF"], circle[fill="#fff"],
 circle[fill="#FEFEFE"], circle[fill="#fefefe"],
 circle[style*="fill:#FFFFFF"], circle[style*="fill:#ffffff"] {
 fill: none !important;
 stroke-width: 1.5 !important;
 }
 [stroke="#000000"], [stroke="#000"], [stroke="#181818"],
 [stroke="#222222"], [stroke="#222"], [stroke="#333333"], [stroke="#333"] {
 stroke: #c9d1d9 !important;
 }
 [style*="stroke:#181818"], [style*="stroke: #181818"],
 [style*="stroke:#000000"], [style*="stroke: #000000"],
 [style*="stroke:#222222"], [style*="stroke: #222222"],
 [style*="stroke:#333333"], [style*="stroke: #333333"] {
 stroke: #c9d1d9 !important;
 }
 [style*="stroke:#FFDD88"], [style*="stroke: #FFDD88"],
 [style*="stroke:#ffdd88"], [style*="stroke: #ffdd88"] {
 stroke: #6e7681 !important;
 }
 text, [fill="#000000"], [fill="#000"], [fill="#181818"], [fill="#222222"] {
 fill: #c9d1d9 !important;
 }
 polygon[fill="#000000"], polygon[fill="#181818"], polygon[fill="#222222"],
 polygon[fill="#333333"] {
 fill: #c9d1d9 !important;
 stroke: #c9d1d9 !important;
 }
 rect[style*="stroke:#000000"], rect[style*="stroke: #000000"],
 rect[style*="stroke:#181818"], rect[style*="stroke: #181818"] {
 stroke: #c9d1d9 !important;
 }
 ellipse[style*="stroke:#000000"], ellipse[style*="stroke: #000000"],
 ellipse[style*="stroke:#181818"], ellipse[style*="stroke: #181818"] {
 stroke: #c9d1d9 !important;
 }
 polygon[style*="stroke:#000000"], polygon[style*="stroke: #000000"],
 polygon[style*="stroke:#181818"], polygon[style*="stroke: #181818"],
 polygon[style*="stroke:#222222"], polygon[style*="stroke: #222222"] {
 stroke: #c9d1d9 !important;
 }
 line[stroke="#181818"], line[stroke="#000000"],
 line[style*="stroke:#181818"], line[style*="stroke: #181818"],
 line[style*="stroke:#000000"], line[style*="stroke: #000000"] {
 stroke: #6e7681 !important;
 stroke-dasharray: 4 3 !important;
 }
  text[font-weight="700"], text[font-weight="bold"] {
  fill: #f0f6fc !important;
  }
  /* Bare elements: PlantUML CSS mode may omit stroke on some shapes */
  ellipse:not([style*="stroke"]):not([stroke]),
  circle:not([style*="stroke"]):not([stroke]) {
  stroke: #c9d1d9 !important;
  stroke-width: 0.75 !important;
  }
  rect[fill="#FFFFFF"]:not([style*="stroke"]):not([stroke]),
  rect[fill="#ffffff"]:not([style*="stroke"]):not([stroke]) {
  stroke: #c9d1d9 !important;
  stroke-width: 0.75 !important;
  }
  path[fill="none"]:not([style*="stroke"]):not([stroke]) {
  stroke: #c9d1d9 !important;
  stroke-width: 0.75 !important;
  }
   /* Swimlane headers rendered with white stroke (invisible on dark canvas) */
   [style*="stroke:#FFFFFF"], [style*="stroke: #FFFFFF"],
   [style*="stroke:#ffffff"], [style*="stroke: #ffffff"] {
   stroke: #c9d1d9 !important;
   }
}</style>
<?plantuml 1.2026.6?><defs/><g><g class="title" data-source-line="41"><text fill="#000000" font-family="Helvetica" font-size="12" font-weight="700" lengthAdjust="spacing" textLength="233.4256" x="301.3045" y="17.4993">E-Commerce Microservice Architecture</text></g><!--cluster API Gateway--><g class="cluster" data-qualified-name="API Gateway" data-source-line="46" id="ent0003"><polygon fill="#FFFFFF" points="439.5536,126.0192,520.0762,126.0192,525.4032,142.9871,568.9236,142.9871,568.9236,363.3675,439.5536,363.3675,439.5536,126.0192" style="stroke:#000000;stroke-width:0.75;stroke-linejoin:miter;stroke-miterlimit:10;"/><line style="stroke:#000000;stroke-width:0.75;" x1="439.5536" x2="525.4032" y1="142.9871" y2="142.9871"/><text fill="#000000" font-family="Helvetica" font-size="12" font-weight="700" lengthAdjust="spacing" textLength="75.9566" x="442.5976" y="137.4305">API Gateway</text></g><!--cluster Core Services--><g class="cluster" data-qualified-name="Core Services" data-source-line="52" id="ent0007"><polygon fill="#FFFFFF" points="245.4986,388.4805,332.0244,388.4805,337.3514,405.4484,667.0926,405.4484,667.0926,554.8351,245.4986,554.8351,245.4986,388.4805" style="stroke:#000000;stroke-width:0.75;stroke-linejoin:miter;stroke-miterlimit:10;"/><line style="stroke:#000000;stroke-width:0.75;" x1="245.4986" x2="337.3514" y1="405.4484" y2="405.4484"/><text fill="#000000" font-family="Helvetica" font-size="12" font-weight="700" lengthAdjust="spacing" textLength="81.9598" x="248.5426" y="399.8918">Core Services</text></g><!--cluster Supporting Services--><g class="cluster" data-qualified-name="Supporting Services" data-source-line="60" id="ent0013"><polygon fill="#FFFFFF" points="342.9066,590.6021,468.8543,590.6021,474.1813,607.57,822.3366,607.57,822.3366,664.6398,342.9066,664.6398,342.9066,590.6021" style="stroke:#000000;stroke-width:0.75;stroke-linejoin:miter;stroke-miterlimit:10;"/><line style="stroke:#000000;stroke-width:0.75;" x1="342.9066" x2="474.1813" y1="607.57" y2="607.57"/><text fill="#000000" font-family="Helvetica" font-size="12" font-weight="700" lengthAdjust="spacing" textLength="121.3817" x="345.9506" y="602.0134">Supporting Services</text></g><!--cluster Infrastructure--><g class="cluster" data-qualified-name="Infrastructure" data-source-line="66" id="ent0017"><polygon fill="#FFFFFF" points="37.7456,700.4068,126.6852,700.4068,132.0122,717.3747,581.0996,717.3747,581.0996,783.3101,37.7456,783.3101,37.7456,700.4068" style="stroke:#000000;stroke-width:0.75;stroke-linejoin:miter;stroke-miterlimit:10;"/><line style="stroke:#000000;stroke-width:0.75;" x1="37.7456" x2="132.0122" y1="717.3747" y2="717.3747"/><text fill="#000000" font-family="Helvetica" font-size="12" font-weight="700" lengthAdjust="spacing" textLength="84.3736" x="40.7896" y="711.8181">Infrastructure</text></g><!--entity Rate Limiter--><g class="entity" data-qualified-name="API Gateway.Rate Limiter" data-source-line="47" id="ent0004"><rect fill="#FFFFFF" height="35.2319" width="104.6278" x="451.9275" y="315.9648"/><rect fill="#FFFFFF" height="7.61" width="11.415" x="541.3353" y="319.7698"/><rect fill="#FFFFFF" height="1.522" width="3.044" x="539.8133" y="321.2918"/><rect fill="#FFFFFF" height="1.522" width="3.044" x="539.8133" y="324.3358"/><text fill="#000000" font-family="Helvetica" font-size="12" font-weight="700" lengthAdjust="spacing" textLength="74.1878" x="463.3425" y="341.0741">Rate Limiter</text></g><!--entity Auth Filter--><g class="entity" data-qualified-name="API Gateway.Auth Filter" data-source-line="48" id="ent0005"><rect fill="#FFFFFF" height="35.2319" width="94.8114" x="456.8359" y="234.3095"/><rect fill="#FFFFFF" height="7.61" width="11.415" x="536.4273" y="238.1145"/><rect fill="#FFFFFF" height="1.522" width="3.044" x="534.9053" y="239.6365"/><rect fill="#FFFFFF" height="1.522" width="3.044" x="534.9053" y="242.6805"/><text fill="#000000" font-family="Helvetica" font-size="12" font-weight="700" lengthAdjust="spacing" textLength="64.3714" x="468.2509" y="259.4188">Auth Filter</text></g><!--entity Router--><g class="entity" data-qualified-name="API Gateway.Router" data-source-line="49" id="ent0006"><rect fill="#FFFFFF" height="35.2319" width="71.1208" x="468.6771" y="152.6542"/><rect fill="#FFFFFF" height="7.61" width="11.415" x="524.5779" y="156.4592"/><rect fill="#FFFFFF" height="1.522" width="3.044" x="523.0559" y="157.9812"/><rect fill="#FFFFFF" height="1.522" width="3.044" x="523.0559" y="161.0252"/><text fill="#000000" font-family="Helvetica" font-size="12" font-weight="700" lengthAdjust="spacing" textLength="40.6808" x="480.0921" y="177.7635">Router</text></g><!--entity Product Service--><g class="entity" data-qualified-name="Core Services.Product Service" data-source-line="53" id="ent0008"><rect fill="#FFFFFF" height="35.2319" width="125.4416" x="257.355" y="415.1155"/><rect fill="#FFFFFF" height="7.61" width="11.415" x="367.5766" y="418.9205"/><rect fill="#FFFFFF" height="1.522" width="3.044" x="366.0546" y="420.4425"/><rect fill="#FFFFFF" height="1.522" width="3.044" x="366.0546" y="423.4865"/><text fill="#000000" font-family="Helvetica" font-size="12" font-weight="700" lengthAdjust="spacing" textLength="95.0016" x="268.77" y="440.2248">Product Service</text></g><!--entity Order Service--><g class="entity" data-qualified-name="Core Services.Order Service" data-source-line="54" id="ent0009"><rect fill="#FFFFFF" height="35.2319" width="112.8576" x="542.1745" y="415.1155"/><rect fill="#FFFFFF" height="7.61" width="11.415" x="639.8121" y="418.9205"/><rect fill="#FFFFFF" height="1.522" width="3.044" x="638.2901" y="420.4425"/><rect fill="#FFFFFF" height="1.522" width="3.044" x="638.2901" y="423.4865"/><text fill="#000000" font-family="Helvetica" font-size="12" font-weight="700" lengthAdjust="spacing" textLength="82.4176" x="553.5894" y="440.2248">Order Service</text></g><!--entity Payment Service--><g class="entity" data-qualified-name="Core Services.Payment Service" data-source-line="55" id="ent0010"><rect fill="#FFFFFF" height="35.2319" width="131.3877" x="523.7735" y="507.4248"/><rect fill="#FFFFFF" height="7.61" width="11.415" x="639.9412" y="511.2298"/><rect fill="#FFFFFF" height="1.522" width="3.044" x="638.4192" y="512.7518"/><rect fill="#FFFFFF" height="1.522" width="3.044" x="638.4192" y="515.7958"/><text fill="#000000" font-family="Helvetica" font-size="12" font-weight="700" lengthAdjust="spacing" textLength="100.9477" x="535.1885" y="532.5341">Payment Service</text></g><!--entity User Service--><g class="entity" data-qualified-name="Core Services.User Service" data-source-line="56" id="ent0011"><rect fill="#FFFFFF" height="35.2319" width="105.9128" x="409.4256" y="415.1155"/><rect fill="#FFFFFF" height="7.61" width="11.415" x="500.1184" y="418.9205"/><rect fill="#FFFFFF" height="1.522" width="3.044" x="498.5964" y="420.4425"/><rect fill="#FFFFFF" height="1.522" width="3.044" x="498.5964" y="423.4865"/><text fill="#000000" font-family="Helvetica" font-size="12" font-weight="700" lengthAdjust="spacing" textLength="75.4728" x="420.8406" y="440.2248">User Service</text></g><!--entity Inventory Service--><g class="entity" data-qualified-name="Core Services.Inventory Service" data-source-line="57" id="ent0012"><rect fill="#FFFFFF" height="35.2319" width="136.3557" x="360.7216" y="507.4248"/><rect fill="#FFFFFF" height="7.61" width="11.415" x="481.8574" y="511.2298"/><rect fill="#FFFFFF" height="1.522" width="3.044" x="480.3354" y="512.7518"/><rect fill="#FFFFFF" height="1.522" width="3.044" x="480.3354" y="515.7958"/><text fill="#000000" font-family="Helvetica" font-size="12" font-weight="700" lengthAdjust="spacing" textLength="105.9157" x="372.1366" y="532.5341">Inventory Service</text></g><!--entity Notification Service--><g class="entity" data-qualified-name="Supporting Services.Notification Service" data-source-line="61" id="ent0014"><rect fill="#FFFFFF" height="35.2319" width="148.8617" x="515.0372" y="617.2371"/><rect fill="#FFFFFF" height="7.61" width="11.415" x="648.6789" y="621.0421"/><rect fill="#FFFFFF" height="1.522" width="3.044" x="647.1569" y="622.5641"/><rect fill="#FFFFFF" height="1.522" width="3.044" x="647.1569" y="625.6081"/><text fill="#000000" font-family="Helvetica" font-size="12" font-weight="700" lengthAdjust="spacing" textLength="118.4217" x="526.4522" y="642.3464">Notification Service</text></g><!--entity Search Service--><g class="entity" data-qualified-name="Supporting Services.Search Service" data-source-line="62" id="ent0015"><rect fill="#FFFFFF" height="35.2319" width="119.6829" x="690.1966" y="617.2371"/><rect fill="#FFFFFF" height="7.61" width="11.415" x="794.6594" y="621.0421"/><rect fill="#FFFFFF" height="1.522" width="3.044" x="793.1374" y="622.5641"/><rect fill="#FFFFFF" height="1.522" width="3.044" x="793.1374" y="625.6081"/><text fill="#000000" font-family="Helvetica" font-size="12" font-weight="700" lengthAdjust="spacing" textLength="89.2429" x="701.6116" y="642.3464">Search Service</text></g><!--entity Analytics Service--><g class="entity" data-qualified-name="Supporting Services.Analytics Service" data-source-line="63" id="ent0016"><rect fill="#FFFFFF" height="35.2319" width="133.4581" x="355.3185" y="617.2371"/><rect fill="#FFFFFF" height="7.61" width="11.415" x="473.5567" y="621.0421"/><rect fill="#FFFFFF" height="1.522" width="3.044" x="472.0347" y="622.5641"/><rect fill="#FFFFFF" height="1.522" width="3.044" x="472.0347" y="625.6081"/><text fill="#000000" font-family="Helvetica" font-size="12" font-weight="700" lengthAdjust="spacing" textLength="103.0181" x="366.7335" y="642.3464">Analytics Service</text></g><!--entity DB--><g class="entity" data-qualified-name="Infrastructure.DB" data-source-line="67" id="ent0018"><path d="M249.6004,735.0323 C249.6004,727.4223 283.5474,727.4223 283.5474,727.4223 C283.5474,727.4223 317.4944,727.4223 317.4944,735.0323 L317.4944,763.1417 C317.4944,770.7517 283.5474,770.7517 283.5474,770.7517 C283.5474,770.7517 249.6004,770.7517 249.6004,763.1417 L249.6004,735.0323" fill="none"/><path d="M249.6004,735.0323 C249.6004,742.6423 283.5474,742.6423 283.5474,742.6423 C283.5474,742.6423 317.4944,742.6423 317.4944,735.0323" fill="none"/><text fill="#000000" font-family="Helvetica" font-size="12" lengthAdjust="spacing" textLength="52.674" x="257.2104" y="754.1628">PostgreSQL</text><text fill="#000000" font-family="Helvetica" font-size="12" lengthAdjust="spacing" textLength="42.5744" x="257.2104" y="764.793">(Primary)</text></g><!--entity Cache--><g class="entity" data-qualified-name="Infrastructure.Cache" data-source-line="68" id="ent0019"><path d="M49.6629,735.0323 C49.6629,727.4223 75.0352,727.4223 75.0352,727.4223 C75.0352,727.4223 100.4076,727.4223 100.4076,735.0323 L100.4076,763.1417 C100.4076,770.7517 75.0352,770.7517 75.0352,770.7517 C75.0352,770.7517 49.6629,770.7517 49.6629,763.1417 L49.6629,735.0323" fill="none"/><path d="M49.6629,735.0323 C49.6629,742.6423 75.0352,742.6423 75.0352,742.6423 C75.0352,742.6423 100.4076,742.6423 100.4076,735.0323" fill="none"/><text fill="#000000" font-family="Helvetica" font-size="12" lengthAdjust="spacing" textLength="25.055" x="57.2729" y="754.1628">Redis</text><text fill="#000000" font-family="Helvetica" font-size="12" lengthAdjust="spacing" textLength="35.5247" x="57.2729" y="764.793">(Cache)</text></g><!--entity MQ--><g class="entity" data-qualified-name="Infrastructure.MQ" data-source-line="69" id="ent0020"><path d="M350.4406,734.1715 C352.1324,729.3991 355.7485,728.6047 359.2935,732.214 C361.6325,726.6349 365.7402,725.5977 369.6365,730.7071 C372.1307,726.9141 376.39,726.2708 378.6671,730.9388 C379.7908,726.1125 383.2896,725.8384 386.6154,728.6459 C388.9871,723.3476 393.3004,724.0392 396.2002,728.1055 C399.1909,723.9378 403.5914,725.0665 405.5315,729.2759 C408.4352,724.7795 412.1538,725.5671 414.6085,729.7456 C417.4564,725.283 421.6795,726.696 423.5189,730.7952 C427.3603,727.6588 431.002,727.7329 432.7298,733.088 C436.1461,729.1819 439.6852,730.2353 441.7756,734.5474 C445.9224,735.3901 447.394,738.6912 444.2343,741.958 C449.5033,742.5946 450.9512,746.9656 447.372,750.7574 C450.587,754.0913 449.1597,756.6927 445.2952,757.9951 C447.0135,761.9766 445.4586,765.0874 440.8645,765.1719 C439.186,770.3888 435.2229,771.0911 431.7184,766.9581 C429.9435,771.3443 427.36,771.2483 424.0156,768.7021 C422.2639,773.3094 417.7695,773.8157 414.95,769.8283 C413.2771,775.9311 408.7874,775.8834 404.8645,772.1307 C402.455,776.2828 398.7458,776.0308 396.003,772.5158 C392.9778,776.658 390.2179,776.7867 387.5405,772.1794 C383.9308,776.0912 380.193,775.2215 377.769,770.7907 C373.7323,774.4621 370.2893,772.7589 369.0914,767.9021 C365.8919,772.1836 362.4543,771.2676 360.3648,766.7954 C357.0473,771.2749 352.377,769.6639 350.623,765.1094 C345.7339,764.6884 344.5746,761.5386 347.1211,757.6343 C341.7268,756.8534 341.3484,753.589 343.6099,749.5024 C341.1587,745.4421 342.6555,742.4554 347.1879,741.5288 C344.3589,737.7189 345.7706,734.6659 350.4406,734.1715" fill="none"/><text fill="#000000" font-family="Helvetica" font-size="12" lengthAdjust="spacing" textLength="44.7192" x="355.387" y="746.9333">RabbitMQ</text><text fill="#000000" font-family="Helvetica" font-size="12" lengthAdjust="spacing" textLength="80.0521" x="355.387" y="757.5635">(Message Queue)</text></g><!--entity ES--><g class="entity" data-qualified-name="Infrastructure.ES" data-source-line="70" id="ent0021"><path d="M479.5534,733.4653 C481.8733,729.0289 485.9645,729.2924 488.2328,733.517 C489.8289,728.4587 493.6728,727.1721 497.2852,731.5911 C498.6086,727.7861 501.9334,727.7253 504.4408,730.2534 C506.4841,725.2439 509.6436,724.9653 512.938,729.0895 C514.7686,724.9296 518.6291,724.2569 521.2439,728.2949 C523.9757,724.4037 528.0699,724.1876 530.5502,728.5776 C534.2858,725.9012 537.3415,725.9015 539.0178,730.8611 C541.5804,727.3734 544.3022,727.4886 546.6214,731.1212 C549.5614,727.6543 553.7756,727.6937 555.132,732.71 C558.0975,729.2455 560.4261,729.6672 562.8397,733.3086 C568.6609,734.0339 570.0384,737.2864 567.2683,742.2614 C571.7182,742.4738 572.8281,746.0099 570.4296,749.2986 C574.0822,753.9259 572.0477,757.7857 566.4896,758.4453 C568.7571,761.8168 567.2941,765.0807 563.2322,765.5504 C559.9525,769.4272 556.9515,769.5584 553.8294,765.3668 C550.7029,771.4153 546.4698,771.0312 542.897,765.7993 C539.5814,770.9917 535.6384,770.7278 532.179,765.9538 C529.1888,772.133 524.576,771.2313 521.1093,766.4344 C518.0905,771.9219 514.3338,771.8144 510.782,766.967 C507.733,771.5545 503.8782,771.3244 501.027,766.7563 C497.4258,771.6225 493.0957,771.4997 490.471,765.7824 C487.787,769.9854 483.6641,771.286 480.4714,766.3382 C475.8744,766.0731 473.903,762.2669 476.6263,758.4387 C471.88,757.5053 470.5219,753.7228 473.2911,749.8657 C470.2279,745.1617 471.8583,742.3649 477.2715,741.8928 C473.9204,738.4568 475.463,734.8864 479.5534,733.4653" fill="none"/><text fill="#000000" font-family="Helvetica" font-size="12" lengthAdjust="spacing" textLength="60.3345" x="484.5287" y="746.9333">Elasticsearch</text><text fill="#000000" font-family="Helvetica" font-size="12" lengthAdjust="spacing" textLength="72.8999" x="484.5287" y="757.5635">(Search Engine)</text></g><!--entity S3--><g class="entity" data-qualified-name="Infrastructure.S3" data-source-line="71" id="ent0022"><path d="M133.4377,734.4201 C135.2689,729.7068 137.8477,729.6889 141.4973,732.4627 C143.6355,728.2412 146.8303,727.0591 150.395,730.8857 C152.2681,726.8818 155.6479,726.5316 158.0515,730.3676 C159.9752,725.7567 163.6088,724.9904 166.6456,729.2946 C168.3916,724.6006 171.5158,724.0575 175.353,726.8682 C178.9636,723.9771 182.1885,725.2937 183.4567,729.5311 C186.4599,726.0305 190.0033,725.7049 192.4932,730.1171 C195.7916,726.7224 198.9373,726.1191 201.3401,731.0669 C204.5537,727.9498 207.3457,728.4154 209.5977,732.2149 C213.4082,729.0205 215.9347,729.7324 217.1588,734.6312 C225.7846,738.0048 226.2306,744.9026 219.8049,750.7475 C227.008,755.9956 225.1729,762.6829 217.9333,766.1793 C216.3308,770.476 212.3927,771.0418 209.8412,767.113 C207.3305,771.7088 204.3125,771.6092 201.1242,767.8172 C199.278,772.2066 195.9813,772.5294 193.0375,768.9281 C190.0768,773.9236 186.0015,772.7516 183.3586,768.5922 C181.8077,772.5846 177.8566,773.6286 175.3055,769.5959 C172.6535,773.4755 169.7004,773.2982 167.0682,769.5745 C164.6848,773.8548 160.8429,772.9749 158.8166,769.2082 C155.4012,772.864 151.4069,771.6572 150.2713,766.8942 C147.1797,771.2532 144.4397,770.6466 141.6774,766.5591 C138.7184,769.9562 136.2476,769.8311 134.4284,765.4911 C129.9161,765.1595 128.043,761.7873 130.6336,757.9034 C126.0857,756.996 125.2364,754.2395 127.8082,750.5839 C124.5783,746.525 126.2887,742.9407 131.1893,742.1359 C127.5846,738.7646 129.3254,735.5427 133.4377,734.4201" fill="none"/><text fill="#000000" font-family="Helvetica" font-size="12" lengthAdjust="spacing" textLength="11.6067" x="138.1291" y="746.9333">S3</text><text fill="#000000" font-family="Helvetica" font-size="12" lengthAdjust="spacing" textLength="73.1853" x="138.1291" y="757.5635">(Media Storage)</text></g><!--entity Customer--><g class="entity" data-qualified-name="Customer" data-source-line="43" id="ent0001"><ellipse cx="466.9466" cy="39.0369" fill="none" rx="6.088" ry="6.088"/><path d="M466.9466,45.1249 L466.9466,65.6719 M457.0536,51.2129 L476.8396,51.2129 M466.9466,65.6719 L457.0536,77.0869 M466.9466,65.6719 L476.8396,77.0869" fill="none"/><text fill="#000000" font-family="Helvetica" font-size="12" font-weight="700" lengthAdjust="spacing" textLength="57.7386" x="438.0773" y="87.7372">Customer</text></g><!--entity Admin--><g class="entity" data-qualified-name="Admin" data-source-line="44" id="ent0002"><ellipse cx="541.5238" cy="39.0369" fill="none" rx="6.088" ry="6.088"/><path d="M541.5238,45.1249 L541.5238,65.6719 M531.6308,51.2129 L551.4168,51.2129 M541.5238,65.6719 L531.6308,77.0869 M541.5238,65.6719 L551.4168,77.0869" fill="none"/><text fill="#000000" font-family="Helvetica" font-size="12" font-weight="700" lengthAdjust="spacing" textLength="38.2098" x="522.4189" y="87.7372">Admin</text></g><!--link Customer to Router--><g class="link" data-entity-1="ent0001" data-entity-2="ent0006" data-link-type="dependency" data-source-line="74" id="lnk23"><path d="M476.7437,90.5186 C483.6079,110.2285 491.2992,132.3338 497.0904,148.9769" fill="none" id="Customer-to-Router" style="stroke:#000000;stroke-width:0.75;"/><polygon fill="#000000" points="498.3408,152.5705,498.9649,145.1016,497.0904,148.9769,493.2151,147.1023,498.3408,152.5705" style="stroke:#000000;stroke-width:0.75;stroke-linejoin:miter;stroke-miterlimit:10;"/></g><!--link Admin to Router--><g class="link" data-entity-1="ent0002" data-entity-2="ent0006" data-link-type="dependency" data-source-line="75" id="lnk24"><path d="M531.7335,90.5186 C524.8693,110.2285 517.178,132.3338 511.3868,148.9769" fill="none" id="Admin-to-Router" style="stroke:#000000;stroke-width:0.75;"/><polygon fill="#000000" points="510.1363,152.5705,515.2621,147.1023,511.3868,148.9769,509.5123,145.1016,510.1363,152.5705" style="stroke:#000000;stroke-width:0.75;stroke-linejoin:miter;stroke-miterlimit:10;"/></g><!--link Router to Auth Filter--><g class="link" data-entity-1="ent0006" data-entity-2="ent0005" data-link-type="dependency" data-source-line="77" id="lnk25"><path d="M504.2386,188.2234 C504.2386,201.7387 504.2386,216.6848 504.2386,230.2001" fill="none" id="Router-to-Auth Filter" style="stroke:#000000;stroke-width:0.75;"/><polygon fill="#000000" points="504.2386,234.0051,507.2826,227.1561,504.2386,230.2001,501.1946,227.1561,504.2386,234.0051" style="stroke:#000000;stroke-width:0.75;stroke-linejoin:miter;stroke-miterlimit:10;"/></g><!--link Auth Filter to Rate Limiter--><g class="link" data-entity-1="ent0005" data-entity-2="ent0004" data-link-type="dependency" data-source-line="78" id="lnk26"><path d="M504.2386,269.8787 C504.2386,283.394 504.2386,298.3401 504.2386,311.8478" fill="none" id="Auth Filter-to-Rate Limiter" style="stroke:#000000;stroke-width:0.75;"/><polygon fill="#000000" points="504.2386,315.6528,507.2826,308.8038,504.2386,311.8478,501.1946,308.8038,504.2386,315.6528" style="stroke:#000000;stroke-width:0.75;stroke-linejoin:miter;stroke-miterlimit:10;"/></g><!--link Rate Limiter to Product Service--><g class="link" data-entity-1="ent0004" data-entity-2="ent0008" data-link-type="dependency" data-source-line="80" id="lnk27"><path d="M461.4095,351.5264 C441.2506,360.0876 417.1041,371.0156 396.1766,382.3925 C378.1637,392.1866 361.9654,402.6682 347.2857,412.7286" fill="none" id="Rate Limiter-to-Product Service" style="stroke:#000000;stroke-width:0.75;"/><polygon fill="#000000" points="344.147,414.8796,351.5174,413.5187,347.2857,412.7286,348.0758,408.4969,344.147,414.8796" style="stroke:#000000;stroke-width:0.75;stroke-linejoin:miter;stroke-miterlimit:10;"/></g><!--link Rate Limiter to Order Service--><g class="link" data-entity-1="ent0004" data-entity-2="ent0009" data-link-type="dependency" data-source-line="81" id="lnk28"><path d="M520.8893,351.572 C538.1412,369.4175 562.2839,394.3973 579.4748,412.1818" fill="none" id="Rate Limiter-to-Order Service" style="stroke:#000000;stroke-width:0.75;"/><polygon fill="#000000" points="582.1193,414.9177,579.5479,407.8776,579.4748,412.1818,575.1706,412.1088,582.1193,414.9177" style="stroke:#000000;stroke-width:0.75;stroke-linejoin:miter;stroke-miterlimit:10;"/></g><!--link Rate Limiter to Payment Service--><g class="link" data-entity-1="ent0004" data-entity-2="ent0010" data-link-type="dependency" data-source-line="82" id="lnk29"><path d="M556.8618,335.1877 C593.892,338.7872 641.5002,350.0348 668.6146,382.3925 C697.9207,417.3681 703.3543,446.3165 678.5076,484.5948 C672.2446,494.2443 666.3608,499.7491 656.2014,505.2968" fill="none" id="Rate Limiter-to-Payment Service" style="stroke:#000000;stroke-width:0.75;"/><polygon fill="#000000" points="652.8619,507.1204,660.3319,506.5095,656.2014,505.2968,657.4142,501.1663,652.8619,507.1204" style="stroke:#000000;stroke-width:0.75;stroke-linejoin:miter;stroke-miterlimit:10;"/></g><!--link Rate Limiter to User Service--><g class="link" data-entity-1="ent0004" data-entity-2="ent0011" data-link-type="dependency" data-source-line="83" id="lnk30"><path d="M496.8493,351.572 C489.2012,369.4175 478.8214,393.636 471.1962,411.4205" fill="none" id="Rate Limiter-to-User Service" style="stroke:#000000;stroke-width:0.75;"/><polygon fill="#000000" points="469.6968,414.9177,475.1934,409.8224,471.1962,411.4205,469.598,407.4233,469.6968,414.9177" style="stroke:#000000;stroke-width:0.75;stroke-linejoin:miter;stroke-miterlimit:10;"/></g><!--link Order Service to Payment Service--><g class="link" data-entity-1="ent0009" data-entity-2="ent0010" data-link-type="dependency" data-source-line="85" id="lnk31"><path d="M595.1629,450.6162 C593.8844,457.5869 592.5603,465.7448 591.7536,473.1798 C590.5284,484.4807 590.0595,493.4542 589.7931,503.4005" fill="none" id="Order Service-to-Payment Service" style="stroke:#000000;stroke-width:0.75;"/><polygon fill="#000000" points="589.6913,507.2041,592.9175,500.4391,589.7931,503.4005,586.8317,500.2761,589.6913,507.2041" style="stroke:#000000;stroke-width:0.75;stroke-linejoin:miter;stroke-miterlimit:10;"/><text fill="#000000" font-family="Helvetica" font-size="12" lengthAdjust="spacing" textLength="82.8078" x="592.5146" y="482.4173">processPayment()</text></g><!--link Order Service to Inventory Service--><g class="link" data-entity-1="ent0009" data-entity-2="ent0012" data-link-type="dependency" data-source-line="86" id="lnk32"><path d="M561.8387,450.7227 C547.7602,457.5032 531.6118,465.4937 517.1756,473.1798 C496.933,483.9556 477.8557,494.9601 460.7027,505.127" fill="none" id="Order Service-to-Inventory Service" style="stroke:#000000;stroke-width:0.75;"/><polygon fill="#000000" points="457.4295,507.0671,464.8734,506.1935,460.7027,505.127,461.7692,500.9564,457.4295,507.0671" style="stroke:#000000;stroke-width:0.75;stroke-linejoin:miter;stroke-miterlimit:10;"/><text fill="#000000" font-family="Helvetica" font-size="12" lengthAdjust="spacing" textLength="66.9249" x="517.9366" y="482.4173">reserveStock()</text></g><!--link Payment Service to Notification Service--><g class="link" data-entity-1="ent0010" data-entity-2="ent0014" data-link-type="dependency" data-source-line="87" id="lnk33"><path d="M589.4706,542.9559 C589.4706,563.2366 589.4706,592.9612 589.4706,613.2038" fill="none" id="Payment Service-to-Notification Service" style="stroke:#000000;stroke-width:0.75;"/><polygon fill="#000000" points="589.4706,617.0088,592.5146,610.1598,589.4706,613.2038,586.4266,610.1598,589.4706,617.0088" style="stroke:#000000;stroke-width:0.75;stroke-linejoin:miter;stroke-miterlimit:10;"/><text fill="#000000" font-family="Helvetica" font-size="12" lengthAdjust="spacing" textLength="63.603" x="590.2316" y="576.2486">sendReceipt()</text></g><!--link Inventory Service to Notification Service--><g class="link" data-entity-1="ent0012" data-entity-2="ent0014" data-link-type="dependency" data-source-line="88" id="lnk34"><path d="M454.3398,542.9559 C484.4069,563.2366 530.9761,594.6386 560.9899,614.8812" fill="none" id="Inventory Service-to-Notification Service" style="stroke:#000000;stroke-width:0.75;"/><polygon fill="#000000" points="564.1445,617.0088,560.1683,610.6555,560.9899,614.8812,556.7642,615.7028,564.1445,617.0088" style="stroke:#000000;stroke-width:0.75;stroke-linejoin:miter;stroke-miterlimit:10;"/><text fill="#000000" font-family="Helvetica" font-size="12" lengthAdjust="spacing" textLength="69.7296" x="505.129" y="576.2486">lowStockAlert()</text></g><!--link User Service to DB--><g class="link" data-entity-1="ent0011" data-entity-2="ent0018" data-link-type="dependency" data-source-line="90" id="lnk35"><path d="M409.281,447.0927 C404.852,448.2038 400.4382,449.2996 396.1766,450.3498 C353.6367,460.8288 328.478,439.6425 300.2906,473.1798 C268.2297,511.3287 276.9527,665.6938 281.435,723.37" fill="none" id="User Service-to-DB" style="stroke:#000000;stroke-width:0.75;"/><polygon fill="#000000" points="281.7298,727.1636,284.234,720.0993,281.435,723.37,278.1643,720.571,281.7298,727.1636" style="stroke:#000000;stroke-width:0.75;stroke-linejoin:miter;stroke-miterlimit:10;"/></g><!--link Order Service to DB--><g class="link" data-entity-1="ent0009" data-entity-2="ent0018" data-link-type="dependency" data-source-line="91" id="lnk36"><path d="M542.0527,447.0319 C472.3223,464.1924 361.2619,493.255 347.4726,507.4248 C343.5382,511.4657 304.4478,665.4098 289.8062,723.4589" fill="none" id="Order Service-to-DB" style="stroke:#000000;stroke-width:0.75;"/><polygon fill="#000000" points="288.8756,727.1483,293.5022,721.2518,289.8062,723.4589,287.5991,719.7629,288.8756,727.1483" style="stroke:#000000;stroke-width:0.75;stroke-linejoin:miter;stroke-miterlimit:10;"/></g><!--link Product Service to DB--><g class="link" data-entity-1="ent0008" data-entity-2="ent0018" data-link-type="dependency" data-source-line="92" id="lnk37"><path d="M257.1952,438.0216 C231.7397,443.067 204.1611,453.1807 186.1406,473.1798 C157.7401,504.6852 172.5415,524.768 168.6376,567.0111 C164.9011,607.4126 179.6721,662.3872 186.1406,670.7278 C201.2541,690.217 216.6719,679.4717 236.3666,694.3188 C248.5959,703.5421 257.6152,713.3724 266.1308,724.2166" fill="none" id="Product Service-to-DB" style="stroke:#000000;stroke-width:0.75;"/><polygon fill="#000000" points="268.4808,727.2092,266.6449,719.9426,266.1308,724.2166,261.8568,723.7025,268.4808,727.2092" style="stroke:#000000;stroke-width:0.75;stroke-linejoin:miter;stroke-miterlimit:10;"/></g><!--link Product Service to Cache--><g class="link" data-entity-1="ent0008" data-entity-2="ent0019" data-link-type="dependency" data-source-line="94" id="lnk38"><path d="M257.1876,439.399 C184.0402,450.2433 68.3302,480.8507 29.3746,567.0111 C4.566,621.8792 37.7008,689.1855 58.9251,723.8871" fill="none" id="Product Service-to-Cache" style="stroke:#000000;stroke-width:0.75;"/><polygon fill="#000000" points="60.9104,727.1331,59.9337,719.7021,58.9251,723.8871,54.7401,722.8786,60.9104,727.1331" style="stroke:#000000;stroke-width:0.75;stroke-linejoin:miter;stroke-miterlimit:10;"/><text fill="#000000" font-family="Helvetica" font-size="12" lengthAdjust="spacing" textLength="62.078" x="30.1356" y="576.2486">cacheProduct</text></g><!--link Search Service to ES--><g class="link" data-entity-1="ent0015" data-entity-2="ent0021" data-link-type="dependency" data-source-line="95" id="lnk39"><path d="M739.1745,652.7225 C731.0623,664.2289 719.0156,678.9466 705.1426,688.2308 C663.6377,716.0149 612.042,730.9975 572.8962,739.3381" fill="none" id="Search Service-to-ES" style="stroke:#000000;stroke-width:0.75;"/><polygon fill="#000000" points="569.1747,740.131,576.5077,741.6809,572.8962,739.3381,575.239,735.7266,569.1747,740.131" style="stroke:#000000;stroke-width:0.75;stroke-linejoin:miter;stroke-miterlimit:10;"/><text fill="#000000" font-family="Helvetica" font-size="12" lengthAdjust="spacing" textLength="60.1785" x="719.0232" y="686.0533">indexProduct</text></g><!--link Product Service to MQ--><g class="link" data-entity-1="ent0008" data-entity-2="ent0020" data-link-type="dependency" data-source-line="96" id="lnk40"><path d="M273.7545,450.6238 C263.4049,456.3845 253.3978,463.7967 246.2596,473.1798 C217.3644,511.1613 206.7865,534.2881 224.9516,578.4261 C239.9433,614.84 322.362,687.2963 366.325,724.2657" fill="none" id="Product Service-to-MQ" style="stroke:#000000;stroke-width:0.75;"/><polygon fill="#000000" points="369.2372,726.7146,365.9544,719.9768,366.325,724.2657,362.0361,724.6363,369.2372,726.7146" style="stroke:#000000;stroke-width:0.75;stroke-linejoin:miter;stroke-miterlimit:10;"/><text fill="#000000" font-family="Helvetica" font-size="12" lengthAdjust="spacing" textLength="74.193" x="225.7126" y="576.2486">productUpdated</text></g><!--link Search Service to MQ--><g class="link" data-entity-1="ent0015" data-entity-2="ent0020" data-link-type="dependency" data-source-line="97" id="lnk41"><path d="M720.0202,652.8443 C707.1516,659.4802 691.7262,666.4738 676.9856,670.7278 C654.0871,677.3333 647.2686,673.1858 623.7156,676.8158 C597.4915,680.8643 591.4416,684.9205 565.1186,688.2308 C541.9233,691.153 481.8348,685.7195 460.1006,694.3188 C442.5519,701.2667 428.9571,712.2361 417.1159,724.0773" fill="none" id="Search Service-to-MQ" style="stroke:#000000;stroke-width:0.75;"/><polygon fill="#000000" points="414.4254,726.7678,421.4208,724.0773,417.1159,724.0773,417.1159,719.7724,414.4254,726.7678" style="stroke:#000000;stroke-width:0.75;stroke-linejoin:miter;stroke-miterlimit:10;"/><text fill="#000000" font-family="Helvetica" font-size="12" lengthAdjust="spacing" textLength="74.5275" x="624.4766" y="686.0533">consumeUpdate</text></g><!--link Notification Service to MQ--><g class="link" data-entity-1="ent0014" data-entity-2="ent0020" data-link-type="dependency" data-source-line="98" id="lnk42"><path d="M543.9324,652.7378 C518.4236,663.1939 486.5225,677.7214 460.1006,694.3188 C445.2307,703.6563 432.9359,713.5756 421.0414,724.1687" fill="none" id="Notification Service-to-MQ" style="stroke:#000000;stroke-width:0.75;"/><polygon fill="#000000" points="418.1999,726.6994,425.3391,724.4174,421.0414,724.1687,421.2901,719.8711,418.1999,726.6994" style="stroke:#000000;stroke-width:0.75;stroke-linejoin:miter;stroke-miterlimit:10;"/><text fill="#000000" font-family="Helvetica" font-size="12" lengthAdjust="spacing" textLength="67.616" x="491.3397" y="686.0533">consumeEvent</text></g><!--link Analytics Service to DB--><g class="link" data-entity-1="ent0016" data-entity-2="ent0018" data-link-type="dependency" data-source-line="100" id="lnk43"><path d="M390.7278,652.7682 C372.3573,663.5364 349.2077,678.3759 330.7306,694.3188 C319.4221,704.0824 310.7564,713.6157 302.1799,724.1175" fill="none" id="Analytics Service-to-DB" style="stroke:#000000;stroke-width:0.75;"/><polygon fill="#000000" points="299.7731,727.0646,306.463,723.6853,302.1799,724.1175,301.7477,719.8344,299.7731,727.0646" style="stroke:#000000;stroke-width:0.75;stroke-linejoin:miter;stroke-miterlimit:10;"/><text fill="#000000" font-family="Helvetica" font-size="12" lengthAdjust="spacing" textLength="47.1538" x="352.5637" y="686.0533">aggregate</text></g><!--link Product Service to S3--><g class="link" data-entity-1="ent0008" data-entity-2="ent0022" data-link-type="dependency" data-source-line="101" id="lnk44"><path d="M257.0278,440.8982 C229.0762,446.4611 196.8935,456.1867 171.6816,473.1798 C128.3655,502.3642 117.4908,517.4776 100.9086,567.0111 C81.1607,625.9886 124.9348,690.3742 152.8863,723.9648" fill="none" id="Product Service-to-S3" style="stroke:#000000;stroke-width:0.75;"/><polygon fill="#000000" points="155.3201,726.8896,153.2791,719.6779,152.8863,723.9648,148.5994,723.572,155.3201,726.8896" style="stroke:#000000;stroke-width:0.75;stroke-linejoin:miter;stroke-miterlimit:10;"/><text fill="#000000" font-family="Helvetica" font-size="12" lengthAdjust="spacing" textLength="59.7013" x="101.6696" y="576.2486">uploadImage</text></g><?plantuml-src bLRDRjj64BxlKqpTG-s3NITEMo0D0YYAb0gm4ibCJcqFe-MOMeZSPNQNibN3G1uYJvWdwUoIiiKV5uqkvCnyyytFValeXz9YLY3WYwdoKtLBgN0ISuBpizz-VIP-Wgh8JrE5cSN2dHcRWQLhigGbWVCx1dxxyXN6IG9Rj0grX-CovmUddKbJmAi8UWrkfptUdeZ65jOO3tS2O6gqVuy5mH-KRyahYOqpKVyGF7lUM6EJ6mi_diSV-zwWtBopfj9f4vd67qSkbQOkElW-hfNSQ78kZFOBEw_gRAl9GW0bQqpDZT8PM_T2UELvkhjMDo_sLfnyPVBqVxRdBMfN8k_Djrhi-m_Q35reu-iclc_WVa_CnUTH6isbtjRd6NaVd73tL8tV-oNWdbDBXcD60D-RUYzU_TpeW1NsSKsEmDyOSEGzxz_16hS4saHTqUTARLcHtE6EV9JRXgW4TE0sIlFoi7Wf7buRLJflbGmgF8Z879qRUOwiAaypQNGyrVFzMKzEnwOeoBAqvqfQuyXk5HiZAzVA4zDP4WAbvs76bVE6iOqvIWkbXTXlv6YqcC4xz7I3kwEuPe0_hzZcTHHCPV-kNQFAhs6gyaSFYp8QzmTah562f6x6FT0jh4ahwVU19l-3JLdERTy2TqLONzlxoVM0CxrbdB6xH_zX7qbLbiQ64-ftyzvuTSsNrokZEwm98I-munnfp7TyszrmgPc-jiXdMCMbxwkaw765B9QZXN4-ivGiB__Inmkh2hIxawEWYRTlEj0hIfLZr1ZbccfCV8qmcPigPGokLihFbmoRyzKBBImhgXhuV7c8dR2AGkDnAavenfleZ9LU9qoImuJa8jBoHnGINYwJrwZa8eoy5nASdhv-FFwefxPBxDzgTqiwBQj9QwbDjEqQqbFG4AWZg46Uhhw6G6svYGxlC16yXD8Qbfbh8iSdmubzuNAgfN21YNSkDo6nnnvJ1uNBsOvqUaMIL1ch3bJup_JStCJ2evni813j1SHabkhGDC7TFPfzu8b853HNbU7P84JtuaNa966OqYdTFi066UVBUlaXygdasyH_30O98v0_fQugg0QA9vRIHK_2HdcY_gUWcPQXcF4jpoBfO9l91OEgCZUOpWg-MVy2?></g></svg>