<svg xmlns="http://www.w3.org/2000/svg" xmlns:xlink="http://www.w3.org/1999/xlink" contentStyleType="text/css" data-diagram-type="STATE" height="1555px" preserveAspectRatio="none" style="width:973px;height:1555px;background:#1A1A1A;" version="1.1" viewBox="0 0 973 1555" width="973px" zoomAndPan="magnify"><title>Support Ticket Lifecycle</title><defs/><g><g class="title" data-source-line="51"><text fill="#E8E8E8" font-family="Helvetica" font-size="14" font-weight="bold" lengthAdjust="spacing" textLength="190.5244" x="384.4904" y="30.9951">Support Ticket Lifecycle</text></g><rect fill="#2D2D2D" height="39.9688" style="stroke:#C0C0C0;stroke-width:1;" width="317.1055" x="380.56" y="552.2969"/><rect fill="none" height="671.9688" style="stroke:#C0C0C0;stroke-width:0.5;" width="317.1055" x="380.56" y="552.2969"/><line style="stroke:#C0C0C0;stroke-width:0.5;" x1="380.56" x2="697.6655" y1="592.2656" y2="592.2656"/><text fill="#E8E8E8" font-family="Helvetica" font-size="12" lengthAdjust="spacing" textLength="63.0938" x="507.5659" y="576.4355">InProgress</text><ellipse cx="515.56" cy="613.2656" fill="#C0C0C0" rx="10" ry="10" style="stroke:#C0C0C0;stroke-width:1;"/><g id="InProgress.Investigating"><rect fill="#2D2D2D" height="65.9688" style="stroke:#C0C0C0;stroke-width:0.5;" width="114.1523" x="458.56" y="660.2656"/><line style="stroke:#C0C0C0;stroke-width:0.5;" x1="458.56" x2="572.7123" y1="700.2344" y2="700.2344"/><text fill="#E8E8E8" font-family="Helvetica" font-size="12" lengthAdjust="spacing" textLength="78.1523" x="476.56" y="684.4043">Investigating</text></g><g id="InProgress.Reproducing"><rect fill="#2D2D2D" height="65.9688" style="stroke:#C0C0C0;stroke-width:0.5;" width="111.9902" x="392.56" y="793.2656"/><line style="stroke:#C0C0C0;stroke-width:0.5;" x1="392.56" x2="504.5502" y1="833.2344" y2="833.2344"/><text fill="#E8E8E8" font-family="Helvetica" font-size="12" lengthAdjust="spacing" textLength="75.9902" x="410.56" y="817.4043">Reproducing</text></g><g id="InProgress.Fixing"><rect fill="#2D2D2D" height="65.9688" style="stroke:#C0C0C0;stroke-width:0.5;" width="71.8945" x="420.56" y="926.2656"/><line style="stroke:#C0C0C0;stroke-width:0.5;" x1="420.56" x2="492.4545" y1="966.2344" y2="966.2344"/><text fill="#E8E8E8" font-family="Helvetica" font-size="12" lengthAdjust="spacing" textLength="35.8945" x="438.56" y="950.4043">Fixing</text></g><g id="InProgress.Testing"><rect fill="#2D2D2D" height="65.9688" style="stroke:#C0C0C0;stroke-width:0.5;" width="80.2266" x="486.56" y="1059.2656"/><line style="stroke:#C0C0C0;stroke-width:0.5;" x1="486.56" x2="566.7866" y1="1099.2344" y2="1099.2344"/><text fill="#E8E8E8" font-family="Helvetica" font-size="12" lengthAdjust="spacing" textLength="44.2266" x="504.56" y="1083.4043">Testing</text></g><ellipse cx="526.56" cy="1203.2656" fill="none" rx="11" ry="11" style="stroke:#C0C0C0;stroke-width:1;"/><ellipse cx="526.56" cy="1203.2656" fill="#C0C0C0" rx="6" ry="6" style="stroke:#C0C0C0;stroke-width:1;"/><!--link *start*InProgress to Investigating--><g class="link" data-entity-1=".start.InProgress" data-entity-2="Investigating" data-source-line="63" data-uid="lnk15" id="link_.start.InProgress_Investigating"><path d="M515.56,623.5156 C515.56,632.5556 515.56,640.8456 515.56,654.0656" fill="none" id="*start*InProgress-to-Investigating" style="stroke:#C0C0C0;stroke-width:0.75;"/><polygon fill="#E8E8E8" points="515.56,660.0656,519.56,651.0656,515.56,655.0656,511.56,651.0656,515.56,660.0656" style="stroke:#C0C0C0;stroke-width:0.75;"/></g><!--link Investigating to Reproducing--><g class="link" data-entity-1="Investigating" data-entity-2="Reproducing" data-source-line="64" data-uid="lnk17" id="link_Investigating_Reproducing"><path d="M475.46,726.4156 C470.49,731.9156 465.97,737.9156 462.56,744.2656 C454.59,759.1056 451.6046,771.4962 450.0346,786.9962" fill="none" id="Investigating-to-Reproducing" style="stroke:#C0C0C0;stroke-width:0.75;"/><polygon fill="#E8E8E8" points="449.43,792.9656,454.3166,784.4145,449.9339,787.9911,446.3573,783.6083,449.43,792.9656" style="stroke:#C0C0C0;stroke-width:0.75;"/><text fill="#E8E8E8" font-family="Helvetica" font-size="12" lengthAdjust="spacing" textLength="92.5605" x="471.56" y="764.4043">identified steps</text></g><!--link Reproducing to Fixing--><g class="link" data-entity-1="Reproducing" data-entity-2="Fixing" data-source-line="65" data-uid="lnk19" id="link_Reproducing_Fixing"><path d="M445.24,859.2756 C444.24,874.1956 443.81,892.1756 445.56,908.2656 C446.19,914.0956 446.0456,914.3637 447.2356,920.2737" fill="none" id="Reproducing-to-Fixing" style="stroke:#C0C0C0;stroke-width:0.75;"/><polygon fill="#E8E8E8" points="448.42,926.1556,450.5648,916.5431,447.433,921.254,442.7222,918.1223,448.42,926.1556" style="stroke:#C0C0C0;stroke-width:0.75;"/><text fill="#E8E8E8" font-family="Helvetica" font-size="12" lengthAdjust="spacing" textLength="101.5371" x="454.56" y="897.4043">root cause found</text></g><!--link Fixing to Testing--><g class="link" data-entity-1="Fixing" data-entity-2="Testing" data-source-line="66" data-uid="lnk21" id="link_Fixing_Testing"><path d="M469.3,992.4456 C475.68,1007.5756 483.88,1025.6656 492.56,1041.2656 C495.88,1047.2256 496.4034,1048.3724 500.2634,1054.2424" fill="none" id="Fixing-to-Testing" style="stroke:#C0C0C0;stroke-width:0.75;"/><polygon fill="#E8E8E8" points="503.56,1059.2556,501.9572,1049.5381,500.8128,1055.0779,495.2729,1053.9335,503.56,1059.2556" style="stroke:#C0C0C0;stroke-width:0.75;"/><text fill="#E8E8E8" font-family="Helvetica" font-size="12" lengthAdjust="spacing" textLength="62.7305" x="501.56" y="1030.4043">fix applied</text></g><!--link Testing to Investigating--><g class="link" data-entity-1="Testing" data-entity-2="Investigating" data-source-line="67" data-uid="lnk22" id="link_Testing_Investigating"><path d="M562.09,1059.2356 C566.35,1053.6956 570.07,1047.6356 572.56,1041.2656 C620.52,918.2856 627.03,864.5056 572.56,744.2656 C569.63,737.7956 569.4033,736.2858 564.5533,730.8958" fill="none" id="Testing-to-Investigating" style="stroke:#C0C0C0;stroke-width:0.75;"/><polygon fill="#E8E8E8" points="560.54,726.4356,563.5865,735.8014,563.8844,730.1524,569.5334,730.4503,560.54,726.4356" style="stroke:#C0C0C0;stroke-width:0.75;"/><text fill="#E8E8E8" font-family="Helvetica" font-size="12" lengthAdjust="spacing" textLength="60.1055" x="619.56" y="897.4043">test failed</text></g><!--link Testing to *end*InProgress--><g class="link" data-entity-1="Testing" data-entity-2=".end.InProgress" data-source-line="68" data-uid="lnk24" id="link_Testing_.end.InProgress"><path d="M526.56,1125.3756 C526.56,1147.9856 526.56,1170.8156 526.56,1185.9356" fill="none" id="Testing-to-*end*InProgress" style="stroke:#C0C0C0;stroke-width:0.75;"/><polygon fill="#E8E8E8" points="526.56,1191.9356,530.56,1182.9356,526.56,1186.9356,522.56,1182.9356,526.56,1191.9356" style="stroke:#C0C0C0;stroke-width:0.75;"/><text fill="#E8E8E8" font-family="Helvetica" font-size="12" lengthAdjust="spacing" textLength="69.334" x="535.56" y="1163.4043">test passed</text></g><ellipse cx="792.06" cy="69.2969" fill="#C0C0C0" rx="10" ry="10" style="stroke:#C0C0C0;stroke-width:1;"/><g id="New"><rect fill="#2D2D2D" height="65.9688" style="stroke:#C0C0C0;stroke-width:0.5;" width="62.1738" x="761.06" y="116.2969"/><line style="stroke:#C0C0C0;stroke-width:0.5;" x1="761.06" x2="823.2338" y1="156.2656" y2="156.2656"/><text fill="#E8E8E8" font-family="Helvetica" font-size="12" lengthAdjust="spacing" textLength="26.1738" x="779.06" y="140.4355">New</text></g><g id="Assigned"><rect fill="#2D2D2D" height="65.9688" style="stroke:#C0C0C0;stroke-width:0.5;" width="90.2695" x="659.06" y="249.2969"/><line style="stroke:#C0C0C0;stroke-width:0.5;" x1="659.06" x2="749.3295" y1="289.2656" y2="289.2656"/><text fill="#E8E8E8" font-family="Helvetica" font-size="12" lengthAdjust="spacing" textLength="54.2695" x="677.06" y="273.4355">Assigned</text></g><g id="Cancelled"><rect fill="#2D2D2D" height="65.9688" style="stroke:#C0C0C0;stroke-width:0.5;" width="94.9863" x="828.56" y="333.2969"/><line style="stroke:#C0C0C0;stroke-width:0.5;" x1="828.56" x2="923.5463" y1="373.2656" y2="373.2656"/><text fill="#E8E8E8" font-family="Helvetica" font-size="12" lengthAdjust="spacing" textLength="58.9863" x="846.56" y="357.4355">Cancelled</text></g><g id="Reassigned"><rect fill="#2D2D2D" height="65.9688" style="stroke:#C0C0C0;stroke-width:0.5;" width="105.1348" x="528.56" y="418.2969"/><line style="stroke:#C0C0C0;stroke-width:0.5;" x1="528.56" x2="633.6948" y1="458.2656" y2="458.2656"/><text fill="#E8E8E8" font-family="Helvetica" font-size="12" lengthAdjust="spacing" textLength="69.1348" x="546.56" y="442.4355">Reassigned</text></g><g id="PendingCustomer"><rect fill="#2D2D2D" height="65.9688" style="stroke:#C0C0C0;stroke-width:0.5;" width="142.6875" x="112.56" y="418.2969"/><line style="stroke:#C0C0C0;stroke-width:0.5;" x1="112.56" x2="255.2475" y1="458.2656" y2="458.2656"/><text fill="#E8E8E8" font-family="Helvetica" font-size="12" lengthAdjust="spacing" textLength="106.6875" x="130.56" y="442.4355">PendingCustomer</text></g><g id="Resolved"><rect fill="#2D2D2D" height="65.9688" style="stroke:#C0C0C0;stroke-width:0.5;" width="90.75" x="493.56" y="1291.2969"/><line style="stroke:#C0C0C0;stroke-width:0.5;" x1="493.56" x2="584.31" y1="1331.2656" y2="1331.2656"/><text fill="#E8E8E8" font-family="Helvetica" font-size="12" lengthAdjust="spacing" textLength="54.75" x="511.56" y="1315.4355">Resolved</text></g><g id="Closed"><rect fill="#2D2D2D" height="65.9688" style="stroke:#C0C0C0;stroke-width:0.5;" width="76.3066" x="720.06" y="1424.2969"/><line style="stroke:#C0C0C0;stroke-width:0.5;" x1="720.06" x2="796.3666" y1="1464.2656" y2="1464.2656"/><text fill="#E8E8E8" font-family="Helvetica" font-size="12" lengthAdjust="spacing" textLength="40.3066" x="738.06" y="1448.4355">Closed</text></g><ellipse cx="834.06" cy="1538.2969" fill="none" rx="11" ry="11" style="stroke:#C0C0C0;stroke-width:1;"/><ellipse cx="834.06" cy="1538.2969" fill="#C0C0C0" rx="6" ry="6" style="stroke:#C0C0C0;stroke-width:1;"/><g class="entity" data-entity="GMN2" data-source-line="84" data-uid="ent0003" id="entity_GMN2"><path d="M291.06,417.2969 L291.06,485.2031 L493.0073,485.2031 L493.0073,427.2969 L483.0073,417.2969 L291.06,417.2969" fill="#2D2D2D" style="stroke:#C0C0C0;stroke-width:0.5;"/><path d="M483.0073,417.2969 L483.0073,427.2969 L493.0073,427.2969 L483.0073,417.2969" fill="#2D2D2D" style="stroke:#C0C0C0;stroke-width:1;"/><text fill="#E8E8E8" font-family="Helvetica" font-size="12" lengthAdjust="spacing" textLength="44.748" x="305.06" y="441.4355">System</text><text fill="#E8E8E8" font-family="Helvetica" font-size="12" lengthAdjust="spacing" textLength="3.8145" x="349.808" y="441.4355">&#160;</text><text fill="#E8E8E8" font-family="Helvetica" font-size="12" lengthAdjust="spacing" textLength="81.3164" x="353.6225" y="441.4355">auto-resolves</text><text fill="#E8E8E8" font-family="Helvetica" font-size="12" lengthAdjust="spacing" textLength="3.8145" x="434.9389" y="441.4355">&#160;</text><text fill="#E8E8E8" font-family="Helvetica" font-size="12" lengthAdjust="spacing" textLength="7.5586" x="438.7534" y="441.4355">if</text><text fill="#E8E8E8" font-family="Helvetica" font-size="12" lengthAdjust="spacing" textLength="56.5078" x="305.06" y="455.4043">customer</text><text fill="#E8E8E8" font-family="Helvetica" font-size="12" lengthAdjust="spacing" textLength="3.8145" x="361.5678" y="455.4043">&#160;</text><text fill="#E8E8E8" font-family="Helvetica" font-size="12" lengthAdjust="spacing" textLength="28.5938" x="365.3823" y="455.4043">does</text><text fill="#E8E8E8" font-family="Helvetica" font-size="12" lengthAdjust="spacing" textLength="3.8145" x="393.976" y="455.4043">&#160;</text><text fill="#E8E8E8" font-family="Helvetica" font-size="12" lengthAdjust="spacing" textLength="19.6523" x="397.7905" y="455.4043">not</text><text fill="#E8E8E8" font-family="Helvetica" font-size="12" lengthAdjust="spacing" textLength="3.8145" x="417.4428" y="455.4043">&#160;</text><text fill="#E8E8E8" font-family="Helvetica" font-size="12" lengthAdjust="spacing" textLength="48.75" x="421.2573" y="455.4043">respond</text><text fill="#E8E8E8" font-family="Helvetica" font-size="12" lengthAdjust="spacing" textLength="36.3984" x="305.06" y="469.373">within</text><text fill="#E8E8E8" font-family="Helvetica" font-size="12" lengthAdjust="spacing" textLength="3.8145" x="341.4584" y="469.373">&#160;</text><text fill="#E8E8E8" font-family="Helvetica" font-size="12" lengthAdjust="spacing" textLength="15.2695" x="345.2729" y="469.373">72</text><text fill="#E8E8E8" font-family="Helvetica" font-size="12" lengthAdjust="spacing" textLength="3.8145" x="360.5424" y="469.373">&#160;</text><text fill="#E8E8E8" font-family="Helvetica" font-size="12" lengthAdjust="spacing" textLength="33.7383" x="364.3569" y="469.373">hours</text></g><!--link *start* to New--><g class="link" data-entity-1=".start." data-entity-2="New" data-source-line="53" data-uid="lnk4" id="link_.start._New"><path d="M792.06,79.5469 C792.06,88.5869 792.06,96.8769 792.06,110.0969" fill="none" id="*start*-to-New" style="stroke:#C0C0C0;stroke-width:0.75;"/><polygon fill="#E8E8E8" points="792.06,116.0969,796.06,107.0969,792.06,111.0969,788.06,107.0969,792.06,116.0969" style="stroke:#C0C0C0;stroke-width:0.75;"/></g><!--link New to Assigned--><g class="link" data-entity-1="New" data-entity-2="Assigned" data-source-line="55" data-uid="lnk6" id="link_New_Assigned"><path d="M760.78,164.9069 C746.23,173.2769 729.97,185.1469 720.06,200.2969 C710.64,214.6869 707.1719,227.4213 705.4719,243.2213" fill="none" id="New-to-Assigned" style="stroke:#C0C0C0;stroke-width:0.75;"/><polygon fill="#E8E8E8" points="704.83,249.1869,709.7698,240.6664,705.3649,244.2156,701.8158,239.8106,704.83,249.1869" style="stroke:#C0C0C0;stroke-width:0.75;"/><text fill="#E8E8E8" font-family="Helvetica" font-size="12" lengthAdjust="spacing" textLength="88.2656" x="729.06" y="220.4355">agent picks up</text></g><!--link New to Cancelled--><g class="link" data-entity-1="New" data-entity-2="Cancelled" data-source-line="56" data-uid="lnk8" id="link_New_Cancelled"><path d="M819.27,182.4869 C823.27,188.1869 827.05,194.2469 830.06,200.2969 C851.68,243.8469 863.3473,293.1691 869.7473,327.3991" fill="none" id="New-to-Cancelled" style="stroke:#C0C0C0;stroke-width:0.75;"/><polygon fill="#E8E8E8" points="870.85,333.2969,873.1278,323.715,869.9311,328.382,865.2641,325.1853,870.85,333.2969" style="stroke:#C0C0C0;stroke-width:0.75;"/><text fill="#E8E8E8" font-family="Helvetica" font-size="12" lengthAdjust="spacing" textLength="105.4453" x="852.06" y="220.4355">customer cancels</text></g><!--link Assigned to InProgress--><g class="link" data-entity-1="Assigned" data-entity-2="InProgress" data-source-line="58" data-uid="lnk9" id="link_Assigned_InProgress"><path d="M704.27,315.4869 C703.91,363.7169 700.58,457.3169 682.06,534.2969 C680.62,540.2469 680.6469,540.4171 679.0569,546.4171" fill="none" id="Assigned-to-InProgress" style="stroke:#C0C0C0;stroke-width:0.75;"/><polygon fill="#E8E8E8" points="677.52,552.2169,683.692,544.5418,678.8008,547.3837,675.9589,542.4925,677.52,552.2169" style="stroke:#C0C0C0;stroke-width:0.75;"/><text fill="#E8E8E8" font-family="Helvetica" font-size="12" lengthAdjust="spacing" textLength="105.5332" x="708.06" y="455.9355">agent starts work</text></g><!--link Assigned to Reassigned--><g class="link" data-entity-1="Assigned" data-entity-2="Reassigned" data-source-line="59" data-uid="lnk11" id="link_Assigned_Reassigned"><path d="M659.03,295.4769 C638.98,303.1469 616.82,315.1269 603.06,333.2969 C584.64,357.5969 580.258,386.738 579.758,412.158" fill="none" id="Assigned-to-Reassigned" style="stroke:#C0C0C0;stroke-width:0.75;"/><polygon fill="#E8E8E8" points="579.64,418.1569,583.8162,409.2373,579.7383,413.1578,575.8178,409.08,579.64,418.1569" style="stroke:#C0C0C0;stroke-width:0.75;"/><text fill="#E8E8E8" font-family="Helvetica" font-size="12" lengthAdjust="spacing" textLength="57.9785" x="612.06" y="370.9355">escalated</text></g><!--link Reassigned to InProgress--><g class="link" data-entity-1="Reassigned" data-entity-2="InProgress" data-source-line="60" data-uid="lnk12" id="link_Reassigned_InProgress"><path d="M565.19,484.3569 C562.73,490.5169 560.53,497.0069 559.06,503.2969 C555.33,519.2269 553.112,529.6961 550.382,546.3261" fill="none" id="Reassigned-to-InProgress" style="stroke:#C0C0C0;stroke-width:0.75;"/><polygon fill="#E8E8E8" points="549.41,552.2469,554.8151,544.0137,550.22,547.3129,546.9208,542.7178,549.41,552.2469" style="stroke:#C0C0C0;stroke-width:0.75;"/><text fill="#E8E8E8" font-family="Helvetica" font-size="12" lengthAdjust="spacing" textLength="101.2969" x="568.06" y="523.4355">new agent starts</text></g><!--link InProgress to PendingCustomer--><g class="link" data-entity-1="InProgress" data-entity-2="PendingCustomer" data-source-line="71" data-uid="lnk26" id="link_InProgress_PendingCustomer"><path d="M383.23,551.8969 C368.12,534.1969 351.75,517.7769 334.06,503.2969 C312.51,485.6669 300.47,494.0969 274.06,485.2969 C268.06,483.2969 267.5113,483.1543 261.3013,480.9743" fill="none" id="InProgress-to-PendingCustomer" style="stroke:#C0C0C0;stroke-width:0.75;"/><polygon fill="#E8E8E8" points="255.64,478.9869,262.807,485.7421,260.3578,480.643,265.4569,478.1937,255.64,478.9869" style="stroke:#C0C0C0;stroke-width:0.75;"/><text fill="#E8E8E8" font-family="Helvetica" font-size="12" lengthAdjust="spacing" textLength="131.2441" x="368.06" y="523.4355">needs customer input</text></g><!--link PendingCustomer to InProgress--><g class="link" data-entity-1="PendingCustomer" data-entity-2="InProgress" data-source-line="72" data-uid="lnk27" id="link_PendingCustomer_InProgress"><path d="M178.88,484.6869 C178.1,501.6469 180.54,521.4969 193.06,534.2969 C235.69,577.8869 277.76,519.3369 329.06,552.2969 C347.53,564.1769 360.4005,574.1013 376.2505,589.7513" fill="none" id="PendingCustomer-to-InProgress" style="stroke:#C0C0C0;stroke-width:0.75;"/><polygon fill="#E8E8E8" points="380.52,593.9669,376.9262,584.7971,376.9621,590.4539,371.3053,590.4898,380.52,593.9669" style="stroke:#C0C0C0;stroke-width:0.75;"/><text fill="#E8E8E8" font-family="Helvetica" font-size="12" lengthAdjust="spacing" textLength="115.3242" x="202.06" y="523.4355">customer responds</text></g><!--link PendingCustomer to Resolved--><g class="link" data-entity-1="PendingCustomer" data-entity-2="Resolved" data-source-line="73" data-uid="lnk29" id="link_PendingCustomer_Resolved"><path d="M171.66,484.5769 C129.81,599.5269 6,994.3269 184.06,1224.2969 C222.05,1273.3669 400.3901,1304.0699 487.4201,1316.4799" fill="none" id="PendingCustomer-to-Resolved" style="stroke:#C0C0C0;stroke-width:0.75;"/><polygon fill="#E8E8E8" points="493.36,1317.3269,485.0148,1312.0964,488.4101,1316.621,483.8855,1320.0163,493.36,1317.3269" style="stroke:#C0C0C0;stroke-width:0.75;"/><text fill="#E8E8E8" font-family="Helvetica" font-size="12" lengthAdjust="spacing" textLength="161.6953" x="193.06" y="892.9355">auto-resolve timeout (72h)</text></g><!--link InProgress to Resolved--><g class="link" data-entity-1="InProgress" data-entity-2="Resolved" data-source-line="75" data-uid="lnk30" id="link_InProgress_Resolved"><path d="M471.92,1224.4469 C471.25,1230.4369 470.63,1236.3969 470.06,1242.2969 C468.73,1256.0069 463.79,1261.0269 470.06,1273.2969 C475.37,1283.7069 479.1921,1288.8275 488.5521,1295.9375" fill="none" id="InProgress-to-Resolved" style="stroke:#C0C0C0;stroke-width:0.75;"/><polygon fill="#E8E8E8" points="493.33,1299.5669,488.5828,1290.9376,489.3485,1296.5424,483.7437,1297.3081,493.33,1299.5669" style="stroke:#C0C0C0;stroke-width:0.75;"/><text fill="#E8E8E8" font-family="Helvetica" font-size="12" lengthAdjust="spacing" textLength="73.8691" x="479.06" y="1262.4355">fix deployed</text></g><!--link Resolved to InProgress--><g class="link" data-entity-1="Resolved" data-entity-2="InProgress" data-source-line="78" data-uid="lnk33" id="link_Resolved_InProgress"><path d="M558.61,1291.0969 C561.27,1285.3569 563.59,1279.2869 565.06,1273.2969 C568.33,1259.9169 565.56,1256.0669 565.06,1242.2969 C564.84,1236.4669 564.8728,1236.5711 564.6128,1230.6411" fill="none" id="Resolved-to-InProgress" style="stroke:#C0C0C0;stroke-width:0.75;"/><polygon fill="#E8E8E8" points="564.35,1224.6469,560.7481,1233.8134,564.569,1229.6421,568.7404,1233.463,564.35,1224.6469" style="stroke:#C0C0C0;stroke-width:0.75;"/><text fill="#E8E8E8" font-family="Helvetica" font-size="12" lengthAdjust="spacing" textLength="166.5293" x="575.06" y="1262.4355">customer disputes (reopen)</text></g><!--link Resolved to Closed--><g class="link" data-entity-1="Resolved" data-entity-2="Closed" data-source-line="77" data-uid="lnk32" id="link_Resolved_Closed"><path d="M584.7,1352.5969 C624.69,1376.5169 676.9909,1407.8067 714.6209,1430.3167" fill="none" id="Resolved-to-Closed" style="stroke:#C0C0C0;stroke-width:0.75;"/><polygon fill="#E8E8E8" points="719.77,1433.3969,714.0998,1425.344,715.4791,1430.8301,709.993,1432.2094,719.77,1433.3969" style="stroke:#C0C0C0;stroke-width:0.75;"/><text fill="#E8E8E8" font-family="Helvetica" font-size="12" lengthAdjust="spacing" textLength="112.3008" x="677.06" y="1395.4355">customer confirms</text></g><!--link Cancelled to *end*--><g class="link" data-entity-1="Cancelled" data-entity-2=".end." data-source-line="80" data-uid="lnk35" id="link_Cancelled_.end."><path d="M877.41,399.5869 C878.57,430.0569 880.06,477.0269 880.06,517.7969 C880.06,517.7969 880.06,517.7969 880.06,1458.2969 C880.06,1488.4469 858.9903,1513.1521 845.9203,1526.0521" fill="none" id="Cancelled-to-*end*" style="stroke:#C0C0C0;stroke-width:0.75;"/><polygon fill="#E8E8E8" points="841.65,1530.2669,850.8653,1526.7916,845.2086,1526.7546,845.2456,1521.0978,841.65,1530.2669" style="stroke:#C0C0C0;stroke-width:0.75;"/></g><!--link Closed to *end*--><g class="link" data-entity-1="Closed" data-entity-2=".end." data-source-line="81" data-uid="lnk36" id="link_Closed_.end."><path d="M788.97,1490.4269 C802.94,1504.9569 814.0794,1516.5337 822.7794,1525.5737" fill="none" id="Closed-to-*end*" style="stroke:#C0C0C0;stroke-width:0.75;"/><polygon fill="#E8E8E8" points="826.94,1529.8969,823.5813,1520.6384,823.4729,1526.2942,817.817,1526.1858,826.94,1529.8969" style="stroke:#C0C0C0;stroke-width:0.75;"/></g><!--link PendingCustomer to GMN2--><g class="link" data-entity-1="PendingCustomer" data-entity-2="GMN2" data-source-line="84" data-uid="lnk4" id="link_PendingCustomer_GMN2"><path d="M255.96,451.2969 C267.66,451.2969 279.35,451.2969 291.05,451.2969" fill="none" id="PendingCustomer-GMN2" style="stroke:#C0C0C0;stroke-width:0.75;stroke-dasharray:7,7;"/></g><!--SRC=[bPRDRXit483l-nHJzD2qg0r7HU0YXmAoKgS6OiUm7EHGz42JiojMknoMdBMa50Nw47t2Fac7gvL5sQgrNi26EFFDBqUp-ie7LJKALFIe-KQnfNExH5F4kNLU1TN0jJB6kWf-p6HdjDmdlbQ1hRPUETwdlhHkKgiOFrl3CtXzSfBfFWVbr_BHA9TVaS4fUlZXJIQyKMxU2x-1jgcFZ5MLAE8nXGe2bXZGQOJ8gnhXtx__aK_1QeQFb-_Xq-K761qlluU67EbPe0OprriXS6XppPtIyofGwyo4QWhmzNdtP8J1KhKrdvFZAoKEVi7w7gKXQZypjLyGNeyoPPmfGulKjbBLCG- -hcHTXHISQNJgw9X5SzSoNcXodT-yXn7_Q5C_BZ56LU6ujfK3ZOunP5HVMd0On3fJZ3LJE3jOVNRvX-4hOZnCJVl4tmlbXsIWvrBVOR2RmiFOnxlVvKin84rMGwhv556hE2GzQZmv7D97kHjxRtarfEDcGEXtYjNTe2IdCZr8lF8uUGbyyH9u_1Buv_-3zmpK1rlAdyCp2WP3ZvzqptFqu87TzNyxithkvCi79yUdR_RWtIsctUk6XyXi1XKn3e4MWw23wShs7z3hPmC-7-ZTUadUuf9t7HHiMVRWjFMU0iEjs2D3whPUwHgBujVlVeEZev_W2XT58V-wmpX6sNXeu2t8Ud0CNkmYjFw1c2WfgwuxHBUHPVq7q9qm5iM3VK8lt7MWAgIiD-uYo-gBiA0mtsLlK6r3OzIgbaLXYapynAEJZ7Alqj6qNNBepmBasLHwuUunigra55pLQNOaVHu-a6brEhy5QyIzBQs4Zum-TaOvaapaLy2Q3aGihMWZGfdkkwDxRG9lKwoEBEqIbFUrEEwWZUP9biAodEGbP-izRAgi9xmqIeY_YYAhFp7NwDBFYydchbBZqCJjvSaejLmynfwq-u6Ni-nS4_UQt60aUPLt0zGo7ONr6TWsI2t3gzFHxDidEMPMgJK6VKqhgQPuK7IZLrDyD7VaIXkQkCljJzlOA7LYX5Uo1JqwoM8xotqpYpx4vbWuUVb2iDMCWSh7hPJhcAvaBfgTKYFOKZJRk2GYyRFfc-WMbcVMmUa8PjI6M8ZRHE1_]--></g></svg>