<svg xmlns="http://www.w3.org/2000/svg" xmlns:xlink="http://www.w3.org/1999/xlink" contentStyleType="text/css" data-diagram-type="STATE" height="1609px" preserveAspectRatio="none" style="width:986px;height:1609px;background:#FFFFFF;" version="1.1" viewBox="0 0 986 1609" width="986px" zoomAndPan="magnify"><?plantuml 1.2026.6?><defs/><g><g class="title" data-source-line="47"><text fill="#000000" font-family="Helvetica" font-size="14" font-weight="700" lengthAdjust="spacing" textLength="190.5244" x="394.2854" y="30.9951">Support Ticket Lifecycle</text></g><rect fill="#FFFFCC" height="38.2813" rx="2.5" ry="2.5" style="stroke:#FFDD88;stroke-width:3;" width="970.0953" x="3" y="56.2969"/><text fill="#000000" font-family="monospace" font-size="10" lengthAdjust="spacing" textLength="295.0049" x="10" y="66.9375">Please&#160;use&#160;CSS&#160;style&#160;instead&#160;of&#160;skinparam&#160;padding</text><text fill="#000000" font-family="monospace" font-size="10" lengthAdjust="spacing" textLength="361.2305" x="10" y="88.5781">Please&#160;use&#160;CSS&#160;style&#160;instead&#160;of&#160;skinparam&#160;ParticipantPadding</text><g class="entity" data-qualified-name="InProgress" data-source-line="58" id="ent0001"><rect fill="#FFFFFF" height="39.9688" style="stroke:#FFFFFF;stroke-width:1;" width="330.7055" x="381.09" y="595.3881"/><rect fill="#FFFFFF" height="634.88" style="stroke:#FFFFFF;stroke-width:1;" width="330.7055" x="381.09" y="635.3569"/><rect fill="none" height="674.8488" style="stroke:#000000;stroke-width:0.75;" width="330.7055" x="381.09" y="595.3881"/><line style="stroke:#000000;stroke-width:0.75;" x1="381.09" x2="711.7955" y1="635.3569" y2="635.3569"/><text fill="#000000" font-family="Helvetica" font-size="12" lengthAdjust="spacing" textLength="63.0938" x="514.8959" y="619.5268">InProgress</text><g class="start_entity" data-qualified-name="InProgress..start.InProgress" data-source-line="59" id="ent0013"><ellipse cx="519.09" cy="656.3569" fill="#FFFFFF" rx="10" ry="10" style="stroke:#000000;stroke-width:0.75;"/></g><g class="entity" data-qualified-name="InProgress.Investigating" data-source-line="59" id="ent0014"><rect fill="#FFFFFF" height="65.9688" style="stroke:#000000;stroke-width:0.75;" width="114.1523" x="462.01" y="703.3569"/><line style="stroke:#000000;stroke-width:0.75;" x1="462.01" x2="576.1623" y1="743.3256" y2="743.3256"/><text fill="#000000" font-family="Helvetica" font-size="12" lengthAdjust="spacing" textLength="78.1523" x="480.01" y="727.4955">Investigating</text></g><g class="entity" data-qualified-name="InProgress.Reproducing" data-source-line="60" id="ent0016"><rect fill="#FFFFFF" height="65.9688" style="stroke:#000000;stroke-width:0.75;" width="111.9902" x="393.09" y="836.3269"/><line style="stroke:#000000;stroke-width:0.75;" x1="393.09" x2="505.0802" y1="876.2956" y2="876.2956"/><text fill="#000000" font-family="Helvetica" font-size="12" lengthAdjust="spacing" textLength="75.9902" x="411.09" y="860.4655">Reproducing</text></g><g class="entity" data-qualified-name="InProgress.Fixing" data-source-line="61" id="ent0018"><rect fill="#FFFFFF" height="65.9688" style="stroke:#000000;stroke-width:0.75;" width="71.8945" x="431.14" y="969.2969"/><line style="stroke:#000000;stroke-width:0.75;" x1="431.14" x2="503.0345" y1="1009.2656" y2="1009.2656"/><text fill="#000000" font-family="Helvetica" font-size="12" lengthAdjust="spacing" textLength="35.8945" x="449.14" y="993.4355">Fixing</text></g><g class="entity" data-qualified-name="InProgress.Testing" data-source-line="62" id="ent0020"><rect fill="#FFFFFF" height="65.9688" style="stroke:#000000;stroke-width:0.75;" width="80.2266" x="485.97" y="1102.2669"/><line style="stroke:#000000;stroke-width:0.75;" x1="485.97" x2="566.1966" y1="1142.2356" y2="1142.2356"/><text fill="#000000" font-family="Helvetica" font-size="12" lengthAdjust="spacing" textLength="44.2266" x="503.97" y="1126.4055">Testing</text></g><g class="end_entity" data-qualified-name="InProgress..end.InProgress" data-source-line="64" id="ent0023"><ellipse cx="526.09" cy="1246.2369" fill="none" rx="11" ry="11" style="stroke:#000000;stroke-width:0.75;"/><ellipse cx="526.09" cy="1246.2369" fill="#FFFFFF" rx="6" ry="6" style="stroke:#000000;stroke-width:1;"/></g><!--link *start*InProgress to Investigating--><g class="link" data-entity-1="ent0013" data-entity-2="ent0014" data-link-type="dependency" data-source-line="59" id="lnk15"><path d="M519.09,666.6169 C519.09,675.6469 519.09,684.9369 519.09,698.1469" fill="none" id="*start*InProgress-to-Investigating" style="stroke:#000000;stroke-width:0.75;"/><polygon fill="#000000" points="519.09,703.1469,523.09,694.1469,519.09,698.1469,515.09,694.1469,519.09,703.1469" style="stroke:#000000;stroke-width:0.75;stroke-linejoin:miter;stroke-miterlimit:10;"/></g><!--link Investigating to Reproducing--><g class="link" data-entity-1="ent0014" data-entity-2="ent0016" data-link-type="dependency" data-source-line="60" id="lnk17"><path d="M475.33,769.6869 C470.22,775.0769 465.59,780.9969 462.09,787.3269 C453.96,802.0369 450.9774,815.4043 449.6774,830.9243" fill="none" id="Investigating-to-Reproducing" style="stroke:#000000;stroke-width:0.75;"/><polygon fill="#000000" points="449.26,835.9069,453.9973,827.2722,449.6774,830.9243,446.0252,826.6044,449.26,835.9069" style="stroke:#000000;stroke-width:0.75;stroke-linejoin:miter;stroke-miterlimit:10;"/><text fill="#000000" font-family="Helvetica" font-size="12" lengthAdjust="spacing" textLength="56.5371" x="471.09" y="807.4655">identified</text><text fill="#000000" font-family="Helvetica" font-size="12" lengthAdjust="spacing" textLength="3.8145" x="527.6271" y="807.4655">&#160;</text><text fill="#000000" font-family="Helvetica" font-size="12" lengthAdjust="spacing" textLength="32.209" x="531.4416" y="807.4655">steps</text></g><!--link Reproducing to Fixing--><g class="link" data-entity-1="ent0016" data-entity-2="ent0018" data-link-type="dependency" data-source-line="61" id="lnk19"><path d="M443.75,902.5369 C442.22,917.5069 441.75,935.4569 445.09,951.2969 C446.31,957.1469 446.4397,958.4839 448.6897,964.2039" fill="none" id="Reproducing-to-Fixing" style="stroke:#000000;stroke-width:0.75;"/><polygon fill="#000000" points="450.52,968.8569,450.9479,959.0173,448.6897,964.2039,443.5031,961.9458,450.52,968.8569" style="stroke:#000000;stroke-width:0.75;stroke-linejoin:miter;stroke-miterlimit:10;"/><text fill="#000000" font-family="Helvetica" font-size="12" lengthAdjust="spacing" textLength="24.3223" x="454.09" y="940.4355">root</text><text fill="#000000" font-family="Helvetica" font-size="12" lengthAdjust="spacing" textLength="3.8145" x="478.4123" y="940.4355">&#160;</text><text fill="#000000" font-family="Helvetica" font-size="12" lengthAdjust="spacing" textLength="35.1914" x="482.2267" y="940.4355">cause</text><text fill="#000000" font-family="Helvetica" font-size="12" lengthAdjust="spacing" textLength="3.8145" x="517.4181" y="940.4355">&#160;</text><text fill="#000000" font-family="Helvetica" font-size="12" lengthAdjust="spacing" textLength="34.3945" x="521.2326" y="940.4355">found</text></g><!--link Fixing to Testing--><g class="link" data-entity-1="ent0018" data-entity-2="ent0020" data-link-type="dependency" data-source-line="62" id="lnk21"><path d="M474.7,1035.6569 C478.86,1050.8169 484.69,1068.8869 492.09,1084.2669 C494.95,1090.2269 495.7766,1092.0643 499.4466,1097.8043" fill="none" id="Fixing-to-Testing" style="stroke:#000000;stroke-width:0.75;"/><polygon fill="#000000" points="502.14,1102.0169,500.6619,1092.2796,499.4466,1097.8043,493.9218,1096.589,502.14,1102.0169" style="stroke:#000000;stroke-width:0.75;stroke-linejoin:miter;stroke-miterlimit:10;"/><text fill="#000000" font-family="Helvetica" font-size="12" lengthAdjust="spacing" textLength="14.6602" x="501.09" y="1073.4055">fix</text><text fill="#000000" font-family="Helvetica" font-size="12" lengthAdjust="spacing" textLength="3.8145" x="515.7502" y="1073.4055">&#160;</text><text fill="#000000" font-family="Helvetica" font-size="12" lengthAdjust="spacing" textLength="44.2559" x="519.5646" y="1073.4055">applied</text></g><!--link Testing to Investigating--><g class="link" data-entity-1="ent0020" data-entity-2="ent0014" data-link-type="dependency" data-source-line="63" id="lnk22"><path d="M561.83,1101.9469 C566.01,1096.4869 569.64,1090.5269 572.09,1084.2669 C620.05,961.3169 624.37,908.5069 572.09,787.3269 C569.33,780.9469 568.5529,778.8026 563.9429,773.3926" fill="none" id="Testing-to-Investigating" style="stroke:#000000;stroke-width:0.75;"/><polygon fill="#000000" points="560.7,769.5869,563.4927,779.0315,563.9429,773.3926,569.5818,773.8428,560.7,769.5869" style="stroke:#000000;stroke-width:0.75;stroke-linejoin:miter;stroke-miterlimit:10;"/><text fill="#000000" font-family="Helvetica" font-size="12" lengthAdjust="spacing" textLength="23.0449" x="618.69" y="940.4355">test</text><text fill="#000000" font-family="Helvetica" font-size="12" lengthAdjust="spacing" textLength="3.8145" x="641.7349" y="940.4355">&#160;</text><text fill="#000000" font-family="Helvetica" font-size="12" lengthAdjust="spacing" textLength="33.2461" x="645.5494" y="940.4355">failed</text></g><!--link Testing to *end*InProgress--><g class="link" data-entity-1="ent0020" data-entity-2="ent0023" data-link-type="dependency" data-source-line="64" id="lnk24"><path d="M526.09,1168.6569 C526.09,1191.2469 526.09,1214.9269 526.09,1229.9669" fill="none" id="Testing-to-*end*InProgress" style="stroke:#000000;stroke-width:0.75;"/><polygon fill="#000000" points="526.09,1234.9669,530.09,1225.9669,526.09,1229.9669,522.09,1225.9669,526.09,1234.9669" style="stroke:#000000;stroke-width:0.75;stroke-linejoin:miter;stroke-miterlimit:10;"/><text fill="#000000" font-family="Helvetica" font-size="12" lengthAdjust="spacing" textLength="23.0449" x="535.09" y="1206.3755">test</text><text fill="#000000" font-family="Helvetica" font-size="12" lengthAdjust="spacing" textLength="3.8145" x="558.1349" y="1206.3755">&#160;</text><text fill="#000000" font-family="Helvetica" font-size="12" lengthAdjust="spacing" textLength="42.4746" x="561.9494" y="1206.3755">passed</text></g></g><g class="start_entity" data-qualified-name=".start." data-source-line="49" id="ent0002"><ellipse cx="796.44" cy="112.5781" fill="#FFFFFF" rx="10" ry="10" style="stroke:#000000;stroke-width:0.75;"/></g><g class="entity" data-qualified-name="New" data-source-line="49" id="ent0003"><rect fill="#FFFFFF" height="65.9688" style="stroke:#000000;stroke-width:0.75;" width="62.1738" x="765.35" y="159.5781"/><line style="stroke:#000000;stroke-width:0.75;" x1="765.35" x2="827.5238" y1="199.5469" y2="199.5469"/><text fill="#000000" font-family="Helvetica" font-size="12" lengthAdjust="spacing" textLength="26.1738" x="783.35" y="183.7168">New</text></g><g class="entity" data-qualified-name="Assigned" data-source-line="51" id="ent0005"><rect fill="#FFFFFF" height="65.9688" style="stroke:#000000;stroke-width:0.75;" width="90.2695" x="663.31" y="292.5481"/><line style="stroke:#000000;stroke-width:0.75;" x1="663.31" x2="753.5795" y1="332.5169" y2="332.5169"/><text fill="#000000" font-family="Helvetica" font-size="12" lengthAdjust="spacing" textLength="54.2695" x="681.31" y="316.6868">Assigned</text></g><g class="entity" data-qualified-name="Cancelled" data-source-line="52" id="ent0007"><rect fill="#FFFFFF" height="65.9688" style="stroke:#000000;stroke-width:0.75;" width="94.9863" x="832.95" y="376.5181"/><line style="stroke:#000000;stroke-width:0.75;" x1="832.95" x2="927.9363" y1="416.4869" y2="416.4869"/><text fill="#000000" font-family="Helvetica" font-size="12" lengthAdjust="spacing" textLength="58.9863" x="850.95" y="400.6568">Cancelled</text></g><g class="entity" data-qualified-name="Reassigned" data-source-line="55" id="ent0010"><rect fill="#FFFFFF" height="65.9688" style="stroke:#000000;stroke-width:0.75;" width="105.1348" x="532.87" y="461.4581"/><line style="stroke:#000000;stroke-width:0.75;" x1="532.87" x2="638.0048" y1="501.4269" y2="501.4269"/><text fill="#000000" font-family="Helvetica" font-size="12" lengthAdjust="spacing" textLength="69.1348" x="550.87" y="485.5968">Reassigned</text></g><g class="entity" data-qualified-name="PendingCustomer" data-source-line="67" id="ent0025"><rect fill="#FFFFFF" height="65.9688" style="stroke:#000000;stroke-width:0.75;" width="142.6875" x="118.1" y="461.4581"/><line style="stroke:#000000;stroke-width:0.75;" x1="118.1" x2="260.7875" y1="501.4269" y2="501.4269"/><text fill="#000000" font-family="Helvetica" font-size="12" lengthAdjust="spacing" textLength="106.6875" x="136.1" y="485.5968">PendingCustomer</text></g><g class="entity" data-qualified-name="Resolved" data-source-line="69" id="ent0028"><rect fill="#FFFFFF" height="65.9688" style="stroke:#000000;stroke-width:0.75;" width="90.75" x="501.07" y="1337.2381"/><line style="stroke:#000000;stroke-width:0.75;" x1="501.07" x2="591.82" y1="1377.2069" y2="1377.2069"/><text fill="#000000" font-family="Helvetica" font-size="12" lengthAdjust="spacing" textLength="54.75" x="519.07" y="1361.3768">Resolved</text></g><g class="entity" data-qualified-name="Closed" data-source-line="73" id="ent0031"><rect fill="#FFFFFF" height="65.9688" style="stroke:#000000;stroke-width:0.75;" width="76.3066" x="724.29" y="1470.2081"/><line style="stroke:#000000;stroke-width:0.75;" x1="724.29" x2="800.5966" y1="1510.1769" y2="1510.1769"/><text fill="#000000" font-family="Helvetica" font-size="12" lengthAdjust="spacing" textLength="40.3066" x="742.29" y="1494.3468">Closed</text></g><g class="end_entity" data-qualified-name=".end." data-source-line="76" id="ent0034"><ellipse cx="838.44" cy="1584.1781" fill="none" rx="11" ry="11" style="stroke:#000000;stroke-width:0.75;"/><ellipse cx="838.44" cy="1584.1781" fill="#FFFFFF" rx="6" ry="6" style="stroke:#000000;stroke-width:1;"/></g><g class="entity" data-qualified-name="GMN37" data-source-line="80" id="ent0038"><path d="M295.47,460.4881 L295.47,528.3944 L497.4173,528.3944 L497.4173,470.4881 L487.4173,460.4881 L295.47,460.4881" fill="#FFFFFF" style="stroke:#000000;stroke-width:0.75;"/><path d="M487.4173,460.4881 L487.4173,470.4881 L497.4173,470.4881 L487.4173,460.4881" fill="#FFFFFF" style="stroke:#000000;stroke-width:1;"/><text fill="#000000" font-family="Helvetica" font-size="12" lengthAdjust="spacing" textLength="44.748" x="309.47" y="484.6268">System</text><text fill="#000000" font-family="Helvetica" font-size="12" lengthAdjust="spacing" textLength="3.8145" x="354.218" y="484.6268">&#160;</text><text fill="#000000" font-family="Helvetica" font-size="12" lengthAdjust="spacing" textLength="81.3164" x="358.0325" y="484.6268">auto-resolves</text><text fill="#000000" font-family="Helvetica" font-size="12" lengthAdjust="spacing" textLength="3.8145" x="439.3489" y="484.6268">&#160;</text><text fill="#000000" font-family="Helvetica" font-size="12" lengthAdjust="spacing" textLength="7.5586" x="443.1634" y="484.6268">if</text><text fill="#000000" font-family="Helvetica" font-size="12" lengthAdjust="spacing" textLength="56.5078" x="309.47" y="498.5955">customer</text><text fill="#000000" font-family="Helvetica" font-size="12" lengthAdjust="spacing" textLength="3.8145" x="365.9778" y="498.5955">&#160;</text><text fill="#000000" font-family="Helvetica" font-size="12" lengthAdjust="spacing" textLength="28.5938" x="369.7923" y="498.5955">does</text><text fill="#000000" font-family="Helvetica" font-size="12" lengthAdjust="spacing" textLength="3.8145" x="398.386" y="498.5955">&#160;</text><text fill="#000000" font-family="Helvetica" font-size="12" lengthAdjust="spacing" textLength="19.6523" x="402.2005" y="498.5955">not</text><text fill="#000000" font-family="Helvetica" font-size="12" lengthAdjust="spacing" textLength="3.8145" x="421.8528" y="498.5955">&#160;</text><text fill="#000000" font-family="Helvetica" font-size="12" lengthAdjust="spacing" textLength="48.75" x="425.6673" y="498.5955">respond</text><text fill="#000000" font-family="Helvetica" font-size="12" lengthAdjust="spacing" textLength="36.3984" x="309.47" y="512.5643">within</text><text fill="#000000" font-family="Helvetica" font-size="12" lengthAdjust="spacing" textLength="3.8145" x="345.8684" y="512.5643">&#160;</text><text fill="#000000" font-family="Helvetica" font-size="12" lengthAdjust="spacing" textLength="15.2695" x="349.6829" y="512.5643">72</text><text fill="#000000" font-family="Helvetica" font-size="12" lengthAdjust="spacing" textLength="3.8145" x="364.9524" y="512.5643">&#160;</text><text fill="#000000" font-family="Helvetica" font-size="12" lengthAdjust="spacing" textLength="33.7383" x="368.7669" y="512.5643">hours</text></g><!--link *start* to New--><g class="link" data-entity-1="ent0002" data-entity-2="ent0003" data-link-type="dependency" data-source-line="49" id="lnk4"><path d="M796.44,122.8281 C796.44,131.8681 796.44,141.1581 796.44,154.3681" fill="none" id="*start*-to-New" style="stroke:#000000;stroke-width:0.75;"/><polygon fill="#000000" points="796.44,159.3681,800.44,150.3681,796.44,154.3681,792.44,150.3681,796.44,159.3681" style="stroke:#000000;stroke-width:0.75;stroke-linejoin:miter;stroke-miterlimit:10;"/></g><!--link New to Assigned--><g class="link" data-entity-1="ent0003" data-entity-2="ent0005" data-link-type="dependency" data-source-line="51" id="lnk6"><path d="M765.17,208.1681 C750.61,216.5281 734.36,228.3981 724.44,243.5481 C715.02,257.9381 711.4549,271.6568 709.7549,287.4568" fill="none" id="New-to-Assigned" style="stroke:#000000;stroke-width:0.75;"/><polygon fill="#000000" points="709.22,292.4281,714.1598,283.9077,709.7549,287.4568,706.2058,283.0519,709.22,292.4281" style="stroke:#000000;stroke-width:0.75;stroke-linejoin:miter;stroke-miterlimit:10;"/><text fill="#000000" font-family="Helvetica" font-size="12" lengthAdjust="spacing" textLength="34.6641" x="733.44" y="263.6868">agent</text><text fill="#000000" font-family="Helvetica" font-size="12" lengthAdjust="spacing" textLength="3.8145" x="768.1041" y="263.6868">&#160;</text><text fill="#000000" font-family="Helvetica" font-size="12" lengthAdjust="spacing" textLength="30.75" x="771.9185" y="263.6868">picks</text><text fill="#000000" font-family="Helvetica" font-size="12" lengthAdjust="spacing" textLength="3.8145" x="802.6685" y="263.6868">&#160;</text><text fill="#000000" font-family="Helvetica" font-size="12" lengthAdjust="spacing" textLength="15.2227" x="806.483" y="263.6868">up</text></g><!--link New to Cancelled--><g class="link" data-entity-1="ent0003" data-entity-2="ent0007" data-link-type="dependency" data-source-line="52" id="lnk8"><path d="M823.85,226.0181 C827.78,231.6381 831.48,237.5881 834.44,243.5481 C856,286.9481 867.8286,337.0438 874.2486,371.2838" fill="none" id="New-to-Cancelled" style="stroke:#000000;stroke-width:0.75;"/><polygon fill="#000000" points="875.17,376.1981,877.4429,366.6151,874.2486,371.2838,869.5799,368.0894,875.17,376.1981" style="stroke:#000000;stroke-width:0.75;stroke-linejoin:miter;stroke-miterlimit:10;"/><text fill="#000000" font-family="Helvetica" font-size="12" lengthAdjust="spacing" textLength="56.5078" x="856.65" y="263.6868">customer</text><text fill="#000000" font-family="Helvetica" font-size="12" lengthAdjust="spacing" textLength="3.8145" x="913.1578" y="263.6868">&#160;</text><text fill="#000000" font-family="Helvetica" font-size="12" lengthAdjust="spacing" textLength="45.123" x="916.9723" y="263.6868">cancels</text></g><!--link Assigned to InProgress--><g class="link" data-entity-1="ent0005" data-entity-2="ent0001" data-link-type="dependency" data-source-line="54" id="lnk9"><path d="M708.56,358.6781 C708.09,406.8681 704.62,500.3781 686.44,577.3881 C685.04,583.3481 684.8062,584.4985 683.2462,590.5085" fill="none" id="Assigned-to-InProgress" style="stroke:#000000;stroke-width:0.75;"/><polygon fill="#000000" points="681.99,595.3481,688.1229,587.6418,683.2462,590.5085,680.3795,585.6318,681.99,595.3481" style="stroke:#000000;stroke-width:0.75;stroke-linejoin:miter;stroke-miterlimit:10;"/><text fill="#000000" font-family="Helvetica" font-size="12" lengthAdjust="spacing" textLength="34.6641" x="712.57" y="499.0768">agent</text><text fill="#000000" font-family="Helvetica" font-size="12" lengthAdjust="spacing" textLength="3.8145" x="747.2341" y="499.0768">&#160;</text><text fill="#000000" font-family="Helvetica" font-size="12" lengthAdjust="spacing" textLength="34.2012" x="751.0485" y="499.0768">starts</text><text fill="#000000" font-family="Helvetica" font-size="12" lengthAdjust="spacing" textLength="3.8145" x="785.2497" y="499.0768">&#160;</text><text fill="#000000" font-family="Helvetica" font-size="12" lengthAdjust="spacing" textLength="29.0391" x="789.0641" y="499.0768">work</text></g><!--link Assigned to Reassigned--><g class="link" data-entity-1="ent0005" data-entity-2="ent0010" data-link-type="dependency" data-source-line="55" id="lnk11"><path d="M662.9,338.8981 C642.98,346.5781 621.09,358.5081 607.44,376.5181 C589.1,400.7181 584.6764,430.6793 584.1364,456.0593" fill="none" id="Assigned-to-Reassigned" style="stroke:#000000;stroke-width:0.75;"/><polygon fill="#000000" points="584.03,461.0581,588.2205,452.1452,584.1364,456.0593,580.2224,451.9751,584.03,461.0581" style="stroke:#000000;stroke-width:0.75;stroke-linejoin:miter;stroke-miterlimit:10;"/><text fill="#000000" font-family="Helvetica" font-size="12" lengthAdjust="spacing" textLength="57.9785" x="616.44" y="414.1368">escalated</text></g><!--link Reassigned to InProgress--><g class="link" data-entity-1="ent0010" data-entity-2="ent0001" data-link-type="dependency" data-source-line="56" id="lnk12"><path d="M569.43,527.7381 C567.02,533.8081 564.87,540.1981 563.44,546.3881 C559.8,562.2181 557.4861,573.5703 554.8561,590.0903" fill="none" id="Reassigned-to-InProgress" style="stroke:#000000;stroke-width:0.75;"/><polygon fill="#000000" points="554.07,595.0281,559.4352,586.7689,554.8561,590.0903,551.5347,585.5112,554.07,595.0281" style="stroke:#000000;stroke-width:0.75;stroke-linejoin:miter;stroke-miterlimit:10;"/><text fill="#000000" font-family="Helvetica" font-size="12" lengthAdjust="spacing" textLength="24.8027" x="572.44" y="566.5268">new</text><text fill="#000000" font-family="Helvetica" font-size="12" lengthAdjust="spacing" textLength="3.8145" x="597.2427" y="566.5268">&#160;</text><text fill="#000000" font-family="Helvetica" font-size="12" lengthAdjust="spacing" textLength="34.6641" x="601.0572" y="566.5268">agent</text><text fill="#000000" font-family="Helvetica" font-size="12" lengthAdjust="spacing" textLength="3.8145" x="635.7212" y="566.5268">&#160;</text><text fill="#000000" font-family="Helvetica" font-size="12" lengthAdjust="spacing" textLength="34.2012" x="639.5357" y="566.5268">starts</text></g><!--link InProgress to PendingCustomer--><g class="link" data-entity-1="ent0001" data-entity-2="ent0025" data-link-type="dependency" data-source-line="67" id="lnk26"><path d="M388.07,595.1581 C372.79,577.3981 356.27,560.9181 338.44,546.3881 C316.86,528.8081 304.84,537.2281 278.44,528.3881 C272.82,526.5081 271.7235,526.1765 265.9035,524.1165" fill="none" id="InProgress-to-PendingCustomer" style="stroke:#000000;stroke-width:0.75;"/><polygon fill="#000000" points="261.19,522.4481,268.3395,529.2219,265.9035,524.1165,271.0089,521.6804,261.19,522.4481" style="stroke:#000000;stroke-width:0.75;stroke-linejoin:miter;stroke-miterlimit:10;"/><text fill="#000000" font-family="Helvetica" font-size="12" lengthAdjust="spacing" textLength="36.2402" x="373.6" y="566.5268">needs</text><text fill="#000000" font-family="Helvetica" font-size="12" lengthAdjust="spacing" textLength="3.8145" x="409.8402" y="566.5268">&#160;</text><text fill="#000000" font-family="Helvetica" font-size="12" lengthAdjust="spacing" textLength="56.5078" x="413.6547" y="566.5268">customer</text><text fill="#000000" font-family="Helvetica" font-size="12" lengthAdjust="spacing" textLength="3.8145" x="470.1625" y="566.5268">&#160;</text><text fill="#000000" font-family="Helvetica" font-size="12" lengthAdjust="spacing" textLength="30.8672" x="473.977" y="566.5268">input</text></g><!--link PendingCustomer to InProgress--><g class="link" data-entity-1="ent0025" data-entity-2="ent0001" data-link-type="dependency" data-source-line="68" id="lnk27"><path d="M183.83,527.7581 C182.83,544.6981 185.02,564.5381 197.44,577.3881 C239.81,621.2381 282.08,562.5381 333.44,595.3881 C350.33,606.1881 362.5021,615.4274 377.2321,629.3974" fill="none" id="PendingCustomer-to-InProgress" style="stroke:#000000;stroke-width:0.75;"/><polygon fill="#000000" points="380.86,632.8381,377.0824,623.7425,377.2321,629.3974,371.5772,629.5472,380.86,632.8381" style="stroke:#000000;stroke-width:0.75;stroke-linejoin:miter;stroke-miterlimit:10;"/><text fill="#000000" font-family="Helvetica" font-size="12" lengthAdjust="spacing" textLength="56.5078" x="206.44" y="566.5268">customer</text><text fill="#000000" font-family="Helvetica" font-size="12" lengthAdjust="spacing" textLength="3.8145" x="262.9478" y="566.5268">&#160;</text><text fill="#000000" font-family="Helvetica" font-size="12" lengthAdjust="spacing" textLength="55.002" x="266.7623" y="566.5268">responds</text></g><!--link PendingCustomer to Resolved--><g class="link" data-entity-1="ent0025" data-entity-2="ent0028" data-link-type="dependency" data-source-line="69" id="lnk29"><path d="M176.7,527.8181 C133.66,643.1481 6,1039.2281 184.44,1270.2381 C223.23,1320.4481 407.5456,1350.8746 495.8956,1362.8846" fill="none" id="PendingCustomer-to-Resolved" style="stroke:#000000;stroke-width:0.75;"/><polygon fill="#000000" points="500.85,1363.5581,492.4708,1358.3823,495.8956,1362.8846,491.3932,1366.3094,500.85,1363.5581" style="stroke:#000000;stroke-width:0.75;stroke-linejoin:miter;stroke-miterlimit:10;"/><text fill="#000000" font-family="Helvetica" font-size="12" lengthAdjust="spacing" textLength="75.0645" x="193.44" y="937.4568">auto-resolve</text><text fill="#000000" font-family="Helvetica" font-size="12" lengthAdjust="spacing" textLength="3.8145" x="268.5045" y="937.4568">&#160;</text><text fill="#000000" font-family="Helvetica" font-size="12" lengthAdjust="spacing" textLength="46.7637" x="272.3189" y="937.4568">timeout</text><text fill="#000000" font-family="Helvetica" font-size="12" lengthAdjust="spacing" textLength="3.8145" x="319.0826" y="937.4568">&#160;</text><text fill="#000000" font-family="Helvetica" font-size="12" lengthAdjust="spacing" textLength="32.2383" x="322.897" y="937.4568">(72h)</text></g><!--link InProgress to Resolved--><g class="link" data-entity-1="ent0001" data-entity-2="ent0028" data-link-type="dependency" data-source-line="71" id="lnk30"><path d="M479.31,1270.3281 C478.64,1276.3381 478.01,1282.3081 477.44,1288.2381 C476.12,1301.9581 471.18,1306.9681 477.44,1319.2381 C482.75,1329.6481 487.3785,1335.3737 496.7385,1342.4837" fill="none" id="InProgress-to-Resolved" style="stroke:#000000;stroke-width:0.75;"/><polygon fill="#000000" points="500.72,1345.5081,495.9728,1336.8789,496.7385,1342.4837,491.1337,1343.2494,500.72,1345.5081" style="stroke:#000000;stroke-width:0.75;stroke-linejoin:miter;stroke-miterlimit:10;"/><text fill="#000000" font-family="Helvetica" font-size="12" lengthAdjust="spacing" textLength="14.6602" x="486.44" y="1308.3768">fix</text><text fill="#000000" font-family="Helvetica" font-size="12" lengthAdjust="spacing" textLength="3.8145" x="501.1002" y="1308.3768">&#160;</text><text fill="#000000" font-family="Helvetica" font-size="12" lengthAdjust="spacing" textLength="55.3945" x="504.9146" y="1308.3768">deployed</text></g><!--link Resolved to InProgress--><g class="link" data-entity-1="ent0028" data-entity-2="ent0001" data-link-type="dependency" data-source-line="74" id="lnk33"><path d="M566.12,1336.7681 C568.73,1331.0981 571,1325.1281 572.44,1319.2381 C575.71,1305.8581 572.95,1302.0081 572.44,1288.2381 C572.23,1282.3881 572.1999,1281.4637 571.9499,1275.5137" fill="none" id="Resolved-to-InProgress" style="stroke:#000000;stroke-width:0.75;"/><polygon fill="#000000" points="571.74,1270.5181,568.1213,1279.6781,571.9499,1275.5137,576.1143,1279.3423,571.74,1270.5181" style="stroke:#000000;stroke-width:0.75;stroke-linejoin:miter;stroke-miterlimit:10;"/><text fill="#000000" font-family="Helvetica" font-size="12" lengthAdjust="spacing" textLength="56.5078" x="583.01" y="1308.3768">customer</text><text fill="#000000" font-family="Helvetica" font-size="12" lengthAdjust="spacing" textLength="3.8145" x="639.5178" y="1308.3768">&#160;</text><text fill="#000000" font-family="Helvetica" font-size="12" lengthAdjust="spacing" textLength="50.7656" x="643.3323" y="1308.3768">disputes</text><text fill="#000000" font-family="Helvetica" font-size="12" lengthAdjust="spacing" textLength="3.8145" x="694.0979" y="1308.3768">&#160;</text><text fill="#000000" font-family="Helvetica" font-size="12" lengthAdjust="spacing" textLength="51.627" x="697.9123" y="1308.3768">(reopen)</text></g><!--link Resolved to Closed--><g class="link" data-entity-1="ent0028" data-entity-2="ent0031" data-link-type="dependency" data-source-line="73" id="lnk32"><path d="M592.25,1398.9981 C631.38,1422.7281 682.7644,1453.8859 719.6444,1476.2459" fill="none" id="Resolved-to-Closed" style="stroke:#000000;stroke-width:0.75;"/><polygon fill="#000000" points="723.92,1478.8381,718.2978,1470.7517,719.6444,1476.2459,714.1502,1477.5926,723.92,1478.8381" style="stroke:#000000;stroke-width:0.75;stroke-linejoin:miter;stroke-miterlimit:10;"/><text fill="#000000" font-family="Helvetica" font-size="12" lengthAdjust="spacing" textLength="56.5078" x="682.79" y="1441.3468">customer</text><text fill="#000000" font-family="Helvetica" font-size="12" lengthAdjust="spacing" textLength="3.8145" x="739.2978" y="1441.3468">&#160;</text><text fill="#000000" font-family="Helvetica" font-size="12" lengthAdjust="spacing" textLength="51.9785" x="743.1123" y="1441.3468">confirms</text></g><!--link Cancelled to *end*--><g class="link" data-entity-1="ent0007" data-entity-2="ent0034" data-link-type="dependency" data-source-line="76" id="lnk35"><path d="M881.8,442.7681 C882.96,473.2181 884.44,520.1481 884.44,560.8881 C884.44,560.8881 884.44,560.8881 884.44,1504.1981 C884.44,1534.3481 862.6573,1559.7344 849.5973,1572.6344" fill="none" id="Cancelled-to-*end*" style="stroke:#000000;stroke-width:0.75;"/><polygon fill="#000000" points="846.04,1576.1481,855.254,1572.6693,849.5973,1572.6344,849.6321,1566.9777,846.04,1576.1481" style="stroke:#000000;stroke-width:0.75;stroke-linejoin:miter;stroke-miterlimit:10;"/></g><!--link Closed to *end*--><g class="link" data-entity-1="ent0031" data-entity-2="ent0034" data-link-type="dependency" data-source-line="77" id="lnk36"><path d="M793.35,1536.3181 C807.16,1550.6681 818.7904,1562.7678 827.5504,1571.8578" fill="none" id="Closed-to-*end*" style="stroke:#000000;stroke-width:0.75;"/><polygon fill="#000000" points="831.02,1575.4581,827.655,1566.202,827.5504,1571.8578,821.8945,1571.7533,831.02,1575.4581" style="stroke:#000000;stroke-width:0.75;stroke-linejoin:miter;stroke-miterlimit:10;"/></g><!--link PendingCustomer to GMN37--><g class="link" data-entity-1="ent0025" data-entity-2="ent0038" data-link-type="association" data-source-line="80" id="lnk39"><path d="M261,494.4381 C272.38,494.4381 283.75,494.4381 295.13,494.4381" fill="none" id="PendingCustomer-GMN37" style="stroke:#000000;stroke-width:1;stroke-dasharray:7,7;"/></g><?plantuml-src bLJDRXit4BxpAIR8eKa0kuhIm8KJ14XKk3NW6ePa88UW1sOvkqjebyDok98Lmq0Vea-O9-cGMiahhmgqUv0mttmpd9-FVEQ3hbeDcZqMSQwZfGjxXqRnqZglWsxXHXjZNGK_3x1FT7SClj4Xsi9wxU8nz-_MpHhD_DcQMCFhoMJW-noqt-BJwH2_9eCBzF3cxG2SQxVimH-WQviJOtKb3ZwbK4704WEw0e7Zfa7u_jVVC5iiOAM3bShWXM_aJy9E2shXVIPz0DwugEzUgjvMWIZ2lGAu81UlTOlm6pOhbFvq3oxiDuJNqzwQKKC1da_o9zWdNIn_3TGvqtikyYUUA-lmAJjXjxKjbWwPON9wzbR0-JOwE0oGI8jQ6rgdgKxKWrBHHkdk_g2QdtPMxlmhDUO_bXU3TYpJHHSFIXpZWp9J5OxYjeZ_r_2u9id5KKVyPRlBd3C3SFzlkT-DKxyRPuO7oQH3eBLa6WM8zq6z_x7VkkZfjaP6Y6i2nXXbsWorNY4uoYh2FpkxqetC0pOOixYMA5hK37k1dW-qkjKWns2BfBc1fqXtuMCKpzSkucL1BkzmijlielEUGeHRcRUST6LBB3P5WqfzUVK7d9nyW6jSAoK_sVZ8R2k71iv1LwayBt4CdTypPbekHTDaIj5nf5Q4LMIGbTh79-gbkmbKXRJbNJhPHOWCQmhBG-uSzUFHo8LkP6b63U1HHYSL3RFsgn-Iqle1TfrUkXLoj9LE2ycU0wIlmmSoNP7iSx16qjlIol4SqNCE6b9IYBnrMtQ-xONkPFDbabbczzv4l4rdPMPfxq1xtqZYJDfvHbKADue5fRRD4Mxgh6Tu6PGmv08C-a-S6tJf4PtjTfK6XuOVboTIwg9wIXkDUyyNsvCpV3HaZapomcK1TP5EmjQ6Q5kaJjxDisdzSbJZ82gDng1lQ2FTgBqZIwyXVg8xSgKDBH_oZfTjB4kVoF0Y87bqKiMZbljXglw8dRbzc8AjwWXKFXrbUaqteelse5K6MuhdyLmIIFBivYQ-jOsrTN0sXPgwm4hI9WR-0m00?></g></svg>