<svg xmlns="http://www.w3.org/2000/svg" xmlns:xlink="http://www.w3.org/1999/xlink" contentStyleType="text/css" data-diagram-type="STATE" height="1414px" preserveAspectRatio="none" style="width:859px;height:1414px;background:#FFFFFF;" version="1.1" viewBox="0 0 859 1414" width="859px" zoomAndPan="magnify"><?plantuml 1.2026.4?><defs/><g><g class="title" data-source-line="43"><text fill="#000000" font-family="Helvetica" font-size="14" font-weight="700" lengthAdjust="spacing" textLength="190.5244" x="331.0604" y="22.9951">Support Ticket Lifecycle</text></g><g class="entity" data-qualified-name="InProgress" data-source-line="54" id="ent0001"><rect fill="#FFFFFF" height="23.9688" style="stroke:#FFFFFF;stroke-width:1;" width="280.5355" x="330.24" y="536.1969"/><rect fill="#FFFFFF" height="507" style="stroke:#FFFFFF;stroke-width:1;" width="280.5355" x="330.24" y="560.1656"/><rect fill="none" height="530.9688" style="stroke:#181818;stroke-width:0.5;" width="280.5355" x="330.24" y="536.1969"/><line style="stroke:#181818;stroke-width:0.5;" x1="330.24" x2="610.7755" y1="560.1656" y2="560.1656"/><text fill="#000000" font-family="Helvetica" font-size="12" lengthAdjust="spacing" textLength="63.0938" x="438.9609" y="552.3355">InProgress</text><g class="start_entity" data-qualified-name="InProgress..start.InProgress" data-source-line="55" id="ent0013"><ellipse cx="452.24" cy="581.1656" fill="#222222" rx="10" ry="10" style="stroke:#222222;stroke-width:1;"/></g><g class="entity" data-qualified-name="InProgress.Investigating" data-source-line="55" id="ent0014"><rect fill="#FFFFFF" height="50" style="stroke:#181818;stroke-width:0.5;" width="98.1523" x="403.16" y="628.1656"/><line style="stroke:#181818;stroke-width:0.5;" x1="403.16" x2="501.3123" y1="652.1344" y2="652.1344"/><text fill="#000000" font-family="Helvetica" font-size="12" lengthAdjust="spacing" textLength="78.1523" x="413.16" y="644.3043">Investigating</text></g><g class="entity" data-qualified-name="InProgress.Reproducing" data-source-line="56" id="ent0016"><rect fill="#FFFFFF" height="50" style="stroke:#181818;stroke-width:0.5;" width="95.9902" x="342.24" y="729.1656"/><line style="stroke:#181818;stroke-width:0.5;" x1="342.24" x2="438.2302" y1="753.1344" y2="753.1344"/><text fill="#000000" font-family="Helvetica" font-size="12" lengthAdjust="spacing" textLength="75.9902" x="352.24" y="745.3043">Reproducing</text></g><g class="entity" data-qualified-name="InProgress.Fixing" data-source-line="57" id="ent0018"><rect fill="#FFFFFF" height="50" style="stroke:#181818;stroke-width:0.5;" width="55.8945" x="380.29" y="830.1656"/><line style="stroke:#181818;stroke-width:0.5;" x1="380.29" x2="436.1845" y1="854.1344" y2="854.1344"/><text fill="#000000" font-family="Helvetica" font-size="12" lengthAdjust="spacing" textLength="35.8945" x="390.29" y="846.3043">Fixing</text></g><g class="entity" data-qualified-name="InProgress.Testing" data-source-line="58" id="ent0020"><rect fill="#FFFFFF" height="50" style="stroke:#181818;stroke-width:0.5;" width="64.2266" x="427.12" y="931.1656"/><line style="stroke:#181818;stroke-width:0.5;" x1="427.12" x2="491.3466" y1="955.1344" y2="955.1344"/><text fill="#000000" font-family="Helvetica" font-size="12" lengthAdjust="spacing" textLength="44.2266" x="437.12" y="947.3043">Testing</text></g><g class="end_entity" data-qualified-name="InProgress..end.InProgress" data-source-line="60" id="ent0023"><ellipse cx="459.24" cy="1043.1656" fill="none" rx="11" ry="11" style="stroke:#222222;stroke-width:1;"/><ellipse cx="459.24" cy="1043.1656" fill="#222222" rx="6" ry="6" style="stroke:#222222;stroke-width:1;"/></g><!--link *start*InProgress to Investigating--><g class="link" data-entity-1="ent0013" data-entity-2="ent0014" data-link-type="dependency" data-source-line="55" id="lnk15"><path d="M452.24,591.6056 C452.24,600.8656 452.24,610.3556 452.24,622.8456" fill="none" id="*start*InProgress-to-Investigating" style="stroke:#000000;stroke-width:0.75;"/><polygon fill="#000000" points="452.24,627.8456,456.24,618.8456,452.24,622.8456,448.24,618.8456,452.24,627.8456" style="stroke:#000000;stroke-width:0.75;stroke-linejoin:miter;stroke-miterlimit:10;"/></g><!--link Investigating to Reproducing--><g class="link" data-entity-1="ent0014" data-entity-2="ent0016" data-link-type="dependency" data-source-line="56" id="lnk17"><path d="M418.14,678.2956 C412.48,683.6256 407.17,689.6456 403.24,696.1656 C397.31,705.9856 394.8975,713.3129 393.1375,723.9329" fill="none" id="Investigating-to-Reproducing" style="stroke:#000000;stroke-width:0.75;"/><polygon fill="#000000" points="392.32,728.8656,397.7376,720.6407,393.1375,723.9329,389.8453,719.3327,392.32,728.8656" style="stroke:#000000;stroke-width:0.75;stroke-linejoin:miter;stroke-miterlimit:10;"/><text fill="#000000" font-family="Helvetica" font-size="12" lengthAdjust="spacing" textLength="92.5605" x="404.24" y="708.3043">identified steps</text></g><!--link Reproducing to Fixing--><g class="link" data-entity-1="ent0016" data-entity-2="ent0018" data-link-type="dependency" data-source-line="57" id="lnk19"><path d="M385.24,779.5756 C383.99,789.7756 383.65,801.6656 386.24,812.1656 C387.73,818.2356 388.0439,819.9335 390.8839,825.6135" fill="none" id="Reproducing-to-Fixing" style="stroke:#000000;stroke-width:0.75;"/><polygon fill="#000000" points="393.12,830.0856,392.6728,820.2469,390.8839,825.6135,385.5174,823.8246,393.12,830.0856" style="stroke:#000000;stroke-width:0.75;stroke-linejoin:miter;stroke-miterlimit:10;"/><text fill="#000000" font-family="Helvetica" font-size="12" lengthAdjust="spacing" textLength="101.5371" x="387.24" y="809.3043">root cause found</text></g><!--link Fixing to Testing--><g class="link" data-entity-1="ent0018" data-entity-2="ent0020" data-link-type="dependency" data-source-line="58" id="lnk21"><path d="M418.08,880.6556 C422.41,890.8556 427.76,902.7356 433.24,913.1656 C436.35,919.0856 437.3686,921.0318 440.9086,926.8118" fill="none" id="Fixing-to-Testing" style="stroke:#000000;stroke-width:0.75;"/><polygon fill="#000000" points="443.52,931.0756,442.2305,921.3115,440.9086,926.8118,435.4083,925.4898,443.52,931.0756" style="stroke:#000000;stroke-width:0.75;stroke-linejoin:miter;stroke-miterlimit:10;"/><text fill="#000000" font-family="Helvetica" font-size="12" lengthAdjust="spacing" textLength="62.7305" x="434.24" y="910.3043">fix applied</text></g><!--link Testing to Investigating--><g class="link" data-entity-1="ent0020" data-entity-2="ent0014" data-link-type="dependency" data-source-line="59" id="lnk22"><path d="M486.35,931.0456 C490.8,925.6356 494.76,919.5856 497.24,913.1656 C531.91,823.1656 535.67,784.6156 497.24,696.1656 C494.42,689.6956 493.4888,687.4242 488.5788,682.1842" fill="none" id="Testing-to-Investigating" style="stroke:#000000;stroke-width:0.75;"/><polygon fill="#000000" points="485.16,678.5356,488.395,687.838,488.5788,682.1842,494.2326,682.368,485.16,678.5356" style="stroke:#000000;stroke-width:0.75;stroke-linejoin:miter;stroke-miterlimit:10;"/><text fill="#000000" font-family="Helvetica" font-size="12" lengthAdjust="spacing" textLength="60.1055" x="525.67" y="809.3043">test failed</text></g><!--link Testing to *end*InProgress--><g class="link" data-entity-1="ent0020" data-entity-2="ent0023" data-link-type="dependency" data-source-line="60" id="lnk24"><path d="M459.24,981.2956 C459.24,997.9856 459.24,1014.3456 459.24,1026.8256" fill="none" id="Testing-to-*end*InProgress" style="stroke:#000000;stroke-width:0.75;"/><polygon fill="#000000" points="459.24,1031.8256,463.24,1022.8256,459.24,1026.8256,455.24,1022.8256,459.24,1031.8256" style="stroke:#000000;stroke-width:0.75;stroke-linejoin:miter;stroke-miterlimit:10;"/><text fill="#000000" font-family="Helvetica" font-size="12" lengthAdjust="spacing" textLength="69.334" x="460.24" y="1011.3043">test passed</text></g></g><g class="start_entity" data-qualified-name=".start." data-source-line="45" id="ent0002"><ellipse cx="701.51" cy="53.2969" fill="#222222" rx="10" ry="10" style="stroke:#222222;stroke-width:1;"/></g><g class="entity" data-qualified-name="New" data-source-line="45" id="ent0003"><rect fill="#FFFFFF" height="50" style="stroke:#181818;stroke-width:0.5;" width="50" x="676.51" y="124.2969"/><line style="stroke:#181818;stroke-width:0.5;" x1="676.51" x2="726.51" y1="148.2656" y2="148.2656"/><text fill="#000000" font-family="Helvetica" font-size="12" lengthAdjust="spacing" textLength="26.1738" x="688.4231" y="140.4355">New</text></g><g class="entity" data-qualified-name="Assigned" data-source-line="47" id="ent0005"><rect fill="#FFFFFF" height="50" style="stroke:#181818;stroke-width:0.5;" width="74.2695" x="584.37" y="249.2969"/><line style="stroke:#181818;stroke-width:0.5;" x1="584.37" x2="658.6395" y1="273.2656" y2="273.2656"/><text fill="#000000" font-family="Helvetica" font-size="12" lengthAdjust="spacing" textLength="54.2695" x="594.37" y="265.4355">Assigned</text></g><g class="entity" data-qualified-name="Cancelled" data-source-line="48" id="ent0007"><rect fill="#FFFFFF" height="50" style="stroke:#181818;stroke-width:0.5;" width="78.9863" x="738.02" y="329.2969"/><line style="stroke:#181818;stroke-width:0.5;" x1="738.02" x2="817.0063" y1="353.2656" y2="353.2656"/><text fill="#000000" font-family="Helvetica" font-size="12" lengthAdjust="spacing" textLength="58.9863" x="748.02" y="345.4355">Cancelled</text></g><g class="entity" data-qualified-name="Reassigned" data-source-line="51" id="ent0010"><rect fill="#FFFFFF" height="50" style="stroke:#181818;stroke-width:0.5;" width="89.1348" x="461.94" y="410.2469"/><line style="stroke:#181818;stroke-width:0.5;" x1="461.94" x2="551.0748" y1="434.2156" y2="434.2156"/><text fill="#000000" font-family="Helvetica" font-size="12" lengthAdjust="spacing" textLength="69.1348" x="471.94" y="426.3855">Reassigned</text></g><g class="entity" data-qualified-name="PendingCustomer" data-source-line="63" id="ent0025"><rect fill="#FFFFFF" height="50" style="stroke:#181818;stroke-width:0.5;" width="126.6875" x="79.16" y="410.2469"/><line style="stroke:#181818;stroke-width:0.5;" x1="79.16" x2="205.8475" y1="434.2156" y2="434.2156"/><text fill="#000000" font-family="Helvetica" font-size="12" lengthAdjust="spacing" textLength="106.6875" x="89.16" y="426.3855">PendingCustomer</text></g><g class="entity" data-qualified-name="Resolved" data-source-line="65" id="ent0028"><rect fill="#FFFFFF" height="50" style="stroke:#181818;stroke-width:0.5;" width="74.75" x="433.13" y="1142.1669"/><line style="stroke:#181818;stroke-width:0.5;" x1="433.13" x2="507.88" y1="1166.1356" y2="1166.1356"/><text fill="#000000" font-family="Helvetica" font-size="12" lengthAdjust="spacing" textLength="54.75" x="443.13" y="1158.3055">Resolved</text></g><g class="entity" data-qualified-name="Closed" data-source-line="69" id="ent0031"><rect fill="#FFFFFF" height="50" style="stroke:#181818;stroke-width:0.5;" width="60.3066" x="641.36" y="1267.1669"/><line style="stroke:#181818;stroke-width:0.5;" x1="641.36" x2="701.6666" y1="1291.1356" y2="1291.1356"/><text fill="#000000" font-family="Helvetica" font-size="12" lengthAdjust="spacing" textLength="40.3066" x="651.36" y="1283.3055">Closed</text></g><g class="end_entity" data-qualified-name=".end." data-source-line="72" id="ent0034"><ellipse cx="739.51" cy="1389.1669" fill="none" rx="11" ry="11" style="stroke:#222222;stroke-width:1;"/><ellipse cx="739.51" cy="1389.1669" fill="#222222" rx="6" ry="6" style="stroke:#222222;stroke-width:1;"/></g><g class="entity" data-qualified-name="GMN37" data-source-line="76" id="ent0038"><path d="M240.53,409.2969 L240.53,461.2031 L426.4773,461.2031 L426.4773,419.2969 L416.4773,409.2969 L240.53,409.2969" fill="#FFFFFF" style="stroke:#181818;stroke-width:0.5;"/><path d="M416.4773,409.2969 L416.4773,419.2969 L426.4773,419.2969 L416.4773,409.2969" fill="#FFFFFF" style="stroke:#181818;stroke-width:1;"/><text fill="#000000" font-family="Helvetica" font-size="12" lengthAdjust="spacing" textLength="141.252" x="246.53" y="425.4355">System auto-resolves if</text><text fill="#000000" font-family="Helvetica" font-size="12" lengthAdjust="spacing" textLength="164.9473" x="246.53" y="439.4043">customer does not respond</text><text fill="#000000" font-family="Helvetica" font-size="12" lengthAdjust="spacing" textLength="93.0352" x="246.53" y="453.373">within 72 hours</text></g><!--link *start* to New--><g class="link" data-entity-1="ent0002" data-entity-2="ent0003" data-link-type="dependency" data-source-line="45" id="lnk4"><path d="M701.51,63.6469 C701.51,77.5769 701.51,99.2469 701.51,118.9369" fill="none" id="*start*-to-New" style="stroke:#000000;stroke-width:0.75;"/><polygon fill="#000000" points="701.51,123.9369,705.51,114.9369,701.51,118.9369,697.51,114.9369,701.51,123.9369" style="stroke:#000000;stroke-width:0.75;stroke-linejoin:miter;stroke-miterlimit:10;"/></g><!--link New to Assigned--><g class="link" data-entity-1="ent0003" data-entity-2="ent0005" data-link-type="dependency" data-source-line="47" id="lnk6"><path d="M676.15,165.8369 C662.72,175.3369 647.07,188.6669 637.51,204.2969 C629.3,217.7169 625.9946,230.0154 624.0446,243.9154" fill="none" id="New-to-Assigned" style="stroke:#000000;stroke-width:0.75;"/><polygon fill="#000000" points="623.35,248.8669,628.5616,240.5099,624.0446,243.9154,620.6391,239.3984,623.35,248.8669" style="stroke:#000000;stroke-width:0.75;stroke-linejoin:miter;stroke-miterlimit:10;"/><text fill="#000000" font-family="Helvetica" font-size="12" lengthAdjust="spacing" textLength="88.2656" x="638.51" y="216.4355">agent picks up</text></g><!--link New to Cancelled--><g class="link" data-entity-1="ent0003" data-entity-2="ent0007" data-link-type="dependency" data-source-line="48" id="lnk8"><path d="M716.51,174.7469 C721.69,183.8269 727.26,194.3269 731.51,204.2969 C749.68,246.8769 762.8751,294.1992 770.4451,324.1592" fill="none" id="New-to-Cancelled" style="stroke:#000000;stroke-width:0.75;"/><polygon fill="#000000" points="771.67,329.0069,773.3434,319.3012,770.4451,324.1592,765.5871,321.261,771.67,329.0069" style="stroke:#000000;stroke-width:0.75;stroke-linejoin:miter;stroke-miterlimit:10;"/><text fill="#000000" font-family="Helvetica" font-size="12" lengthAdjust="spacing" textLength="105.4453" x="738.2" y="216.4355">customer cancels</text></g><!--link Assigned to InProgress--><g class="link" data-entity-1="ent0005" data-entity-2="ent0001" data-link-type="dependency" data-source-line="50" id="lnk9"><path d="M621.7,299.6569 C621.49,342.2569 618.58,432.7269 599.51,506.1969 C596.95,516.0569 595.5788,521.2306 592.4888,531.2106" fill="none" id="Assigned-to-InProgress" style="stroke:#000000;stroke-width:0.75;"/><polygon fill="#000000" points="591.01,535.9869,597.4929,528.5726,592.4888,531.2106,589.8509,526.2065,591.01,535.9869" style="stroke:#000000;stroke-width:0.75;stroke-linejoin:miter;stroke-miterlimit:10;"/><text fill="#000000" font-family="Helvetica" font-size="12" lengthAdjust="spacing" textLength="105.5332" x="616.68" y="439.8855">agent starts work</text></g><!--link Assigned to Reassigned--><g class="link" data-entity-1="ent0005" data-entity-2="ent0010" data-link-type="dependency" data-source-line="51" id="lnk11"><path d="M583.94,291.4969 C567.24,300.4369 548.65,313.0469 536.51,329.2969 C518.7,353.1269 512.0897,382.238 509.1497,405.028" fill="none" id="Assigned-to-Reassigned" style="stroke:#000000;stroke-width:0.75;"/><polygon fill="#000000" points="508.51,409.9869,513.6286,401.5726,509.1497,405.028,505.6944,400.5491,508.51,409.9869" style="stroke:#000000;stroke-width:0.75;stroke-linejoin:miter;stroke-miterlimit:10;"/><text fill="#000000" font-family="Helvetica" font-size="12" lengthAdjust="spacing" textLength="57.9785" x="537.51" y="358.9355">escalated</text></g><!--link Reassigned to InProgress--><g class="link" data-entity-1="ent0010" data-entity-2="ent0001" data-link-type="dependency" data-source-line="52" id="lnk12"><path d="M499.29,460.6669 C496.76,470.1269 494.14,481.0869 492.51,491.1969 C490.15,505.8169 488.6562,515.915 486.7662,531.135" fill="none" id="Reassigned-to-InProgress" style="stroke:#000000;stroke-width:0.75;"/><polygon fill="#000000" points="486.15,536.0969,491.2286,527.6584,486.7662,531.135,483.2896,526.6725,486.15,536.0969" style="stroke:#000000;stroke-width:0.75;stroke-linejoin:miter;stroke-miterlimit:10;"/><text fill="#000000" font-family="Helvetica" font-size="12" lengthAdjust="spacing" textLength="101.2969" x="493.51" y="503.3355">new agent starts</text></g><!--link InProgress to PendingCustomer--><g class="link" data-entity-1="ent0001" data-entity-2="ent0025" data-link-type="dependency" data-source-line="63" id="lnk26"><path d="M330,537.8569 C315.58,520.9469 300.08,505.1369 283.51,491.1969 C270.99,480.6669 242.0234,469.0267 210.7134,458.1567" fill="none" id="InProgress-to-PendingCustomer" style="stroke:#000000;stroke-width:0.75;"/><polygon fill="#000000" points="205.99,456.5169,213.1803,463.2474,210.7134,458.1567,215.8041,455.6899,205.99,456.5169" style="stroke:#000000;stroke-width:0.75;stroke-linejoin:miter;stroke-miterlimit:10;"/><text fill="#000000" font-family="Helvetica" font-size="12" lengthAdjust="spacing" textLength="131.2441" x="298.98" y="503.3355">needs customer input</text></g><!--link PendingCustomer to InProgress--><g class="link" data-entity-1="ent0025" data-entity-2="ent0001" data-link-type="dependency" data-source-line="64" id="lnk27"><path d="M141.98,460.6369 C142.99,475.6669 146.82,494.2769 158.51,506.1969 C196.99,545.4569 232.95,505.4369 278.51,536.1969 C296.73,548.5069 310.3033,559.5925 326.2133,575.5825" fill="none" id="PendingCustomer-to-InProgress" style="stroke:#000000;stroke-width:0.75;"/><polygon fill="#000000" points="329.74,579.1269,326.2275,569.9256,326.2133,575.5825,320.5565,575.5683,329.74,579.1269" style="stroke:#000000;stroke-width:0.75;stroke-linejoin:miter;stroke-miterlimit:10;"/><text fill="#000000" font-family="Helvetica" font-size="12" lengthAdjust="spacing" textLength="115.3242" x="159.51" y="503.3355">customer responds</text></g><!--link PendingCustomer to Resolved--><g class="link" data-entity-1="ent0025" data-entity-2="ent0028" data-link-type="dependency" data-source-line="65" id="lnk29"><path d="M133.68,460.5669 C102.37,551.4269 6,875.6069 149.51,1067.1669 C183.95,1113.1369 350.5409,1146.1477 427.7809,1159.2977" fill="none" id="PendingCustomer-to-Resolved" style="stroke:#000000;stroke-width:0.75;"/><polygon fill="#000000" points="432.71,1160.1369,424.509,1154.6831,427.7809,1159.2977,423.1663,1162.5696,432.71,1160.1369" style="stroke:#000000;stroke-width:0.75;stroke-linejoin:miter;stroke-miterlimit:10;"/><text fill="#000000" font-family="Helvetica" font-size="12" lengthAdjust="spacing" textLength="161.6953" x="150.51" y="806.3255">auto-resolve timeout (72h)</text></g><!--link InProgress to Resolved--><g class="link" data-entity-1="ent0001" data-entity-2="ent0028" data-link-type="dependency" data-source-line="67" id="lnk30"><path d="M413.01,1067.5669 C411.69,1077.5369 410.51,1087.4269 409.51,1097.1669 C408.83,1103.7969 406.77,1106.0869 409.51,1112.1669 C414.68,1123.6469 419.8384,1130.3959 429.3184,1138.5959" fill="none" id="InProgress-to-Resolved" style="stroke:#000000;stroke-width:0.75;"/><polygon fill="#000000" points="433.1,1141.8669,428.9099,1132.9538,429.3184,1138.5959,423.6763,1139.0043,433.1,1141.8669" style="stroke:#000000;stroke-width:0.75;stroke-linejoin:miter;stroke-miterlimit:10;"/><text fill="#000000" font-family="Helvetica" font-size="12" lengthAdjust="spacing" textLength="73.8691" x="410.51" y="1109.3055">fix deployed</text></g><!--link Resolved to InProgress--><g class="link" data-entity-1="ent0028" data-entity-2="ent0001" data-link-type="dependency" data-source-line="70" id="lnk33"><path d="M480.46,1141.8569 C483.71,1132.7069 486.89,1122.1169 488.51,1112.1669 C489.58,1105.5869 488.71,1103.8269 488.51,1097.1669 C488.21,1087.4369 488.0596,1082.5329 487.6596,1072.5229" fill="none" id="Resolved-to-InProgress" style="stroke:#000000;stroke-width:0.75;"/><polygon fill="#000000" points="487.46,1067.5269,483.8225,1076.6794,487.6596,1072.5229,491.8162,1076.36,487.46,1067.5269" style="stroke:#000000;stroke-width:0.75;stroke-linejoin:miter;stroke-miterlimit:10;"/><text fill="#000000" font-family="Helvetica" font-size="12" lengthAdjust="spacing" textLength="166.5293" x="490.03" y="1109.3055">customer disputes (reopen)</text></g><!--link Resolved to Closed--><g class="link" data-entity-1="ent0028" data-entity-2="ent0031" data-link-type="dependency" data-source-line="69" id="lnk32"><path d="M508.31,1191.3069 C546.75,1214.8269 601.2956,1248.1964 636.8256,1269.9464" fill="none" id="Resolved-to-Closed" style="stroke:#000000;stroke-width:0.75;"/><polygon fill="#000000" points="641.09,1272.5569,635.5024,1264.4464,636.8256,1269.9464,631.3256,1271.2695,641.09,1272.5569" style="stroke:#000000;stroke-width:0.75;stroke-linejoin:miter;stroke-miterlimit:10;"/><text fill="#000000" font-family="Helvetica" font-size="12" lengthAdjust="spacing" textLength="112.3008" x="584.04" y="1234.3055">customer confirms</text></g><!--link Cancelled to *end*--><g class="link" data-entity-1="ent0007" data-entity-2="ent0034" data-link-type="dependency" data-source-line="72" id="lnk35"><path d="M778.61,379.7269 C779.8,408.0869 781.51,456.2669 781.51,497.6969 C781.51,497.6969 781.51,497.6969 781.51,1293.1669 C781.51,1327.7869 760.8614,1359.903 749.0514,1375.803" fill="none" id="Cancelled-to-*end*" style="stroke:#000000;stroke-width:0.75;"/><polygon fill="#000000" points="746.07,1379.8169,754.6476,1374.977,749.0514,1375.803,748.2254,1370.2068,746.07,1379.8169" style="stroke:#000000;stroke-width:0.75;stroke-linejoin:miter;stroke-miterlimit:10;"/></g><!--link Closed to *end*--><g class="link" data-entity-1="ent0031" data-entity-2="ent0034" data-link-type="dependency" data-source-line="73" id="lnk36"><path d="M689.02,1317.6269 C703.66,1338.0869 720.771,1361.9802 730.621,1375.7502" fill="none" id="Closed-to-*end*" style="stroke:#000000;stroke-width:0.75;"/><polygon fill="#000000" points="733.53,1379.8169,731.5472,1370.1697,730.621,1375.7502,725.0405,1374.8241,733.53,1379.8169" style="stroke:#000000;stroke-width:0.75;stroke-linejoin:miter;stroke-miterlimit:10;"/></g><!--link PendingCustomer to GMN37--><g class="link" data-entity-1="ent0025" data-entity-2="ent0038" data-link-type="association" data-source-line="76" id="lnk39"><path d="M206.3,435.2469 C217.56,435.2469 228.83,435.2469 240.09,435.2469" fill="none" id="PendingCustomer-GMN37" style="stroke:#000000;stroke-width:0.75;stroke-dasharray:7,7;"/></g><?plantuml-src bPNDRjD04CVl-nGZSQ0WKfL8g58FI6bAIwH-gKbFYCDcFNQMs3jcTzma82GUWYVaIHWxJkCqeN4jjUfwVlFndvsENqEHfPt8wiJhB1oIJy1ZZ1wTGGYyI17-_luZVtbh66wkBk3-wXAwX_Dta94ZC_6KeGfJwt8j4HelWNtHj8orcIQU2XVrAIKFhywhfq546EiYvNDoVAqbm6TC7v2jqRkPeVs1yBxRC8Q9ZcXcNGAnJaCp-LB9KeK8RbXCgaFeiLZ61UF0aAlY7ZMTyNjHzkCAGz09zbARE33e67s3ggLvXrwy6uQUOVAdUzNVQYzQRQuTxuUlYN4_DQmBln0gRrE1cOg-_M2_xDb-x6Ry3KqBCKFMRTJS1pGwj2cFifmSjkcZt8rziBneq_6eHUeppNhSgiYXJ0yIBtBilmGUl0JklGJ-z3zunq1TsbX-79wIZz3N-57rF4Ut7jZD-AE9DLCd_tnmT7ZyOGTUtQ9cIwvzYePFAn4zxsdM2jfRxYdDM_JwsOJF9pfRBiaHpdapW6BBiWU7HPwJPnY9FpAKtJOBaw9INzv-XKxd8rpZJ2dvLHrw8SZ6mmXEGDQ3OyZ5Bq2HFn9zBRBIj49C4LZMlmTJlGnAFVgNwC3TUafyMVKgN61PVG5cvAURx1tgTMeCHgUoA2BLUBqLqKb5pQZIqNAxDA6V2kHPAHsu1mni4na5brIMZJTr7Rcdg33b-GHi9E5jR2LzOCn3vTH4IfTpEr_IdeYb5KL0YClxhkZQMeAZCbT5ndOEEizJ2Ln1AyjMbSAodEGZPzCTRAci9d9fb12_b6heBvbRT97m_TLTbOt3AAmlJqQfOFKKssht8ozdsRbHsEboXu7aKruDKC7KySipiCsG2eQ3u-xapLQD3Q-oDH7cAIr4ZNeqLAENKdWoT-HYwxEmoUqkEx91T6A00zc2EJgfOZtBTJDLdM9rL4u-lk1jCc6W-6ahvJg62vcBR4Dg01kBPPsNv9N4MVLDR3FB4-lWk0iJAdnG4hOay1y0?></g></svg>