<svg xmlns="http://www.w3.org/2000/svg" xmlns:xlink="http://www.w3.org/1999/xlink" contentStyleType="text/css" data-diagram-type="STATE" height="1252px" preserveAspectRatio="none" style="width:861px;height:1252px;background:#FFFFFF;" version="1.1" viewBox="0 0 861 1252" width="861px" zoomAndPan="magnify"><?plantuml 1.2026.6?><defs/><g><g class="title" data-source-line="57"><text fill="#000000" font-family="Helvetica" font-size="14" font-weight="700" lengthAdjust="spacing" textLength="190.5244" x="332.0304" y="25.9951">Support Ticket Lifecycle</text></g><g class="entity" data-qualified-name="InProgress" data-source-line="68" id="ent0001"><rect fill="#FFFFFF" height="23.9688" style="stroke:#FFFFFF;stroke-width:1;" width="280.5355" x="330.97" y="446.1969"/><rect fill="#FFFFFF" height="507" style="stroke:#FFFFFF;stroke-width:1;" width="280.5355" x="330.97" y="470.1656"/><rect fill="none" height="530.9688" style="stroke:#000000;stroke-width:0.75;" width="280.5355" x="330.97" y="446.1969"/><line style="stroke:#000000;stroke-width:0.75;" x1="330.97" x2="611.5055" y1="470.1656" y2="470.1656"/><text fill="#000000" font-family="Helvetica" font-size="12" lengthAdjust="spacing" textLength="63.0938" x="439.6909" y="462.3355">InProgress</text><g class="start_entity" data-qualified-name="InProgress..start.InProgress" data-source-line="69" id="ent0013"><ellipse cx="452.97" cy="491.1656" fill="#FFFFFF" rx="10" ry="10" style="stroke:#000000;stroke-width:0.75;"/></g><g class="entity" data-qualified-name="InProgress.Investigating" data-source-line="69" id="ent0014"><rect fill="#FFFFFF" height="50" style="stroke:#000000;stroke-width:0.75;" width="98.1523" x="403.89" y="538.1656"/><line style="stroke:#000000;stroke-width:0.75;" x1="403.89" x2="502.0423" y1="562.1344" y2="562.1344"/><text fill="#000000" font-family="Helvetica" font-size="12" lengthAdjust="spacing" textLength="78.1523" x="413.89" y="554.3043">Investigating</text></g><g class="entity" data-qualified-name="InProgress.Reproducing" data-source-line="70" id="ent0016"><rect fill="#FFFFFF" height="50" style="stroke:#000000;stroke-width:0.75;" width="95.9902" x="342.97" y="639.1656"/><line style="stroke:#000000;stroke-width:0.75;" x1="342.97" x2="438.9602" y1="663.1344" y2="663.1344"/><text fill="#000000" font-family="Helvetica" font-size="12" lengthAdjust="spacing" textLength="75.9902" x="352.97" y="655.3043">Reproducing</text></g><g class="entity" data-qualified-name="InProgress.Fixing" data-source-line="71" id="ent0018"><rect fill="#FFFFFF" height="50" style="stroke:#000000;stroke-width:0.75;" width="55.8945" x="381.02" y="740.1656"/><line style="stroke:#000000;stroke-width:0.75;" x1="381.02" x2="436.9145" y1="764.1344" y2="764.1344"/><text fill="#000000" font-family="Helvetica" font-size="12" lengthAdjust="spacing" textLength="35.8945" x="391.02" y="756.3043">Fixing</text></g><g class="entity" data-qualified-name="InProgress.Testing" data-source-line="72" id="ent0020"><rect fill="#FFFFFF" height="50" style="stroke:#000000;stroke-width:0.75;" width="64.2266" x="427.85" y="841.1656"/><line style="stroke:#000000;stroke-width:0.75;" x1="427.85" x2="492.0766" y1="865.1344" y2="865.1344"/><text fill="#000000" font-family="Helvetica" font-size="12" lengthAdjust="spacing" textLength="44.2266" x="437.85" y="857.3043">Testing</text></g><g class="end_entity" data-qualified-name="InProgress..end.InProgress" data-source-line="74" id="ent0023"><ellipse cx="459.97" cy="953.1656" fill="none" rx="11" ry="11" style="stroke:#000000;stroke-width:0.75;"/><ellipse cx="459.97" cy="953.1656" fill="#FFFFFF" rx="6" ry="6" style="stroke:#000000;stroke-width:1;"/></g><!--link *start*InProgress to Investigating--><g class="link" data-entity-1="ent0013" data-entity-2="ent0014" data-link-type="dependency" data-source-line="69" id="lnk15"><path d="M452.97,501.6056 C452.97,510.8656 452.97,520.3556 452.97,532.8456" fill="none" id="*start*InProgress-to-Investigating" style="stroke:#000000;stroke-width:0.75;"/><polygon fill="#000000" points="452.97,537.8456,456.97,528.8456,452.97,532.8456,448.97,528.8456,452.97,537.8456" style="stroke:#000000;stroke-width:0.75;stroke-linejoin:miter;stroke-miterlimit:10;"/></g><!--link Investigating to Reproducing--><g class="link" data-entity-1="ent0014" data-entity-2="ent0016" data-link-type="dependency" data-source-line="70" id="lnk17"><path d="M418.87,588.2956 C413.21,593.6256 407.9,599.6456 403.97,606.1656 C398.04,615.9856 395.6275,623.3129 393.8675,633.9329" fill="none" id="Investigating-to-Reproducing" style="stroke:#000000;stroke-width:0.75;"/><polygon fill="#000000" points="393.05,638.8656,398.4676,630.6407,393.8675,633.9329,390.5753,629.3327,393.05,638.8656" style="stroke:#000000;stroke-width:0.75;stroke-linejoin:miter;stroke-miterlimit:10;"/><text fill="#000000" font-family="Helvetica" font-size="12" lengthAdjust="spacing" textLength="92.5605" x="404.97" y="618.3043">identified steps</text></g><!--link Reproducing to Fixing--><g class="link" data-entity-1="ent0016" data-entity-2="ent0018" data-link-type="dependency" data-source-line="71" id="lnk19"><path d="M385.97,689.5756 C384.72,699.7756 384.38,711.6656 386.97,722.1656 C388.46,728.2356 388.7739,729.9335 391.6139,735.6135" fill="none" id="Reproducing-to-Fixing" style="stroke:#000000;stroke-width:0.75;"/><polygon fill="#000000" points="393.85,740.0856,393.4028,730.2469,391.6139,735.6135,386.2474,733.8246,393.85,740.0856" style="stroke:#000000;stroke-width:0.75;stroke-linejoin:miter;stroke-miterlimit:10;"/><text fill="#000000" font-family="Helvetica" font-size="12" lengthAdjust="spacing" textLength="101.5371" x="387.97" y="719.3043">root cause found</text></g><!--link Fixing to Testing--><g class="link" data-entity-1="ent0018" data-entity-2="ent0020" data-link-type="dependency" data-source-line="72" id="lnk21"><path d="M418.81,790.6556 C423.14,800.8556 428.49,812.7356 433.97,823.1656 C437.08,829.0856 438.0986,831.0318 441.6386,836.8118" fill="none" id="Fixing-to-Testing" style="stroke:#000000;stroke-width:0.75;"/><polygon fill="#000000" points="444.25,841.0756,442.9605,831.3115,441.6386,836.8118,436.1383,835.4898,444.25,841.0756" style="stroke:#000000;stroke-width:0.75;stroke-linejoin:miter;stroke-miterlimit:10;"/><text fill="#000000" font-family="Helvetica" font-size="12" lengthAdjust="spacing" textLength="62.7305" x="434.97" y="820.3043">fix applied</text></g><!--link Testing to Investigating--><g class="link" data-entity-1="ent0020" data-entity-2="ent0014" data-link-type="dependency" data-source-line="73" id="lnk22"><path d="M487.08,841.0456 C491.53,835.6356 495.49,829.5856 497.97,823.1656 C532.64,733.1656 536.4,694.6156 497.97,606.1656 C495.15,599.6956 494.2188,597.4242 489.3088,592.1842" fill="none" id="Testing-to-Investigating" style="stroke:#000000;stroke-width:0.75;"/><polygon fill="#000000" points="485.89,588.5356,489.125,597.838,489.3088,592.1842,494.9626,592.368,485.89,588.5356" style="stroke:#000000;stroke-width:0.75;stroke-linejoin:miter;stroke-miterlimit:10;"/><text fill="#000000" font-family="Helvetica" font-size="12" lengthAdjust="spacing" textLength="60.1055" x="526.4" y="719.3043">test failed</text></g><!--link Testing to *end*InProgress--><g class="link" data-entity-1="ent0020" data-entity-2="ent0023" data-link-type="dependency" data-source-line="74" id="lnk24"><path d="M459.97,891.2956 C459.97,907.9856 459.97,924.3456 459.97,936.8256" fill="none" id="Testing-to-*end*InProgress" style="stroke:#000000;stroke-width:0.75;"/><polygon fill="#000000" points="459.97,941.8256,463.97,932.8256,459.97,936.8256,455.97,932.8256,459.97,941.8256" style="stroke:#000000;stroke-width:0.75;stroke-linejoin:miter;stroke-miterlimit:10;"/><text fill="#000000" font-family="Helvetica" font-size="12" lengthAdjust="spacing" textLength="69.334" x="460.97" y="921.3043">test passed</text></g></g><g class="start_entity" data-qualified-name=".start." data-source-line="59" id="ent0002"><ellipse cx="702.23" cy="59.2969" fill="#FFFFFF" rx="10" ry="10" style="stroke:#000000;stroke-width:0.75;"/></g><g class="entity" data-qualified-name="New" data-source-line="59" id="ent0003"><rect fill="#FFFFFF" height="50" style="stroke:#000000;stroke-width:0.75;" width="50" x="677.23" y="106.2969"/><line style="stroke:#000000;stroke-width:0.75;" x1="677.23" x2="727.23" y1="130.2656" y2="130.2656"/><text fill="#000000" font-family="Helvetica" font-size="12" lengthAdjust="spacing" textLength="26.1738" x="689.1431" y="122.4355">New</text></g><g class="entity" data-qualified-name="Assigned" data-source-line="61" id="ent0005"><rect fill="#FFFFFF" height="50" style="stroke:#000000;stroke-width:0.75;" width="74.2695" x="585.1" y="207.2969"/><line style="stroke:#000000;stroke-width:0.75;" x1="585.1" x2="659.3695" y1="231.2656" y2="231.2656"/><text fill="#000000" font-family="Helvetica" font-size="12" lengthAdjust="spacing" textLength="54.2695" x="595.1" y="223.4355">Assigned</text></g><g class="entity" data-qualified-name="Cancelled" data-source-line="62" id="ent0007"><rect fill="#FFFFFF" height="50" style="stroke:#000000;stroke-width:0.75;" width="78.9863" x="738.74" y="275.2969"/><line style="stroke:#000000;stroke-width:0.75;" x1="738.74" x2="817.7263" y1="299.2656" y2="299.2656"/><text fill="#000000" font-family="Helvetica" font-size="12" lengthAdjust="spacing" textLength="58.9863" x="748.74" y="291.4355">Cancelled</text></g><g class="entity" data-qualified-name="Reassigned" data-source-line="65" id="ent0010"><rect fill="#FFFFFF" height="50" style="stroke:#000000;stroke-width:0.75;" width="89.1348" x="462.67" y="344.2469"/><line style="stroke:#000000;stroke-width:0.75;" x1="462.67" x2="551.8048" y1="368.2156" y2="368.2156"/><text fill="#000000" font-family="Helvetica" font-size="12" lengthAdjust="spacing" textLength="69.1348" x="472.67" y="360.3855">Reassigned</text></g><g class="entity" data-qualified-name="PendingCustomer" data-source-line="77" id="ent0025"><rect fill="#FFFFFF" height="50" style="stroke:#000000;stroke-width:0.75;" width="126.6875" x="79.89" y="344.2469"/><line style="stroke:#000000;stroke-width:0.75;" x1="79.89" x2="206.5775" y1="368.2156" y2="368.2156"/><text fill="#000000" font-family="Helvetica" font-size="12" lengthAdjust="spacing" textLength="106.6875" x="89.89" y="360.3855">PendingCustomer</text></g><g class="entity" data-qualified-name="Resolved" data-source-line="79" id="ent0028"><rect fill="#FFFFFF" height="50" style="stroke:#000000;stroke-width:0.75;" width="74.75" x="433.86" y="1028.1669"/><line style="stroke:#000000;stroke-width:0.75;" x1="433.86" x2="508.61" y1="1052.1356" y2="1052.1356"/><text fill="#000000" font-family="Helvetica" font-size="12" lengthAdjust="spacing" textLength="54.75" x="443.86" y="1044.3055">Resolved</text></g><g class="entity" data-qualified-name="Closed" data-source-line="83" id="ent0031"><rect fill="#FFFFFF" height="50" style="stroke:#000000;stroke-width:0.75;" width="60.3066" x="642.08" y="1129.1669"/><line style="stroke:#000000;stroke-width:0.75;" x1="642.08" x2="702.3866" y1="1153.1356" y2="1153.1356"/><text fill="#000000" font-family="Helvetica" font-size="12" lengthAdjust="spacing" textLength="40.3066" x="652.08" y="1145.3055">Closed</text></g><g class="end_entity" data-qualified-name=".end." data-source-line="86" id="ent0034"><ellipse cx="740.23" cy="1227.1669" fill="none" rx="11" ry="11" style="stroke:#000000;stroke-width:0.75;"/><ellipse cx="740.23" cy="1227.1669" fill="#FFFFFF" rx="6" ry="6" style="stroke:#000000;stroke-width:1;"/></g><g class="entity" data-qualified-name="GMN37" data-source-line="90" id="ent0038"><path d="M241.26,343.2969 L241.26,365.2469 L207.02,369.2469 L241.26,373.2469 L241.26,395.2031 A0,0 0 0 0 241.26,395.2031 L427.2073,395.2031 A0,0 0 0 0 427.2073,395.2031 L427.2073,353.2969 L417.2073,343.2969 L241.26,343.2969 A0,0 0 0 0 241.26,343.2969" fill="#FFFFFF" style="stroke:#000000;stroke-width:0.75;"/><path d="M417.2073,343.2969 L417.2073,353.2969 L427.2073,353.2969 L417.2073,343.2969" fill="#FFFFFF" style="stroke:#000000;stroke-width:0.75;"/><text fill="#000000" font-family="Helvetica" font-size="12" lengthAdjust="spacing" textLength="141.252" x="247.26" y="359.4355">System auto-resolves if</text><text fill="#000000" font-family="Helvetica" font-size="12" lengthAdjust="spacing" textLength="164.9473" x="247.26" y="373.4043">customer does not respond</text><text fill="#000000" font-family="Helvetica" font-size="12" lengthAdjust="spacing" textLength="93.0352" x="247.26" y="387.373">within 72 hours</text></g><!--link *start* to New--><g class="link" data-entity-1="ent0002" data-entity-2="ent0003" data-link-type="dependency" data-source-line="59" id="lnk4"><path d="M702.23,69.7369 C702.23,78.9869 702.23,88.4869 702.23,100.9769" fill="none" id="*start*-to-New" style="stroke:#000000;stroke-width:0.75;"/><polygon fill="#000000" points="702.23,105.9769,706.23,96.9769,702.23,100.9769,698.23,96.9769,702.23,105.9769" style="stroke:#000000;stroke-width:0.75;stroke-linejoin:miter;stroke-miterlimit:10;"/></g><!--link New to Assigned--><g class="link" data-entity-1="ent0003" data-entity-2="ent0005" data-link-type="dependency" data-source-line="61" id="lnk6"><path d="M676.82,143.4969 C663.53,150.5569 648.05,160.8869 638.23,174.2969 C631.31,183.7469 628.3929,191.1905 626.1629,201.9705" fill="none" id="New-to-Assigned" style="stroke:#000000;stroke-width:0.75;"/><polygon fill="#000000" points="625.15,206.8669,630.8902,198.8638,626.1629,201.9705,623.0561,197.2432,625.15,206.8669" style="stroke:#000000;stroke-width:0.75;stroke-linejoin:miter;stroke-miterlimit:10;"/><text fill="#000000" font-family="Helvetica" font-size="12" lengthAdjust="spacing" textLength="88.2656" x="639.23" y="186.4355">agent picks up</text></g><!--link New to Cancelled--><g class="link" data-entity-1="ent0003" data-entity-2="ent0007" data-link-type="dependency" data-source-line="62" id="lnk8"><path d="M721.15,156.4569 C725.11,162.1269 729.05,168.2669 732.23,174.2969 C749.85,207.6169 762.245,244.3872 769.975,270.1872" fill="none" id="New-to-Cancelled" style="stroke:#000000;stroke-width:0.75;"/><polygon fill="#000000" points="771.41,274.9769,772.6586,265.2075,769.975,270.1872,764.9952,267.5035,771.41,274.9769" style="stroke:#000000;stroke-width:0.75;stroke-linejoin:miter;stroke-miterlimit:10;"/><text fill="#000000" font-family="Helvetica" font-size="12" lengthAdjust="spacing" textLength="105.4453" x="740.14" y="186.4355">customer cancels</text></g><!--link Assigned to InProgress--><g class="link" data-entity-1="ent0005" data-entity-2="ent0001" data-link-type="dependency" data-source-line="64" id="lnk9"><path d="M621.93,257.7669 C620.92,295.1569 616.79,368.4769 600.23,428.1969 C598.61,434.0469 598.3638,435.139 596.5438,441.039" fill="none" id="Assigned-to-InProgress" style="stroke:#000000;stroke-width:0.75;"/><polygon fill="#000000" points="595.07,445.8169,601.5452,438.3958,596.5438,441.039,593.9006,436.0377,595.07,445.8169" style="stroke:#000000;stroke-width:0.75;stroke-linejoin:miter;stroke-miterlimit:10;"/><text fill="#000000" font-family="Helvetica" font-size="12" lengthAdjust="spacing" textLength="105.5332" x="616.61" y="373.8855">agent starts work</text></g><!--link Assigned to Reassigned--><g class="link" data-entity-1="ent0005" data-entity-2="ent0010" data-link-type="dependency" data-source-line="65" id="lnk11"><path d="M584.97,244.2669 C568.33,250.8569 549.71,260.8369 537.23,275.2969 C520.5,294.6769 513.8633,318.6002 510.5833,339.0102" fill="none" id="Assigned-to-Reassigned" style="stroke:#000000;stroke-width:0.75;"/><polygon fill="#000000" points="509.79,343.9469,515.1674,335.6956,510.5833,339.0102,507.2687,334.4262,509.79,343.9469" style="stroke:#000000;stroke-width:0.75;stroke-linejoin:miter;stroke-miterlimit:10;"/><text fill="#000000" font-family="Helvetica" font-size="12" lengthAdjust="spacing" textLength="57.9785" x="538.23" y="304.9355">escalated</text></g><!--link Reassigned to InProgress--><g class="link" data-entity-1="ent0010" data-entity-2="ent0001" data-link-type="dependency" data-source-line="66" id="lnk12"><path d="M498.2,394.5069 C496.27,400.5369 494.45,407.0369 493.23,413.1969 C491.13,423.8669 490.0027,429.8469 488.2727,440.9069" fill="none" id="Reassigned-to-InProgress" style="stroke:#000000;stroke-width:0.75;"/><polygon fill="#000000" points="487.5,445.8469,492.8428,437.5732,488.2727,440.9069,484.9389,436.3368,487.5,445.8469" style="stroke:#000000;stroke-width:0.75;stroke-linejoin:miter;stroke-miterlimit:10;"/><text fill="#000000" font-family="Helvetica" font-size="12" lengthAdjust="spacing" textLength="101.2969" x="494.23" y="425.3355">new agent starts</text></g><!--link InProgress to PendingCustomer--><g class="link" data-entity-1="ent0001" data-entity-2="ent0025" data-link-type="dependency" data-source-line="77" id="lnk26"><path d="M330.49,455.8869 C316.16,440.2269 300.74,425.7569 284.23,413.1969 C262.08,396.3369 250.87,403.2969 224.23,395.1969 C218.6,393.4869 217.5319,393.1576 211.6719,391.3676" fill="none" id="InProgress-to-PendingCustomer" style="stroke:#000000;stroke-width:0.75;"/><polygon fill="#000000" points="206.89,389.9069,214.3288,396.3616,211.6719,391.3676,216.6659,388.7106,206.89,389.9069" style="stroke:#000000;stroke-width:0.75;stroke-linejoin:miter;stroke-miterlimit:10;"/><text fill="#000000" font-family="Helvetica" font-size="12" lengthAdjust="spacing" textLength="131.2441" x="299.85" y="425.3355">needs customer input</text></g><!--link PendingCustomer to InProgress--><g class="link" data-entity-1="ent0025" data-entity-2="ent0001" data-link-type="dependency" data-source-line="78" id="lnk27"><path d="M144,394.6069 C145.69,406.4169 149.78,419.8169 159.23,428.1969 C199.59,463.9669 233.14,418.1969 279.23,446.1969 C297.66,457.3969 311.237,467.6306 327.147,482.8506" fill="none" id="PendingCustomer-to-InProgress" style="stroke:#000000;stroke-width:0.75;"/><polygon fill="#000000" points="330.76,486.3069,327.0216,477.1951,327.147,482.8506,321.4915,482.9759,330.76,486.3069" style="stroke:#000000;stroke-width:0.75;stroke-linejoin:miter;stroke-miterlimit:10;"/><text fill="#000000" font-family="Helvetica" font-size="12" lengthAdjust="spacing" textLength="115.3242" x="160.23" y="425.3355">customer responds</text></g><!--link PendingCustomer to Resolved--><g class="link" data-entity-1="ent0025" data-entity-2="ent0028" data-link-type="dependency" data-source-line="79" id="lnk29"><path d="M134.12,394.5769 C102.34,483.9769 6,798.3769 150.23,977.1669 C185.63,1021.0369 351.662,1041.3384 428.602,1048.5784" fill="none" id="PendingCustomer-to-Resolved" style="stroke:#000000;stroke-width:0.75;"/><polygon fill="#000000" points="433.58,1049.0469,424.9943,1044.2213,428.602,1048.5784,424.2448,1052.1861,433.58,1049.0469" style="stroke:#000000;stroke-width:0.75;stroke-linejoin:miter;stroke-miterlimit:10;"/><text fill="#000000" font-family="Helvetica" font-size="12" lengthAdjust="spacing" textLength="161.6953" x="151.23" y="716.3255">auto-resolve timeout (72h)</text></g><!--link InProgress to Resolved--><g class="link" data-entity-1="ent0001" data-entity-2="ent0028" data-link-type="dependency" data-source-line="81" id="lnk30"><path d="M412.32,977.4269 C411.56,983.3869 410.86,989.3069 410.23,995.1669 C409.53,1001.7969 407.13,1004.2669 410.23,1010.1669 C415.44,1020.0669 420.0161,1025.2742 429.2461,1031.5542" fill="none" id="InProgress-to-Resolved" style="stroke:#000000;stroke-width:0.75;"/><polygon fill="#000000" points="433.38,1034.3669,428.1891,1025.997,429.2461,1031.5542,423.6889,1032.6112,433.38,1034.3669" style="stroke:#000000;stroke-width:0.75;stroke-linejoin:miter;stroke-miterlimit:10;"/><text fill="#000000" font-family="Helvetica" font-size="12" lengthAdjust="spacing" textLength="73.8691" x="411.23" y="1007.3055">fix deployed</text></g><!--link Resolved to InProgress--><g class="link" data-entity-1="ent0028" data-entity-2="ent0001" data-link-type="dependency" data-source-line="84" id="lnk33"><path d="M483.62,1027.8369 C485.94,1022.1769 488.02,1016.0769 489.23,1010.1669 C490.57,1003.6369 489.45,1001.8269 489.23,995.1669 C489.05,989.2769 489.0312,988.3032 488.8012,982.2932" fill="none" id="Resolved-to-InProgress" style="stroke:#000000;stroke-width:0.75;"/><polygon fill="#000000" points="488.61,977.2969,484.9571,986.4433,488.8012,982.2932,492.9512,986.1373,488.61,977.2969" style="stroke:#000000;stroke-width:0.75;stroke-linejoin:miter;stroke-miterlimit:10;"/><text fill="#000000" font-family="Helvetica" font-size="12" lengthAdjust="spacing" textLength="166.5293" x="490.88" y="1007.3055">customer disputes (reopen)</text></g><!--link Resolved to Closed--><g class="link" data-entity-1="ent0028" data-entity-2="ent0031" data-link-type="dependency" data-source-line="83" id="lnk32"><path d="M509.04,1072.7869 C547.48,1091.7169 601.8046,1118.4776 637.3346,1135.9776" fill="none" id="Resolved-to-Closed" style="stroke:#000000;stroke-width:0.75;"/><polygon fill="#000000" points="641.82,1138.1869,635.5136,1130.6218,637.3346,1135.9776,631.9788,1137.7985,641.82,1138.1869" style="stroke:#000000;stroke-width:0.75;stroke-linejoin:miter;stroke-miterlimit:10;"/><text fill="#000000" font-family="Helvetica" font-size="12" lengthAdjust="spacing" textLength="112.3008" x="584.77" y="1108.3055">customer confirms</text></g><!--link Cancelled to *end*--><g class="link" data-entity-1="ent0007" data-entity-2="ent0034" data-link-type="dependency" data-source-line="86" id="lnk35"><path d="M779.54,325.7769 C780.71,349.7169 782.23,387.1969 782.23,419.6969 C782.23,419.6969 782.23,419.6969 782.23,1155.1669 C782.23,1181.8069 763.6278,1203.7139 751.5078,1215.6139" fill="none" id="Cancelled-to-*end*" style="stroke:#000000;stroke-width:0.75;"/><polygon fill="#000000" points="747.94,1219.1169,757.1644,1215.6657,751.5078,1215.6139,751.5596,1209.9573,747.94,1219.1169" style="stroke:#000000;stroke-width:0.75;stroke-linejoin:miter;stroke-miterlimit:10;"/></g><!--link Closed to *end*--><g class="link" data-entity-1="ent0031" data-entity-2="ent0034" data-link-type="dependency" data-source-line="87" id="lnk36"><path d="M695.63,1179.5969 C708.7,1193.2369 720.6214,1205.686 729.4814,1214.936" fill="none" id="Closed-to-*end*" style="stroke:#000000;stroke-width:0.75;"/><polygon fill="#000000" points="732.94,1218.5469,729.6032,1209.2805,729.4814,1214.936,723.8259,1214.8142,732.94,1218.5469" style="stroke:#000000;stroke-width:0.75;stroke-linejoin:miter;stroke-miterlimit:10;"/></g><?plantuml-src bLLVRzCm47_tfpZ40njIHrUOYhPf4XGD9i4qjPDuG3nuyIMrcjZ6Tlg7QH8VWa_89-7i96tIR1BaeUsTV_Uxkv-lbsV6ygpWm9t1n4-vb_fIhb6mS-StELumgxM7UmPWk11IPV2MVgyiDr-by7COZORiWV74owNqcm-IPvON4T_uu7uN2Wy4TlYZH9LW6souzJAHXYk_XmUuq-iUHv9pvze4qT66dS4NgMHH5bMTnyDXbTnptyaS7Jt-yrTr-suX5HL7u6ijS8O6Nf-qd5Ek5hNp1PH5FX0LjJlIDWEBAThGAaGs-FFhDqncCrXoAqEd1oQdBmexIdG1jUBWDihpzM7_1YwryjUyGFY4-H99BruxP_8dml6ejYOwrnQU3-D3llSyMNoqkbIYFhcC3vrybWhtqS5tEvV9GY49EZmQdv1pMaLRXHO2Q3RdGg-2NE7scPUUkhllLFEciMBdTpeN_rYUjrmvKXULxvJOzxVA35KexQiY_g_XVat4zUIOFC5zrgS-wpF7SURMwXKnzGAwWrUBEYkDqTR3BRMAde9IJ3P9ZenzU_aT1eCBkCOLO_GHZNVEoKoXW5FW6Ia5Xk8Sb6QBc72QnpoFaAHqNXTqfqbqEiQsyG5wfMwipcmGkA4Z6QntiD9sqSLEaUzIeqjuJde9rdBt61LLr6QjLM-3Wl80JQTNQedEouoMbChYISTJrs6i5cKIx5EGWkXbAYczysXS36f3GWZjkmeT_sW9Bnr26cuueklJ0BmDkI8obMlWnkH4747DIQzAmdgo8EKoVmGREgiHXeGY1CrUg_-0kK4L5jEakQiW70gtkppQHQLd-x2Ut5iysKOhuHuDcQBJj5pY09LU3snbWvS5wf9MrdWqF-pLs8eAqWWqkTvGDsnx44SlrsvlxhHAfIrS5_TusK8wwXCT75ZK1XLLiPlbManMfsZCQYTOcSqzw7HVoh38DZGNHQTL1p8DBvHjNaqkucbq2wy_wUTImNW4SrrQnuWs8F0l?></g></svg>